<?xml version="1.0" encoding="UTF-8" standalone="no"?>
<!DOCTYPE svg PUBLIC "-//W3C//DTD SVG 1.1//EN" "http://www.w3.org/Graphics/SVG/1.1/DTD/svg11.dtd">
<svg width="100%" height="100%" viewBox="0 0 400 400" version="1.1" xmlns="http://www.w3.org/2000/svg" xmlns:xlink="http://www.w3.org/1999/xlink" xml:space="preserve" xmlns:serif="http://www.serif.com/" style="fill-rule:evenodd;clip-rule:evenodd;stroke-linejoin:round;stroke-miterlimit:2;">
    <g transform="matrix(9.8401,0,0,9.8401,202.952,196.802)">
        <path d="M1.05,-12.6L4.15,-12.6L4.15,-10.35L7.5,-3.8L13.4,-3.8L13.4,1.45L12.55,2.6L12.55,10.95L-0.4,20.65L-13.15,11.2L-13.15,2.85L-14,1.65L-14,-3.55L-8.25,-3.55L-8.25,-7.6L-10.4,-9.35L-6.1,-17.7L-6.1,-20L-1.55,-20L-1.55,-17.7L1.05,-12.6M1.6,-10.6L1.6,-9.85L-1.4,-3.9L-1.4,-8.6L0.2,-9.9L-3.55,-17.25L-3.55,-18L-4.1,-18L-4.1,-17.25L-7.85,-9.9L-6.25,-8.6L-6.25,6.35L-6.95,6.35L-6.9,-1.55L-7.95,-1.55L-7.95,-0.2L-8.95,-0.2L-8.95,-1.55L-10,-1.55L-10,-0.2L-10.95,-0.2L-10.95,-1.55L-12,-1.55L-12,1.05L-11.15,2.25L-11.15,10.2L-0.4,18.15L10.55,9.95L10.55,2L11.4,0.8L11.4,-1.8L10.35,-1.8L10.35,-0.45L9.35,-0.45L9.35,-1.8L8.3,-1.8L8.3,-0.45L7.35,-0.45L7.35,-1.8L6.3,-1.8L6.3,3.6L5.55,3.6L5.55,-3.25L2.15,-9.85L2.15,-10.6L1.6,-10.6M3.8,-0.8L2.35,-0.8L2.35,-4.15L3.8,-4.15L3.8,-0.8M1.25,-0.8L-0.2,-0.8L-0.2,-4.15L1.25,-4.15L1.25,-0.8M-2.3,-12.5L-2.3,-9.2L-3.75,-9.2L-3.75,-12.5L-2.3,-12.5M-0.3,6.75C0.433,6.783 1.05,7.067 1.55,7.6C2.083,8.133 2.35,8.767 2.35,9.5L2.35,14.45L-2.95,14.45L-2.95,9.5C-2.95,8.767 -2.683,8.133 -2.15,7.6C-1.65,7.067 -1.033,6.783 -0.3,6.75"/>
    </g>
    <g transform="matrix(9.8401,0,0,9.8401,202.952,196.802)">
        <path d="M-0.3,6.75C-1.033,6.783 -1.65,7.067 -2.15,7.6C-2.683,8.133 -2.95,8.767 -2.95,9.5L-2.95,14.45L2.35,14.45L2.35,9.5C2.35,8.767 2.083,8.133 1.55,7.6C1.05,7.067 0.433,6.783 -0.3,6.75M-2.3,-12.5L-3.75,-12.5L-3.75,-9.2L-2.3,-9.2L-2.3,-12.5M1.25,-0.8L1.25,-4.15L-0.2,-4.15L-0.2,-0.8L1.25,-0.8M3.8,-0.8L3.8,-4.15L2.35,-4.15L2.35,-0.8L3.8,-0.8M1.6,-10.6L2.15,-10.6L2.15,-9.85L5.55,-3.25L5.55,3.6L6.3,3.6L6.3,-1.8L7.35,-1.8L7.35,-0.45L8.3,-0.45L8.3,-1.8L9.35,-1.8L9.35,-0.45L10.35,-0.45L10.35,-1.8L11.4,-1.8L11.4,0.8L10.55,2L10.55,9.95L-0.4,18.15L-11.15,10.2L-11.15,2.25L-12,1.05L-12,-1.55L-10.95,-1.55L-10.95,-0.2L-10,-0.2L-10,-1.55L-8.95,-1.55L-8.95,-0.2L-7.95,-0.2L-7.95,-1.55L-6.9,-1.55L-6.95,6.35L-6.25,6.35L-6.25,-8.6L-7.85,-9.9L-4.1,-17.25L-4.1,-18L-3.55,-18L-3.55,-17.25L0.2,-9.9L-1.4,-8.6L-1.4,-3.9L1.6,-9.85L1.6,-10.6" style="fill:rgb(188,190,192);"/>
    </g>
</svg>
