<?xml version="1.0" encoding="UTF-8" standalone="no"?>
<!DOCTYPE svg PUBLIC "-//W3C//DTD SVG 1.1//EN" "http://www.w3.org/Graphics/SVG/1.1/DTD/svg11.dtd">
<svg width="100%" height="100%" viewBox="0 0 400 400" version="1.1" xmlns="http://www.w3.org/2000/svg" xmlns:xlink="http://www.w3.org/1999/xlink" xml:space="preserve" xmlns:serif="http://www.serif.com/" style="fill-rule:evenodd;clip-rule:evenodd;stroke-linejoin:round;stroke-miterlimit:2;">
    <g transform="matrix(10.0125,0,0,10.0125,239.549,200.25)">
        <path d="M1.2,-17.45L8.55,-5.5L4.95,-3.1L4.95,-1.1L12.1,3.65L8.45,6.05L8.45,16.8L-2.3,19.95L-10.95,17.8L-17.3,17.55L-17.3,10.65L-20,8.1L-20,2.8L-8.25,-3.6L-11.2,-5.5L-3.8,-17.45L-3.8,-20L1.2,-20L1.2,-17.45M1.15,-5.8L-0.65,-5.8L-0.65,-9.2L1.15,-9.2L1.15,-5.8M6.05,-6.05L-0.65,-16.85L-0.65,-17.95L-1.6,-17.95L-1.6,-16.85L-8.25,-6.05L-5.35,-4.15L-5.35,-2.75L-17.8,4.05L-17.8,7.25L-15.1,9.85L-15.1,15.65L-13.05,15.7L-13,8.1L-8.9,6.05L-8.8,16.25L-2.15,17.9L6.65,15.35L6.65,5.05L8.7,3.7L3.15,0.05L3.15,-4.15L6.05,-6.05M-3.75,-9.2L-1.95,-9.2L-1.95,-5.8L-3.75,-5.8L-3.75,-9.2M-2,7.85L-2,12.7L-5.45,12.7L-5.45,7.85L-2,7.85"/>
    </g>
    <g transform="matrix(10.0125,0,0,10.0125,239.549,200.25)">
        <path d="M-2,7.85L-5.45,7.85L-5.45,12.7L-2,12.7L-2,7.85M-3.75,-9.2L-3.75,-5.8L-1.95,-5.8L-1.95,-9.2L-3.75,-9.2M6.05,-6.05L3.15,-4.15L3.15,0.05L8.7,3.7L6.65,5.05L6.65,15.35L-2.15,17.9L-8.8,16.25L-8.9,6.05L-13,8.1L-13.05,15.7L-15.1,15.65L-15.1,9.85L-17.8,7.25L-17.8,4.05L-5.35,-2.75L-5.35,-4.15L-8.25,-6.05L-1.6,-16.85L-1.6,-17.95L-0.65,-17.95L-0.65,-16.85L6.05,-6.05M1.15,-5.8L1.15,-9.2L-0.65,-9.2L-0.65,-5.8L1.15,-5.8" style="fill:rgb(188,190,192);"/>
    </g>
</svg>
