<?xml version="1.0" encoding="UTF-8" standalone="no"?>
<!DOCTYPE svg PUBLIC "-//W3C//DTD SVG 1.1//EN" "http://www.w3.org/Graphics/SVG/1.1/DTD/svg11.dtd">
<svg width="100%" height="100%" viewBox="0 0 400 400" version="1.1" xmlns="http://www.w3.org/2000/svg" xmlns:xlink="http://www.w3.org/1999/xlink" xml:space="preserve" xmlns:serif="http://www.serif.com/" style="fill-rule:evenodd;clip-rule:evenodd;stroke-linejoin:round;stroke-miterlimit:2;">
    <g transform="matrix(11.6853,0,0,11.4408,200.292,189.649)">
        <path d="M-8.704,10.632C-9.129,10.265 -9.543,9.869 -9.944,9.444C-12.752,6.468 -14.108,2.896 -14.011,-1.27C-14.043,-2.395 -13.946,-3.519 -13.72,-4.643C-13.474,-5.835 -13.118,-6.951 -12.65,-7.989L-12.65,-13.278L-8.542,-13.278C-8.158,-13.588 -7.754,-13.885 -7.329,-14.167C-4.845,-15.816 -2.161,-16.577 0.635,-16.577C2.267,-16.577 3.876,-16.252 3.995,-16.214C6.088,-15.552 6.673,-14.605 6.576,-13.278L12.6,-13.278L12.6,-6.238C13.468,-4.733 13.914,-3.035 13.937,-1.145C13.937,-0.819 13.919,-0.474 13.884,-0.112C13.625,1.979 12.854,3.789 11.573,5.32C9.304,11.778 3.762,16.466 -0.012,18.386C-2.389,17.212 -5.963,14.446 -8.704,10.632ZM-7.762,9.479C-5.281,13.013 -2.021,15.584 -0.014,16.719C2.953,14.928 8.154,10.645 10.235,4.728C11.468,3.344 12.205,1.687 12.444,-0.242C12.475,-0.559 12.49,-0.86 12.49,-1.146C12.469,-2.931 12.016,-4.52 11.134,-5.913L11.134,-11.695L4.639,-11.695C5.45,-13.271 5.298,-14.489 3.587,-14.858C-0.026,-15.638 -3.374,-15.008 -6.457,-12.969C-7.052,-12.574 -7.603,-12.149 -8.112,-11.695L-11.184,-11.695L-11.184,-7.612C-11.666,-6.6 -12.029,-5.506 -12.272,-4.33C-12.478,-3.31 -12.566,-2.29 -12.537,-1.27C-12.625,2.509 -11.391,5.749 -8.836,8.448C-8.488,8.816 -8.13,9.159 -7.762,9.479ZM-5.489,-1.271C-5.489,-0.438 -5.436,0.382 -5.331,1.188C-5.199,1.967 -5.028,2.733 -4.818,3.485C-4.581,4.211 -4.305,4.896 -3.989,5.541C-3.647,6.186 -3.279,6.791 -2.884,7.355C-2.463,7.919 -2.016,8.416 -1.543,8.846C-1.069,9.303 -0.569,9.679 -0.043,9.975C0.509,10.297 1.075,10.539 1.654,10.7C2.259,10.861 2.864,10.942 3.469,10.942L3.508,10.942C2.614,11.13 1.706,11.211 0.786,11.184C-2.503,11.13 -5.305,9.881 -7.62,7.435C-9.909,5.017 -11.013,2.115 -10.935,-1.271C-10.961,-2.184 -10.882,-3.098 -10.698,-4.011C-10.014,-7.316 -8.277,-9.896 -5.489,-11.75C-2.726,-13.577 0.273,-14.141 3.508,-13.443L3.39,-13.443C2.785,-13.443 2.193,-13.362 1.614,-13.201C1.036,-13.04 0.47,-12.798 -0.083,-12.475C-0.609,-12.18 -1.109,-11.804 -1.582,-11.347C-2.056,-10.917 -2.49,-10.42 -2.884,-9.855C-3.305,-9.318 -3.674,-8.727 -3.989,-8.082C-4.305,-7.41 -4.581,-6.712 -4.818,-5.986C-5.028,-5.261 -5.199,-4.508 -5.331,-3.729C-5.436,-2.923 -5.489,-2.103 -5.489,-1.271ZM3.232,-8.767C5.311,-8.794 7.1,-8.069 8.599,-6.591C10.099,-5.113 10.862,-3.299 10.888,-1.15C10.888,-0.908 10.875,-0.652 10.848,-0.384C10.585,1.739 9.612,3.472 7.928,4.816C6.271,6.132 4.39,6.656 2.285,6.387C2.653,6.334 3.009,6.24 3.351,6.105C3.693,5.971 4.021,5.796 4.337,5.581C4.653,5.366 4.955,5.111 5.245,4.816C5.534,4.547 5.797,4.238 6.034,3.889C6.271,3.566 6.481,3.203 6.665,2.8C6.85,2.424 7.007,2.021 7.139,1.591C7.271,1.161 7.363,0.718 7.415,0.261C7.494,-0.196 7.534,-0.666 7.534,-1.15C7.534,-1.633 7.507,-2.117 7.455,-2.601C7.376,-3.057 7.271,-3.501 7.139,-3.931C7.007,-4.361 6.85,-4.764 6.665,-5.14C6.481,-5.516 6.271,-5.879 6.034,-6.228C5.797,-6.577 5.547,-6.886 5.284,-7.155C4.995,-7.424 4.692,-7.666 4.377,-7.881C4.061,-8.096 3.732,-8.284 3.39,-8.445C3.022,-8.579 2.653,-8.673 2.285,-8.727C2.601,-8.754 2.917,-8.767 3.232,-8.767Z"/>
    </g>
    <g transform="matrix(10.328,0,0,10.328,200.258,191.041)">
        <path d="M-8.779,10.365C-9.195,10.012 -9.6,9.631 -9.994,9.224C-12.885,6.233 -14.28,2.645 -14.181,-1.542C-14.214,-2.672 -14.114,-3.802 -13.882,-4.931C-13.606,-6.234 -13.196,-7.446 -12.65,-8.567L-12.65,-13.09L-9.174,-13.09C-8.599,-13.593 -7.975,-14.063 -7.303,-14.501C-3.814,-16.76 -0.026,-17.458 4.061,-16.594C5.998,-16.185 6.169,-14.836 5.252,-13.09L12.6,-13.09L12.6,-6.685C13.599,-5.142 14.11,-3.382 14.135,-1.404C14.135,-1.088 14.118,-0.754 14.082,-0.403C13.812,1.734 12.979,3.57 11.584,5.103C9.229,11.657 3.344,16.401 -0.012,18.386C-2.283,17.128 -5.972,14.28 -8.779,10.365ZM-6.207,-1.542C-6.207,-2.465 -6.147,-3.373 -6.028,-4.266C-5.879,-5.129 -5.686,-5.962 -5.448,-6.766C-5.18,-7.57 -4.867,-8.344 -4.51,-9.088C-4.153,-9.802 -3.736,-10.457 -3.26,-11.052C-2.814,-11.677 -2.322,-12.228 -1.787,-12.704C-1.251,-13.21 -0.685,-13.627 -0.09,-13.954C0.535,-14.312 1.175,-14.579 1.83,-14.758C2.485,-14.937 3.154,-15.026 3.839,-15.026L3.973,-15.026C0.312,-15.8 -3.081,-15.175 -6.207,-13.151C-9.362,-11.097 -11.326,-8.239 -12.1,-4.578C-12.309,-3.566 -12.398,-2.554 -12.368,-1.542C-12.458,2.208 -11.207,5.423 -8.618,8.102C-5.998,10.81 -2.828,12.194 0.892,12.254C1.934,12.284 2.961,12.194 3.973,11.986L3.928,11.986C3.244,11.986 2.559,11.897 1.874,11.718C1.22,11.54 0.58,11.272 -0.045,10.914C-0.641,10.587 -1.206,10.17 -1.742,9.664C-2.278,9.188 -2.784,8.637 -3.26,8.012C-3.707,7.387 -4.123,6.718 -4.51,6.003C-4.867,5.289 -5.18,4.53 -5.448,3.726C-5.686,2.893 -5.879,2.044 -6.028,1.181C-6.147,0.288 -6.207,-0.62 -6.207,-1.542ZM3.66,-9.847C3.303,-9.847 2.946,-9.832 2.589,-9.802C3.005,-9.743 3.422,-9.638 3.839,-9.49C4.226,-9.311 4.598,-9.103 4.955,-8.864C5.312,-8.626 5.655,-8.358 5.982,-8.061C6.28,-7.763 6.562,-7.421 6.83,-7.034C7.098,-6.647 7.336,-6.245 7.545,-5.828C7.753,-5.412 7.932,-4.965 8.08,-4.489C8.229,-4.013 8.348,-3.522 8.438,-3.016C8.497,-2.48 8.527,-1.944 8.527,-1.408C8.527,-0.873 8.482,-0.352 8.393,0.154C8.333,0.66 8.229,1.151 8.08,1.628C7.932,2.104 7.753,2.55 7.545,2.967C7.336,3.414 7.098,3.815 6.83,4.173C6.562,4.56 6.265,4.902 5.937,5.2C5.61,5.527 5.268,5.81 4.91,6.048C4.553,6.286 4.181,6.479 3.794,6.628C3.407,6.777 3.005,6.881 2.589,6.941C4.97,7.238 7.098,6.658 8.973,5.2C10.878,3.711 11.98,1.791 12.277,-0.56C12.307,-0.858 12.322,-1.14 12.322,-1.408C12.292,-3.79 11.429,-5.799 9.732,-7.436C8.036,-9.073 6.012,-9.877 3.66,-9.847Z" style="fill:rgb(188,190,192);"/>
    </g>
</svg>
