<?xml version="1.0" encoding="UTF-8" standalone="no"?>
<!DOCTYPE svg PUBLIC "-//W3C//DTD SVG 1.1//EN" "http://www.w3.org/Graphics/SVG/1.1/DTD/svg11.dtd">
<svg width="100%" height="100%" viewBox="0 0 400 400" version="1.1" xmlns="http://www.w3.org/2000/svg" xmlns:xlink="http://www.w3.org/1999/xlink" xml:space="preserve" xmlns:serif="http://www.serif.com/" style="fill-rule:evenodd;clip-rule:evenodd;stroke-linejoin:round;stroke-miterlimit:2;">
    <g transform="matrix(9.76801,0,0,9.76801,197.558,205.128)">
        <path d="M4.95,-19.9L9.85,-14.15L10,-11.65L9.35,-6.05L9.35,-3.95L8.75,-2L8.5,-0.6L8.55,3.25L7.65,8.65L7.7,10.4L7.1,14.25L7,16.65L4.7,19.75L1.6,19.7L-0.4,19.95L-2.5,19.85L-5.35,17.4L-7.3,14.2L-7.9,12.7L-8.1,8.65L-8.55,6.8L-8.55,2.9L-8.9,0.95L-8.75,-1.15L-9.5,-8.5L-9.45,-11.5L-6.75,-14.85L-5.75,-15.5L-5.15,-16.7L-3.7,-18.25L-0.4,-21L4.95,-19.9M0.3,-18.4L-2,-16.45L-3.05,-15.3L-3.85,-13.85L-4.95,-13.1L-7,-10.6L-7,-8.7L-6.25,-1.2L-6.4,0.75L-6.05,2.6L-6.05,6.45L-5.6,8.25L-5.4,12.05L-4.95,13.2L-3.45,15.65L-1.5,17.35L-0.45,17.4L1.45,17.15L3.45,17.15L4.5,15.7L4.6,13.85L5.2,10.2L5.15,8.35L6.05,2.9L6,-0.85L6.3,-2.65L6.85,-4.4L6.85,-6.3L7.5,-11.8L7.4,-13.25L3.65,-17.7L0.3,-18.4M0.45,-10.75L3.9,-5.8L3.9,-5.4C1.9,-2.3 0.7,-0.6 0.3,-0.3C0.033,-0.3 -1.2,-1.95 -3.4,-5.25L-3.4,-5.8C-1.233,-9.1 -0.033,-10.75 0.2,-10.75L0.45,-10.75"/>
    </g>
    <g transform="matrix(9.76801,0,0,9.76801,197.558,205.128)">
        <path d="M0.45,-10.75L0.2,-10.75C-0.033,-10.75 -1.233,-9.1 -3.4,-5.8L-3.4,-5.25C-1.2,-1.95 0.033,-0.3 0.3,-0.3C0.7,-0.6 1.9,-2.3 3.9,-5.4L3.9,-5.8L0.45,-10.75M0.3,-18.4L3.65,-17.7L7.4,-13.25L7.5,-11.8L6.85,-6.3L6.85,-4.4L6.3,-2.65L6,-0.85L6.05,2.9L5.15,8.35L5.2,10.2L4.6,13.85L4.5,15.7L3.45,17.15L1.45,17.15L-0.45,17.4L-1.5,17.35L-3.45,15.65L-4.95,13.2L-5.4,12.05L-5.6,8.25L-6.05,6.45L-6.05,2.6L-6.4,0.75L-6.25,-1.2L-7,-8.7L-7,-10.6L-4.95,-13.1L-3.85,-13.85L-3.05,-15.3L-2,-16.45L0.3,-18.4" style="fill:rgb(188,190,192);"/>
    </g>
</svg>
