<?xml version="1.0" encoding="UTF-8" standalone="no"?>
<!DOCTYPE svg PUBLIC "-//W3C//DTD SVG 1.1//EN" "http://www.w3.org/Graphics/SVG/1.1/DTD/svg11.dtd">
<svg width="100%" height="100%" viewBox="0 0 400 400" version="1.1" xmlns="http://www.w3.org/2000/svg" xmlns:xlink="http://www.w3.org/1999/xlink" xml:space="preserve" xmlns:serif="http://www.serif.com/" style="fill-rule:evenodd;clip-rule:evenodd;stroke-linejoin:round;stroke-miterlimit:2;">
    <g transform="matrix(9.51135,0,0,9.51135,199.65,208.085)">
        <path d="M14.15,-15.6L14.8,-15.55L16.8,-15.8L17.4,-16.35L17.8,-15.8L17.35,-15.25C17.183,-14.683 17.25,-13.817 17.55,-12.65C17.85,-11.783 17.9,-11.217 17.7,-10.95L16.85,-9.9L16.95,-10.75L16.75,-12L15.55,-9.65C15.917,-8.683 16,-8.05 15.8,-7.75L15,-6.5L15,-7.45L14.8,-8.45L14.65,-8.8L13.75,-6.45C14.283,-5.45 14.45,-4.783 14.25,-4.45L13.5,-3L13.45,-4L12.85,-5.5L12.3,-3.15C12.933,-2.117 13.183,-1.417 13.05,-1.05L12.6,1.2L18.65,-1.4C19.017,-1.233 19.267,-0.867 19.4,-0.3C18.467,0.367 17.533,1.183 16.6,2.15L14.8,4.25C14.033,5.317 13.617,6.317 13.55,7.25L12.8,8.1L12.85,7.4L12.7,6.2L12.05,5L11.95,4.9L10.05,7.6L10.3,7.85L14,12.65C14.3,13.05 13.8,13.567 12.5,14.2C11.167,14.867 10.317,14.933 9.95,14.4L5.65,9C3.817,7.167 1.833,6.15 -0.3,5.95C-2.633,5.717 -4.85,6.2 -6.95,7.4C-8.917,8.533 -10.483,10.15 -11.65,12.25C-12.017,12.917 -12.9,13.417 -14.3,13.75L-15.25,13.75C-15.617,13.617 -15.683,13.367 -15.45,13C-14.317,10.9 -12.633,9.05 -10.4,7.45L-11.9,5.35L-12,5.4L-12.65,6.65L-12.8,7.8L-12.75,8.5L-13.5,7.65C-13.633,6.183 -14.65,4.483 -16.55,2.55L-19.35,0.1C-19.217,-0.467 -18.967,-0.833 -18.6,-1L-12.55,1.65L-13,-0.6C-13.133,-1 -12.883,-1.717 -12.25,-2.75L-12.8,-5.05L-13.4,-3.6L-13.45,-2.6L-14.2,-4C-14.367,-4.4 -14.2,-5.083 -13.7,-6.05L-14.6,-8.4L-14.95,-7L-14.95,-6.1L-15.75,-7.35C-15.95,-7.617 -15.867,-8.233 -15.5,-9.2L-16.7,-11.6L-16.9,-10.3L-16.8,-9.5L-17.65,-10.55C-17.85,-10.783 -17.8,-11.35 -17.5,-12.25C-17.2,-13.383 -17.133,-14.25 -17.3,-14.85L-17.75,-15.35L-17.35,-15.95L-16.75,-15.35L-14.1,-15.2C-13.167,-15.267 -12.567,-15.15 -12.3,-14.85L-11.35,-13.65L-12.2,-14L-13.5,-14.15L-11.4,-12.15C-10.3,-12.15 -9.633,-11.967 -9.4,-11.6L-8.45,-10.15L-9.35,-10.65L-10.85,-10.95L-8.9,-8.9C-7.7,-8.767 -7,-8.5 -6.8,-8.1L-5.9,-6.4L-6.8,-7.05L-8.45,-7.5L-6.75,-5.45C-5.45,-5.217 -4.683,-4.85 -4.45,-4.35L-3.65,-2.35L-4.6,-3.15C-5.067,-3.483 -5.633,-3.717 -6.3,-3.85L-4.85,-1.75C-3.517,-1.417 -2.733,-0.933 -2.5,-0.3L-1.8,1.95L-2.75,0.95C-3.35,0.45 -3.95,0.133 -4.55,0L-6.7,-0.05L-6.9,0L-5.1,4.75C-3.433,4.183 -1.65,3.817 0.25,3.65C1.95,3.517 3.6,3.7 5.2,4.2C5.8,2.367 6.383,0.833 6.95,-0.4L6.75,-0.45L4.6,-0.4C3.933,-0.233 3.333,0.083 2.8,0.55L1.85,1.55L2.55,-0.75C2.75,-1.317 3.533,-1.8 4.9,-2.2L6.35,-4.3C5.783,-4.2 5.217,-3.967 4.65,-3.6L3.7,-2.75L4.55,-4.75C4.75,-5.25 5.5,-5.617 6.8,-5.85L8.5,-7.95C7.9,-7.883 7.35,-7.717 6.85,-7.45L5.95,-6.8L6.85,-8.5C7.05,-8.933 7.75,-9.217 8.95,-9.35L10.9,-11.35L9.4,-11.1L8.5,-10.55L9.45,-12.05C9.717,-12.417 10.383,-12.6 11.45,-12.6L13.55,-14.55L12.25,-14.45L11.4,-14.05L12.35,-15.25C12.583,-15.55 13.183,-15.667 14.15,-15.6M-8.5,4.1L-9.85,4C-10.25,4.033 -10.667,4.217 -11.1,4.55L-11.2,4.65L-9.2,6.65L-7.3,5.65L-7.5,4.5C-7.8,2.8 -8.083,1.483 -8.35,0.55L-8.55,0.6L-10,1.9L-11.05,3.1L-10.5,3L-8.7,3.25L-8.35,3.85C-8.317,4.083 -8.367,4.167 -8.5,4.1M11.25,4.2L11.15,4.1L9.9,3.6L8.55,3.7C8.417,3.733 8.383,3.65 8.45,3.45L8.75,2.85C9.017,2.583 9.617,2.5 10.55,2.6L11.1,2.7L9.75,1.1L8.6,0.2L8.4,0.15C8.133,1.083 7.85,2.4 7.55,4.1L7.35,5.25L9.25,6.25L11.25,4.2" style="fill:rgb(188,190,192);"/>
    </g>
    <g transform="matrix(9.51135,0,0,9.51135,199.65,208.085)">
        <path d="M14.15,-15.6C13.183,-15.667 12.583,-15.55 12.35,-15.25L11.4,-14.05L12.25,-14.45L13.55,-14.55L11.45,-12.6C10.383,-12.6 9.717,-12.417 9.45,-12.05L8.5,-10.55L9.4,-11.1L10.9,-11.35L8.95,-9.35C7.75,-9.217 7.05,-8.933 6.85,-8.5L5.95,-6.8L6.85,-7.45C7.35,-7.717 7.9,-7.883 8.5,-7.95L6.8,-5.85C5.5,-5.617 4.75,-5.25 4.55,-4.75L3.7,-2.75L4.65,-3.6C5.217,-3.967 5.783,-4.2 6.35,-4.3L4.9,-2.2C3.533,-1.8 2.75,-1.317 2.55,-0.75L1.85,1.55L2.8,0.55C3.333,0.083 3.933,-0.233 4.6,-0.4L6.75,-0.45L6.95,-0.4C6.383,0.833 5.8,2.367 5.2,4.2C3.6,3.7 1.95,3.517 0.25,3.65C-1.65,3.817 -3.433,4.183 -5.1,4.75L-6.9,0L-6.7,-0.05L-4.55,0C-3.95,0.133 -3.35,0.45 -2.75,0.95L-1.8,1.95L-2.5,-0.3C-2.733,-0.933 -3.517,-1.417 -4.85,-1.75L-6.3,-3.85C-5.633,-3.717 -5.067,-3.483 -4.6,-3.15L-3.65,-2.35L-4.45,-4.35C-4.683,-4.85 -5.45,-5.217 -6.75,-5.45L-8.45,-7.5L-6.8,-7.05L-5.9,-6.4L-6.8,-8.1C-7,-8.5 -7.7,-8.767 -8.9,-8.9L-10.85,-10.95L-9.35,-10.65L-8.45,-10.15L-9.4,-11.6C-9.633,-11.967 -10.3,-12.15 -11.4,-12.15L-13.5,-14.15L-12.2,-14L-11.35,-13.65L-12.3,-14.85C-12.567,-15.15 -13.167,-15.267 -14.1,-15.2L-16.75,-15.35L-17.35,-15.95L-17.75,-15.35L-17.3,-14.85C-17.133,-14.25 -17.2,-13.383 -17.5,-12.25C-17.8,-11.35 -17.85,-10.783 -17.65,-10.55L-16.8,-9.5L-16.9,-10.3L-16.7,-11.6L-15.5,-9.2C-15.867,-8.233 -15.95,-7.617 -15.75,-7.35L-14.95,-6.1L-14.95,-7L-14.6,-8.4L-13.7,-6.05C-14.2,-5.083 -14.367,-4.4 -14.2,-4L-13.45,-2.6L-13.4,-3.6L-12.8,-5.05L-12.25,-2.75C-12.883,-1.717 -13.133,-1 -13,-0.6L-12.55,1.65L-18.6,-1C-18.967,-0.833 -19.217,-0.467 -19.35,0.1L-16.55,2.55C-14.65,4.483 -13.633,6.183 -13.5,7.65L-12.75,8.5L-12.8,7.8L-12.65,6.65L-12,5.4L-11.9,5.35L-10.4,7.45C-12.633,9.05 -14.317,10.9 -15.45,13C-15.683,13.367 -15.617,13.617 -15.25,13.75L-14.3,13.75C-12.9,13.417 -12.017,12.917 -11.65,12.25C-10.483,10.15 -8.917,8.533 -6.95,7.4C-4.85,6.2 -2.633,5.717 -0.3,5.95C1.833,6.15 3.817,7.167 5.65,9L9.95,14.4C10.317,14.933 11.167,14.867 12.5,14.2C13.8,13.567 14.3,13.05 14,12.65L10.3,7.85L10.05,7.6L11.95,4.9L12.05,5L12.7,6.2L12.85,7.4L12.8,8.1L13.55,7.25C13.617,6.317 14.033,5.317 14.8,4.25L16.6,2.15C17.533,1.183 18.467,0.367 19.4,-0.3C19.267,-0.867 19.017,-1.233 18.65,-1.4L12.6,1.2L13.05,-1.05C13.183,-1.417 12.933,-2.117 12.3,-3.15L12.85,-5.5L13.45,-4L13.5,-3L14.25,-4.45C14.45,-4.783 14.283,-5.45 13.75,-6.45L14.65,-8.8L14.8,-8.45L15,-7.45L15,-6.5L15.8,-7.75C16,-8.05 15.917,-8.683 15.55,-9.65L16.75,-12L16.95,-10.75L16.85,-9.9L17.7,-10.95C17.9,-11.217 17.85,-11.783 17.55,-12.65C17.25,-13.817 17.183,-14.683 17.35,-15.25L17.8,-15.8L17.4,-16.35L16.8,-15.8L14.8,-15.55L14.15,-15.6M13.45,-17.25L14.3,-17.25L14.4,-17.2L15.35,-17.15L15.95,-17.2L16.3,-17.55L17.4,-18L17.45,-18C17.883,-18 18.267,-17.833 18.6,-17.5L19.2,-16.6L19.45,-15.6C19.417,-15.267 19.267,-14.967 19,-14.7L18.85,-14.55L19.1,-13.15L19.15,-13.05C19.55,-11.683 19.483,-10.667 18.95,-10L18.15,-9C18.017,-8.767 17.817,-8.6 17.55,-8.5C17.617,-7.9 17.483,-7.367 17.15,-6.9L16.4,-5.75L15.95,-5.25C16.017,-4.717 15.933,-4.2 15.7,-3.7L15.45,-3.3L14.95,-2.3L14.65,-1.9L14.7,-1.5L14.8,-1.55L18,-2.9L18.65,-3.05L19.4,-2.9C20.1,-2.5 20.617,-1.817 20.95,-0.85C21.217,-0.117 21.017,0.5 20.35,1C19.183,1.8 18.1,2.767 17.1,3.9C15.9,5.267 15.25,6.417 15.15,7.35L14.8,8.25L14,9.15L13.65,9.45L15.3,11.65C15.733,12.317 15.767,13.017 15.4,13.75L14.8,14.55L13.35,15.55C12.383,16.05 11.5,16.3 10.7,16.3C9.8,16.3 9.117,15.983 8.65,15.35L7.95,14.4C6.383,12.233 5.167,10.733 4.3,9.9C2.767,8.467 1.183,7.667 -0.45,7.5L-1.35,7.45C-3.15,7.45 -4.85,7.95 -6.45,8.95C-8.017,9.95 -9.283,11.3 -10.25,13C-10.883,14.1 -12.133,14.867 -14,15.3L-14.85,15.35C-15.783,15.35 -16.483,15.017 -16.95,14.35C-17.283,13.65 -17.267,12.933 -16.9,12.2C-16.167,10.933 -15.367,9.833 -14.5,8.9L-14.6,8.8L-15.1,7.8C-15.2,6.867 -15.85,5.717 -17.05,4.35C-18.017,3.25 -19.083,2.283 -20.25,1.45C-20.917,1.017 -21.133,0.383 -20.9,-0.45C-20.533,-1.45 -20.017,-2.117 -19.35,-2.45L-18.6,-2.65L-17.95,-2.5L-14.65,-1.05L-14.6,-1.5L-14.9,-1.9L-15.4,-2.9L-15.65,-3.3C-15.883,-3.767 -15.967,-4.267 -15.9,-4.8L-16.35,-5.3L-17.1,-6.5C-17.433,-6.967 -17.567,-7.483 -17.5,-8.05L-18.1,-8.6L-18.7,-9.35L-18.9,-9.55C-19.433,-10.217 -19.5,-11.25 -19.1,-12.65L-19.05,-12.7L-18.8,-14.15L-18.95,-14.3C-19.483,-14.833 -19.55,-15.467 -19.15,-16.2L-18.55,-17.1C-18.217,-17.433 -17.833,-17.6 -17.4,-17.6L-17.35,-17.6C-16.917,-17.6 -16.55,-17.45 -16.25,-17.15L-15.9,-16.8L-15.3,-16.75L-13.4,-16.85C-12.367,-16.85 -11.583,-16.533 -11.05,-15.9L-11,-15.8L-10.05,-14.6C-9.85,-14.3 -9.75,-13.983 -9.75,-13.65C-8.983,-13.45 -8.417,-13.067 -8.05,-12.5L-7.05,-11L-6.85,-10.15C-6.183,-9.917 -5.683,-9.5 -5.35,-8.9L-4.45,-7.1L-4.25,-6.4C-3.617,-6.033 -3.2,-5.55 -3,-4.95L-2.15,-3L-2.05,-2.3C-1.517,-1.9 -1.167,-1.433 -1,-0.9L-0.95,-0.8L-0.25,1.45L-0.2,2.05L0.15,2L0.3,2L0.3,1.05L1,-1.25L1.05,-1.3C1.217,-1.867 1.567,-2.35 2.1,-2.75L2.2,-3.4L3.05,-5.4C3.283,-5.967 3.7,-6.433 4.3,-6.8L4.5,-7.55L5.4,-9.3C5.7,-9.867 6.2,-10.3 6.9,-10.6L7.1,-11.4L8.1,-12.95C8.467,-13.483 9.033,-13.85 9.8,-14.05C9.8,-14.417 9.9,-14.733 10.1,-15L11.05,-16.2L11.1,-16.3C11.633,-16.933 12.417,-17.25 13.45,-17.25M11.25,4.2L9.25,6.25L7.35,5.25L7.55,4.1C7.85,2.4 8.133,1.083 8.4,0.15L8.6,0.2L9.75,1.1L11.1,2.7L10.55,2.6C9.617,2.5 9.017,2.583 8.75,2.85L8.45,3.45C8.383,3.65 8.417,3.733 8.55,3.7L9.9,3.6L11.15,4.1L11.25,4.2M-8.5,4.1C-8.367,4.167 -8.317,4.083 -8.35,3.85L-8.7,3.25L-10.5,3L-11.05,3.1L-10,1.9L-8.55,0.6L-8.35,0.55C-8.083,1.483 -7.8,2.8 -7.5,4.5L-7.3,5.65L-9.2,6.65L-11.2,4.65L-11.1,4.55C-10.667,4.217 -10.25,4.033 -9.85,4L-8.5,4.1"/>
    </g>
</svg>
