<?xml version="1.0" encoding="UTF-8" standalone="no"?>
<!DOCTYPE svg PUBLIC "-//W3C//DTD SVG 1.1//EN" "http://www.w3.org/Graphics/SVG/1.1/DTD/svg11.dtd">
<svg width="100%" height="100%" viewBox="0 0 400 400" version="1.1" xmlns="http://www.w3.org/2000/svg" xmlns:xlink="http://www.w3.org/1999/xlink" xml:space="preserve" xmlns:serif="http://www.serif.com/" style="fill-rule:evenodd;clip-rule:evenodd;stroke-linejoin:round;stroke-miterlimit:2;">
    <g transform="matrix(9.52381,0,0,9.52381,195.714,200)">
        <path d="M1.3,-20.4L2.35,-20.2L9.3,-6.75L11.7,-7.65L19.9,6.4L8.3,14.2L5.4,11.65L1.1,21L-19,11.3L-9.8,-9.4L-7.25,-6.95L-2.9,-21L-1.45,-20.8L0.45,-12.4L1.3,-20.4M1.6,-7.8L5.2,5.5L10.15,10.05L17.65,5L11,-6.4L8.45,-5.5L2.6,-16.9L1.6,-7.8M2.25,13.2L-2.35,-17.85L-6.4,-4.65L-9.2,-7.3L-16.75,9.6L0.3,17.85L2.25,13.2"/>
    </g>
    <g transform="matrix(9.52381,0,0,9.52381,195.714,200)">
        <path d="M2.25,13.2L0.3,17.85L-16.75,9.6L-9.2,-7.3L-6.4,-4.65L-2.35,-17.85L2.25,13.2M1.6,-7.8L2.6,-16.9L8.45,-5.5L11,-6.4L17.65,5L10.15,10.05L5.2,5.5L1.6,-7.8" style="fill:rgb(188,190,192);"/>
    </g>
</svg>
