<?xml version="1.0" encoding="UTF-8" standalone="no"?>
<!DOCTYPE svg PUBLIC "-//W3C//DTD SVG 1.1//EN" "http://www.w3.org/Graphics/SVG/1.1/DTD/svg11.dtd">
<svg width="100%" height="100%" viewBox="0 0 400 400" version="1.1" xmlns="http://www.w3.org/2000/svg" xmlns:xlink="http://www.w3.org/1999/xlink" xml:space="preserve" xmlns:serif="http://www.serif.com/" style="fill-rule:evenodd;clip-rule:evenodd;stroke-linejoin:round;stroke-miterlimit:2;">
    <g transform="matrix(1,0,0,1,200.075,200)">
        <g transform="matrix(9.52381,0,0,9.52381,0.639286,0)">
            <path d="M3.2,-19.55C3.767,-17.083 4.633,-14.717 5.8,-12.45C6.5,-11.117 7.567,-9.367 9,-7.2L11.9,-2.25C12.7,-0.417 13.1,1.45 13.1,3.35L13.1,8.7L13,8.7L13,10.15L15.45,10.15L15.45,14.35L17.85,14.35L17.85,21L-18,21L-18,14.35L-15.55,14.35L-15.55,10.15L-13.15,10.15L-13.15,6L-13.05,6L-13.05,3.35C-13.05,1.45 -12.633,-0.417 -11.8,-2.25L-8.95,-7.2C-7.483,-9.367 -6.417,-11.117 -5.75,-12.45C-4.583,-14.717 -3.717,-17.083 -3.15,-19.55L-2.8,-21L2.85,-21L3.2,-19.55M1.35,-19.1L-1.3,-19.1C-1.933,-16.5 -2.85,-14.017 -4.05,-11.65C-4.75,-10.217 -5.85,-8.383 -7.35,-6.15L-10.05,-1.55C-10.783,0.05 -11.15,1.683 -11.15,3.35L-11.15,6.8L-9.2,6.8C-8.4,4.7 -7.533,3.05 -6.6,1.85C-5.3,0.05 -3.817,-1.133 -2.15,-1.7L2.2,-1.7C3.867,-1.133 5.35,0.05 6.65,1.85C7.583,3.05 8.45,4.7 9.25,6.8L11.2,6.8L11.2,3.35C11.2,1.683 10.833,0.05 10.1,-1.55L7.4,-6.15C5.933,-8.383 4.833,-10.217 4.1,-11.65C2.9,-14.017 1.983,-16.5 1.35,-19.1M-11.25,10.7L11.1,10.7L11.1,7.9L-11.25,7.9L-11.25,10.7M-16.1,19.1L15.95,19.1L15.95,16.3L-16.1,16.3L-16.1,19.1M-13.65,14.9L13.5,14.9L13.5,12.1L-13.65,12.1L-13.65,14.9"/>
        </g>
        <g transform="matrix(9.52381,0,0,9.52381,0.639286,0)">
            <path d="M-13.65,14.9L-13.65,12.1L13.5,12.1L13.5,14.9L-13.65,14.9M-16.1,19.1L-16.1,16.3L15.95,16.3L15.95,19.1L-16.1,19.1M-11.25,10.7L-11.25,7.9L11.1,7.9L11.1,10.7L-11.25,10.7M1.35,-19.1C1.983,-16.5 2.9,-14.017 4.1,-11.65C4.833,-10.217 5.933,-8.383 7.4,-6.15L10.1,-1.55C10.833,0.05 11.2,1.683 11.2,3.35L11.2,6.8L9.25,6.8C8.45,4.7 7.583,3.05 6.65,1.85C5.35,0.05 3.867,-1.133 2.2,-1.7L-2.15,-1.7C-3.817,-1.133 -5.3,0.05 -6.6,1.85C-7.533,3.05 -8.4,4.7 -9.2,6.8L-11.15,6.8L-11.15,3.35C-11.15,1.683 -10.783,0.05 -10.05,-1.55L-7.35,-6.15C-5.85,-8.383 -4.75,-10.217 -4.05,-11.65C-2.85,-14.017 -1.933,-16.5 -1.3,-19.1L1.35,-19.1" style="fill:rgb(188,190,192);"/>
        </g>
    </g>
</svg>
