<?xml version="1.0" encoding="UTF-8" standalone="no"?>
<!DOCTYPE svg PUBLIC "-//W3C//DTD SVG 1.1//EN" "http://www.w3.org/Graphics/SVG/1.1/DTD/svg11.dtd">
<svg width="100%" height="100%" viewBox="0 0 400 400" version="1.1" xmlns="http://www.w3.org/2000/svg" xmlns:xlink="http://www.w3.org/1999/xlink" xml:space="preserve" xmlns:serif="http://www.serif.com/" style="fill-rule:evenodd;clip-rule:evenodd;stroke-linejoin:round;stroke-miterlimit:2;">
    <g transform="matrix(9.52381,0,0,9.52381,199.979,200)">
        <path d="M3.65,-21C9.117,-21 12.667,-19.583 14.3,-16.75C15.933,-13.917 16.133,-8.483 14.9,-0.45C14.2,3.983 13.25,8.317 12.05,12.55C11.417,14.917 10.017,16.917 7.85,18.55C5.717,20.183 3.417,21 0.95,21L-2.15,21C-4.583,21 -6.85,20.15 -8.95,18.45C-11.017,16.75 -12.3,14.7 -12.8,12.3C-13.7,7.933 -14.433,3.533 -15,-0.9C-15.733,-6.767 -15.883,-11.017 -15.45,-13.65C-15.15,-15.583 -14.433,-16.85 -13.3,-17.45C-11.767,-18.283 -9.4,-19.067 -6.2,-19.8C-2.633,-20.6 0.65,-21 3.65,-21M8.85,-7.3L-5.7,7.6L-5.95,7.75L-6.2,7.65L-8,6.2L-8.1,5.9L-8,5.65C0.1,-1.883 4.6,-6.183 5.5,-7.25L0,-12.9L-5.6,-7.35L-0.55,-2.8C-0.35,-2.667 -0.317,-2.517 -0.45,-2.35C-0.55,-2.117 -0.933,-1.783 -1.6,-1.35L-2,-1.1L-2.25,-1.05L-2.5,-1.15L-9,-7.2L-9.1,-7.45L-9,-7.7L-0.05,-16.25L0.2,-16.35L0.45,-16.2L8.85,-7.8C9.05,-7.667 9.05,-7.5 8.85,-7.3M0.25,-18.95C-5.317,-18.383 -9.533,-17.333 -12.4,-15.8C-14,-14.933 -14.233,-10.05 -13.1,-1.15C-12.533,3.317 -11.817,7.683 -10.95,11.95C-10.55,13.917 -9.483,15.6 -7.75,17C-6.05,18.4 -4.183,19.1 -2.15,19.1L0.95,19.1C2.983,19.1 4.9,18.4 6.7,17C8.5,15.633 9.667,13.983 10.2,12.05C11.2,8.45 12.067,4.583 12.8,0.45C14.2,-7.783 14.15,-13.2 12.65,-15.8C11.083,-18.533 6.95,-19.583 0.25,-18.95M2.8,0.4L8.95,5.9C9.15,6.033 9.183,6.183 9.05,6.35L7.25,7.95L7.05,8.1L6.8,8.15L6.55,8.05L1.05,1.9L0.95,1.6L1.1,1.35L2.3,0.4L2.55,0.35L2.8,0.4"/>
    </g>
    <g transform="matrix(9.52381,0,0,9.52381,199.979,200)">
        <path d="M2.8,0.4L2.55,0.35L2.3,0.4L1.1,1.35L0.95,1.6L1.05,1.9L6.55,8.05L6.8,8.15L7.05,8.1L7.25,7.95L9.05,6.35C9.183,6.183 9.15,6.033 8.95,5.9L2.8,0.4M0.25,-18.95C6.95,-19.583 11.083,-18.533 12.65,-15.8C14.15,-13.2 14.2,-7.783 12.8,0.45C12.067,4.583 11.2,8.45 10.2,12.05C9.667,13.983 8.5,15.633 6.7,17C4.9,18.4 2.983,19.1 0.95,19.1L-2.15,19.1C-4.183,19.1 -6.05,18.4 -7.75,17C-9.483,15.6 -10.55,13.917 -10.95,11.95C-11.817,7.683 -12.533,3.317 -13.1,-1.15C-14.233,-10.05 -14,-14.933 -12.4,-15.8C-9.533,-17.333 -5.317,-18.383 0.25,-18.95M8.85,-7.3C9.05,-7.5 9.05,-7.667 8.85,-7.8L0.45,-16.2L0.2,-16.35L-0.05,-16.25L-9,-7.7L-9.1,-7.45L-9,-7.2L-2.5,-1.15L-2.25,-1.05L-2,-1.1L-1.6,-1.35C-0.933,-1.783 -0.55,-2.117 -0.45,-2.35C-0.317,-2.517 -0.35,-2.667 -0.55,-2.8L-5.6,-7.35L0,-12.9L5.5,-7.25C4.6,-6.183 0.1,-1.883 -8,5.65L-8.1,5.9L-8,6.2L-6.2,7.65L-5.95,7.75L-5.7,7.6L8.85,-7.3" style="fill:rgb(188,190,192);"/>
    </g>
</svg>
