<?xml version="1.0" encoding="UTF-8" standalone="no"?>
<!DOCTYPE svg PUBLIC "-//W3C//DTD SVG 1.1//EN" "http://www.w3.org/Graphics/SVG/1.1/DTD/svg11.dtd">
<svg width="100%" height="100%" viewBox="0 0 400 400" version="1.1" xmlns="http://www.w3.org/2000/svg" xmlns:xlink="http://www.w3.org/1999/xlink" xml:space="preserve" xmlns:serif="http://www.serif.com/" style="fill-rule:evenodd;clip-rule:evenodd;stroke-linejoin:round;stroke-miterlimit:2;">
    <g transform="matrix(9.52381,0,0,9.52381,199.048,200)">
        <path d="M9.75,-11.4L4.25,-5.9L4.5,1.3L8.45,0.65L14.7,13.4L0.1,21L-14.5,13.4L-8.15,0.75L-4.2,1.35L-4,-5.9L-9.5,-11.4L0.1,-21L9.75,-11.4M0.1,-18.05L-6.55,-11.4L-1.9,-6.75L-1.9,13C-2.9,12.5 -3.9,11.983 -4.9,11.45L-6.3,1.65L-11.7,12.5L0.1,18.65L11.95,12.5L6.6,1.6L5.2,11.4L2.15,13L2.15,-6.75L6.75,-11.4L0.1,-18.05M0.1,-9.05L-2.25,-11.4L0.1,-13.75L2.45,-11.4L0.1,-9.05"/>
    </g>
    <g transform="matrix(9.52381,0,0,9.52381,199.048,200)">
        <path d="M0.1,-9.05L2.45,-11.4L0.1,-13.75L-2.25,-11.4L0.1,-9.05M0.1,-18.05L6.75,-11.4L2.15,-6.75L2.15,13L5.2,11.4L6.6,1.6L11.95,12.5L0.1,18.65L-11.7,12.5L-6.3,1.65L-4.9,11.45C-3.9,11.983 -2.9,12.5 -1.9,13L-1.9,-6.75L-6.55,-11.4L0.1,-18.05" style="fill:rgb(188,190,192);"/>
    </g>
</svg>
