<?xml version="1.0" encoding="UTF-8" standalone="no"?>
<!DOCTYPE svg PUBLIC "-//W3C//DTD SVG 1.1//EN" "http://www.w3.org/Graphics/SVG/1.1/DTD/svg11.dtd">
<svg width="100%" height="100%" viewBox="0 0 400 400" version="1.1" xmlns="http://www.w3.org/2000/svg" xmlns:xlink="http://www.w3.org/1999/xlink" xml:space="preserve" xmlns:serif="http://www.serif.com/" style="fill-rule:evenodd;clip-rule:evenodd;stroke-linejoin:round;stroke-miterlimit:2;">
    <g transform="matrix(1.08148,0,0,1.08148,-16.2953,-16.2953)">
        <path d="M174.14,376.183L44.492,287.293L44.492,188.475C36.513,187.815 25.406,184.806 15.068,171.563L15.068,108.25C28.912,125.985 48.161,125.392 81.383,125.343L94.323,125.36C156.293,79.014 191.722,23.626 200.868,23.626C210.033,23.626 250.73,79.253 314.24,125.659L323.828,125.672C354.089,127.636 371.065,126.014 384.932,108.25L384.932,171.563C373.362,186.385 365.597,188.365 357.203,188.619L357.203,287.293L225.86,376.374L225.86,286.118C225.86,271.846 214.272,260.258 200,260.258C185.728,260.258 174.14,271.846 174.14,286.118L174.14,376.183ZM156.738,342.545L156.738,283.779C156.738,259.902 176.123,240.517 200,240.517C223.877,240.517 243.262,259.902 243.262,283.779L243.262,343.757L285.333,316.322L285.333,231.872L304.166,231.872L304.166,304.165L341.721,276.379L341.721,188.654L61.108,188.654L61.108,276.379L96.463,300.618L96.463,230.53L115.756,230.53L115.756,313.92L156.738,342.545ZM371.952,137.045C358.391,145.023 341.632,145.377 310.671,144.343L92.486,144.343C59.881,144.343 41.301,144.843 28.048,137.045L28.048,164.083C39.844,171.024 52.716,171.382 59.97,171.382L342.364,171.382C351.754,171.389 359.473,171.425 371.952,164.083L371.952,137.045ZM120.513,127.627C168.648,94.927 195.787,46.94 202.161,46.94C208.535,46.94 239.714,94.927 287.94,127.627L120.513,127.627Z"/>
    </g>
    <g transform="matrix(1.08148,0,0,1.08148,-16.2953,9.25553)">
        <path d="M156.738,318.919L156.738,260.153C156.738,236.276 176.123,216.891 200,216.891C223.877,216.891 243.262,236.276 243.262,260.153L243.262,320.131L285.333,292.696L285.333,208.246L304.166,208.246L304.166,280.539L341.721,252.753L341.721,165.028L61.108,165.028L61.108,252.753L96.463,276.993L96.463,206.905L115.756,206.905L115.756,290.294L156.738,318.919ZM371.952,113.419C358.391,121.398 341.632,121.751 310.671,120.717L92.486,120.717C59.881,120.717 41.301,121.217 28.048,113.419L28.048,140.457C39.844,147.398 52.716,147.756 59.97,147.756L342.364,147.756C351.754,147.763 359.473,147.8 371.952,140.457L371.952,113.419ZM120.513,104.002C168.648,71.301 195.787,23.314 202.161,23.314C208.535,23.314 239.714,71.301 287.94,104.002L120.513,104.002Z" style="fill:rgb(188,190,192);"/>
    </g>
</svg>
