<?xml version="1.0" encoding="UTF-8" standalone="no"?>
<svg xmlns:xlink="http://www.w3.org/1999/xlink" height="40.0px" width="40.0px" xmlns="http://www.w3.org/2000/svg">
  <g transform="matrix(1.0, 0.0, 0.0, 1.0, 20.0, 20.0)">
    <path d="M-12.4 3.7 Q-12.45 3.55 -12.45 3.45 -12.5 3.4 -12.55 3.3 L-12.4 3.7" fill="#000000" fill-rule="evenodd" stroke="none"/>
    <path d="M12.6 3.05 L12.55 3.3 Q12.5 3.4 12.45 3.5 12.45 3.45 12.5 3.4 12.5 3.35 12.5 3.3 12.55 3.3 12.55 3.25 12.55 3.2 12.6 3.15 12.6 3.1 12.6 3.05 L12.6 3.05" fill="#000000" fill-rule="evenodd" stroke="none"/>
    <path d="M7.0 -18.2 L0.0 -16.7 -7.0 -18.2 -15.5 -20.0 -15.5 -2.25 Q-15.25 3.0 -12.65 7.5 -8.75 15.35 -1.1 19.6 L-0.8 20.0 0.75 20.0 1.1 19.6 Q8.8 15.35 12.7 7.5 15.3 3.0 15.5 -2.25 L15.5 -20.0 7.0 -18.2 M-13.6 -5.7 L-12.95 -5.7 -12.95 -2.85 -13.6 -2.85 -13.6 -5.7 M11.0 6.95 Q10.7 7.5 10.0 8.7 9.8 9.1 9.4 9.65 9.4 9.7 9.4 9.7 9.35 9.8 9.2 10.05 L9.2 10.05 Q9.05 10.3 8.85 10.5 8.7 10.75 8.4 11.15 8.35 11.2 8.1 11.5 7.9 11.75 7.8 11.9 7.7 12.0 7.65 12.1 7.55 12.2 7.5 12.25 7.4 12.35 7.3 12.45 7.25 12.55 7.15 12.65 7.05 12.7 7.0 12.8 6.9 12.9 6.85 13.0 6.75 13.1 6.65 13.15 6.6 13.25 6.5 13.35 L6.1 13.7 Q5.95 13.9 5.55 14.3 5.4 14.4 5.05 14.75 4.95 14.8 4.7 15.05 4.45 15.25 4.3 15.4 4.15 15.5 3.35 16.15 3.25 16.2 3.15 16.3 2.95 16.45 2.95 16.45 L2.5 16.75 Q2.25 16.95 1.9 17.15 1.4 17.5 1.05 17.7 0.9 17.8 0.65 17.95 0.35 18.15 0.2 18.2 L0.15 18.2 Q-7.15 14.3 -10.95 6.9 -11.15 6.4 -11.3 6.15 L-10.15 5.3 -8.9 6.25 -8.9 9.8 -6.8 11.5 -4.65 9.8 -4.65 6.25 -3.4 5.3 -2.15 6.25 -2.15 9.8 0.0 11.5 2.1 9.8 2.1 6.25 3.35 5.3 4.6 6.25 4.6 9.8 6.75 11.5 8.85 9.8 8.85 6.25 10.1 5.3 11.3 6.15 Q11.05 6.65 10.95 6.9 L11.0 6.95 M-10.75 3.1 L-10.75 0.2 -9.6 0.2 -9.6 3.1 -10.75 3.1 M-7.35 9.65 L-7.35 6.8 -6.2 6.8 -6.2 9.65 -7.35 9.65 M-4.0 3.1 L-4.0 0.2 -2.85 0.2 -2.85 3.1 -4.0 3.1 M-0.6 9.65 L-0.6 6.8 0.55 6.8 0.55 9.65 -0.6 9.65 M2.8 3.1 L2.8 0.2 3.9 0.2 3.9 3.1 2.8 3.1 M6.15 9.65 L6.15 6.8 7.3 6.8 7.3 9.65 6.15 9.65 M10.65 3.1 L9.55 3.1 9.55 0.2 10.65 0.2 10.65 3.1 M13.45 0.0 Q13.45 0.1 13.3 0.6 L13.3 0.7 Q13.3 0.8 13.2 1.15 13.2 1.25 13.15 1.3 13.15 1.4 13.1 1.5 13.1 1.6 13.05 1.7 13.05 1.75 13.05 1.85 13.0 1.95 13.0 2.05 12.95 2.1 12.9 2.2 12.9 2.3 12.85 2.4 12.85 2.45 12.8 2.55 12.75 2.75 12.6 3.25 12.55 3.35 12.5 3.45 L12.4 3.7 12.25 3.55 12.25 0.05 10.1 -1.6 8.0 0.1 8.0 3.6 6.75 4.55 5.45 3.6 5.45 0.1 3.35 -1.6 1.25 0.1 1.25 3.6 0.0 4.55 -1.3 3.6 -1.3 0.1 -3.4 -1.6 -5.5 0.1 -5.5 3.6 -6.8 4.55 -8.05 3.6 -8.05 0.1 -10.15 -1.6 -12.3 0.1 -12.3 3.6 -12.4 3.7 Q-12.4 3.7 -12.4 3.8 -12.4 3.75 -12.4 3.7 -12.4 3.7 -12.45 3.65 -12.4 3.65 -12.45 3.55 -12.5 3.5 -12.5 3.45 -12.55 3.4 -12.55 3.3 -12.55 3.25 -12.55 3.2 -12.6 3.2 -12.6 3.1 -12.6 3.05 -12.6 3.05 -12.65 3.0 -12.65 2.95 -12.65 2.9 -12.65 2.85 L-12.75 2.6 -12.8 2.4 Q-12.9 2.15 -13.0 1.9 -13.0 1.8 -13.1 1.4 -13.2 1.1 -13.25 0.9 -13.35 0.4 -13.4 0.25 -13.4 0.15 -13.45 -0.05 -13.5 -0.35 -13.5 -0.4 -13.5 -0.45 -13.5 -0.5 -13.5 -0.5 -13.5 -0.55 -13.55 -0.6 -13.55 -0.65 -13.55 -0.75 -13.55 -0.75 -13.55 -0.8 -13.55 -0.85 -13.6 -0.9 -13.6 -0.9 -13.6 -0.95 -13.6 -1.0 -13.6 -1.05 -13.6 -1.1 L-13.55 -1.1 -11.4 -2.8 -11.4 -6.3 -10.15 -7.25 -8.9 -6.3 -8.9 -2.75 -6.8 -1.05 -4.65 -2.75 -4.65 -6.3 -3.4 -7.25 -2.15 -6.3 -2.15 -2.75 -0.05 -1.05 2.1 -2.75 2.1 -6.3 3.35 -7.25 4.6 -6.3 4.6 -2.75 6.75 -1.05 8.85 -2.75 8.85 -6.3 10.1 -7.25 11.35 -6.3 11.35 -2.75 13.5 -1.05 13.6 -1.15 Q13.5 -0.3 13.45 0.0 L13.45 0.0 M-10.75 -9.45 L-10.75 -12.3 -9.6 -12.3 -9.6 -9.45 -10.75 -9.45 M-7.35 -2.85 L-7.35 -5.7 -6.2 -5.7 -6.2 -2.85 -7.35 -2.85 M-2.85 -9.4 L-3.95 -9.4 -3.95 -12.3 -2.85 -12.3 -2.85 -9.4 M-0.6 -2.85 L-0.6 -5.7 0.55 -5.7 0.55 -2.85 -0.6 -2.85 M2.8 -9.4 L2.8 -12.3 3.9 -12.3 3.9 -9.4 2.8 -9.4 M6.15 -2.85 L6.15 -5.7 7.3 -5.7 7.3 -2.85 6.15 -2.85 M10.65 -9.4 L9.55 -9.4 9.55 -12.3 10.65 -12.3 10.65 -9.4 M13.65 -2.85 L12.95 -2.85 12.95 -5.7 13.65 -5.7 13.65 -2.85 M13.65 -8.05 L13.5 -7.95 12.25 -8.9 12.25 -12.45 10.1 -14.15 8.0 -12.45 8.0 -8.9 6.75 -7.95 5.45 -8.9 5.45 -12.45 3.35 -14.15 1.25 -12.45 1.25 -8.9 0.0 -7.95 -1.3 -8.9 -1.3 -12.45 -3.4 -14.15 -5.5 -12.45 -5.5 -8.9 -6.8 -7.95 -8.05 -8.9 -8.05 -12.45 -10.15 -14.15 -12.3 -12.45 -12.3 -8.9 -13.55 -7.95 -13.6 -8.05 -13.6 -17.7 0.05 -14.85 13.7 -17.7 13.65 -8.05" fill="#000000" fill-rule="evenodd" stroke="none"/>
    <path d="M12.95 -5.75 L13.65 -5.75 13.65 -2.9 12.95 -2.9 12.95 -5.75 12.95 -5.75" fill="#bcbec0" fill-rule="evenodd" stroke="none"/>
    <path d="M-3.95 0.25 L-2.85 0.25 -2.85 3.1 -3.95 3.1 -3.95 0.25 -3.95 0.25" fill="#bcbec0" fill-rule="evenodd" stroke="none"/>
    <path d="M2.8 0.25 L3.9 0.25 3.9 3.1 2.8 3.1 2.8 0.25 2.8 0.25" fill="#bcbec0" fill-rule="evenodd" stroke="none"/>
    <path d="M-10.7 0.25 L-9.6 0.25 -9.6 3.1 -10.7 3.1 -10.7 0.25 -10.7 0.25" fill="#bcbec0" fill-rule="evenodd" stroke="none"/>
    <path d="M-0.6 6.8 L0.55 6.8 0.55 9.65 -0.6 9.65 -0.6 6.8 -0.6 6.8" fill="#bcbec0" fill-rule="evenodd" stroke="none"/>
    <path d="M11.4 -2.75 L11.4 -6.3 10.1 -7.25 8.85 -6.3 8.85 -2.75 6.75 -1.05 4.6 -2.75 4.6 -6.3 3.35 -7.25 2.1 -6.3 2.1 -2.75 0.0 -1.05 -2.15 -2.75 -2.15 -6.3 -3.4 -7.25 -4.7 -6.3 -4.7 -2.75 -6.8 -1.05 -8.9 -2.75 -8.9 -6.3 -10.15 -7.25 -11.4 -6.3 -11.4 -2.75 -13.55 -1.05 -13.6 -1.05 Q-13.6 -1.05 -13.5 -0.35 -13.4 0.3 -13.4 0.35 -13.35 0.5 -13.25 0.95 -13.1 1.6 -13.0 1.95 -12.95 2.05 -12.9 2.2 -12.85 2.4 -12.8 2.45 L-12.75 2.65 -12.65 2.85 Q-12.65 2.9 -12.65 2.95 -12.6 3.0 -12.6 3.0 -12.6 3.05 -12.55 3.1 -12.55 3.15 -12.5 3.2 -12.5 3.25 -12.5 3.3 L-12.35 3.7 -12.25 3.6 -12.25 0.1 -10.15 -1.6 -8.05 0.1 -8.05 3.6 -6.8 4.55 -5.5 3.6 -5.5 0.1 -3.4 -1.6 -1.3 0.1 -1.3 3.6 0.0 4.55 1.25 3.6 1.25 0.1 3.35 -1.6 5.45 0.1 5.45 3.6 6.7 4.55 8.0 3.6 8.0 0.1 10.1 -1.6 12.2 0.1 12.2 3.6 12.35 3.7 12.45 3.5 Q12.5 3.4 12.6 3.05 L12.75 2.6 Q12.8 2.5 12.8 2.4 12.85 2.3 12.85 2.25 12.9 2.15 12.9 2.05 12.95 1.95 12.95 1.85 13.0 1.8 13.0 1.7 13.05 1.6 13.05 1.55 13.1 1.45 13.1 1.35 13.15 1.25 13.15 1.2 13.15 1.15 13.15 1.1 13.15 1.05 13.2 1.0 13.2 1.0 13.2 0.95 13.25 0.85 13.25 0.85 13.25 0.8 13.25 0.75 L13.25 0.6 Q13.25 0.5 13.3 0.35 13.35 0.1 13.4 0.05 13.4 -0.15 13.45 -0.55 13.5 -0.9 13.55 -1.1 L13.45 -1.05 11.4 -2.75" fill="#bcbec0" fill-rule="evenodd" stroke="none"/>
    <path d="M8.85 6.25 L8.85 9.8 6.75 11.5 4.6 9.8 4.6 6.25 3.35 5.3 2.1 6.25 2.1 9.8 0.0 11.5 -2.15 9.8 -2.15 6.25 -3.4 5.3 -4.7 6.25 -4.7 9.8 -6.8 11.5 -8.9 9.8 -8.9 6.25 -10.15 5.3 -11.3 6.15 Q-11.25 6.25 -11.1 6.5 -11.0 6.75 -10.95 6.9 -7.2 14.2 0.0 18.2 L0.0 18.2 Q0.55 17.9 0.9 17.65 1.45 17.35 1.75 17.15 1.9 17.05 2.05 16.9 2.25 16.8 2.35 16.7 L2.75 16.45 Q2.8 16.4 3.0 16.3 3.1 16.2 3.2 16.1 3.25 16.05 3.3 16.0 3.4 15.95 3.45 15.9 3.5 15.9 3.55 15.85 3.6 15.8 3.7 15.75 3.75 15.7 3.8 15.65 3.85 15.6 3.9 15.55 3.95 15.5 4.05 15.45 4.1 15.4 4.15 15.35 4.3 15.2 4.55 15.0 4.8 14.8 4.9 14.7 5.2 14.45 5.4 14.25 5.45 14.15 5.65 14.0 5.85 13.8 5.95 13.7 L6.35 13.3 Q6.8 12.85 7.6 11.9 7.8 11.65 8.25 11.1 8.45 10.8 8.7 10.45 8.85 10.25 9.0 10.05 L9.0 10.05 Q9.2 9.75 9.25 9.7 9.25 9.65 9.25 9.65 9.6 9.1 9.85 8.7 9.9 8.6 10.0 8.5 10.05 8.35 10.1 8.25 10.2 8.15 10.25 8.05 10.3 7.9 10.35 7.8 10.45 7.7 10.5 7.6 10.55 7.45 10.6 7.35 10.65 7.25 10.7 7.15 10.75 7.05 10.8 6.9 10.95 6.7 11.15 6.2 L10.0 5.3 8.85 6.25" fill="#bcbec0" fill-rule="evenodd" stroke="none"/>
    <path d="M9.55 0.25 L10.65 0.25 10.65 3.1 9.55 3.1 9.55 0.25 9.55 0.25" fill="#bcbec0" fill-rule="evenodd" stroke="none"/>
    <path d="M6.15 6.8 L7.3 6.8 7.3 9.65 6.15 9.65 6.15 6.8 6.15 6.8" fill="#bcbec0" fill-rule="evenodd" stroke="none"/>
    <path d="M-7.35 6.8 L-6.2 6.8 -6.2 9.65 -7.35 9.65 -7.35 6.8 -7.35 6.8" fill="#bcbec0" fill-rule="evenodd" stroke="none"/>
    <path d="M-10.7 -12.3 L-9.6 -12.3 -9.6 -9.45 -10.7 -9.45 -10.7 -12.3 -10.7 -12.3" fill="#bcbec0" fill-rule="evenodd" stroke="none"/>
    <path d="M-7.35 -5.75 L-6.2 -5.75 -6.2 -2.9 -7.35 -2.9 -7.35 -5.75 -7.35 -5.75" fill="#bcbec0" fill-rule="evenodd" stroke="none"/>
    <path d="M-3.95 -12.3 L-2.85 -12.3 -2.85 -9.45 -3.95 -9.45 -3.95 -12.3 -3.95 -12.3" fill="#bcbec0" fill-rule="evenodd" stroke="none"/>
    <path d="M-13.65 -5.75 L-13.0 -5.75 -13.0 -2.9 -13.65 -2.9 -13.65 -5.75 -13.65 -5.75" fill="#bcbec0" fill-rule="evenodd" stroke="none"/>
    <path d="M2.8 -12.3 L3.9 -12.3 3.9 -9.45 2.8 -9.45 2.8 -12.3 2.8 -12.3" fill="#bcbec0" fill-rule="evenodd" stroke="none"/>
    <path d="M9.55 -12.3 L10.65 -12.3 10.65 -9.45 9.55 -9.45 9.55 -12.3 9.55 -12.3" fill="#bcbec0" fill-rule="evenodd" stroke="none"/>
    <path d="M6.15 -5.75 L7.3 -5.75 7.3 -2.9 6.15 -2.9 6.15 -5.75 6.15 -5.75" fill="#bcbec0" fill-rule="evenodd" stroke="none"/>
    <path d="M-13.65 -8.05 L-13.55 -8.0 -12.3 -8.9 -12.3 -12.45 -10.15 -14.15 -8.05 -12.45 -8.05 -8.9 -6.8 -8.0 -5.5 -8.9 -5.5 -12.45 -3.4 -14.15 -1.3 -12.45 -1.3 -8.9 0.0 -8.0 1.25 -8.9 1.25 -12.45 3.35 -14.15 5.45 -12.45 5.45 -8.9 6.75 -8.0 8.0 -8.9 8.0 -12.45 10.1 -14.15 12.25 -12.45 12.25 -8.9 13.5 -8.0 13.65 -8.1 13.65 -17.7 0.0 -14.8 -13.65 -17.7 -13.65 -8.05" fill="#bcbec0" fill-rule="evenodd" stroke="none"/>
    <path d="M-0.6 -5.75 L0.55 -5.75 0.55 -2.9 -0.6 -2.9 -0.6 -5.75 -0.6 -5.75" fill="#bcbec0" fill-rule="evenodd" stroke="none"/>
  </g>
</svg>
