<?xml version="1.0" encoding="UTF-8" standalone="no"?>
<!DOCTYPE svg PUBLIC "-//W3C//DTD SVG 1.1//EN" "http://www.w3.org/Graphics/SVG/1.1/DTD/svg11.dtd">
<svg width="100%" height="100%" viewBox="0 0 40 40" version="1.1" xmlns="http://www.w3.org/2000/svg" xmlns:xlink="http://www.w3.org/1999/xlink" xml:space="preserve" xmlns:serif="http://www.serif.com/" style="fill-rule:evenodd;clip-rule:evenodd;stroke-linejoin:round;stroke-miterlimit:2;">
    <g transform="matrix(1.10502,0,0,1,20.0604,20)">
        <path d="M5.4,-13.45L5.45,-13.45C5.517,-13.283 5.6,-13.1 5.7,-12.9C5.8,-12.733 5.883,-12.55 5.95,-12.35C6.05,-12.183 6.15,-12 6.25,-11.8C6.317,-11.6 6.383,-11.417 6.45,-11.25C6.55,-11.05 6.633,-10.85 6.7,-10.65C6.767,-10.483 6.833,-10.3 6.9,-10.1L7.3,-8.9L9,-8.9C9.033,-8.767 9.083,-8.617 9.15,-8.45C9.183,-8.317 9.217,-8.167 9.25,-8C9.283,-7.867 9.317,-7.717 9.35,-7.55C9.383,-7.417 9.417,-7.267 9.45,-7.1C9.483,-6.967 9.5,-6.817 9.5,-6.65C9.533,-6.517 9.55,-6.367 9.55,-6.2L9.55,4.8L14.1,4.7L14.1,14.75L2.65,20L2.65,-1.9C2.65,-2.267 2.633,-2.65 2.6,-3.05C2.6,-3.417 2.583,-3.783 2.55,-4.15C2.517,-4.55 2.467,-4.933 2.4,-5.3C2.367,-5.667 2.317,-6.033 2.25,-6.4C2.183,-6.767 2.1,-7.133 2,-7.5C1.933,-7.867 1.85,-8.233 1.75,-8.6L1.45,-9.7L5.4,-13.45ZM9.521,14.988L12.469,13.623L12.47,6.56L9.521,6.58L9.521,14.988ZM8.143,-5.649C8.143,-5.916 8.127,-6.436 7.961,-7.27L6.239,-7.292C5.927,-8.581 5.588,-9.814 5.055,-11.029L3.078,-9.178C3.278,-8.807 4.167,-6.67 4.167,-0.537L4.204,17.432L8.105,15.611L8.143,-5.649ZM-0.55,-16.75L0.7,-13.75C0.633,-13.75 0.567,-13.733 0.5,-13.7C0.433,-13.667 0.367,-13.65 0.3,-13.65C0.267,-13.617 0.217,-13.583 0.15,-13.55C0.083,-13.517 0.033,-13.483 0,-13.45L-0.2,-13.35C-0.233,-13.317 -0.283,-13.283 -0.35,-13.25L-0.6,-13C-0.733,-12.867 -0.85,-12.733 -0.95,-12.6C-1.083,-12.467 -1.2,-12.333 -1.3,-12.2L-1.6,-11.8C-1.7,-11.667 -1.783,-11.517 -1.85,-11.35C-1.95,-11.217 -2.033,-11.067 -2.1,-10.9C-2.167,-10.767 -2.233,-10.617 -2.3,-10.45L-2.5,-9.95C-2.567,-9.783 -2.617,-9.617 -2.65,-9.45C-2.75,-9.083 -2.85,-8.733 -2.95,-8.4C-3.05,-8.033 -3.133,-7.667 -3.2,-7.3C-3.3,-6.967 -3.367,-6.617 -3.4,-6.25L-3.6,-5.15L-3.8,-2.95L-3.8,20L-15.25,14.75L-15.25,4.7L-10.65,-0.35L-10.65,-5.3C-10.65,-5.733 -10.633,-6.167 -10.6,-6.6C-10.6,-7.033 -10.567,-7.467 -10.5,-7.9C-10.433,-8.333 -10.367,-8.75 -10.3,-9.15C-10.2,-9.583 -10.1,-10 -10,-10.4L-9.6,-11.6C-9.467,-12 -9.3,-12.4 -9.1,-12.8C-8.933,-13.2 -8.75,-13.583 -8.55,-13.95C-8.35,-14.35 -8.133,-14.733 -7.9,-15.1C-7.8,-15.267 -7.717,-15.4 -7.65,-15.5C-7.517,-15.733 -7.367,-15.967 -7.2,-16.2C-7.067,-16.4 -6.917,-16.6 -6.75,-16.8L-6.25,-17.4L-5.7,-17.95C-5.5,-18.15 -5.3,-18.317 -5.1,-18.45C-4.867,-18.617 -4.65,-18.783 -4.45,-18.95L-3.05,-19.75C-3.017,-19.783 -2.967,-19.8 -2.9,-19.8C-2.867,-19.833 -2.817,-19.85 -2.75,-19.85C-2.717,-19.883 -2.683,-19.9 -2.65,-19.9C-2.583,-19.9 -2.533,-19.917 -2.5,-19.95L-2.35,-19.95C-2.283,-19.983 -2.233,-20 -2.2,-20L-1.9,-20L-0.55,-16.75ZM-10.65,2.201L-13.743,5.585L-13.684,13.536L-10.65,14.94L-10.65,2.201ZM-9.182,15.565L-5.334,17.361L-5.302,-0.54C-5.302,-9.869 -2.728,-13.485 -1.105,-14.442L-2.683,-18.172C-7.864,-15.274 -9.145,-9.358 -9.145,-5.3L-9.182,15.565Z"/>
    </g>
    <g transform="matrix(1.10502,0,0,1,20.0604,20)">
        <path d="M8.143,-5.649L8.105,15.611L4.204,17.432L4.167,-0.537C4.167,-6.67 3.278,-8.807 3.078,-9.178L5.055,-11.029C5.588,-9.814 5.927,-8.581 6.239,-7.292L7.961,-7.27C8.127,-6.436 8.143,-5.916 8.143,-5.649ZM9.521,14.988L9.521,6.58L12.47,6.56L12.469,13.623L9.521,14.988ZM-9.182,15.565L-9.145,-5.3C-9.145,-9.358 -7.864,-15.274 -2.683,-18.172L-1.105,-14.442C-2.728,-13.485 -5.302,-9.869 -5.302,-0.54L-5.334,17.361L-9.182,15.565ZM-10.65,2.201L-10.65,14.94L-13.684,13.536L-13.743,5.585L-10.65,2.201Z" style="fill:rgb(188,190,192);"/>
    </g>
</svg>
