<?xml version="1.0" encoding="UTF-8" standalone="no"?>
<!DOCTYPE svg PUBLIC "-//W3C//DTD SVG 1.1//EN" "http://www.w3.org/Graphics/SVG/1.1/DTD/svg11.dtd">
<svg width="100%" height="100%" viewBox="0 0 400 400" version="1.1" xmlns="http://www.w3.org/2000/svg" xmlns:xlink="http://www.w3.org/1999/xlink" xml:space="preserve" xmlns:serif="http://www.serif.com/" style="fill-rule:evenodd;clip-rule:evenodd;stroke-linejoin:round;stroke-miterlimit:2;">
    <g transform="matrix(10.1138,0,0,10.1138,199.241,202.276)">
        <path d="M6.4,-20L3.5,-8.15L14.15,19.55L3.45,19.55L0.05,5.8L-3.3,19.55L-14,19.55L-3.35,-8.15L-6.25,-20L-1.1,-20L0.05,-17L1.25,-20L6.4,-20M3.85,-18L2.6,-18L0.05,-11.45L-2.45,-18L-3.7,-18L-1.25,-8L-11.05,17.55L-4.85,17.55L0.05,-2.65L5,17.55L11.2,17.55L1.4,-8L3.85,-18"/>
    </g>
    <g transform="matrix(10.1138,0,0,10.1138,199.241,202.276)">
        <path d="M3.85,-18L1.4,-8L11.2,17.55L5,17.55L0.05,-2.65L-4.85,17.55L-11.05,17.55L-1.25,-8L-3.7,-18L-2.45,-18L0.05,-11.45L2.6,-18L3.85,-18" style="fill:rgb(188,190,192);"/>
    </g>
</svg>
