<?xml version="1.0" encoding="UTF-8" standalone="no"?>
<!DOCTYPE svg PUBLIC "-//W3C//DTD SVG 1.1//EN" "http://www.w3.org/Graphics/SVG/1.1/DTD/svg11.dtd">
<svg width="100%" height="100%" viewBox="0 0 400 400" version="1.1" xmlns="http://www.w3.org/2000/svg" xmlns:xlink="http://www.w3.org/1999/xlink" xml:space="preserve" xmlns:serif="http://www.serif.com/" style="fill-rule:evenodd;clip-rule:evenodd;stroke-linejoin:round;stroke-miterlimit:2;">
    <g transform="matrix(-1,0,0,1,400,0)">
        <path d="M200,400L352.926,281.411L352.926,82.592L272.681,82.592L282.054,66.311L282.054,-0L117.946,-0L117.946,66.311L127.319,82.592L47.074,82.592L47.074,281.411L200,400ZM63.319,274.746L63.319,98.865L77.71,98.865L77.71,113.007L91.852,113.007L91.852,98.865L105.995,98.865L105.995,113.007L120.137,113.007L120.137,98.865L134.279,98.865L134.279,174.45L117.472,174.45L117.472,316.74L63.319,274.746ZM91.852,127.85L77.71,127.85L77.71,161.926L91.852,161.926L91.852,127.85ZM153.056,16.303L153.056,34.579L171.834,34.579L171.834,16.303L190.611,16.303L190.611,34.579L209.389,34.579L209.389,16.303L228.166,16.303L228.166,34.579L246.944,34.579L246.944,16.303L265.721,16.303L265.721,59.363L249.448,90.961L249.448,174.45L150.552,174.45L150.552,90.961L134.279,59.363L134.279,16.303L153.056,16.303ZM336.681,274.746L282.528,316.74L282.528,174.45L265.721,174.45L265.721,98.865L279.863,98.865L279.863,113.007L294.005,113.007L294.005,98.865L308.148,98.865L308.148,113.007L322.29,113.007L322.29,98.865L336.681,98.865L336.681,274.746ZM308.148,127.85L308.148,161.926L322.29,161.926L322.29,127.85L308.148,127.85ZM200,380.737L131.614,327.707L131.614,189.154L151.153,189.154L151.153,206.193L170.692,206.193L170.692,189.154L190.231,189.154L190.231,206.193L209.769,206.193L209.769,189.154L229.308,189.154L229.308,206.193L248.847,206.193L248.847,189.154L268.386,189.154L268.386,327.707L200,380.737ZM200,277.912C199.708,278.113 173.873,292.671 173.873,305.053L173.873,341.662L226.127,341.662L226.127,305.053C226.127,292.671 200.292,278.113 200,277.912Z"/>
    </g>
    <g transform="matrix(0.889834,0,0,0.889834,22.0332,49.813)">
        <path d="M252.755,-37.658L273.858,-37.658L273.858,10.732L255.57,46.243L255.57,140.068L144.43,140.068L144.43,46.243L126.142,10.732L126.142,-37.658L147.245,-37.658L147.245,-17.12L168.347,-17.12L168.347,-37.658L189.449,-37.658L189.449,-17.12L210.551,-17.12L210.551,-37.658L231.653,-37.658L231.653,-17.12L252.755,-17.12L252.755,-37.658ZM200,371.894L123.148,312.298L123.148,156.592L145.106,156.592L145.106,175.741L167.063,175.741L167.063,156.592L189.021,156.592L189.021,175.741L210.979,175.741L210.979,156.592L232.937,156.592L232.937,175.741L254.894,175.741L254.894,156.592L276.852,156.592L276.852,312.298L200,371.894ZM200,256.338C199.671,256.564 170.638,272.925 170.638,286.84L170.638,327.982L229.362,327.982L229.362,286.84C229.362,272.925 200.329,256.564 200,256.338ZM46.397,252.781L46.397,55.125L62.57,55.125L62.57,71.018L78.463,71.018L78.463,55.125L94.356,55.125L94.356,71.018L110.249,71.018L110.249,55.125L126.142,55.125L126.142,140.068L107.255,140.068L107.255,299.974L46.397,252.781ZM78.463,87.699L62.57,87.699L62.57,125.993L78.463,125.993L78.463,87.699ZM353.603,252.781L292.745,299.974L292.745,140.068L273.858,140.068L273.858,55.125L289.751,55.125L289.751,71.018L305.644,71.018L305.644,55.125L321.537,55.125L321.537,71.018L337.43,71.018L337.43,55.125L353.603,55.125L353.603,252.781ZM321.537,87.699L321.537,125.993L337.43,125.993L337.43,87.699L321.537,87.699Z" style="fill:rgb(188,190,192);"/>
    </g>
</svg>
