<?xml version="1.0" encoding="UTF-8" standalone="no"?>
<!DOCTYPE svg PUBLIC "-//W3C//DTD SVG 1.1//EN" "http://www.w3.org/Graphics/SVG/1.1/DTD/svg11.dtd">
<svg width="100%" height="100%" viewBox="0 0 400 400" version="1.1" xmlns="http://www.w3.org/2000/svg" xmlns:xlink="http://www.w3.org/1999/xlink" xml:space="preserve" xmlns:serif="http://www.serif.com/" style="fill-rule:evenodd;clip-rule:evenodd;stroke-linejoin:round;stroke-miterlimit:2;">
    <g transform="matrix(9.52381,0,0,9.52381,201.905,200)">
        <path d="M6.6,-9.5L9.2,-13.65L19.6,12.5L4.75,21L4.75,17.85C4.717,13.283 4.3,9.783 3.5,7.35C2.833,5.35 2.017,4.35 1.05,4.35C0.083,4.35 -0.733,5.367 -1.4,7.4C-2.2,9.867 -2.617,13.417 -2.65,18.05L-2.65,20.95L-20,12.75L-10.4,-6.2L-7.3,-4.05L-1.05,-21L1.35,-21L6.6,-9.5M6.25,-5.6L0.1,-19L-6.5,-1.15L-9.8,-3.45L-17.6,11.85L-4.6,18.05C-4.6,14.283 -4.317,11.133 -3.75,8.6C-2.85,4.533 -1.283,2.5 0.95,2.5C4.55,2.5 6.4,7.617 6.5,17.85L17.2,11.7L8.75,-9.6L6.25,-5.6"/>
    </g>
    <g transform="matrix(9.52381,0,0,9.52381,201.905,200)">
        <path d="M6.25,-5.6L8.75,-9.6L17.2,11.7L6.5,17.85C6.4,7.617 4.55,2.5 0.95,2.5C-1.283,2.5 -2.85,4.533 -3.75,8.6C-4.317,11.133 -4.6,14.283 -4.6,18.05L-17.6,11.85L-9.8,-3.45L-6.5,-1.15L0.1,-19L6.25,-5.6" style="fill:rgb(188,190,192);"/>
    </g>
</svg>
