<?xml version="1.0" encoding="UTF-8" standalone="no"?>
<!DOCTYPE svg PUBLIC "-//W3C//DTD SVG 1.1//EN" "http://www.w3.org/Graphics/SVG/1.1/DTD/svg11.dtd">
<svg width="100%" height="100%" viewBox="0 0 40 40" version="1.1" xmlns="http://www.w3.org/2000/svg" xmlns:xlink="http://www.w3.org/1999/xlink" xml:space="preserve" xmlns:serif="http://www.serif.com/" style="fill-rule:evenodd;clip-rule:evenodd;stroke-linejoin:round;stroke-miterlimit:2;">
    <g transform="matrix(1.16853,0,0,1.14408,20.0292,18.9649)">
        <path d="M-12.65,-0.6L-12.65,-10.533L-10.402,-10.533C-9.527,-12.036 -6.356,-16.577 0,-16.577C6.124,-16.577 9.238,-12.044 10.105,-10.533L12.6,-10.533L12.6,-0.6C12.6,8.886 4.836,15.92 -0.012,18.386C-4.344,16.247 -12.65,8.818 -12.65,-0.6ZM-11.184,-8.951L-11.184,-0.42C-11.184,8.082 -3.599,14.691 -0.014,16.719C3.756,14.442 11.134,8.143 11.134,-0.42L11.134,-8.951L9.156,-8.951C9.156,-8.951 6.492,-14.842 -0.003,-14.842C-6.735,-14.842 -9.424,-8.957 -9.424,-8.957L-11.184,-8.951ZM-4.215,-4.207L-3.355,-3.019C-6.183,-1.252 -8.137,-0.927 -8.909,-2.549C-9.91,-5.635 -8.999,-7.693 -7.259,-9.305L-6.948,-7.799C-8.153,-6.479 -8.339,-5.146 -7.813,-3.751C-7.427,-2.377 -5.939,-3.071 -4.215,-4.207ZM4.052,2.244L3.314,1.236C5.835,-1.12 7.64,-1.322 8.827,0.338C9.699,2.743 9.172,5.108 7.231,7.439C7.21,6.89 7.044,6.362 6.771,5.85C7.908,4.459 8.302,3.069 7.853,1.678C7.147,0.028 5.804,0.468 4.052,2.244ZM4.174,-4.207C5.898,-3.071 7.386,-2.377 7.772,-3.751C8.298,-5.146 8.112,-6.479 6.906,-7.799L7.217,-9.305C8.958,-7.693 9.869,-5.635 8.867,-2.549C8.095,-0.927 6.142,-1.252 3.314,-3.019L4.174,-4.207ZM-4.094,2.244C-5.845,0.468 -7.189,0.028 -7.894,1.678C-8.344,3.069 -7.95,4.459 -6.812,5.85C-7.086,6.362 -7.251,6.89 -7.272,7.439C-9.214,5.108 -9.74,2.743 -8.868,0.338C-7.682,-1.322 -5.876,-1.12 -3.355,1.236L-4.094,2.244ZM-0.066,-1.591L4.388,-7.49C5.444,-8.945 5.413,-10.016 4.575,-10.826C4.081,-11.268 3.477,-11.597 2.776,-11.827C2.241,-11.999 1.862,-11.808 1.784,-11.207C1.42,-9.008 1.683,-7.322 2.244,-5.877L1.294,-4.714C0.328,-6.208 0.239,-8.722 0.598,-11.872C0.722,-13.082 1.471,-13.366 2.057,-13.35C3.002,-13.124 3.614,-12.866 4.489,-12.404C6.286,-11.212 7.019,-9.572 5.709,-7.511L0.638,-0.659L5.558,5.856C6.844,7.581 6.58,9.364 5.003,10.989C3.686,12.345 2.046,13.661 1.327,12.747C0.229,11.35 0.277,8.868 0.427,6.697C0.544,4.996 0.781,4.364 1.225,3.38L2.203,4.594C1.872,5.175 1.588,5.979 1.569,7.211C1.547,8.607 1.508,10.016 1.939,11.177C2.238,11.985 3.17,11.026 3.893,10.341C5.112,9.187 5.348,7.922 4.633,6.644L-0.066,0.293L-4.765,6.644C-5.481,7.922 -5.244,9.187 -4.025,10.341C-3.303,11.026 -2.37,11.985 -2.071,11.177C-1.641,10.016 -1.679,8.607 -1.701,7.211C-1.72,5.979 -2.004,5.175 -2.335,4.594L-1.357,3.38C-0.913,4.364 -0.676,4.996 -0.559,6.697C-0.409,8.868 -0.361,11.35 -1.459,12.747C-2.178,13.661 -3.818,12.345 -5.135,10.989C-6.712,9.364 -6.976,7.581 -5.69,5.856L-0.77,-0.659L-5.841,-7.511C-7.151,-9.572 -6.418,-11.212 -4.621,-12.404C-3.746,-12.866 -3.134,-13.124 -2.189,-13.35C-1.603,-13.366 -0.854,-13.082 -0.73,-11.872C-0.371,-8.722 -0.461,-6.208 -1.426,-4.714L-2.376,-5.877C-1.816,-7.322 -1.552,-9.008 -1.916,-11.207C-1.994,-11.808 -2.373,-11.999 -2.908,-11.827C-3.609,-11.597 -4.213,-11.268 -4.707,-10.826C-5.545,-10.016 -5.576,-8.945 -4.52,-7.49L-0.066,-1.591Z"/>
    </g>
    <g transform="matrix(1.0328,0,0,1.0328,20.0258,19.1041)">
        <path d="M-12.65,-10.05L-10.659,-10.057C-10.659,-10.057 -7.616,-16.577 0,-16.577C7.349,-16.577 10.363,-10.05 10.363,-10.05L12.6,-10.05L12.6,-0.6C12.6,8.886 4.253,15.864 -0.012,18.386C-4.069,16.139 -12.65,8.818 -12.65,-0.6L-12.65,-10.05ZM-4.766,-4.795C-6.716,-3.536 -8.4,-2.768 -8.837,-4.29C-9.432,-5.835 -9.221,-7.312 -7.857,-8.774L-8.209,-10.442C-10.179,-8.656 -11.209,-6.377 -10.076,-2.959C-9.203,-1.162 -6.993,-1.522 -3.793,-3.479L-4.766,-4.795ZM4.588,2.351C6.57,0.384 8.09,-0.103 8.888,1.724C9.397,3.265 8.951,4.805 7.664,6.346C7.973,6.913 8.161,7.497 8.184,8.105C10.381,5.523 10.976,2.904 9.99,0.24C8.648,-1.599 6.605,-1.375 3.753,1.234L4.588,2.351ZM4.726,-4.795L3.753,-3.479C6.953,-1.522 9.162,-1.162 10.036,-2.959C11.169,-6.377 10.138,-8.656 8.169,-10.442L7.817,-8.774C9.181,-7.312 9.391,-5.835 8.796,-4.29C8.359,-2.768 6.676,-3.536 4.726,-4.795ZM-4.628,2.351L-3.793,1.234C-6.645,-1.375 -8.688,-1.599 -10.03,0.24C-11.017,2.904 -10.421,5.523 -8.225,8.105C-8.201,7.497 -8.014,6.913 -7.704,6.346C-8.991,4.805 -9.437,3.265 -8.929,1.724C-8.13,-0.103 -6.61,0.384 -4.628,2.351ZM-0.071,-1.898L-5.11,-8.432C-6.305,-10.043 -6.27,-11.23 -5.322,-12.128C-4.764,-12.617 -4.08,-12.982 -3.287,-13.236C-2.682,-13.426 -2.253,-13.216 -2.164,-12.549C-1.753,-10.114 -2.051,-8.245 -2.685,-6.646L-1.611,-5.357C-0.518,-7.012 -0.417,-9.796 -0.822,-13.286C-0.963,-14.627 -1.811,-14.941 -2.474,-14.924C-3.543,-14.673 -4.235,-14.387 -5.225,-13.876C-7.259,-12.555 -8.088,-10.738 -6.605,-8.456L-0.868,-0.864L-6.434,6.352C-7.889,8.263 -7.591,10.238 -5.807,12.038C-4.316,13.54 -2.461,14.998 -1.648,13.986C-0.405,12.438 -0.459,9.689 -0.629,7.283C-0.762,5.399 -1.029,4.699 -1.532,3.609L-2.638,4.954C-2.265,5.597 -1.943,6.488 -1.921,7.853C-1.896,9.4 -1.853,10.961 -2.339,12.247C-2.678,13.141 -3.733,12.079 -4.551,11.32C-5.93,10.042 -6.197,8.641 -5.388,7.226L-0.071,0.19L5.245,7.226C6.055,8.641 5.787,10.042 4.408,11.32C3.59,12.079 2.535,13.141 2.197,12.247C1.71,10.961 1.753,9.4 1.778,7.853C1.8,6.488 2.122,5.597 2.495,4.954L1.39,3.609C0.887,4.699 0.619,5.399 0.486,7.283C0.316,9.689 0.263,12.438 1.505,13.986C2.318,14.998 4.174,13.54 5.664,12.038C7.448,10.238 7.746,8.263 6.291,6.352L0.726,-0.864L6.462,-8.456C7.945,-10.738 7.116,-12.555 5.082,-13.876C4.092,-14.387 3.4,-14.673 2.331,-14.924C1.668,-14.941 0.82,-14.627 0.679,-13.286C0.274,-9.796 0.375,-7.012 1.468,-5.357L2.542,-6.646C1.908,-8.245 1.61,-10.114 2.021,-12.549C2.11,-13.216 2.539,-13.426 3.144,-13.236C3.938,-12.982 4.621,-12.617 5.18,-12.128C6.127,-11.23 6.163,-10.043 4.968,-8.432L-0.071,-1.898Z" style="fill:rgb(188,190,192);"/>
    </g>
</svg>
