<?xml version="1.0" encoding="UTF-8" standalone="no"?>
<!DOCTYPE svg PUBLIC "-//W3C//DTD SVG 1.1//EN" "http://www.w3.org/Graphics/SVG/1.1/DTD/svg11.dtd">
<svg width="100%" height="100%" viewBox="0 0 400 400" version="1.1" xmlns="http://www.w3.org/2000/svg" xmlns:xlink="http://www.w3.org/1999/xlink" xml:space="preserve" xmlns:serif="http://www.serif.com/" style="fill-rule:evenodd;clip-rule:evenodd;stroke-linejoin:round;stroke-miterlimit:2;">
    <path d="M167.196,399.992L30.018,319.089L30.018,38.358L114.411,38.358L114.411,69.42L200,0L286.629,66.696L286.629,38.358L369.982,38.358L369.982,319.089L233.102,399.827L233.102,292.404C233.102,253.825 200,234.923 200,234.923C200,234.923 167.196,251.753 167.196,292.569L167.196,399.992ZM143.91,358.073L143.91,289.543C143.91,233.334 200,202.319 200,202.319C200,202.319 255.547,231.122 255.547,289.859L255.547,358.389L349.949,304.128L349.651,299.943L349.949,299.917L349.949,62.958L302.178,62.958L302.178,102.683L200,25.917L97.822,106.07L97.822,62.958L50.051,62.958L50.051,299.917L50.216,299.966L50.051,304.128L143.91,358.073Z"/>
    <g transform="matrix(1.27242,0,0,1.27242,-54.4832,-57.4915)">
        <path d="M155.919,326.595L82.154,284.199L82.284,280.928L82.154,280.89L82.154,94.662L119.698,94.662L119.698,128.544L200,65.551L280.302,125.882L280.302,94.662L317.846,94.662L317.846,280.89L317.612,280.91L317.846,284.199L243.654,326.844C243.654,326.844 243.654,336.335 243.654,272.985C243.654,226.823 200,204.187 200,204.187C200,204.187 155.919,228.562 155.919,272.736C155.919,336.086 155.919,326.595 155.919,326.595Z" style="fill:rgb(188,190,192);"/>
    </g>
</svg>
