<?xml version="1.0" encoding="UTF-8" standalone="no"?>
<svg xmlns:xlink="http://www.w3.org/1999/xlink" height="40.0px" width="40.0px" xmlns="http://www.w3.org/2000/svg">
  <g transform="matrix(1.0, 0.0, 0.0, 1.0, 20.0, 20.0)">
    <path d="M5.9 -6.0 Q5.85 -6.0 5.8 -6.0 5.75 -6.0 5.65 -5.95 5.6 -5.95 5.55 -5.9 5.5 -5.85 5.5 -5.85 5.45 -5.8 5.4 -5.75 5.35 -5.7 5.35 -5.65 5.35 -5.6 5.3 -5.55 5.3 -5.5 5.3 -5.45 5.3 -5.4 5.3 -5.35 5.3 -5.3 5.35 -5.25 5.35 -5.25 5.4 -5.2 5.45 -5.15 5.45 -5.1 5.5 -5.1 5.55 -5.05 5.6 -5.05 5.65 -5.0 5.7 -5.0 5.75 -5.0 5.8 -5.0 5.9 -5.0 5.95 -5.0 6.0 -5.0 6.05 -5.0 6.15 -5.05 6.2 -5.05 6.25 -5.1 6.3 -5.1 6.35 -5.15 6.4 -5.15 6.45 -5.2 6.5 -5.25 6.5 -5.3 6.55 -5.35 6.55 -5.4 6.6 -5.4 6.6 -5.45 6.6 -5.5 6.6 -5.55 6.55 -5.6 6.55 -5.65 6.5 -5.7 6.45 -5.75 6.4 -5.8 6.35 -5.85 6.3 -5.9 6.25 -5.9 6.2 -5.95 6.15 -5.95 6.1 -6.0 6.05 -6.0 5.95 -6.0 5.9 -6.0 L5.9 -6.0 M-6.6 6.0 L-6.6 6.0 -6.55 6.0 Q-6.6 6.0 -6.6 6.0 L-6.6 6.0" fill="#bcbec0" fill-rule="evenodd" stroke="none"/>
    <path d="M0.65 0.05 Q0.65 0.1 0.65 0.15 0.6 0.2 0.6 0.2 0.55 0.25 0.5 0.3 0.45 0.35 0.4 0.35 0.35 0.4 0.3 0.45 0.25 0.45 0.2 0.45 0.1 0.5 0.05 0.5 0.0 0.5 -0.05 0.5 -0.1 0.5 -0.15 0.5 -0.25 0.5 -0.3 0.45 -0.35 0.45 -0.4 0.45 -0.45 0.4 -0.45 0.35 -0.5 0.35 -0.55 0.3 -0.55 0.25 -0.6 0.2 -0.6 0.2 -0.65 0.15 -0.65 0.1 -0.65 0.05 -0.65 0.0 -0.65 -0.05 -0.6 -0.1 -0.6 -0.15 -0.55 -0.2 -0.55 -0.25 -0.5 -0.3 -0.45 -0.35 -0.4 -0.35 -0.35 -0.4 -0.3 -0.45 -0.25 -0.45 -0.2 -0.5 -0.15 -0.5 -0.1 -0.5 -0.05 -0.5 0.0 -0.5 0.1 -0.5 0.15 -0.5 0.2 -0.45 0.25 -0.45 0.3 -0.4 0.35 -0.4 0.4 -0.35 0.45 -0.3 0.5 -0.25 0.55 -0.2 0.6 -0.15 0.6 -0.1 0.6 -0.05 0.65 0.0 0.65 0.05 L0.65 0.05" fill="#000000" fill-rule="evenodd" stroke="none"/>
    <path d="M11.3 -16.2 L11.2 -16.4 11.1 -16.45 Q10.75 -16.9 10.35 -17.25 9.95 -17.65 9.5 -17.95 9.05 -18.3 8.6 -18.6 8.1 -18.85 7.6 -19.1 7.1 -19.3 6.55 -19.5 6.05 -19.65 5.45 -19.75 4.9 -19.9 4.3 -19.95 3.7 -20.0 3.1 -20.0 2.95 -20.0 2.75 -20.0 2.6 -20.0 2.45 -20.0 2.35 -20.0 2.2 -19.95 2.05 -19.95 1.95 -19.95 1.85 -19.95 1.7 -19.9 1.6 -19.9 1.55 -19.9 1.45 -19.9 1.4 -19.85 1.3 -19.85 1.25 -19.85 L0.0 -19.6 -1.25 -19.85 Q-1.3 -19.85 -1.35 -19.85 -1.45 -19.9 -1.5 -19.9 -1.6 -19.9 -1.7 -19.9 -1.8 -19.95 -1.95 -19.95 -2.05 -19.95 -2.2 -19.95 -2.3 -20.0 -2.45 -20.0 -2.6 -20.0 -2.75 -20.0 -2.95 -20.0 -3.1 -20.0 -3.75 -20.0 -4.35 -19.95 -4.95 -19.85 -5.55 -19.75 -6.15 -19.6 -6.7 -19.45 -7.25 -19.25 -7.8 -19.0 -8.3 -18.75 -8.8 -18.45 -9.3 -18.15 -9.75 -17.8 -10.2 -17.45 -10.6 -17.05 -11.0 -16.65 -11.35 -16.2 L-15.5 -16.2 -15.5 -2.25 Q-15.5 -1.9 -15.5 -1.7 -15.5 -1.5 -15.45 -1.25 -15.45 -1.05 -15.4 -0.8 -15.4 -0.55 -15.35 -0.35 -15.35 -0.1 -15.3 0.1 -15.25 0.35 -15.2 0.6 -15.15 0.85 -15.1 1.1 -15.05 1.3 -15.0 1.55 -14.95 1.8 -14.85 2.05 -14.8 2.25 -14.75 2.45 -14.7 2.65 -14.65 2.85 -14.55 3.05 -14.5 3.3 -14.45 3.5 -14.35 3.7 -14.3 3.9 -14.2 4.1 -14.15 4.35 -14.05 4.55 -13.95 4.75 -13.85 5.0 -13.8 5.2 -13.7 5.4 -13.35 6.25 -12.7 7.5 -12.3 8.25 -11.9 8.95 -11.5 9.7 -11.05 10.35 -10.6 11.05 -10.1 11.7 -9.6 12.35 -9.1 12.95 -8.6 13.6 -8.05 14.15 -7.5 14.75 -6.9 15.3 -6.3 15.85 -5.7 16.4 -5.1 16.9 -4.45 17.4 -4.35 17.5 -4.2 17.6 -4.1 17.65 -3.95 17.75 -3.85 17.85 -3.75 17.95 -3.6 18.0 -3.5 18.1 -3.35 18.2 -3.25 18.25 -3.15 18.35 -3.0 18.45 -2.9 18.5 -2.75 18.6 -2.65 18.7 -2.5 18.75 -1.95 19.15 -1.1 19.6 L-0.8 20.0 0.75 20.0 1.1 19.6 Q1.2 19.55 1.3 19.5 1.4 19.45 1.45 19.4 1.55 19.35 1.65 19.3 1.75 19.25 1.8 19.2 1.9 19.15 2.0 19.1 2.1 19.05 2.15 19.0 2.25 18.95 2.35 18.9 2.45 18.85 2.5 18.75 2.65 18.65 2.75 18.6 2.9 18.5 3.0 18.45 3.15 18.35 3.25 18.25 3.4 18.2 3.5 18.1 3.6 18.0 3.75 17.95 3.85 17.85 4.0 17.75 4.1 17.7 4.2 17.6 4.35 17.5 4.45 17.4 5.1 16.9 5.75 16.4 6.35 15.85 6.95 15.3 7.5 14.75 8.05 14.15 8.6 13.6 9.15 12.95 9.65 12.35 10.15 11.7 10.6 11.05 11.05 10.35 11.5 9.7 11.9 9.0 12.3 8.25 12.7 7.5 12.75 7.35 12.85 7.25 12.9 7.1 12.95 7.0 13.05 6.85 13.1 6.7 13.15 6.6 13.2 6.45 13.3 6.35 13.35 6.2 13.4 6.05 13.45 5.95 13.5 5.8 13.6 5.7 13.65 5.55 13.7 5.4 13.8 5.2 13.9 4.95 13.95 4.75 14.05 4.55 14.15 4.35 14.2 4.1 14.3 3.9 14.35 3.7 14.45 3.5 14.5 3.3 14.6 3.05 14.65 2.85 14.7 2.65 14.75 2.45 14.85 2.25 14.9 2.05 14.95 1.8 15.0 1.55 15.1 1.3 15.15 1.05 15.2 0.85 15.2 0.6 15.25 0.35 15.3 0.1 15.35 -0.1 15.35 -0.35 15.4 -0.6 15.45 -0.8 15.45 -1.05 15.45 -1.25 15.5 -1.5 15.5 -1.7 15.5 -1.95 15.5 -2.25 L15.5 -16.2 11.3 -16.2 M13.65 -2.25 Q13.65 -2.15 13.65 -2.0 13.65 -1.9 13.65 -1.75 13.65 -1.65 13.6 -1.5 13.6 -1.35 13.6 -1.25 13.6 -1.1 13.6 -1.0 13.55 -0.85 13.55 -0.75 13.55 -0.6 13.5 -0.45 13.5 -0.35 13.45 -0.2 13.4 0.25 13.25 1.0 13.2 1.2 13.15 1.4 13.1 1.6 13.05 1.8 13.0 2.0 12.9 2.2 12.85 2.4 12.8 2.6 12.7 2.8 12.65 3.0 12.6 3.2 12.5 3.4 12.45 3.6 12.35 3.8 12.25 4.05 12.2 4.25 11.9 4.85 11.4 5.95 11.4 6.0 11.2 6.45 11.1 6.55 10.95 6.9 10.9 7.0 10.8 7.15 10.75 7.3 10.7 7.35 10.5 7.7 10.3 8.05 10.1 8.35 9.9 8.7 9.7 9.05 9.5 9.35 9.3 9.7 9.05 10.0 8.85 10.3 8.6 10.6 8.4 10.95 8.15 11.25 7.95 11.55 7.7 11.8 7.45 12.1 7.2 12.4 7.15 12.45 7.05 12.55 6.95 12.65 6.9 12.7 6.8 12.85 6.65 13.0 6.55 13.1 6.4 13.25 6.3 13.4 6.15 13.55 6.0 13.65 5.9 13.8 5.75 13.95 5.6 14.05 5.5 14.2 5.35 14.3 5.2 14.45 5.05 14.6 4.9 14.7 4.8 14.85 4.6 15.05 4.35 15.2 4.15 15.4 3.95 15.55 3.7 15.75 3.5 15.9 3.25 16.1 3.05 16.25 2.8 16.4 2.55 16.6 2.35 16.75 2.1 16.9 1.85 17.05 1.6 17.2 1.35 17.35 1.15 17.5 0.75 17.8 0.0 18.2 L0.0 18.2 Q-0.65 17.85 -1.1 17.5 -1.35 17.35 -1.6 17.2 -1.85 17.05 -2.1 16.9 -2.3 16.75 -2.55 16.55 -2.8 16.4 -3.0 16.25 -3.25 16.05 -3.45 15.9 -3.7 15.75 -3.9 15.55 -4.15 15.4 -4.35 15.2 -4.55 15.0 -4.75 14.85 -4.9 14.7 -5.05 14.6 -5.15 14.45 -5.3 14.35 -5.45 14.2 -5.6 14.1 -5.7 13.95 -5.85 13.8 -6.0 13.7 -6.1 13.55 -6.25 13.4 -6.35 13.3 -6.5 13.15 -6.6 13.0 -6.75 12.9 -6.85 12.75 -6.9 12.75 -6.9 12.7 -6.9 12.7 -6.95 12.65 -6.95 12.65 -7.0 12.6 -7.0 12.6 -7.05 12.55 -7.05 12.55 -7.1 12.55 -7.1 12.5 -7.1 12.5 -7.15 12.45 -7.15 12.45 -7.15 12.4 -7.2 12.4 -7.45 12.1 -7.7 11.8 -7.95 11.5 -8.15 11.2 -8.4 10.9 -8.6 10.6 -8.85 10.3 -9.05 10.0 -9.3 9.7 -9.5 9.35 -9.7 9.05 -9.9 8.7 -10.1 8.35 -10.3 8.05 -10.5 7.7 -10.65 7.35 -10.65 7.3 -10.7 7.3 -10.7 7.25 -10.75 7.25 -10.75 7.2 -10.75 7.2 -10.8 7.15 -10.8 7.15 -10.8 7.1 -10.85 7.1 -10.85 7.05 -10.85 7.0 -10.9 7.0 -10.9 6.95 -10.9 6.95 -10.95 6.9 -10.95 6.85 -10.95 6.85 -11.0 6.8 -11.0 6.8 -11.0 6.75 -11.05 6.7 -11.05 6.7 -11.05 6.65 -11.05 6.65 -11.1 6.6 -11.1 6.55 -11.1 6.55 -11.15 6.5 -11.15 6.5 -11.15 6.45 -11.2 6.45 -11.2 6.4 -11.2 6.4 -11.25 6.35 -11.25 6.3 -11.25 6.3 -11.25 6.25 -11.3 6.25 -11.3 6.2 -11.3 6.15 -11.3 6.15 -11.35 6.1 -11.35 6.1 -11.35 6.05 -11.4 6.0 -11.4 6.0 -11.4 5.95 -11.45 5.85 -11.5 5.75 -11.55 5.65 -11.6 5.5 -11.65 5.4 -11.7 5.3 -11.75 5.2 -11.8 5.1 -11.85 5.0 -11.9 4.85 -11.95 4.75 -12.0 4.65 -12.05 4.55 -12.1 4.45 -12.15 4.35 -12.2 4.25 L-12.2 4.2 Q-12.3 4.0 -12.35 3.8 -12.45 3.6 -12.5 3.4 -12.6 3.15 -12.65 2.95 -12.7 2.75 -12.8 2.55 -12.85 2.35 -12.9 2.2 -12.95 2.0 -13.0 1.8 -13.1 1.6 -13.15 1.4 -13.2 1.2 -13.2 1.0 -13.2 0.95 -13.25 0.85 -13.25 0.75 -13.3 0.7 -13.3 0.6 -13.35 0.55 -13.35 0.45 -13.35 0.4 -13.4 0.3 -13.4 0.25 -13.4 0.15 -13.4 0.1 -13.45 0.0 -13.45 -0.05 -13.45 -0.15 -13.45 -0.2 -13.5 -0.35 -13.5 -0.45 -13.5 -0.6 -13.55 -0.75 -13.55 -0.85 -13.55 -1.0 -13.6 -1.1 -13.6 -1.25 -13.6 -1.35 -13.6 -1.5 -13.65 -1.6 -13.65 -1.75 -13.65 -1.85 -13.65 -2.0 -13.65 -2.1 -13.65 -2.25 L-13.65 -14.4 -10.3 -14.4 Q-10.2 -14.55 -10.15 -14.65 -10.05 -14.75 -9.95 -14.9 -9.9 -15.0 -9.8 -15.15 -9.7 -15.25 -9.6 -15.35 -9.5 -15.45 -9.4 -15.6 -9.3 -15.7 -9.2 -15.8 -9.1 -15.9 -9.0 -16.0 -8.9 -16.1 -8.8 -16.2 -8.5 -16.45 -8.2 -16.65 -7.9 -16.85 -7.6 -17.05 -7.3 -17.25 -6.95 -17.4 -6.6 -17.55 -6.25 -17.7 -5.9 -17.8 -5.5 -17.9 -5.15 -18.0 -4.75 -18.1 -4.35 -18.15 -3.95 -18.2 -3.55 -18.2 -3.1 -18.2 -2.95 -18.2 -2.8 -18.2 -2.7 -18.2 -2.55 -18.2 -2.45 -18.2 -2.3 -18.2 -2.2 -18.15 -2.1 -18.15 -2.0 -18.15 -1.95 -18.15 -1.85 -18.15 -1.8 -18.1 -1.75 -18.1 -1.7 -18.1 -1.65 -18.1 -1.65 -18.1 L-0.3 -17.85 0.0 -17.8 0.3 -17.85 0.3 -17.85 1.65 -18.1 Q1.65 -18.1 1.7 -18.1 1.75 -18.1 1.8 -18.1 1.85 -18.15 1.95 -18.15 2.05 -18.15 2.1 -18.15 2.2 -18.15 2.3 -18.2 2.45 -18.2 2.55 -18.2 2.7 -18.2 2.8 -18.2 2.95 -18.2 3.1 -18.2 3.5 -18.2 3.95 -18.15 4.35 -18.15 4.75 -18.05 5.15 -18.0 5.5 -17.9 5.9 -17.8 6.25 -17.7 6.6 -17.55 6.95 -17.4 7.3 -17.25 7.6 -17.05 7.95 -16.85 8.25 -16.65 8.55 -16.45 8.8 -16.2 8.85 -16.15 8.9 -16.1 8.95 -16.05 9.0 -16.0 9.1 -15.95 9.15 -15.9 9.2 -15.85 9.25 -15.8 9.3 -15.75 9.35 -15.7 9.4 -15.65 9.45 -15.6 9.45 -15.55 9.5 -15.45 9.55 -15.4 9.6 -15.35 L10.25 -14.4 13.65 -14.4 13.65 -2.25" fill="#000000" fill-rule="evenodd" stroke="none"/>
    <path d="M-2.5 -7.7 Q-2.5 -7.7 -2.45 -7.7 -2.55 -7.7 -2.4 -7.75 -2.3 -7.8 -2.25 -7.85 -2.15 -7.9 -2.05 -7.95 -1.95 -8.0 -1.85 -8.0 -1.7 -8.05 -1.6 -8.1 -1.45 -8.15 -1.3 -8.15 -1.15 -8.15 -1.0 -8.15 -0.95 -8.15 -0.95 -8.15 -0.9 -8.1 -0.85 -8.1 -0.8 -8.1 -0.8 -8.05 -0.75 -8.0 -0.7 -8.0 -0.7 -7.95 -0.65 -7.9 -0.65 -7.8 -0.65 -7.75 -0.65 -7.7 -0.65 -7.6 -0.65 -7.5 -0.7 -7.4 -0.7 -7.4 -0.7 -7.4 -0.8 -7.35 -0.8 -7.35 -0.8 -7.35 -0.9 -7.35 -0.95 -7.3 -1.0 -7.25 -1.1 -7.25 -1.2 -7.15 -1.35 -7.1 -1.45 -7.0 -1.6 -6.9 -1.75 -6.8 -1.9 -6.65 -2.1 -6.5 -2.1 -6.5 -2.15 -6.5 -2.15 -6.45 -2.2 -6.45 -2.25 -6.45 -2.25 -6.45 -2.3 -6.5 -2.35 -6.5 -2.35 -6.5 -2.4 -6.55 -2.45 -6.6 -2.5 -6.65 -2.5 -6.7 -2.55 -6.75 -2.55 -6.8 -2.6 -6.9 -2.6 -6.9 -2.6 -6.85 -2.6 -6.85 -2.6 -6.8 -2.6 -6.7 -2.6 -6.65 -2.65 -6.6 -2.6 -6.5 -2.6 -6.45 -2.6 -6.35 -2.55 -6.3 -2.5 -6.25 -2.45 -6.2 -2.4 -6.15 -2.3 -6.1 -2.2 -6.1 -2.1 -6.1 -2.05 -6.1 -1.95 -6.15 -1.85 -6.2 -1.75 -6.25 -1.65 -6.3 -1.6 -6.35 -1.45 -6.45 -1.3 -6.55 -1.2 -6.6 -1.1 -6.7 -1.0 -6.75 -0.85 -6.85 -0.7 -6.9 -0.55 -6.95 -0.4 -7.0 -0.4 -7.0 -0.4 -7.0 -0.4 -7.0 -0.4 -6.95 -0.35 -6.95 -0.35 -6.9 -0.35 -6.9 -0.35 -6.85 -0.3 -6.8 -0.3 -6.8 -0.3 -6.75 -0.3 -6.7 -0.3 -6.65 -0.3 -6.65 -0.3 -6.6 -0.3 -6.55 -0.3 -6.5 -0.35 -6.4 -0.4 -6.3 -0.5 -6.25 -0.55 -6.15 -0.65 -6.05 -0.7 -6.0 -0.8 -5.9 -0.9 -5.8 -1.0 -5.75 -1.1 -5.7 -1.2 -5.6 -1.3 -5.55 -1.4 -5.5 -1.45 -5.45 -1.55 -5.45 -1.65 -5.4 -1.7 -5.4 -1.8 -5.35 -1.9 -5.35 -2.0 -5.3 -2.1 -5.3 -2.2 -5.3 -2.3 -5.35 -2.4 -5.35 -2.55 -5.4 -2.65 -5.45 -2.8 -5.5 -2.9 -5.55 -3.05 -5.65 -3.2 -5.75 -3.35 -5.85 -3.35 -5.85 -3.35 -5.85 -3.3 -5.7 -3.35 -5.75 -3.3 -5.7 -3.3 -5.65 -3.25 -5.6 -3.25 -5.5 -3.2 -5.45 -3.15 -5.35 -3.1 -5.25 -3.05 -5.15 -2.95 -5.0 -2.85 -4.9 -2.75 -4.75 -2.65 -4.65 -2.65 -4.65 -2.6 -4.6 -2.55 -4.6 -2.55 -4.55 -2.45 -4.45 -2.4 -4.45 L-2.3 -4.4 Q-2.25 -4.4 -2.2 -4.35 -2.1 -4.35 -2.05 -4.35 -2.0 -4.35 -1.9 -4.3 -1.85 -4.3 -1.75 -4.3 -1.7 -4.3 -1.6 -4.3 -1.5 -4.35 -1.4 -4.35 -1.3 -4.35 -1.2 -4.35 -1.1 -4.4 -1.0 -4.4 -0.9 -4.35 -0.85 -4.3 -0.8 -4.25 -0.75 -4.2 -0.7 -4.15 -0.7 -4.05 -0.7 -4.0 -0.75 -3.9 -0.8 -3.85 -0.85 -3.75 -0.9 -3.65 -0.95 -3.55 -1.0 -3.45 -1.1 -3.35 -1.15 -3.25 -1.3 -3.1 -1.3 -3.1 -0.95 -3.25 -0.7 -3.35 -0.55 -3.45 -0.35 -3.5 -0.2 -3.55 0.0 -3.65 0.15 -3.65 0.35 -3.7 0.5 -3.65 0.65 -3.65 0.75 -3.6 0.9 -3.5 1.0 -3.4 1.1 -3.25 1.2 -3.05 1.25 -3.1 1.3 -3.15 1.35 -3.2 1.35 -3.25 1.4 -3.35 1.45 -3.4 1.45 -3.5 1.45 -3.55 1.5 -3.6 1.5 -3.65 1.5 -3.75 1.5 -3.8 1.5 -3.8 1.55 -3.85 1.55 -3.85 1.55 -3.9 1.55 -3.9 1.55 -3.9 1.6 -3.9 1.65 -3.95 1.7 -3.95 1.8 -3.95 1.85 -3.95 1.95 -3.95 2.05 -3.95 2.15 -3.95 2.3 -3.9 2.4 -3.85 2.55 -3.8 2.7 -3.7 2.85 -3.6 3.0 -3.5 3.0 -3.5 3.0 -3.55 3.0 -3.6 3.0 -3.7 3.05 -3.8 3.05 -3.9 3.05 -4.05 3.05 -4.15 3.05 -4.3 3.0 -4.45 3.0 -4.65 2.95 -4.8 2.95 -4.95 2.9 -5.1 2.85 -5.3 2.8 -5.45 2.8 -5.45 2.85 -5.5 2.9 -5.55 2.95 -5.6 3.0 -5.65 3.05 -5.75 3.15 -5.85 3.25 -6.0 3.35 -6.15 3.4 -6.3 3.5 -6.45 3.6 -6.65 3.65 -6.85 3.75 -7.05 3.8 -7.25 3.8 -7.5 3.8 -7.5 3.8 -7.5 3.75 -7.45 3.7 -7.45 3.65 -7.4 3.6 -7.4 3.55 -7.4 3.45 -7.35 3.35 -7.35 3.25 -7.3 3.15 -7.3 3.0 -7.3 2.9 -7.3 2.75 -7.3 2.6 -7.3 2.45 -7.35 2.45 -7.35 2.5 -7.4 2.55 -7.45 2.55 -7.55 2.65 -7.65 2.7 -7.75 2.75 -7.9 2.8 -8.05 2.9 -8.25 2.95 -8.4 2.95 -8.65 3.0 -8.85 3.0 -9.05 3.0 -9.3 2.95 -9.5 2.85 -9.75 2.85 -9.75 2.85 -9.7 2.8 -9.65 2.75 -9.6 2.7 -9.55 2.65 -9.45 2.6 -9.35 2.55 -9.3 2.45 -9.2 2.4 -9.1 2.35 -9.05 2.25 -8.95 2.2 -8.9 2.1 -8.85 2.05 -8.8 2.0 -8.8 1.85 -8.8 1.7 -8.75 1.55 -8.75 1.35 -8.75 1.2 -8.75 1.0 -8.75 0.85 -8.75 0.65 -8.75 0.45 -8.75 0.25 -8.8 0.1 -8.8 -0.1 -8.8 -0.3 -8.85 -0.45 -8.85 -0.6 -8.85 -0.8 -8.9 -0.9 -8.9 -1.0 -8.9 -1.1 -8.9 -1.2 -8.85 -1.35 -8.85 -1.45 -8.8 -1.6 -8.75 -1.75 -8.7 -1.85 -8.6 -2.0 -8.5 -2.1 -8.4 -2.2 -8.3 -2.3 -8.15 -2.4 -8.0 -2.45 -7.85 -2.5 -7.7 L-2.5 -7.7 M0.3 -7.8 Q0.35 -7.8 0.4 -7.8 0.5 -7.75 0.55 -7.75 0.6 -7.7 0.65 -7.7 0.7 -7.65 0.75 -7.6 0.8 -7.6 0.85 -7.55 0.9 -7.5 0.9 -7.45 0.95 -7.4 0.95 -7.35 1.0 -7.3 1.0 -7.25 1.0 -7.2 0.95 -7.15 0.95 -7.1 0.9 -7.05 0.9 -7.0 0.85 -7.0 0.8 -6.95 0.75 -6.9 0.7 -6.9 0.65 -6.85 0.6 -6.8 0.5 -6.8 0.45 -6.8 0.4 -6.75 0.35 -6.75 0.3 -6.75 0.25 -6.75 0.2 -6.75 0.1 -6.8 0.05 -6.8 0.0 -6.8 -0.05 -6.85 -0.1 -6.85 -0.15 -6.9 -0.15 -6.95 -0.2 -6.95 -0.25 -7.0 -0.25 -7.05 -0.3 -7.1 -0.3 -7.15 -0.3 -7.2 -0.3 -7.25 -0.3 -7.3 -0.3 -7.35 -0.25 -7.4 -0.25 -7.45 -0.25 -7.5 -0.2 -7.5 -0.15 -7.55 -0.1 -7.6 -0.05 -7.65 -0.05 -7.7 0.0 -7.7 0.1 -7.75 0.15 -7.75 0.2 -7.8 0.25 -7.8 0.3 -7.8 L0.3 -7.8" fill="#000000" fill-rule="evenodd" stroke="none"/>
    <path d="M1.6 8.65 L0.0 11.2 -1.55 8.65 Q-1.6 8.85 -1.65 9.0 -1.7 9.2 -1.8 9.4 -1.9 9.65 -2.0 9.85 -2.15 10.05 -2.35 10.25 -2.6 10.45 -2.85 10.65 -3.15 10.85 -3.5 11.0 -3.85 11.15 -4.3 11.3 -4.75 11.4 -5.3 11.5 L-5.25 11.65 -5.05 12.2 Q-5.05 12.2 -5.05 12.2 -5.0 12.15 -4.95 12.15 -4.9 12.1 -4.8 12.1 -4.75 12.1 -4.6 12.1 -4.45 12.15 -4.3 12.2 -4.15 12.25 -3.9 12.4 -3.65 12.5 -3.4 12.7 -3.1 12.9 -2.8 13.2 -2.65 13.3 -2.5 13.45 -2.35 13.55 -2.2 13.7 -2.05 13.8 -1.9 14.0 -1.75 14.15 -1.55 14.3 -1.4 14.5 -1.2 14.65 -1.0 14.85 -0.85 15.05 -0.65 15.3 -0.4 15.5 -0.2 15.75 0.0 16.0 0.2 15.75 0.45 15.5 0.65 15.3 0.85 15.05 1.05 14.85 1.2 14.65 1.4 14.5 1.55 14.3 1.75 14.15 1.9 13.95 2.05 13.8 2.2 13.7 2.35 13.55 2.5 13.4 2.65 13.3 2.8 13.2 3.15 12.9 3.45 12.7 3.7 12.5 3.95 12.4 4.15 12.25 4.35 12.2 4.5 12.15 4.65 12.1 4.75 12.1 4.85 12.1 4.9 12.1 5.0 12.15 5.05 12.15 5.05 12.2 5.05 12.2 5.1 12.2 L5.25 11.65 5.3 11.5 Q4.75 11.45 4.3 11.3 3.85 11.2 3.5 11.0 3.15 10.85 2.85 10.65 2.6 10.5 2.35 10.25 2.2 10.05 2.05 9.85 1.9 9.65 1.8 9.4 1.7 9.2 1.65 9.0 1.6 8.85 1.6 8.65 L1.6 8.65" fill="#000000" fill-rule="evenodd" stroke="none"/>
    <path d="M8.2 8.2 Q7.8 8.15 7.4 8.1 7.4 8.05 7.4 8.0 7.45 7.95 7.45 7.9 7.5 7.85 7.55 7.85 7.55 7.8 7.6 7.8 7.65 7.8 7.7 7.75 7.75 7.75 7.75 7.7 7.8 7.7 7.8 7.7 7.8 7.65 7.8 7.65 7.7 7.3 7.65 7.05 7.65 6.8 7.7 6.65 7.75 6.5 7.8 6.4 7.9 6.3 8.0 6.3 8.1 6.25 8.25 6.3 8.35 6.3 8.45 6.3 8.55 6.35 8.6 6.35 8.65 6.4 8.65 6.4 8.7 6.35 8.65 6.3 8.65 6.25 8.65 6.2 8.6 6.1 8.55 6.05 8.5 6.0 8.4 5.95 8.35 5.9 8.25 5.85 8.15 5.8 8.1 5.75 8.0 5.7 7.9 5.7 7.85 5.65 7.75 5.65 7.5 5.65 7.35 5.7 7.15 5.75 7.05 5.8 6.95 5.9 6.9 5.95 6.85 6.05 6.8 6.2 6.8 6.25 6.8 6.4 6.8 6.5 6.85 6.6 6.85 6.65 6.9 6.8 6.9 6.9 6.9 6.95 6.9 7.0 6.9 7.05 6.9 7.1 6.9 7.2 6.9 7.25 6.85 7.3 6.85 7.35 6.85 7.45 6.8 7.5 6.8 7.55 6.75 7.6 6.75 7.65 6.75 7.65 6.7 7.7 6.7 7.7 6.7 7.7 6.35 7.7 6.05 7.7 5.8 7.65 5.55 7.6 5.3 7.55 5.1 7.45 4.9 7.4 4.7 7.3 4.55 7.2 4.4 7.1 4.3 7.0 4.15 6.85 4.05 6.75 4.0 6.6 3.9 6.45 3.85 6.3 L0.0 0.0 -3.85 6.35 Q-3.85 6.4 -3.9 6.4 -3.9 6.45 -3.9 6.5 -3.95 6.55 -3.95 6.55 -3.95 6.6 -4.0 6.65 -4.0 6.65 -4.05 6.7 -4.05 6.7 -4.05 6.75 -4.1 6.8 -4.1 6.8 -4.15 6.85 -4.15 6.9 -4.2 6.85 -4.2 6.9 -4.3 7.0 -4.35 7.05 -4.45 7.15 -4.55 7.2 -4.7 7.3 -4.8 7.35 -4.95 7.45 -5.1 7.5 -5.25 7.55 -5.4 7.55 -5.6 7.6 -5.8 7.65 -6.0 7.65 -6.2 7.7 -6.45 7.7 -6.7 7.7 -6.7 7.7 -6.7 7.7 -6.85 7.35 -6.75 7.6 -6.75 7.6 -6.75 7.55 -6.8 7.5 -6.8 7.45 -6.85 7.35 -6.85 7.3 -6.85 7.25 -6.9 7.2 -6.9 7.1 -6.9 7.05 -6.9 7.0 -6.9 6.95 -6.9 6.9 -6.85 6.8 -6.85 6.65 -6.8 6.6 -6.8 6.5 -6.8 6.4 -6.8 6.25 -6.8 6.2 -6.8 6.05 -6.9 6.0 -6.95 5.9 -7.05 5.8 -7.15 5.75 -7.3 5.7 -7.5 5.65 -7.75 5.65 -7.8 5.65 -7.9 5.65 -8.0 5.7 -8.05 5.75 -8.15 5.8 -8.25 5.85 -8.3 5.9 -8.4 5.95 -8.45 6.0 -8.55 6.05 -8.6 6.1 -8.65 6.2 -8.65 6.25 -8.65 6.3 -8.7 6.35 -8.65 6.4 -8.65 6.4 -8.6 6.35 -8.5 6.35 -8.45 6.3 -8.35 6.3 -8.25 6.3 -8.1 6.25 -8.0 6.3 -7.9 6.3 -7.8 6.4 -7.7 6.45 -7.7 6.6 -7.65 6.8 -7.65 7.0 -7.7 7.3 -7.8 7.65 -7.8 7.65 -7.8 7.7 -7.8 7.7 -7.75 7.7 -7.75 7.75 -7.7 7.75 -7.65 7.8 -7.6 7.8 -7.55 7.8 -7.55 7.85 -7.5 7.85 -7.45 7.9 -7.45 7.9 -7.4 7.95 -7.4 8.0 -7.4 8.1 -7.4 8.1 -7.4 8.1 -7.4 8.1 -7.45 8.1 -7.45 8.1 -7.5 8.1 -7.55 8.15 -7.6 8.15 -7.65 8.15 -7.75 8.15 -7.8 8.15 -7.85 8.15 -7.95 8.2 -8.0 8.2 -8.1 8.2 -8.2 8.2 -8.3 8.2 -8.4 8.2 -8.5 8.2 -8.6 8.2 -8.75 8.15 -8.85 8.15 -8.95 8.1 -9.05 8.05 -9.15 8.05 -9.25 8.0 -9.35 7.9 -9.45 7.85 -9.55 7.75 -9.65 7.65 -9.75 7.55 -9.8 7.45 -9.8 7.45 -9.75 7.65 -9.75 7.85 -9.7 8.05 -9.7 8.1 -9.65 8.2 -9.65 8.25 -9.6 8.35 -9.6 8.4 -9.55 8.5 -9.55 8.55 -9.5 8.6 -9.5 8.65 -9.45 8.75 -9.45 8.8 -9.4 8.85 -9.4 8.9 -9.35 8.9 -9.3 8.95 -9.3 9.0 -9.25 9.0 -9.1 9.1 -9.05 9.1 -8.95 9.15 -8.9 9.15 -8.8 9.15 -8.75 9.2 -8.65 9.2 -8.55 9.2 -8.45 9.2 -8.4 9.2 -8.3 9.15 -8.2 9.15 -8.1 9.15 -8.0 9.15 -7.85 9.1 -7.75 9.1 -7.65 9.1 -6.85 8.95 -6.75 8.95 -6.6 8.9 -6.45 8.9 -6.3 8.9 -6.15 8.95 -6.05 9.0 -5.95 9.05 -5.85 9.05 -5.75 9.15 -5.65 9.15 -5.6 9.25 -5.55 9.3 -5.5 9.35 -5.45 9.35 -5.45 9.4 -5.45 9.4 -5.4 9.45 -5.4 9.45 -5.45 9.45 -5.55 9.55 -5.55 9.55 -5.65 9.6 -5.75 9.6 -5.85 9.65 -5.95 9.7 -6.1 9.75 -6.25 9.75 -6.4 9.8 -6.55 9.8 -6.7 9.8 -6.9 9.75 -7.05 9.75 -7.25 9.65 -7.3 9.65 -7.3 9.65 -7.35 9.6 -7.4 9.6 -7.4 9.6 -7.45 9.55 -7.5 9.55 -7.5 9.55 -7.55 9.5 -7.6 9.5 -7.6 9.45 -7.65 9.45 -7.7 9.4 -7.7 9.4 -7.75 9.35 -7.8 9.35 L-7.9 9.8 -8.45 10.15 Q-8.45 10.15 -8.4 10.2 -8.35 10.25 -8.3 10.25 -8.25 10.3 -8.15 10.3 -8.1 10.35 -8.0 10.4 -7.9 10.45 -7.8 10.45 -7.65 10.5 -7.55 10.55 -7.4 10.55 -7.25 10.6 -7.1 10.6 -6.9 10.65 -6.75 10.65 -6.55 10.65 -6.3 10.65 -6.1 10.6 -5.85 10.55 -5.65 10.45 -5.4 10.4 -5.2 10.25 -4.95 10.1 -4.7 9.9 -4.45 9.75 -4.2 9.45 -3.9 9.2 -3.6 8.9 -3.3 8.55 -2.95 8.15 -2.6 7.75 -2.2 7.2 L-1.65 7.9 Q-1.65 7.9 -1.65 7.95 -1.65 7.95 -1.65 7.95 L0.0 10.15 1.65 7.95 Q1.65 7.95 1.65 7.95 1.65 7.95 1.65 7.9 L2.2 7.2 Q2.6 7.7 2.95 8.15 3.3 8.55 3.6 8.9 3.95 9.2 4.2 9.45 4.5 9.75 4.75 9.9 4.95 10.1 5.2 10.25 5.45 10.4 5.65 10.45 5.9 10.55 6.1 10.6 6.35 10.65 6.6 10.65 6.8 10.65 6.95 10.65 7.1 10.65 7.3 10.6 7.45 10.55 7.6 10.55 7.7 10.5 7.85 10.45 7.95 10.4 8.05 10.4 8.15 10.35 8.2 10.3 8.3 10.25 8.35 10.25 8.35 10.2 8.4 10.2 L8.45 10.2 Q8.45 10.2 8.45 10.15 L7.95 9.8 7.8 9.35 Q7.75 9.4 7.75 9.4 7.7 9.4 7.65 9.45 7.65 9.45 7.6 9.5 7.55 9.5 7.55 9.5 7.5 9.55 7.45 9.55 7.45 9.6 7.4 9.6 7.4 9.6 7.35 9.6 7.3 9.65 7.3 9.65 7.1 9.75 6.9 9.75 6.75 9.8 6.6 9.8 6.4 9.8 6.25 9.8 6.1 9.75 6.0 9.7 5.85 9.65 5.75 9.6 5.65 9.55 5.6 9.55 5.55 9.5 5.5 9.45 5.45 9.45 5.45 9.45 5.45 9.45 5.45 9.4 5.5 9.4 5.5 9.35 5.55 9.3 5.6 9.25 5.7 9.2 5.75 9.15 5.85 9.05 5.95 9.0 6.05 8.95 6.15 8.95 6.3 8.9 6.45 8.9 6.6 8.9 6.75 8.95 7.2 9.0 7.65 9.1 7.8 9.1 7.9 9.15 8.0 9.15 8.1 9.15 8.2 9.15 8.3 9.2 8.4 9.2 8.5 9.2 8.6 9.2 8.65 9.15 8.75 9.15 8.85 9.15 8.9 9.15 9.0 9.1 9.05 9.1 9.15 9.05 9.2 9.05 9.2 9.05 9.25 9.0 9.3 9.0 9.35 8.95 9.35 8.95 9.4 8.9 9.45 8.85 9.45 8.8 9.5 8.75 9.5 8.7 9.55 8.6 9.55 8.55 9.6 8.5 9.6 8.4 9.6 8.35 9.65 8.3 9.65 8.2 9.7 8.15 9.7 8.05 9.75 7.75 9.8 7.45 9.75 7.55 9.65 7.65 9.55 7.75 9.45 7.85 9.4 7.9 9.25 8.0 9.15 8.05 9.05 8.05 8.95 8.1 8.85 8.15 8.75 8.15 8.6 8.2 8.5 8.2 8.4 8.2 8.3 8.2 8.2 8.2 L8.2 8.2" fill="#000000" fill-rule="evenodd" stroke="none"/>
    <path d="M9.75 -10.25 Q9.75 -10.35 9.65 -10.9 9.65 -10.95 9.6 -11.0 9.6 -11.0 9.6 -11.05 9.6 -11.1 9.6 -11.1 9.6 -11.15 9.6 -11.2 9.55 -11.2 9.55 -11.25 9.55 -11.3 9.55 -11.3 9.55 -11.35 9.5 -11.4 9.5 -11.4 9.5 -11.45 9.5 -11.5 9.5 -11.5 9.45 -11.55 9.45 -11.6 9.45 -11.7 9.4 -11.75 9.4 -11.85 9.35 -11.9 9.35 -12.0 9.3 -12.1 9.3 -12.15 9.25 -12.25 9.25 -12.3 9.2 -12.4 9.15 -12.45 9.15 -12.55 9.1 -12.6 9.05 -12.7 9.05 -12.75 9.0 -12.85 8.95 -12.95 8.9 -13.05 8.85 -13.2 8.8 -13.3 8.7 -13.4 8.65 -13.5 8.6 -13.6 8.55 -13.7 8.5 -13.8 8.4 -13.85 8.35 -13.95 8.3 -14.05 8.2 -14.15 8.15 -14.2 8.05 -14.3 8.0 -14.4 7.85 -14.6 7.65 -14.75 7.5 -14.9 7.3 -15.05 7.1 -15.2 6.9 -15.35 6.75 -15.45 6.55 -15.6 6.35 -15.7 6.15 -15.8 5.95 -15.85 5.75 -15.95 5.6 -16.0 5.4 -16.1 5.2 -16.15 5.0 -16.2 4.7 -16.25 4.4 -16.3 4.15 -16.35 3.85 -16.4 3.6 -16.4 3.35 -16.4 3.15 -16.4 2.9 -16.4 2.7 -16.4 2.55 -16.4 2.4 -16.4 2.25 -16.35 2.15 -16.35 2.1 -16.35 2.05 -16.35 2.0 -16.35 2.05 -16.3 2.05 -16.3 2.1 -16.25 2.1 -16.25 2.15 -16.2 2.15 -16.2 2.25 -16.1 2.35 -15.95 2.45 -15.85 2.55 -15.75 2.65 -15.6 2.75 -15.5 2.85 -15.4 2.95 -15.25 3.05 -15.15 3.15 -15.05 3.2 -14.95 3.3 -14.8 3.35 -14.7 3.45 -14.6 3.5 -14.5 3.6 -14.4 3.65 -14.3 3.75 -14.2 3.8 -14.1 3.85 -14.0 3.9 -13.9 4.0 -13.8 4.05 -13.7 4.1 -13.6 4.15 -13.5 4.2 -13.4 4.25 -13.3 4.3 -13.2 4.35 -13.1 4.4 -13.0 4.45 -12.95 4.5 -12.85 4.55 -12.75 4.6 -12.7 4.6 -12.6 4.65 -12.5 4.7 -12.4 4.7 -12.35 4.75 -12.25 4.8 -12.2 4.8 -12.1 4.85 -12.05 4.9 -11.95 4.9 -11.85 4.95 -11.8 4.95 -11.75 5.0 -11.65 5.0 -11.6 5.05 -11.4 5.15 -11.05 5.15 -11.05 5.2 -10.9 5.2 -10.85 5.2 -10.8 5.25 -10.75 5.25 -10.75 5.25 -10.7 5.25 -10.65 5.25 -10.6 5.3 -10.55 5.3 -10.55 5.3 -10.5 5.3 -10.45 5.3 -10.4 5.3 -10.35 5.3 -10.35 5.3 -10.3 5.35 -10.25 5.35 -9.7 5.4 -9.15 5.35 -9.25 5.3 -9.3 5.25 -9.4 5.2 -9.45 5.15 -9.55 5.1 -9.6 5.05 -9.7 4.95 -9.75 4.9 -9.8 4.85 -9.9 4.8 -9.95 4.75 -10.0 4.7 -10.05 4.65 -10.15 4.6 -10.2 4.55 -10.25 4.5 -10.3 4.45 -10.35 4.45 -10.4 4.4 -10.45 4.35 -10.5 4.3 -10.55 4.25 -10.6 4.25 -10.6 4.2 -10.65 4.15 -10.7 4.1 -10.75 4.05 -10.8 4.05 -10.8 4.0 -10.85 3.95 -10.9 3.9 -10.9 3.9 -10.95 3.85 -11.0 3.8 -11.0 3.8 -11.05 3.75 -11.1 3.7 -11.15 3.65 -11.2 3.55 -11.2 3.5 -11.25 3.45 -11.3 3.4 -11.3 3.35 -11.35 3.3 -11.4 3.25 -11.4 3.2 -11.45 3.15 -11.5 3.1 -11.5 3.05 -11.55 3.05 -11.55 3.0 -11.6 2.55 -11.75 2.1 -11.85 2.2 -11.8 2.45 -11.6 2.85 -11.15 2.95 -11.05 2.95 -11.0 3.0 -11.0 3.05 -10.95 3.05 -10.9 3.1 -10.85 3.1 -10.85 3.15 -10.8 3.2 -10.75 3.2 -10.7 3.25 -10.65 3.25 -10.65 3.3 -10.6 3.35 -10.55 3.35 -10.5 3.4 -10.45 3.4 -10.4 3.45 -10.4 3.45 -10.35 3.5 -10.3 3.5 -10.25 3.7 -9.85 3.9 -9.45 4.05 -9.05 4.15 -8.65 4.25 -8.25 4.3 -7.85 4.35 -7.5 4.4 -7.1 4.4 -6.8 4.4 -6.45 4.35 -6.15 4.35 -5.85 4.3 -5.6 4.25 -5.35 4.25 -5.15 4.2 -4.95 4.2 -4.9 4.15 -4.85 4.15 -4.75 4.15 -4.7 4.05 -4.5 3.95 -4.3 3.85 -4.1 3.7 -3.95 3.6 -3.75 3.45 -3.6 3.3 -3.5 3.1 -3.35 2.95 -3.25 2.8 -3.1 2.6 -3.0 2.45 -2.95 2.3 -2.85 2.1 -2.8 1.95 -2.75 1.8 -2.7 1.8 -2.7 1.8 -2.7 1.65 -2.65 1.45 -2.65 1.25 -2.6 1.0 -2.6 0.75 -2.6 0.5 -2.6 0.25 -2.55 0.0 -2.55 -0.25 -2.55 -0.5 -2.6 -0.75 -2.6 -0.95 -2.6 -1.2 -2.6 -1.4 -2.65 -1.6 -2.65 -1.75 -2.7 -1.8 -2.7 -1.8 -2.7 -1.95 -2.75 -2.1 -2.8 -2.3 -2.85 -2.45 -2.95 -2.65 -3.05 -2.85 -3.15 -3.0 -3.3 -3.2 -3.4 -3.35 -3.55 -3.5 -3.75 -3.65 -3.9 -3.8 -4.1 -3.95 -4.3 -4.05 -4.5 -4.15 -4.75 -4.2 -4.95 -4.25 -5.15 -4.25 -5.3 -4.3 -5.55 -4.35 -5.85 -4.35 -6.15 -4.35 -6.45 -4.4 -6.8 -4.35 -7.1 -4.35 -7.5 -4.3 -7.85 -4.25 -8.25 -4.15 -8.65 -4.05 -9.05 -3.9 -9.45 -3.7 -9.85 -3.5 -10.25 -3.45 -10.3 -3.45 -10.35 -3.4 -10.4 -3.4 -10.4 -3.35 -10.45 -3.35 -10.5 -3.3 -10.55 -3.3 -10.6 -3.25 -10.65 -3.25 -10.65 -3.2 -10.7 -3.15 -10.75 -3.15 -10.8 -3.1 -10.85 -3.05 -10.9 -3.05 -10.9 -2.95 -11.0 -2.95 -11.05 -2.65 -11.35 -2.45 -11.6 -2.4 -11.65 -2.25 -11.75 -2.15 -11.85 -2.1 -11.85 -2.1 -11.85 -2.1 -11.85 -2.15 -11.85 -2.15 -11.85 -2.2 -11.85 -2.25 -11.85 -2.3 -11.85 -2.35 -11.85 -2.4 -11.8 -2.45 -11.8 -2.55 -11.75 -2.6 -11.75 -2.7 -11.7 -2.8 -11.7 -2.9 -11.65 -3.0 -11.6 -3.5 -11.25 -3.75 -11.05 L-3.75 -11.05 Q-3.85 -10.95 -3.9 -10.9 -3.95 -10.85 -4.0 -10.85 -4.0 -10.8 -4.05 -10.75 -4.1 -10.75 -4.15 -10.7 -4.15 -10.65 -4.2 -10.6 -4.25 -10.6 -4.3 -10.55 -4.35 -10.5 -4.4 -10.45 -4.4 -10.4 -4.45 -10.35 -4.5 -10.3 -4.55 -10.25 -4.6 -10.2 -4.65 -10.15 -4.7 -10.1 -4.75 -10.0 -4.8 -9.95 -4.85 -9.9 -4.9 -9.8 -4.95 -9.75 -5.0 -9.7 -5.05 -9.6 -5.1 -9.55 -5.15 -9.45 -5.2 -9.4 -5.25 -9.3 -5.3 -9.25 -5.35 -9.15 -5.35 -9.15 -5.35 -9.15 -5.35 -9.2 -5.35 -9.25 -5.35 -9.25 -5.35 -9.3 -5.35 -9.4 -5.4 -9.45 -5.4 -9.5 -5.35 -9.6 -5.35 -9.7 -5.35 -9.8 -5.35 -9.9 -5.35 -10.0 -5.35 -10.15 -5.3 -10.25 -5.3 -10.3 -5.3 -10.35 -5.3 -10.35 -5.3 -10.4 -5.3 -10.45 -5.25 -10.5 -5.25 -10.55 -5.25 -10.55 -5.25 -10.6 -5.25 -10.65 -5.25 -10.7 -5.2 -10.75 -5.2 -10.8 -5.2 -10.85 -5.2 -10.9 -5.2 -10.9 -5.2 -10.95 -5.15 -11.0 -5.15 -11.0 -5.15 -11.05 -5.15 -11.1 -5.15 -11.1 -5.15 -11.15 -5.1 -11.2 -5.1 -11.2 -5.1 -11.25 -5.1 -11.3 -5.1 -11.3 -5.05 -11.35 -5.05 -11.35 -5.05 -11.4 -5.05 -11.45 -5.05 -11.5 -5.0 -11.5 -5.0 -11.55 -5.0 -11.6 -5.0 -11.65 -4.95 -11.75 -4.9 -11.8 -4.9 -11.9 -4.85 -11.95 -4.85 -12.05 -4.8 -12.1 -4.75 -12.2 -4.75 -12.25 -4.7 -12.35 -4.65 -12.4 -4.65 -12.5 -4.6 -12.6 -4.55 -12.65 -4.5 -12.75 -4.45 -12.85 -4.4 -12.95 -4.35 -13.05 -4.35 -13.1 -4.3 -13.2 -4.25 -13.3 -4.2 -13.4 -4.15 -13.5 -4.1 -13.6 -4.0 -13.7 -3.95 -13.8 -3.9 -13.9 -3.85 -14.0 -3.8 -14.1 -3.7 -14.2 -3.65 -14.3 -3.6 -14.4 -3.5 -14.5 -3.45 -14.6 -3.35 -14.7 -3.3 -14.8 -3.2 -14.95 -3.1 -15.05 -3.0 -15.15 -2.95 -15.25 -2.85 -15.4 -2.75 -15.5 -2.65 -15.6 -2.55 -15.7 -2.45 -15.85 -2.35 -15.95 -2.25 -16.05 -2.15 -16.2 -2.15 -16.2 -2.0 -16.35 -2.0 -16.35 -2.05 -16.35 -2.2 -16.35 -2.25 -16.35 -2.4 -16.4 -2.55 -16.4 -2.7 -16.4 -2.9 -16.4 -3.1 -16.4 -3.35 -16.4 -3.6 -16.4 -3.85 -16.4 -4.1 -16.35 -4.4 -16.3 -4.7 -16.25 -5.0 -16.2 -5.2 -16.15 -5.35 -16.1 -5.55 -16.0 -5.75 -15.95 -5.95 -15.85 -6.15 -15.8 -6.35 -15.7 -6.5 -15.6 -6.7 -15.45 -6.9 -15.35 -7.1 -15.2 -7.3 -15.05 -7.45 -14.9 -7.65 -14.75 -7.8 -14.55 -8.0 -14.4 -8.05 -14.3 -8.15 -14.25 -8.2 -14.15 -8.25 -14.05 -8.35 -13.95 -8.4 -13.85 -8.45 -13.8 -8.55 -13.7 -8.6 -13.6 -8.65 -13.5 -8.7 -13.4 -8.75 -13.3 -8.8 -13.15 -8.9 -13.05 -8.95 -12.95 -9.0 -12.85 -9.05 -12.8 -9.05 -12.7 -9.1 -12.65 -9.15 -12.55 -9.15 -12.45 -9.2 -12.4 -9.2 -12.3 -9.25 -12.25 -9.25 -12.15 -9.3 -12.1 -9.35 -12.0 -9.35 -11.9 -9.4 -11.85 -9.4 -11.75 -9.45 -11.65 -9.45 -11.6 -9.5 -11.5 -9.55 -11.3 -9.6 -11.1 -9.6 -11.05 -9.6 -10.95 -9.6 -10.9 -9.65 -10.7 -9.75 -10.25 -9.75 -10.15 -9.8 -10.05 -9.8 -9.95 -9.8 -9.85 -9.8 -9.75 -9.8 -9.65 -9.85 -9.5 -9.85 -9.4 -9.85 -9.3 -9.85 -9.2 -9.85 -9.1 -9.85 -8.95 -9.9 -8.85 -9.9 -8.75 -9.9 -8.6 -9.9 -8.5 -9.9 -8.5 -9.9 -8.55 -9.95 -8.6 -9.95 -8.65 -10.0 -8.7 -10.05 -8.8 -10.1 -8.9 -10.15 -9.0 -10.2 -9.15 -10.25 -9.25 -10.35 -9.4 -10.4 -9.6 -10.45 -9.75 -10.5 -9.9 -10.55 -10.1 -10.55 -10.3 -10.55 -10.3 -10.6 -10.35 -10.6 -10.4 -10.6 -10.45 -10.6 -10.45 -10.65 -10.3 -10.75 -10.0 -10.9 -9.65 -11.05 -9.1 -11.15 -8.55 -11.35 -7.85 -11.45 -7.2 -11.55 -6.35 -11.55 -5.6 -11.6 -4.75 -11.5 -3.95 -11.35 -3.1 -11.05 -2.3 -10.75 -1.5 -10.2 -0.8 -9.65 -0.05 -8.85 0.45 -8.85 0.45 -8.85 0.45 -8.9 0.5 -8.9 0.55 -8.95 0.55 -9.0 0.6 -9.05 0.65 -9.1 0.7 -9.2 0.75 -9.3 0.8 -9.4 0.85 -9.55 0.9 -9.7 0.95 -9.85 1.0 -10.05 1.05 -10.25 1.1 -10.25 1.1 -10.2 1.15 -10.1 1.25 -9.95 1.3 -9.8 1.4 -9.6 1.55 -9.4 1.65 -9.15 1.8 -8.85 1.95 -8.5 2.1 -8.15 2.25 -7.8 2.4 -7.35 2.5 -6.95 2.65 -6.5 2.75 -6.0 2.85 -5.9 2.65 -6.05 3.1 -6.05 3.15 -6.1 3.25 -6.1 3.3 -6.15 3.4 -6.15 3.5 -6.2 3.55 -6.25 3.65 -6.3 3.75 -6.35 3.85 -6.4 3.95 -6.45 4.05 -6.5 4.2 -6.6 4.3 -6.7 4.4 -6.8 4.5 -6.9 4.65 -6.95 4.7 -6.95 4.75 -7.0 4.8 -7.05 4.85 -7.1 4.85 -7.15 4.9 -7.2 4.95 -7.25 5.0 -7.3 5.05 -7.35 5.1 -7.4 5.15 -7.45 5.2 -7.5 5.25 -7.55 5.3 -7.65 5.35 -7.7 5.4 -7.4 5.4 -7.15 5.45 -7.05 5.45 -6.9 5.45 -6.8 5.45 -6.65 5.4 -6.5 5.4 -6.35 5.35 -6.2 5.35 -6.05 5.3 -5.9 5.25 -5.75 5.2 -5.55 5.15 -5.4 5.05 -5.2 4.95 -5.05 4.85 -4.85 4.75 -4.7 4.65 -4.35 4.35 -4.15 4.15 -4.0 3.7 -3.9 3.35 -3.75 3.0 -3.7 2.65 -3.6 2.35 -3.55 2.1 -3.5 1.85 -3.5 1.65 -3.45 1.45 -3.45 1.25 -3.45 1.05 -3.45 0.9 -3.5 0.75 -3.5 0.55 -3.5 0.4 -3.55 0.2 -3.55 0.05 -3.65 -0.1 -3.7 -0.3 -3.85 -0.5 -3.95 -0.65 -4.1 -0.9 -4.2 -1.1 -4.35 -1.3 -4.5 -1.5 -4.65 -1.7 -4.75 -1.85 -4.9 -2.05 -5.0 -2.15 -5.1 -2.3 -5.3 -2.55 -5.2 -2.45 -5.5 -2.8 -5.7 -3.2 -5.9 -3.6 -6.0 -4.05 -6.15 -4.45 -6.2 -4.9 -6.25 -5.3 -6.25 -5.7 -6.25 -6.05 -6.25 -6.4 -6.25 -6.7 -6.2 -7.0 -6.2 -7.2 -6.15 -7.35 -6.15 -7.45 -6.15 -7.5 -6.15 -7.3 -6.1 -7.05 -6.1 -6.75 -6.05 -6.5 -6.0 -6.15 -5.95 -5.85 -5.9 -5.5 -5.85 -5.2 -5.75 -4.85 -5.65 -4.55 -5.55 -4.2 -5.45 -3.9 -5.3 -3.6 -5.15 -3.35 -5.0 -3.1 -4.85 -2.9 -4.8 -2.85 -4.75 -2.8 -4.7 -2.75 -4.6 -2.65 -4.5 -2.55 -4.4 -2.45 -4.3 -2.35 -4.2 -2.2 -4.1 -2.1 -4.0 -1.95 -3.9 -1.8 -3.8 -1.7 -3.65 -1.55 -3.6 -1.4 -3.5 -1.3 -3.45 -1.15 -3.4 -1.1 -3.4 -1.05 -3.35 -1.0 -3.3 -0.9 -3.25 -0.85 -3.25 -0.8 -3.2 -0.7 -3.15 -0.6 -3.1 -0.55 -3.1 -0.45 -3.05 -0.35 -3.0 -0.25 -3.0 -0.15 -2.95 -0.05 -2.9 0.1 -2.9 0.2 -2.85 0.4 -2.85 0.6 -2.85 0.8 -2.85 1.1 -2.85 1.3 -2.9 1.6 -2.95 1.85 -3.0 2.1 -3.0 2.35 -3.1 2.65 -3.15 2.9 -3.2 3.15 -3.25 3.4 -3.35 3.65 -3.4 3.85 -3.45 4.05 -3.45 4.05 -3.45 4.1 -3.5 4.5 -3.5 4.65 -3.55 4.8 -3.6 5.15 L0.0 -0.9 3.6 5.1 Q3.55 4.95 3.5 4.65 L3.5 4.65 Q3.5 4.6 3.5 4.4 3.45 4.25 3.45 4.15 3.4 3.95 3.3 3.75 3.25 3.5 3.2 3.25 3.15 3.0 3.05 2.75 3.0 2.45 2.95 2.2 2.9 1.9 2.85 1.65 2.85 1.35 2.8 1.1 2.8 0.85 2.8 0.6 2.85 0.4 2.85 0.2 2.9 0.1 2.9 -0.05 2.95 -0.15 3.0 -0.25 3.0 -0.35 3.05 -0.45 3.1 -0.55 3.15 -0.6 3.15 -0.7 3.2 -0.8 3.25 -0.85 3.3 -0.95 3.3 -1.0 3.35 -1.05 3.35 -1.1 3.4 -1.15 3.45 -1.25 3.55 -1.4 3.65 -1.55 3.75 -1.65 3.85 -1.8 3.95 -1.95 4.05 -2.05 4.2 -2.2 4.3 -2.3 4.4 -2.45 4.5 -2.55 4.6 -2.65 4.65 -2.75 4.7 -2.8 4.8 -2.85 4.8 -2.9 5.0 -3.1 5.15 -3.35 5.3 -3.6 5.4 -3.9 5.55 -4.2 5.65 -4.55 5.75 -4.85 5.8 -5.2 5.9 -5.5 5.95 -5.85 6.0 -6.2 6.0 -6.5 6.05 -6.8 6.1 -7.05 6.1 -7.3 6.1 -7.5 6.1 -7.5 6.15 -7.35 6.15 -7.2 6.2 -7.0 6.2 -6.7 6.25 -6.4 6.25 -6.05 6.25 -5.7 6.2 -5.3 6.15 -4.9 6.1 -4.45 6.0 -4.05 5.85 -3.6 5.65 -3.2 5.45 -2.8 5.2 -2.45 5.15 -2.4 5.1 -2.3 5.0 -2.2 4.9 -2.05 4.75 -1.9 4.6 -1.7 4.45 -1.5 4.35 -1.3 4.2 -1.1 4.05 -0.9 3.9 -0.65 3.8 -0.5 3.7 -0.3 3.65 -0.1 3.55 0.05 3.55 0.2 3.5 0.4 3.5 0.55 3.45 0.75 3.45 0.9 3.45 1.05 3.45 1.25 3.45 1.45 3.45 1.65 3.5 1.85 3.55 2.1 3.6 2.35 3.65 2.65 3.75 2.95 3.85 3.3 3.95 3.65 4.1 4.1 4.15 4.15 4.2 4.2 4.2 4.2 4.25 4.25 4.3 4.3 4.35 4.3 4.35 4.35 4.4 4.4 4.45 4.4 4.5 4.45 4.5 4.5 4.55 4.5 4.6 4.55 4.65 4.55 4.65 4.6 4.7 4.65 L4.7 4.65 Q5.0 4.85 5.25 5.0 5.55 5.15 5.8 5.25 6.05 5.3 6.35 5.35 6.55 5.4 6.8 5.45 6.95 5.45 7.15 5.45 7.3 5.45 7.45 5.45 7.55 5.45 7.65 5.4 7.65 5.4 7.7 5.4 7.65 5.35 7.6 5.3 7.5 5.25 7.45 5.2 7.4 5.15 7.35 5.1 7.3 5.05 7.25 5.0 7.2 4.95 7.15 4.9 7.1 4.85 7.05 4.8 7.0 4.8 7.0 4.75 6.95 4.7 6.9 4.65 6.9 4.65 6.9 4.65 6.8 4.55 6.7 4.4 6.6 4.3 6.55 4.2 6.45 4.1 6.4 3.95 6.35 3.85 6.3 3.75 6.25 3.65 6.2 3.6 6.15 3.5 6.15 3.4 6.1 3.35 6.1 3.25 6.05 3.2 6.05 3.1 6.05 3.05 6.05 3.0 6.0 2.95 6.0 2.9 6.0 2.9 6.0 2.85 6.0 2.85 6.0 2.85 6.5 2.75 6.95 2.65 7.4 2.55 7.8 2.4 8.2 2.25 8.55 2.1 8.85 1.95 9.15 1.8 9.4 1.7 9.65 1.55 9.8 1.4 10.0 1.3 10.1 1.25 10.2 1.15 10.25 1.1 10.3 1.1 10.1 1.05 9.9 1.0 9.7 1.0 9.55 0.9 9.45 0.9 9.3 0.8 9.2 0.75 9.15 0.7 9.05 0.65 9.0 0.6 8.95 0.6 8.9 0.55 8.9 0.5 8.85 0.5 8.85 0.5 8.85 0.5 9.65 -0.05 10.2 -0.8 10.75 -1.45 11.05 -2.3 11.35 -3.05 11.5 -3.95 11.6 -4.7 11.6 -5.6 11.55 -6.35 11.45 -7.15 11.35 -7.85 11.2 -8.5 11.05 -9.05 10.9 -9.6 10.8 -9.95 10.65 -10.25 10.65 -10.35 10.6 -10.45 L10.6 -10.25 Q10.55 -10.05 10.5 -9.9 10.45 -9.75 10.4 -9.55 10.35 -9.4 10.3 -9.25 10.25 -9.15 10.15 -9.0 10.1 -8.9 10.05 -8.8 10.0 -8.7 10.0 -8.6 9.95 -8.55 9.9 -8.5 9.9 -8.5 9.9 -8.5 9.9 -8.6 9.9 -8.75 9.9 -8.85 9.9 -8.95 9.85 -9.05 9.85 -9.2 9.85 -9.3 9.85 -9.4 9.85 -9.5 9.85 -9.6 9.8 -9.75 9.8 -9.85 9.8 -9.95 9.8 -10.05 9.75 -10.15 9.75 -10.25 L9.75 -10.25" fill="#000000" fill-rule="evenodd" stroke="none"/>
    <path d="M0.35 -0.4 L-0.35 0.7 Q-0.35 0.55 -0.35 0.3 -0.35 0.25 -0.35 0.2 -0.35 0.15 -0.3 0.1 -0.3 0.05 -0.25 0.05 -0.25 0.0 -0.25 0.0 L0.3 -0.7 0.35 -0.4" fill="#bcbec0" fill-rule="evenodd" stroke="none"/>
    <path d="M2.2 7.2 L1.65 7.95 Q1.65 7.95 1.65 7.95 1.65 7.95 1.65 8.0 1.6 8.05 1.6 8.05 1.55 8.1 1.55 8.15 1.55 8.2 1.55 8.25 1.55 8.3 1.55 8.3 1.55 8.35 1.55 8.4 1.55 8.45 1.55 8.45 1.55 8.5 1.55 8.55 1.55 8.6 1.6 8.65 L2.25 7.55 2.2 7.2 M-4.15 6.9 Q-4.15 6.85 -4.1 6.85 -4.1 6.8 -4.05 6.75 -4.05 6.75 -4.05 6.7 -4.0 6.7 -4.0 6.65 -3.95 6.6 -3.95 6.6 -3.95 6.55 -3.9 6.5 -3.9 6.5 -3.9 6.45 -3.9 6.4 -3.85 6.4 L-4.15 6.9" fill="#bcbec0" fill-rule="evenodd" stroke="none"/>
    <path d="M10.25 -14.35 L9.6 -15.35 Q9.55 -15.4 9.5 -15.45 9.45 -15.5 9.4 -15.55 9.35 -15.6 9.35 -15.65 9.3 -15.75 9.25 -15.8 9.2 -15.85 9.15 -15.9 9.1 -15.95 9.0 -16.0 8.95 -16.05 8.9 -16.1 8.85 -16.15 8.8 -16.2 8.5 -16.45 8.25 -16.65 7.95 -16.85 7.6 -17.05 7.3 -17.25 6.95 -17.4 6.6 -17.55 6.25 -17.7 5.9 -17.8 5.5 -17.9 5.15 -18.0 4.75 -18.05 4.35 -18.15 3.95 -18.15 3.55 -18.2 3.1 -18.2 2.95 -18.2 2.8 -18.2 2.7 -18.2 2.55 -18.2 2.45 -18.15 2.3 -18.15 2.2 -18.15 2.1 -18.15 2.0 -18.15 1.95 -18.1 1.85 -18.1 1.8 -18.1 1.75 -18.1 1.7 -18.1 1.65 -18.1 1.65 -18.05 L0.3 -17.8 0.3 -17.8 0.0 -17.75 -0.3 -17.8 -1.65 -18.05 Q-1.65 -18.05 -1.7 -18.05 -1.75 -18.1 -1.8 -18.1 -1.85 -18.1 -1.95 -18.1 -2.0 -18.15 -2.1 -18.15 -2.2 -18.15 -2.3 -18.15 -2.45 -18.15 -2.55 -18.2 -2.7 -18.2 -2.8 -18.2 -2.95 -18.2 -3.1 -18.2 -3.5 -18.2 -3.95 -18.15 -4.35 -18.15 -4.75 -18.05 -5.15 -18.0 -5.5 -17.9 -5.9 -17.8 -6.25 -17.7 -6.6 -17.55 -6.95 -17.4 -7.3 -17.25 -7.6 -17.05 -7.9 -16.85 -8.2 -16.65 -8.5 -16.4 -8.8 -16.2 -8.9 -16.1 -9.0 -16.0 -9.1 -15.9 -9.2 -15.8 -9.3 -15.7 -9.4 -15.55 -9.5 -15.45 -9.6 -15.35 -9.7 -15.25 -9.8 -15.1 -9.9 -15.0 -9.95 -14.85 -10.05 -14.75 -10.15 -14.6 -10.2 -14.5 -10.3 -14.35 L-13.65 -14.35 -13.65 -2.2 Q-13.65 -2.1 -13.65 -1.95 -13.65 -1.85 -13.65 -1.7 -13.65 -1.6 -13.6 -1.5 -13.6 -1.35 -13.6 -1.25 -13.6 -1.1 -13.6 -1.0 -13.55 -0.85 -13.55 -0.75 -13.55 -0.6 -13.5 -0.45 -13.5 -0.35 -13.45 -0.2 -13.45 -0.15 -13.45 -0.05 -13.45 0.0 -13.4 0.1 -13.4 0.2 -13.4 0.25 -13.4 0.35 -13.35 0.4 -13.35 0.5 -13.35 0.55 -13.3 0.65 -13.3 0.7 -13.3 0.8 -13.25 0.9 -13.25 0.95 -13.2 1.05 -13.15 1.25 -13.1 1.45 -13.05 1.6 -13.0 1.8 -12.95 2.0 -12.9 2.2 -12.85 2.4 -12.8 2.6 -12.7 2.8 -12.65 3.0 -12.55 3.2 -12.5 3.4 -12.4 3.6 -12.35 3.8 -12.25 4.0 -12.2 4.25 -12.2 4.25 -12.15 4.25 L-12.2 4.25 Q-12.05 4.55 -11.8 5.1 -11.55 5.7 -11.4 5.95 -11.35 6.05 -11.2 6.45 -11.1 6.55 -10.95 6.9 -10.9 6.95 -10.8 7.15 -10.75 7.3 -10.65 7.35 -10.45 7.7 -10.3 8.05 -10.1 8.35 -9.9 8.7 -9.7 9.05 -9.5 9.35 -9.3 9.7 -9.05 10.0 -8.85 10.3 -8.6 10.6 -8.4 10.9 -8.15 11.2 -7.95 11.5 -7.7 11.8 -7.45 12.1 -7.2 12.4 -7.0 12.65 -6.85 12.75 -6.75 12.9 -6.6 13.0 -6.5 13.15 -6.35 13.3 -6.25 13.4 -6.1 13.55 -6.0 13.7 -5.85 13.8 -5.7 13.95 -5.6 14.1 -5.45 14.2 -5.3 14.35 -5.2 14.45 -5.05 14.6 -4.9 14.7 -4.75 14.85 -4.55 15.05 -4.35 15.2 -4.1 15.4 -3.9 15.55 -3.7 15.75 -3.45 15.9 -3.25 16.1 -3.0 16.25 -2.8 16.4 -2.55 16.6 -2.3 16.75 -2.1 16.9 -1.85 17.05 -1.6 17.2 -1.35 17.4 -1.1 17.55 -0.65 17.85 0.0 18.2 L0.0 18.2 Q0.7 17.85 1.15 17.55 1.4 17.4 1.65 17.25 1.85 17.1 2.1 16.9 2.35 16.75 2.55 16.6 2.8 16.4 3.05 16.25 3.25 16.1 3.5 15.9 3.7 15.75 3.9 15.55 4.15 15.4 4.35 15.2 4.55 15.0 4.8 14.85 4.95 14.7 5.1 14.6 5.2 14.45 5.35 14.35 5.5 14.2 5.6 14.05 5.75 13.95 5.9 13.8 6.0 13.65 6.15 13.55 6.3 13.4 6.4 13.25 6.55 13.15 6.65 13.0 6.8 12.85 6.9 12.75 7.1 12.5 7.2 12.4 7.45 12.1 7.7 11.8 7.95 11.55 8.15 11.25 8.4 10.95 8.6 10.6 8.85 10.3 9.05 10.0 9.3 9.7 9.5 9.35 9.7 9.05 9.9 8.7 10.1 8.4 10.3 8.05 10.5 7.7 10.7 7.35 10.8 7.2 10.95 6.9 10.95 6.85 10.95 6.85 11.0 6.8 11.0 6.8 11.0 6.75 11.05 6.75 11.05 6.7 11.05 6.65 11.05 6.65 11.1 6.6 11.1 6.6 11.1 6.55 11.15 6.5 11.15 6.5 11.15 6.45 11.2 6.45 11.2 6.4 11.2 6.4 11.25 6.35 11.25 6.3 11.25 6.3 11.25 6.25 11.3 6.25 11.3 6.2 11.3 6.15 11.3 6.15 11.35 6.1 11.35 6.1 11.35 6.05 11.4 6.0 11.4 6.0 11.4 5.95 11.85 5.0 12.2 4.25 12.3 4.05 12.35 3.85 12.45 3.6 12.5 3.4 12.6 3.2 12.65 3.0 12.7 2.8 12.8 2.6 12.85 2.4 12.9 2.2 12.95 2.0 13.05 1.8 13.1 1.6 13.15 1.4 13.2 1.2 13.25 1.0 13.45 0.1 13.45 -0.2 13.5 -0.35 13.5 -0.45 13.5 -0.6 13.55 -0.75 13.55 -0.85 13.55 -1.0 13.6 -1.1 13.6 -1.25 13.6 -1.35 13.6 -1.5 13.65 -1.6 13.65 -1.75 13.65 -1.85 13.65 -2.0 13.65 -2.1 13.65 -2.25 L13.65 -14.35 10.25 -14.35 M-0.8 -8.9 Q-0.65 -8.9 -0.45 -8.85 -0.3 -8.85 -0.1 -8.8 0.1 -8.8 0.25 -8.75 0.45 -8.75 0.65 -8.75 0.85 -8.75 1.0 -8.75 1.2 -8.75 1.35 -8.75 1.55 -8.75 1.7 -8.75 1.85 -8.75 2.0 -8.8 2.05 -8.8 2.1 -8.85 2.2 -8.9 2.25 -8.95 2.35 -9.0 2.4 -9.1 2.45 -9.2 2.55 -9.3 2.6 -9.35 2.65 -9.45 2.75 -9.5 2.8 -9.6 2.8 -9.65 2.85 -9.7 2.85 -9.7 2.85 -9.75 2.95 -9.5 2.95 -9.3 3.0 -9.05 3.0 -8.85 2.95 -8.6 2.9 -8.4 2.9 -8.25 2.8 -8.05 2.75 -7.9 2.7 -7.75 2.65 -7.65 2.55 -7.5 2.5 -7.45 2.45 -7.35 2.45 -7.35 2.45 -7.3 2.6 -7.25 2.75 -7.25 2.9 -7.25 3.0 -7.25 3.15 -7.3 3.25 -7.3 3.35 -7.3 3.45 -7.35 3.55 -7.35 3.6 -7.4 3.65 -7.4 3.75 -7.45 3.75 -7.45 3.8 -7.45 3.8 -7.45 3.8 -7.5 3.75 -7.25 3.7 -7.05 3.65 -6.8 3.6 -6.6 3.5 -6.45 3.4 -6.25 3.35 -6.1 3.25 -5.95 3.15 -5.85 3.05 -5.75 3.0 -5.65 2.9 -5.55 2.85 -5.5 2.8 -5.45 2.8 -5.45 2.8 -5.4 2.85 -5.25 2.9 -5.1 2.95 -4.95 3.0 -4.75 3.0 -4.6 3.0 -4.45 3.05 -4.3 3.05 -4.15 3.05 -4.0 3.05 -3.9 3.05 -3.8 3.05 -3.65 3.05 -3.6 3.0 -3.55 3.0 -3.5 3.0 -3.5 2.85 -3.6 2.7 -3.7 2.55 -3.8 2.4 -3.85 2.3 -3.9 2.15 -3.9 2.05 -3.95 1.95 -3.95 1.85 -3.95 1.75 -3.95 1.7 -3.9 1.65 -3.9 1.6 -3.9 1.55 -3.85 1.55 -3.85 1.55 -3.85 1.55 -3.85 1.55 -3.85 1.55 -3.8 1.55 -3.75 1.5 -3.7 1.5 -3.65 1.5 -3.6 1.45 -3.55 1.45 -3.45 1.45 -3.4 1.4 -3.3 1.35 -3.25 1.35 -3.2 1.3 -3.15 1.25 -3.05 1.2 -3.05 1.15 -3.25 1.0 -3.4 0.9 -3.5 0.8 -3.6 0.65 -3.65 0.5 -3.65 0.35 -3.65 0.15 -3.65 0.0 -3.6 -0.2 -3.55 -0.35 -3.5 -0.55 -3.4 -0.7 -3.35 -0.9 -3.25 -1.3 -3.05 -1.3 -3.1 -1.2 -3.25 -1.1 -3.35 -1.0 -3.45 -0.95 -3.55 -0.9 -3.65 -0.85 -3.75 -0.8 -3.8 -0.75 -3.9 -0.7 -4.0 -0.7 -4.05 -0.7 -4.1 -0.75 -4.2 -0.75 -4.25 -0.85 -4.3 -0.9 -4.35 -1.0 -4.4 -1.1 -4.4 -1.2 -4.35 -1.3 -4.35 -1.4 -4.35 -1.5 -4.3 -1.6 -4.3 -1.7 -4.3 -1.75 -4.3 -1.85 -4.3 -1.9 -4.3 -2.0 -4.3 -2.05 -4.35 -2.1 -4.35 -2.15 -4.35 -2.25 -4.35 -2.3 -4.4 L-2.4 -4.45 Q-2.45 -4.45 -2.5 -4.5 -2.5 -4.5 -2.55 -4.55 -2.6 -4.6 -2.65 -4.6 -2.75 -4.75 -2.85 -4.85 -2.95 -5.0 -3.05 -5.1 -3.1 -5.2 -3.15 -5.3 -3.2 -5.4 -3.25 -5.5 -3.25 -5.6 -3.3 -5.65 -3.3 -5.7 -3.3 -5.75 -3.3 -5.8 -3.35 -5.8 -3.35 -5.85 -3.35 -5.85 -3.2 -5.75 -3.05 -5.65 -2.9 -5.55 -2.8 -5.5 -2.65 -5.45 -2.55 -5.4 -2.4 -5.35 -2.3 -5.35 -2.2 -5.3 -2.1 -5.3 -2.0 -5.3 -1.9 -5.3 -1.8 -5.35 -1.7 -5.35 -1.65 -5.4 -1.55 -5.4 -1.45 -5.45 -1.4 -5.5 -1.3 -5.55 -1.2 -5.6 -1.1 -5.65 -1.0 -5.75 -0.9 -5.8 -0.8 -5.9 -0.7 -5.95 -0.65 -6.05 -0.55 -6.15 -0.5 -6.2 -0.4 -6.3 -0.35 -6.4 -0.3 -6.45 -0.3 -6.55 -0.3 -6.6 -0.3 -6.65 -0.3 -6.7 -0.3 -6.75 -0.3 -6.8 -0.35 -6.85 -0.35 -6.85 -0.35 -6.9 -0.4 -6.95 -0.4 -6.95 -0.4 -6.95 -0.4 -7.0 -0.4 -6.95 -0.4 -6.95 -0.55 -6.95 -0.7 -6.85 -0.85 -6.8 -0.95 -6.75 -1.1 -6.7 -1.2 -6.6 -1.3 -6.55 -1.45 -6.45 -1.6 -6.3 -1.65 -6.3 -1.75 -6.2 -1.85 -6.15 -1.95 -6.1 -2.05 -6.1 -2.15 -6.05 -2.2 -6.05 -2.3 -6.05 -2.4 -6.1 -2.45 -6.15 -2.5 -6.2 -2.55 -6.3 -2.6 -6.35 -2.6 -6.4 -2.6 -6.5 -2.6 -6.55 -2.6 -6.65 -2.6 -6.7 -2.6 -6.75 -2.6 -6.8 -2.6 -6.85 -2.6 -6.85 -2.6 -6.9 -2.6 -6.8 -2.55 -6.75 -2.5 -6.7 -2.5 -6.6 -2.45 -6.55 -2.4 -6.55 -2.35 -6.5 -2.35 -6.5 -2.3 -6.45 -2.25 -6.45 -2.25 -6.45 -2.2 -6.45 -2.15 -6.45 -2.15 -6.45 -2.1 -6.5 -2.1 -6.5 -1.9 -6.65 -1.75 -6.8 -1.6 -6.9 -1.45 -7.0 -1.35 -7.1 -1.2 -7.15 -1.1 -7.2 -1.0 -7.25 -0.95 -7.3 -0.9 -7.3 -0.8 -7.35 -0.75 -7.35 -0.75 -7.35 -0.7 -7.35 -0.7 -7.35 -0.7 -7.35 -0.65 -7.45 -0.65 -7.55 -0.65 -7.65 -0.65 -7.75 -0.65 -7.8 -0.65 -7.85 -0.7 -7.9 -0.7 -7.95 -0.75 -8.0 -0.8 -8.05 -0.8 -8.05 -0.85 -8.1 -0.9 -8.1 -0.95 -8.1 -1.0 -8.1 -1.0 -8.1 -1.15 -8.1 -1.3 -8.1 -1.45 -8.1 -1.6 -8.05 -1.7 -8.05 -1.85 -8.0 -1.95 -7.95 -2.05 -7.9 -2.15 -7.85 -2.25 -7.85 -2.3 -7.8 -2.35 -7.75 -2.4 -7.7 -2.45 -7.7 -2.5 -7.65 -2.5 -7.65 -2.45 -7.85 -2.4 -8.0 -2.3 -8.15 -2.2 -8.3 -2.1 -8.4 -2.0 -8.5 -1.85 -8.6 -1.75 -8.65 -1.6 -8.75 -1.5 -8.8 -1.35 -8.85 -1.2 -8.85 -1.1 -8.9 -1.0 -8.9 -0.9 -8.9 -0.8 -8.9 L-0.8 -8.9 M9.7 8.1 Q9.7 8.15 9.65 8.25 9.65 8.3 9.65 8.35 9.6 8.45 9.6 8.5 9.55 8.55 9.55 8.65 9.5 8.7 9.5 8.75 9.45 8.8 9.4 8.85 9.4 8.9 9.35 8.95 9.35 8.95 9.3 9.0 9.25 9.05 9.2 9.05 9.15 9.05 9.15 9.1 9.1 9.15 9.0 9.15 8.95 9.15 8.85 9.2 8.75 9.2 8.7 9.2 8.6 9.2 8.5 9.2 8.4 9.2 8.3 9.2 8.2 9.2 8.1 9.15 8.0 9.15 7.9 9.15 7.8 9.1 7.65 9.1 7.15 9.05 6.75 8.95 6.6 8.9 6.45 8.95 6.3 8.95 6.15 8.95 6.05 9.0 5.95 9.05 5.85 9.1 5.75 9.15 5.7 9.2 5.6 9.25 5.55 9.3 5.5 9.35 5.5 9.4 5.45 9.4 5.45 9.45 5.45 9.45 5.45 9.45 5.5 9.5 5.55 9.5 5.6 9.55 5.65 9.6 5.75 9.65 5.85 9.7 6.0 9.7 6.1 9.75 6.25 9.8 6.4 9.8 6.55 9.8 6.75 9.8 6.9 9.8 7.1 9.75 7.3 9.65 7.35 9.65 7.35 9.65 7.4 9.6 7.4 9.6 7.45 9.6 7.5 9.55 7.5 9.55 7.55 9.55 7.55 9.5 7.6 9.5 7.65 9.5 7.65 9.45 7.7 9.45 7.75 9.4 7.75 9.4 7.8 9.35 L7.95 9.8 8.45 10.15 Q8.45 10.15 8.45 10.2 L8.4 10.2 Q8.35 10.2 8.3 10.25 8.25 10.3 8.2 10.3 8.1 10.35 8.05 10.4 7.95 10.45 7.8 10.45 7.7 10.5 7.55 10.55 7.4 10.6 7.3 10.6 7.1 10.65 6.95 10.65 6.75 10.65 6.6 10.65 6.35 10.65 6.15 10.6 5.9 10.55 5.65 10.5 5.45 10.4 5.2 10.25 5.0 10.15 4.75 9.95 4.5 9.75 4.2 9.5 3.95 9.25 3.6 8.9 3.3 8.55 2.95 8.15 2.6 7.75 2.2 7.2 L2.25 7.55 1.6 8.65 Q1.6 8.85 1.65 9.0 1.7 9.2 1.8 9.4 1.9 9.65 2.05 9.85 2.2 10.05 2.4 10.25 2.6 10.5 2.85 10.65 3.15 10.85 3.5 11.0 3.85 11.2 4.3 11.3 4.75 11.4 5.3 11.5 L5.25 11.65 5.1 12.2 Q5.1 12.2 5.05 12.2 5.05 12.15 5.0 12.15 4.95 12.1 4.85 12.1 4.75 12.1 4.65 12.15 4.5 12.15 4.35 12.2 4.15 12.3 3.95 12.4 3.7 12.5 3.4 12.7 3.1 12.9 2.8 13.2 2.65 13.3 2.5 13.45 2.4 13.55 2.2 13.7 2.05 13.85 1.9 14.0 1.75 14.15 1.55 14.3 1.4 14.5 1.2 14.7 1.05 14.85 0.85 15.1 0.65 15.3 0.45 15.5 0.2 15.75 0.0 16.0 -0.2 15.75 -0.45 15.5 -0.65 15.3 -0.85 15.1 -1.0 14.85 -1.2 14.7 -1.4 14.5 -1.55 14.3 -1.75 14.15 -1.9 14.0 -2.05 13.85 -2.2 13.7 -2.35 13.55 -2.5 13.45 -2.65 13.3 -2.8 13.2 -3.15 12.9 -3.4 12.7 -3.7 12.55 -3.9 12.4 -4.15 12.3 -4.3 12.2 -4.5 12.15 -4.6 12.15 -4.75 12.1 -4.85 12.1 -4.9 12.15 -4.95 12.15 -5.0 12.15 -5.05 12.2 -5.05 12.2 -5.05 12.2 L-5.25 11.65 -5.3 11.5 Q-4.75 11.45 -4.3 11.3 -3.85 11.2 -3.5 11.0 -3.15 10.85 -2.85 10.65 -2.6 10.5 -2.35 10.25 -2.15 10.05 -2.0 9.85 -1.9 9.65 -1.8 9.4 -1.7 9.25 -1.65 9.0 -1.6 8.85 -1.55 8.65 L0.0 11.2 1.6 8.65 Q1.6 8.6 1.55 8.55 1.55 8.5 1.55 8.45 1.55 8.45 1.55 8.4 1.55 8.35 1.55 8.3 1.55 8.3 1.55 8.25 1.55 8.2 1.55 8.15 1.55 8.1 1.6 8.05 1.6 8.0 1.65 8.0 L0.0 10.15 -1.65 8.0 Q-1.65 7.95 -1.65 7.95 L-2.2 7.2 Q-2.6 7.7 -2.95 8.15 -3.3 8.55 -3.6 8.9 -3.9 9.2 -4.2 9.45 -4.45 9.75 -4.7 9.95 -4.95 10.1 -5.2 10.25 -5.4 10.4 -5.65 10.45 -5.85 10.55 -6.1 10.6 -6.3 10.65 -6.55 10.65 -6.75 10.65 -6.9 10.65 -7.1 10.65 -7.25 10.6 -7.4 10.6 -7.55 10.55 -7.65 10.5 -7.8 10.5 -7.9 10.45 -8.0 10.4 -8.1 10.35 -8.15 10.35 -8.25 10.3 -8.3 10.25 -8.35 10.25 -8.4 10.2 -8.4 10.2 -8.4 10.2 -8.45 10.15 -8.45 10.15 L-7.9 9.8 -7.8 9.35 Q-7.75 9.4 -7.75 9.4 -7.7 9.45 -7.65 9.45 -7.6 9.5 -7.6 9.5 -7.55 9.55 -7.5 9.55 -7.5 9.55 -7.45 9.6 -7.4 9.6 -7.4 9.6 -7.35 9.65 -7.3 9.65 -7.3 9.65 -7.25 9.7 -7.05 9.75 -6.9 9.8 -6.7 9.85 -6.55 9.8 -6.4 9.8 -6.25 9.8 -6.1 9.75 -5.95 9.7 -5.85 9.7 -5.75 9.65 -5.65 9.6 -5.55 9.55 -5.5 9.5 -5.45 9.45 -5.45 9.45 -5.4 9.45 -5.4 9.45 -5.45 9.4 -5.45 9.4 -5.5 9.35 -5.55 9.3 -5.6 9.25 -5.65 9.2 -5.75 9.15 -5.85 9.1 -5.95 9.05 -6.05 9.0 -6.15 8.95 -6.3 8.95 -6.45 8.95 -6.6 8.9 -6.75 8.95 -6.8 8.95 -6.85 8.95 -6.95 9.0 -7.0 9.0 -7.05 9.0 -7.1 9.0 -7.15 9.05 -7.2 9.05 -7.25 9.05 -7.3 9.05 -7.4 9.05 -7.45 9.05 -7.5 9.1 -7.55 9.1 -7.6 9.1 -7.65 9.1 -7.75 9.1 -7.9 9.15 -8.0 9.15 -8.1 9.15 -8.2 9.2 -8.3 9.2 -8.4 9.2 -8.45 9.2 -8.55 9.2 -8.65 9.2 -8.75 9.2 -8.8 9.15 -8.9 9.15 -8.95 9.15 -9.05 9.1 -9.1 9.1 -9.25 9.0 -9.3 9.0 -9.35 8.95 -9.35 8.95 -9.4 8.9 -9.4 8.85 -9.45 8.8 -9.45 8.75 -9.5 8.7 -9.5 8.6 -9.55 8.55 -9.55 8.5 -9.6 8.45 -9.6 8.35 -9.65 8.3 -9.65 8.2 -9.65 8.15 -9.7 8.05 -9.75 7.75 -9.8 7.45 -9.75 7.55 -9.65 7.65 -9.55 7.75 -9.45 7.85 -9.35 7.95 -9.25 8.0 -9.15 8.05 -9.05 8.1 -8.95 8.15 -8.85 8.15 -8.7 8.2 -8.6 8.2 -8.5 8.2 -8.4 8.2 -8.3 8.2 -8.2 8.2 -7.8 8.15 -7.4 8.1 -7.4 8.05 -7.4 8.0 -7.45 7.95 -7.45 7.9 -7.5 7.85 -7.55 7.85 -7.55 7.8 -7.6 7.8 -7.6 7.8 -7.7 7.75 -7.7 7.75 -7.75 7.75 -7.75 7.7 -7.8 7.7 -7.8 7.65 -7.8 7.65 -7.7 7.3 -7.65 7.05 -7.65 6.8 -7.7 6.65 -7.7 6.5 -7.8 6.4 -7.9 6.35 -8.0 6.3 -8.1 6.3 -8.25 6.3 -8.35 6.3 -8.45 6.35 -8.5 6.35 -8.6 6.4 -8.6 6.4 -8.65 6.4 -8.7 6.35 -8.65 6.3 -8.65 6.25 -8.65 6.2 -8.6 6.15 -8.55 6.05 -8.45 6.0 -8.4 5.95 -8.3 5.9 -8.25 5.85 -8.15 5.8 -8.05 5.75 -7.95 5.7 -7.9 5.7 -7.8 5.65 -7.75 5.65 -7.5 5.65 -7.35 5.7 -7.15 5.75 -7.05 5.8 -6.95 5.9 -6.9 6.0 -6.8 6.05 -6.8 6.2 -6.8 6.3 -6.8 6.4 -6.8 6.5 -6.8 6.6 -6.85 6.7 -6.85 6.8 -6.9 6.9 -6.9 6.95 -6.9 7.0 -6.9 7.05 -6.9 7.15 -6.9 7.2 -6.85 7.25 -6.85 7.3 -6.85 7.4 -6.8 7.45 -6.8 7.5 -6.75 7.55 -6.75 7.6 -6.75 7.65 -6.7 7.65 -6.7 7.7 -6.7 7.7 -6.7 7.7 -6.45 7.7 -6.2 7.7 -6.0 7.7 -5.8 7.65 -5.6 7.6 -5.4 7.6 -5.25 7.55 -5.1 7.5 -4.95 7.45 -4.8 7.35 -4.65 7.3 -4.55 7.25 -4.45 7.15 -4.35 7.05 -4.25 7.0 -4.2 6.9 -4.2 6.9 -4.15 6.9 L-3.85 6.4 0.0 0.0 3.85 6.35 Q3.9 6.5 4.0 6.65 4.05 6.75 4.15 6.9 4.3 7.0 4.4 7.1 4.55 7.25 4.7 7.3 4.9 7.4 5.1 7.5 5.3 7.55 5.55 7.6 5.8 7.65 6.05 7.7 6.35 7.7 6.7 7.7 6.7 7.7 6.7 7.7 6.75 7.65 6.75 7.65 6.75 7.6 6.8 7.55 6.8 7.5 6.85 7.45 6.85 7.4 6.85 7.35 6.9 7.25 6.9 7.2 6.9 7.15 6.9 7.1 6.9 7.0 6.9 6.95 6.9 6.9 6.85 6.8 6.85 6.65 6.85 6.6 6.8 6.5 6.8 6.4 6.8 6.3 6.8 6.2 6.85 6.1 6.9 6.0 6.95 5.9 7.05 5.85 7.15 5.75 7.35 5.7 7.5 5.65 7.75 5.65 7.8 5.65 7.9 5.7 8.0 5.7 8.1 5.75 8.15 5.8 8.25 5.85 8.35 5.9 8.4 5.95 8.5 6.0 8.55 6.05 8.6 6.15 8.65 6.2 8.7 6.25 8.7 6.3 8.7 6.35 8.65 6.4 8.65 6.4 8.6 6.4 8.5 6.35 8.45 6.35 8.35 6.3 8.25 6.3 8.1 6.3 8.0 6.3 7.9 6.35 7.8 6.4 7.75 6.5 7.7 6.65 7.65 6.8 7.7 7.05 7.7 7.3 7.8 7.65 7.8 7.7 7.8 7.7 7.8 7.7 7.75 7.75 7.75 7.75 7.7 7.75 7.6 7.8 7.6 7.8 7.55 7.8 7.55 7.85 7.5 7.85 7.45 7.9 7.45 7.95 7.4 8.0 7.4 8.05 7.4 8.1 7.4 8.1 7.4 8.1 7.4 8.1 7.45 8.1 7.5 8.1 7.55 8.15 7.6 8.15 7.65 8.15 7.7 8.15 7.75 8.15 7.8 8.2 7.9 8.2 7.95 8.2 8.05 8.2 8.1 8.2 8.2 8.2 8.3 8.2 8.4 8.2 8.5 8.2 8.6 8.2 8.75 8.2 8.85 8.15 8.95 8.15 9.05 8.1 9.15 8.05 9.25 8.0 9.4 7.95 9.45 7.85 9.55 7.8 9.65 7.7 9.75 7.6 9.8 7.45 9.85 7.45 9.7 8.1 L9.7 8.1 M8.85 0.5 Q8.85 0.5 8.85 0.5 8.9 0.55 8.9 0.55 8.95 0.6 9.0 0.65 9.05 0.7 9.15 0.75 9.2 0.8 9.3 0.85 9.45 0.9 9.55 0.95 9.7 1.0 9.9 1.0 10.05 1.05 10.3 1.1 10.3 1.1 10.2 1.15 10.1 1.25 10.0 1.3 9.85 1.45 9.65 1.55 9.4 1.7 9.15 1.8 8.85 1.95 8.55 2.1 8.2 2.25 7.8 2.4 7.4 2.55 6.95 2.65 6.5 2.75 6.0 2.85 6.0 2.85 6.0 2.85 6.0 2.9 6.0 2.9 6.05 3.1 6.0 2.95 6.05 3.0 6.05 3.05 6.05 3.1 6.05 3.15 6.05 3.2 6.1 3.25 6.1 3.35 6.15 3.4 6.15 3.5 6.2 3.6 6.25 3.7 6.3 3.75 6.35 3.85 6.4 3.95 6.45 4.1 6.55 4.2 6.6 4.3 6.7 4.4 6.8 4.55 6.9 4.65 6.9 4.65 6.9 4.65 6.95 4.7 7.0 4.75 7.0 4.8 7.05 4.85 7.1 4.9 7.15 4.9 7.2 4.95 7.25 5.0 7.3 5.05 7.35 5.1 7.4 5.15 7.45 5.2 7.5 5.25 7.6 5.3 7.65 5.35 7.7 5.4 7.7 5.4 7.65 5.4 7.55 5.45 7.45 5.45 7.3 5.45 7.15 5.45 7.0 5.45 6.8 5.45 6.55 5.4 6.35 5.35 6.1 5.3 5.85 5.25 5.55 5.15 5.3 5.0 5.0 4.85 4.7 4.65 L4.7 4.65 Q4.15 4.2 4.1 4.1 3.95 3.65 3.85 3.3 3.75 2.95 3.65 2.65 3.6 2.35 3.55 2.1 3.5 1.85 3.45 1.65 3.45 1.45 3.45 1.25 3.45 1.05 3.45 0.9 3.45 0.75 3.5 0.55 3.5 0.4 3.55 0.2 3.55 0.05 3.65 -0.1 3.7 -0.25 3.8 -0.5 3.9 -0.65 4.05 -0.9 4.2 -1.1 4.35 -1.3 4.45 -1.5 4.6 -1.7 4.75 -1.85 4.85 -2.05 4.95 -2.15 5.05 -2.3 5.3 -2.6 5.2 -2.45 5.5 -2.8 5.7 -3.2 5.9 -3.6 6.0 -4.05 6.1 -4.45 6.15 -4.9 6.25 -5.25 6.25 -5.7 6.25 -6.05 6.25 -6.4 6.2 -6.7 6.2 -7.0 6.15 -7.2 6.15 -7.35 6.1 -7.45 6.1 -7.5 6.1 -7.3 6.1 -7.05 6.05 -6.75 6.0 -6.5 6.0 -6.15 5.95 -5.85 5.9 -5.5 5.8 -5.2 5.75 -4.85 5.65 -4.55 5.55 -4.2 5.4 -3.9 5.3 -3.6 5.15 -3.35 5.0 -3.1 4.8 -2.9 3.6 -1.5 3.4 -1.15 3.35 -1.05 3.35 -1.05 3.3 -0.95 3.3 -0.9 3.25 -0.85 3.2 -0.75 3.15 -0.7 3.15 -0.6 3.1 -0.5 3.05 -0.45 3.0 -0.35 3.0 -0.25 2.95 -0.15 2.95 -0.05 2.9 0.1 2.85 0.2 2.8 0.4 2.8 0.65 2.8 0.85 2.8 1.1 2.85 1.35 2.85 1.65 2.9 1.9 2.95 2.2 3.0 2.45 3.05 2.75 3.15 3.0 3.2 3.25 3.25 3.5 3.35 3.75 3.4 3.95 3.45 4.15 3.5 4.65 3.5 4.65 L3.5 4.65 Q3.5 4.7 3.6 5.1 L0.0 -0.9 -3.6 5.15 Q-3.6 5.15 -3.5 4.65 -3.5 4.6 -3.5 4.55 -3.5 4.55 -3.5 4.5 -3.5 4.45 -3.5 4.4 -3.45 4.4 -3.45 4.35 -3.45 4.3 -3.45 4.3 -3.45 4.25 -3.45 4.2 -3.45 4.2 -3.45 4.15 -3.45 4.1 -3.45 4.1 -3.45 4.1 -3.45 4.05 -3.4 3.85 -3.35 3.65 -3.25 3.4 -3.2 3.15 -3.15 2.9 -3.1 2.65 -3.0 2.35 -3.0 2.1 -2.95 1.85 -2.9 1.6 -2.85 1.3 -2.85 1.1 -2.85 0.8 -2.85 0.6 -2.85 0.4 -2.9 0.2 -2.9 0.1 -2.95 -0.05 -3.0 -0.15 -3.0 -0.25 -3.05 -0.35 -3.1 -0.45 -3.1 -0.5 -3.15 -0.6 -3.2 -0.7 -3.25 -0.8 -3.25 -0.85 -3.3 -0.9 -3.35 -1.0 -3.35 -1.05 -3.4 -1.1 -3.45 -1.15 -3.5 -1.25 -3.6 -1.4 -3.7 -1.55 -3.8 -1.65 -3.9 -1.8 -4.0 -1.95 -4.1 -2.05 -4.2 -2.2 -4.3 -2.3 -4.4 -2.45 -4.5 -2.55 -4.6 -2.65 -4.65 -2.7 -4.75 -2.8 -4.65 -2.7 -4.85 -2.9 -5.05 -3.1 -5.2 -3.35 -5.35 -3.6 -5.45 -3.9 -5.55 -4.2 -5.65 -4.55 -5.75 -4.85 -5.85 -5.2 -5.9 -5.5 -5.95 -5.85 -6.0 -6.15 -6.05 -6.5 -6.1 -6.8 -6.1 -7.05 -6.1 -7.3 -6.15 -7.5 -6.15 -7.5 -6.15 -7.35 -6.2 -7.15 -6.2 -7.0 -6.25 -6.7 -6.25 -6.4 -6.3 -6.05 -6.25 -5.7 -6.25 -5.25 -6.2 -4.9 -6.15 -4.45 -6.0 -4.05 -5.9 -3.6 -5.7 -3.2 -5.5 -2.8 -5.2 -2.45 -3.65 -0.3 -3.55 0.2 -3.5 0.4 -3.5 0.55 -3.5 0.75 -3.45 0.9 -3.45 1.1 -3.45 1.25 -3.45 1.45 -3.5 1.65 -3.5 1.9 -3.55 2.1 -3.6 2.4 -3.7 2.7 -3.75 3.0 -3.9 3.35 -4.0 3.7 -4.15 4.15 -4.2 4.2 -4.2 4.2 -4.25 4.25 -4.3 4.3 -4.3 4.3 -4.35 4.35 -4.4 4.4 -4.4 4.4 -4.45 4.45 -4.5 4.5 -4.5 4.5 -4.55 4.55 -4.6 4.55 -4.65 4.6 -4.65 4.6 -4.7 4.65 -4.85 4.75 -5.05 4.9 -5.2 5.0 -5.4 5.05 -5.55 5.15 -5.75 5.2 -5.9 5.25 -6.05 5.3 -6.2 5.35 -6.35 5.4 -6.5 5.4 -6.65 5.4 -6.75 5.45 -6.9 5.45 -7.0 5.45 -7.15 5.45 -7.4 5.45 -7.7 5.4 -7.65 5.35 -7.55 5.3 -7.5 5.25 -7.45 5.2 -7.4 5.15 -7.35 5.1 -7.3 5.05 -7.25 5.0 -7.2 4.95 -7.15 4.9 -7.1 4.85 -7.05 4.85 -7.0 4.8 -6.95 4.75 -6.9 4.7 -6.9 4.65 -6.8 4.55 -6.7 4.4 -6.6 4.3 -6.55 4.2 -6.45 4.1 -6.4 3.95 -6.35 3.85 -6.3 3.75 -6.25 3.65 -6.2 3.6 -6.15 3.5 -6.1 3.4 -6.1 3.35 -6.05 3.25 -6.05 3.2 -6.05 3.15 -6.05 3.1 -6.05 3.05 -6.0 3.0 -6.0 3.0 -6.0 2.95 -6.0 2.9 -6.0 2.9 -6.0 2.85 -6.0 2.85 -6.0 2.85 -6.0 2.85 -6.0 2.85 -6.0 2.85 -6.0 2.85 -6.5 2.75 -6.95 2.65 -7.4 2.55 -7.8 2.4 -8.15 2.25 -8.5 2.1 -8.85 1.95 -9.15 1.8 -9.4 1.65 -9.6 1.55 -9.8 1.4 -9.95 1.3 -10.1 1.2 -10.2 1.15 -10.25 1.1 -10.25 1.1 -10.05 1.05 -9.85 1.0 -9.7 1.0 -9.55 0.9 -9.4 0.85 -9.3 0.8 -9.2 0.75 -9.1 0.7 -9.05 0.65 -9.0 0.6 -8.95 0.6 -8.9 0.55 -8.85 0.5 -8.85 0.5 -8.85 0.5 -8.85 0.45 -9.65 -0.1 -10.2 -0.8 -10.75 -1.5 -11.05 -2.3 -11.35 -3.1 -11.5 -3.95 -11.6 -4.75 -11.55 -5.6 -11.55 -6.35 -11.45 -7.15 -11.35 -7.85 -11.15 -8.55 -11.05 -9.1 -10.9 -9.6 -10.75 -9.95 -10.65 -10.25 -10.6 -10.35 -10.6 -10.45 -10.6 -10.45 -10.55 -10.25 -10.5 -10.05 -10.45 -9.9 -10.45 -9.75 -10.35 -9.55 -10.3 -9.4 -10.25 -9.25 -10.2 -9.15 -10.15 -9.0 -10.1 -8.9 -10.05 -8.8 -10.0 -8.7 -9.95 -8.65 -9.95 -8.55 -9.9 -8.55 -9.9 -8.5 -9.9 -8.5 -9.9 -8.6 -9.9 -8.75 -9.9 -8.85 -9.85 -8.95 -9.85 -9.1 -9.85 -9.2 -9.85 -9.3 -9.85 -9.4 -9.85 -9.5 -9.8 -9.65 -9.8 -9.75 -9.8 -9.85 -9.8 -9.95 -9.75 -10.05 -9.75 -10.15 -9.75 -10.25 -9.75 -10.35 -9.7 -10.6 -9.65 -10.8 -9.6 -10.9 -9.6 -10.95 -9.6 -11.0 -9.6 -11.0 -9.6 -11.05 -9.6 -11.1 -9.55 -11.3 -9.5 -11.5 -9.45 -11.6 -9.45 -11.7 -9.4 -11.75 -9.4 -11.85 -9.35 -11.9 -9.35 -12.0 -9.3 -12.1 -9.25 -12.15 -9.25 -12.25 -9.2 -12.3 -9.2 -12.4 -9.15 -12.45 -9.1 -12.55 -9.1 -12.6 -9.05 -12.7 -9.0 -12.75 -9.0 -12.85 -8.95 -12.95 -8.9 -13.05 -8.85 -13.2 -8.75 -13.3 -8.7 -13.4 -8.65 -13.5 -8.6 -13.6 -8.55 -13.7 -8.45 -13.75 -8.4 -13.85 -8.35 -13.95 -8.25 -14.05 -8.2 -14.15 -8.15 -14.2 -8.05 -14.3 -8.0 -14.4 -7.85 -14.6 -7.65 -14.75 -7.45 -14.9 -7.3 -15.05 -7.1 -15.2 -6.9 -15.35 -6.7 -15.45 -6.5 -15.55 -6.35 -15.7 -6.15 -15.75 -5.95 -15.85 -5.75 -15.95 -5.55 -16.0 -5.35 -16.1 -5.15 -16.15 -5.0 -16.2 -4.7 -16.25 -4.4 -16.3 -4.15 -16.35 -3.85 -16.4 -3.6 -16.4 -3.35 -16.4 -3.1 -16.4 -2.9 -16.4 -2.7 -16.4 -2.55 -16.4 -2.4 -16.4 -2.25 -16.35 -2.15 -16.35 -2.1 -16.35 -2.05 -16.35 -2.0 -16.35 -2.05 -16.3 -2.05 -16.25 -2.1 -16.2 -2.15 -16.2 -2.25 -16.1 -2.35 -15.95 -2.45 -15.85 -2.55 -15.7 -2.65 -15.6 -2.75 -15.5 -2.85 -15.4 -2.95 -15.25 -3.0 -15.15 -3.1 -15.05 -3.2 -14.9 -3.25 -14.8 -3.35 -14.7 -3.45 -14.6 -3.5 -14.5 -3.6 -14.4 -3.65 -14.3 -3.75 -14.2 -3.8 -14.1 -3.85 -14.0 -3.9 -13.9 -3.95 -13.8 -4.05 -13.7 -4.1 -13.6 -4.15 -13.5 -4.2 -13.4 -4.25 -13.3 -4.3 -13.2 -4.35 -13.1 -4.4 -13.0 -4.45 -12.9 -4.45 -12.85 -4.5 -12.75 -4.55 -12.65 -4.6 -12.6 -4.6 -12.5 -4.65 -12.4 -4.7 -12.35 -4.75 -12.25 -4.75 -12.2 -4.8 -12.1 -4.85 -12.0 -4.85 -11.95 -4.9 -11.85 -4.9 -11.8 -4.95 -11.7 -4.95 -11.65 -5.0 -11.6 -5.05 -11.4 -5.15 -11.05 -5.15 -11.0 -5.15 -11.0 -5.2 -10.95 -5.2 -10.9 -5.25 -10.5 -5.3 -10.25 -5.35 -9.7 -5.35 -9.15 -5.3 -9.25 -5.25 -9.3 -5.2 -9.4 -5.15 -9.45 -5.1 -9.55 -5.05 -9.6 -5.0 -9.7 -4.95 -9.75 -4.9 -9.8 -4.85 -9.9 -4.8 -9.95 -4.75 -10.0 -4.7 -10.05 -4.65 -10.15 -4.6 -10.2 -4.55 -10.25 -4.5 -10.3 -4.45 -10.35 -4.4 -10.4 -4.4 -10.45 -4.35 -10.5 -4.3 -10.55 -4.25 -10.6 -4.2 -10.6 -4.15 -10.65 -4.15 -10.7 -4.1 -10.75 -4.05 -10.8 -4.0 -10.8 -4.0 -10.85 -3.95 -10.9 -3.9 -10.9 -3.85 -10.95 -3.85 -11.0 -3.8 -11.0 -3.75 -11.05 L-3.75 -11.05 Q-3.7 -11.1 -3.65 -11.15 -3.6 -11.15 -3.55 -11.2 -3.5 -11.25 -3.45 -11.3 -3.4 -11.3 -3.35 -11.35 -3.3 -11.4 -3.25 -11.4 -3.2 -11.45 -3.15 -11.45 -3.1 -11.5 -3.05 -11.55 -3.0 -11.55 -3.0 -11.6 -2.55 -11.75 -2.1 -11.85 -2.1 -11.85 -2.45 -11.6 -2.55 -11.5 -2.7 -11.3 -2.85 -11.1 -2.95 -11.05 -2.95 -11.0 -3.0 -10.95 -3.0 -10.95 -3.05 -10.9 -3.1 -10.85 -3.1 -10.8 -3.15 -10.8 -3.15 -10.75 -3.2 -10.7 -3.25 -10.65 -3.25 -10.6 -3.3 -10.6 -3.3 -10.55 -3.35 -10.5 -3.35 -10.45 -3.4 -10.4 -3.4 -10.35 -3.45 -10.35 -3.45 -10.3 -3.5 -10.25 -3.7 -9.85 -3.9 -9.45 -4.05 -9.05 -4.15 -8.65 -4.25 -8.25 -4.3 -7.85 -4.35 -7.5 -4.35 -7.1 -4.4 -6.8 -4.35 -6.45 -4.35 -6.15 -4.3 -5.85 -4.3 -5.55 -4.25 -5.35 -4.2 -5.15 -4.2 -4.95 -4.15 -4.7 -4.05 -4.5 -3.95 -4.3 -3.8 -4.1 -3.7 -3.9 -3.5 -3.7 -3.35 -3.55 -3.2 -3.4 -3.0 -3.3 -2.85 -3.15 -2.65 -3.05 -2.45 -2.95 -2.3 -2.85 -2.1 -2.8 -1.95 -2.75 -1.8 -2.7 -1.8 -2.7 -1.75 -2.7 -1.6 -2.65 -1.4 -2.65 -1.2 -2.6 -0.95 -2.6 -0.75 -2.6 -0.5 -2.55 -0.25 -2.55 0.0 -2.55 0.25 -2.55 0.5 -2.55 0.75 -2.6 1.0 -2.6 1.2 -2.6 1.4 -2.65 1.65 -2.65 1.8 -2.7 1.8 -2.7 1.8 -2.7 1.95 -2.75 2.1 -2.8 2.25 -2.85 2.45 -2.95 2.6 -3.0 2.75 -3.1 2.95 -3.2 3.1 -3.35 3.3 -3.5 3.4 -3.6 3.6 -3.8 3.7 -3.95 3.85 -4.1 3.95 -4.3 4.05 -4.5 4.15 -4.7 4.15 -4.75 4.15 -4.8 4.15 -4.85 4.2 -4.9 4.2 -4.9 4.2 -4.95 4.25 -5.15 4.25 -5.3 4.3 -5.55 4.35 -5.8 4.35 -6.1 4.4 -6.45 4.4 -6.75 4.4 -7.1 4.35 -7.5 4.3 -7.85 4.25 -8.25 4.15 -8.65 4.05 -9.05 3.9 -9.45 3.75 -9.85 3.5 -10.25 3.5 -10.3 3.45 -10.35 3.45 -10.4 3.4 -10.4 3.4 -10.45 3.35 -10.5 3.35 -10.55 3.3 -10.6 3.25 -10.65 3.25 -10.65 3.2 -10.7 3.2 -10.75 3.15 -10.8 3.1 -10.85 3.1 -10.9 3.05 -10.9 3.05 -10.95 3.0 -10.95 3.0 -11.0 2.95 -11.05 2.9 -11.1 2.9 -11.1 2.85 -11.15 2.85 -11.2 2.8 -11.2 2.8 -11.25 2.75 -11.25 2.7 -11.3 2.7 -11.35 2.65 -11.35 2.6 -11.4 2.6 -11.45 2.55 -11.45 2.5 -11.5 2.5 -11.55 2.45 -11.6 2.4 -11.65 2.3 -11.75 2.15 -11.85 2.1 -11.85 2.1 -11.85 2.1 -11.85 2.15 -11.85 2.15 -11.85 2.2 -11.85 2.25 -11.85 2.3 -11.85 2.35 -11.8 2.4 -11.8 2.45 -11.8 2.55 -11.75 2.6 -11.75 2.7 -11.7 2.8 -11.65 2.9 -11.65 3.0 -11.6 3.55 -11.2 3.8 -11.05 3.8 -11.0 3.9 -10.9 3.95 -10.85 4.0 -10.85 4.0 -10.8 4.05 -10.75 4.1 -10.75 4.15 -10.7 4.2 -10.65 4.25 -10.6 4.3 -10.55 4.3 -10.55 4.35 -10.5 4.4 -10.45 4.45 -10.4 4.5 -10.35 4.55 -10.3 4.55 -10.25 4.6 -10.2 4.65 -10.15 4.7 -10.05 4.75 -10.0 4.8 -9.95 4.85 -9.9 4.9 -9.8 4.95 -9.75 5.0 -9.7 5.05 -9.6 5.15 -9.55 5.2 -9.45 5.25 -9.4 5.3 -9.3 5.35 -9.25 5.4 -9.15 5.4 -9.15 5.4 -9.15 5.4 -9.2 5.4 -9.25 5.4 -9.3 5.4 -9.3 5.4 -9.4 5.4 -9.45 5.4 -9.5 5.4 -9.6 5.4 -9.7 5.4 -9.8 5.35 -9.9 5.35 -10.0 5.35 -10.15 5.35 -10.25 5.35 -10.35 5.3 -10.55 5.25 -10.8 5.2 -10.9 5.2 -10.95 5.15 -11.05 5.15 -11.1 5.15 -11.1 5.15 -11.15 5.1 -11.15 5.1 -11.2 5.1 -11.25 5.1 -11.25 5.1 -11.3 5.1 -11.35 5.05 -11.35 5.05 -11.4 5.05 -11.45 5.05 -11.45 5.05 -11.5 5.0 -11.55 5.0 -11.6 5.0 -11.65 4.95 -11.75 4.95 -11.8 4.9 -11.9 4.9 -11.95 4.85 -12.05 4.8 -12.1 4.8 -12.2 4.75 -12.25 4.7 -12.35 4.7 -12.4 4.65 -12.5 4.6 -12.6 4.55 -12.65 4.55 -12.75 4.5 -12.85 4.45 -12.95 4.4 -13.05 4.35 -13.1 4.3 -13.2 4.25 -13.3 4.2 -13.4 4.15 -13.5 4.1 -13.6 4.05 -13.7 4.0 -13.8 3.9 -13.9 3.85 -13.95 3.8 -14.05 3.75 -14.15 3.65 -14.3 3.6 -14.4 3.55 -14.5 3.45 -14.6 3.35 -14.7 3.3 -14.8 3.2 -14.95 3.15 -15.05 3.05 -15.15 2.95 -15.25 2.85 -15.4 2.75 -15.5 2.65 -15.6 2.55 -15.7 2.45 -15.85 2.35 -15.95 2.25 -16.05 2.15 -16.2 2.15 -16.2 2.1 -16.25 2.05 -16.3 2.0 -16.35 2.0 -16.35 2.05 -16.35 2.4 -16.4 2.25 -16.35 2.4 -16.4 2.55 -16.4 2.7 -16.4 2.9 -16.4 3.15 -16.4 3.35 -16.4 3.6 -16.4 3.85 -16.4 4.15 -16.35 4.4 -16.3 4.7 -16.25 5.0 -16.2 5.2 -16.15 5.4 -16.1 5.6 -16.0 5.75 -15.95 5.95 -15.85 6.15 -15.75 6.35 -15.7 6.55 -15.55 6.75 -15.45 6.9 -15.35 7.1 -15.2 7.3 -15.05 7.5 -14.9 7.65 -14.75 7.85 -14.55 8.0 -14.4 8.05 -14.3 8.15 -14.25 8.2 -14.15 8.3 -14.05 8.35 -13.95 8.4 -13.85 8.5 -13.8 8.55 -13.7 8.6 -13.6 8.65 -13.5 8.7 -13.4 8.8 -13.25 8.85 -13.15 8.9 -13.05 8.95 -12.95 9.0 -12.85 9.05 -12.75 9.05 -12.7 9.1 -12.6 9.15 -12.55 9.15 -12.45 9.2 -12.4 9.25 -12.3 9.25 -12.25 9.3 -12.15 9.3 -12.1 9.35 -12.0 9.35 -11.9 9.4 -11.85 9.4 -11.75 9.45 -11.65 9.45 -11.6 9.45 -11.55 9.5 -11.55 9.5 -11.5 9.5 -11.45 9.5 -11.4 9.5 -11.4 9.55 -11.35 9.55 -11.3 9.55 -11.3 9.55 -11.25 9.55 -11.2 9.6 -11.2 9.6 -11.15 9.6 -11.1 9.6 -11.1 9.6 -11.05 9.6 -11.0 9.6 -11.0 9.65 -10.95 9.65 -10.9 9.65 -10.8 9.7 -10.6 9.75 -10.35 9.75 -10.25 9.75 -10.15 9.8 -10.05 9.8 -9.95 9.8 -9.85 9.8 -9.75 9.85 -9.65 9.85 -9.5 9.85 -9.4 9.85 -9.3 9.85 -9.2 9.85 -9.05 9.9 -8.95 9.9 -8.85 9.9 -8.7 9.9 -8.6 9.9 -8.5 9.9 -8.5 9.9 -8.55 9.95 -8.55 10.0 -8.65 10.0 -8.7 10.05 -8.8 10.1 -8.9 10.15 -9.0 10.2 -9.15 10.25 -9.25 10.35 -9.4 10.4 -9.55 10.45 -9.75 10.5 -9.9 10.55 -10.1 10.6 -10.25 L10.6 -10.45 Q10.6 -10.45 10.6 -10.4 10.65 -10.3 10.65 -10.25 10.75 -9.95 10.9 -9.6 11.05 -9.05 11.2 -8.5 11.35 -7.85 11.45 -7.15 11.55 -6.35 11.6 -5.6 11.6 -4.7 11.5 -3.95 11.35 -3.05 11.1 -2.3 10.75 -1.5 10.25 -0.8 9.65 -0.05 8.85 0.45 L8.85 0.5" fill="#bcbec0" fill-rule="evenodd" stroke="none"/>
    <path d="M0.3 -7.8 Q0.25 -7.8 0.2 -7.8 0.15 -7.75 0.05 -7.75 0.0 -7.7 -0.05 -7.65 -0.1 -7.65 -0.1 -7.6 -0.15 -7.55 -0.2 -7.5 -0.25 -7.45 -0.25 -7.4 -0.25 -7.35 -0.3 -7.3 -0.3 -7.25 -0.3 -7.2 -0.3 -7.15 -0.3 -7.1 -0.3 -7.05 -0.25 -7.05 -0.25 -7.0 -0.2 -6.95 -0.15 -6.9 -0.15 -6.9 -0.1 -6.85 -0.05 -6.85 0.0 -6.8 0.05 -6.8 0.1 -6.75 0.15 -6.75 0.2 -6.75 0.25 -6.75 0.3 -6.75 0.4 -6.75 0.45 -6.75 0.5 -6.8 0.55 -6.8 0.65 -6.85 0.7 -6.85 0.75 -6.9 0.8 -6.95 0.85 -6.95 0.9 -7.0 0.9 -7.05 0.95 -7.1 0.95 -7.15 1.0 -7.2 1.0 -7.25 1.0 -7.3 1.0 -7.35 0.95 -7.4 0.95 -7.45 0.9 -7.5 0.85 -7.5 0.8 -7.55 0.75 -7.6 0.7 -7.65 0.65 -7.65 0.6 -7.7 0.55 -7.75 0.5 -7.75 0.45 -7.75 0.35 -7.8 0.3 -7.8 L0.3 -7.8" fill="#bcbec0" fill-rule="evenodd" stroke="none"/>
  </g>
</svg>
