<?xml version="1.0" encoding="UTF-8" standalone="no"?>
<svg xmlns:xlink="http://www.w3.org/1999/xlink" height="40.0px" width="40.0px" xmlns="http://www.w3.org/2000/svg">
  <g transform="matrix(1.0, 0.0, 0.0, 1.0, 20.0, 20.0)">
    <path d="M15.2 -13.3 L10.9 -13.3 Q10.4 -14.1 9.95 -14.8 9.5 -15.5 9.05 -16.05 8.65 -16.6 8.2 -17.05 7.75 -17.55 7.3 -17.9 6.85 -18.3 6.35 -18.6 5.85 -18.9 5.35 -19.15 4.8 -19.4 4.2 -19.6 3.65 -19.8 2.95 -20.0 0.5 -17.95 0.0 -14.8 -0.5 -17.95 -3.0 -20.0 -3.7 -19.8 -4.25 -19.6 -4.85 -19.4 -5.35 -19.15 -5.9 -18.9 -6.35 -18.6 -6.85 -18.3 -7.3 -17.9 -7.75 -17.55 -8.2 -17.1 -8.65 -16.6 -9.05 -16.05 -9.5 -15.5 -9.95 -14.8 -10.4 -14.15 -10.9 -13.3 L-15.25 -13.3 Q-15.25 -13.2 -15.25 -5.45 -15.25 0.5 -14.6 2.3 -14.25 3.65 -13.75 5.0 -13.25 6.35 -12.55 7.65 -11.9 8.9 -11.15 10.1 -10.35 11.3 -9.45 12.4 -8.55 13.55 -7.55 14.6 -6.55 15.6 -5.45 16.55 -4.35 17.5 -3.15 18.4 -2.0 19.25 -0.75 20.0 L0.7 20.0 Q11.25 13.95 14.6 2.3 14.8 1.75 14.9 0.9 15.05 0.15 15.1 -0.95 15.2 -1.9 15.2 -3.1 15.25 -4.15 15.25 -5.45 15.25 -6.45 15.2 -7.8 15.2 -7.2 15.2 -10.0 15.15 -11.2 15.15 -11.9 15.15 -12.8 15.2 -13.3 L15.2 -13.3 M13.35 -1.8 Q13.25 -0.25 12.9 1.3 12.6 2.8 12.05 4.3 11.5 5.75 10.8 7.15 10.05 8.5 9.2 9.8 8.3 11.1 7.25 12.3 6.2 13.45 5.05 14.55 3.9 15.6 2.65 16.5 1.35 17.45 0.0 18.2 -9.75 12.75 -12.8 2.0 -12.9 1.6 -13.0 1.25 -13.15 0.85 -13.2 0.2 -13.3 -0.45 -13.35 -1.35 -13.4 -2.1 -13.4 -3.15 -13.4 -4.0 -13.4 -5.1 -13.4 -5.9 -13.4 -7.05 -13.35 -9.55 -13.35 -8.9 -13.35 -9.9 -13.35 -10.45 -13.35 -11.2 -13.35 -11.6 L-9.8 -11.6 Q-9.35 -12.35 -9.0 -12.95 -8.6 -13.6 -8.25 -14.15 -7.85 -14.65 -7.5 -15.1 -7.15 -15.55 -6.8 -15.95 -6.4 -16.3 -6.05 -16.6 -5.65 -16.9 -5.25 -17.15 -4.9 -17.4 -4.45 -17.6 -4.05 -17.8 -3.55 -17.9 -3.15 -17.45 -3.15 -17.45 -2.9 -17.2 -2.8 -17.0 -2.6 -16.8 -2.5 -16.6 -2.35 -16.35 -2.25 -16.05 -2.15 -15.75 -2.05 -15.35 -1.95 -14.95 -1.85 -14.4 -1.75 -13.9 -1.6 -13.15 -1.5 -12.5 -1.4 -11.55 -0.05 -11.7 1.25 -11.55 1.4 -12.5 1.5 -13.15 1.6 -13.9 1.7 -14.4 1.85 -14.95 1.95 -15.35 2.05 -15.75 2.15 -16.05 2.25 -16.35 2.4 -16.6 2.5 -16.8 2.7 -17.05 2.8 -17.2 3.05 -17.45 3.05 -17.5 3.45 -17.9 3.95 -17.75 4.35 -17.6 4.8 -17.4 5.2 -17.15 5.6 -16.9 6.0 -16.6 6.35 -16.3 6.75 -15.95 7.1 -15.55 7.45 -15.1 7.8 -14.65 8.2 -14.15 8.55 -13.6 8.9 -12.95 9.3 -12.35 9.7 -11.6 L13.25 -11.6 13.35 -1.8" fill="#000000" fill-rule="evenodd" stroke="none"/>
    <path d="M3.75 9.2 Q3.75 9.2 3.75 9.3 3.75 9.45 3.7 9.6 3.65 9.8 3.65 10.0 3.55 10.3 3.5 10.5 3.4 10.8 3.3 11.05 3.2 11.3 3.05 11.5 2.9 11.75 2.7 11.9 2.45 12.05 2.25 12.15 2.2 12.15 2.15 12.15 2.05 12.15 2.0 12.15 1.9 12.15 1.85 12.1 1.75 12.1 1.7 12.1 1.65 12.05 1.55 12.0 1.5 11.95 1.45 11.9 1.45 11.85 1.4 11.8 1.4 11.75 1.4 11.65 1.6 11.65 1.75 11.6 1.9 11.55 2.0 11.45 2.1 11.4 2.15 11.25 2.2 11.15 2.2 11.05 2.2 10.9 2.15 10.8 2.1 10.7 2.0 10.6 1.9 10.5 1.75 10.45 1.6 10.4 1.4 10.4 1.3 10.4 1.2 10.45 1.1 10.45 1.05 10.55 0.95 10.6 0.9 10.7 0.8 10.8 0.8 10.95 0.75 11.1 0.75 11.3 0.75 11.5 0.8 11.7 0.85 11.95 0.95 12.25 1.1 12.55 1.25 12.9 0.65 13.15 0.0 13.1 -0.65 13.15 -1.25 12.9 -1.1 12.55 -1.0 12.25 -0.9 11.95 -0.85 11.7 -0.8 11.45 -0.8 11.25 -0.75 11.05 -0.8 10.95 -0.85 10.8 -0.9 10.7 -0.95 10.6 -1.05 10.55 -1.15 10.45 -1.2 10.45 -1.3 10.4 -1.4 10.4 -1.6 10.4 -1.75 10.45 -1.9 10.5 -2.0 10.6 -2.1 10.7 -2.15 10.8 -2.2 10.9 -2.2 11.05 -2.2 11.15 -2.15 11.25 -2.1 11.4 -2.0 11.45 -1.9 11.55 -1.75 11.6 -1.6 11.65 -1.4 11.65 -1.4 11.7 -1.45 11.8 -1.45 11.85 -1.5 11.9 -1.55 11.95 -1.6 12.0 -1.65 12.05 -1.75 12.05 -1.8 12.1 -1.9 12.1 -1.95 12.15 -2.0 12.15 -2.1 12.15 -2.15 12.15 -2.2 12.15 -2.25 12.15 -2.5 12.1 -2.7 11.9 -2.9 11.75 -3.05 11.55 -3.2 11.3 -3.3 11.05 -3.45 10.8 -3.5 10.5 -3.6 10.3 -3.65 10.0 -3.7 9.8 -3.7 9.6 -3.75 9.45 -3.75 9.3 -3.75 9.25 -3.75 9.2 -1.9 8.75 0.0 8.7 1.9 8.75 3.75 9.2 L3.75 9.2" fill="#000000" fill-rule="evenodd" stroke="none"/>
    <path d="M12.05 -3.1 Q10.5 -7.5 8.3 -11.55 8.05 -12.0 7.8 -12.35 7.5 -12.8 7.25 -13.15 6.95 -13.55 6.7 -13.85 6.4 -14.25 6.15 -14.55 5.85 -14.85 5.6 -15.1 5.3 -15.4 5.05 -15.6 4.75 -15.85 4.45 -16.0 4.15 -16.15 3.9 -16.25 3.9 -16.25 3.85 -16.2 3.8 -16.15 3.8 -16.05 3.7 -15.95 3.65 -15.8 3.55 -15.6 3.5 -15.35 3.4 -15.1 3.3 -14.75 3.2 -14.35 3.1 -13.9 3.0 -13.45 2.9 -12.85 2.8 -12.25 2.7 -11.55 2.7 -11.25 2.65 -10.75 2.6 -10.05 2.55 -9.9 1.3 -10.15 0.0 -10.15 -1.25 -10.15 -2.5 -9.9 -2.5 -9.95 -2.65 -11.5 -2.75 -12.2 -2.85 -12.85 -2.95 -13.4 -3.05 -13.9 -3.15 -14.35 -3.3 -14.75 -3.35 -15.1 -3.45 -15.35 -3.55 -15.6 -3.65 -15.8 -3.7 -15.95 -3.8 -16.05 -3.85 -16.15 -3.85 -16.2 -3.9 -16.25 -3.9 -16.25 -4.2 -16.15 -4.45 -16.0 -4.75 -15.85 -5.05 -15.6 -5.3 -15.4 -5.6 -15.1 -5.85 -14.85 -6.15 -14.5 -6.4 -14.2 -6.7 -13.85 -6.95 -13.5 -7.2 -13.15 -7.45 -12.75 -7.7 -12.35 -7.95 -11.95 -8.2 -11.5 -10.5 -7.45 -12.05 -3.05 -9.85 -4.5 -7.3 -4.05 -9.2 -3.25 -10.95 -2.1 -10.95 -2.1 -10.7 -2.05 -10.4 -2.0 -10.1 -1.85 -9.6 -1.65 -9.15 -1.35 -8.55 -1.0 -8.0 -0.5 -7.35 0.05 -6.75 0.75 -6.1 1.6 -5.5 2.6 -4.9 3.7 -4.4 5.05 -3.85 6.55 -3.45 8.25 -1.75 7.75 0.05 7.7 1.8 7.75 3.55 8.25 3.9 6.55 4.45 5.05 4.95 3.7 5.6 2.6 6.15 1.6 6.8 0.75 7.4 0.05 8.05 -0.5 8.6 -1.0 9.2 -1.35 9.7 -1.65 10.15 -1.85 10.5 -2.0 10.8 -2.05 10.9 -2.1 11.05 -2.1 9.25 -3.25 7.25 -4.05 9.85 -4.55 12.05 -3.1 L12.05 -3.1 M-1.9 -0.1 Q-2.8 0.0 -3.5 -0.05 -4.15 -0.1 -4.6 -0.35 -5.0 -0.55 -5.3 -0.85 -5.5 -1.15 -5.65 -1.55 -5.7 -1.85 -5.7 -2.3 -5.7 -2.65 -5.65 -3.05 -5.55 -3.4 -5.45 -3.75 -5.35 -4.0 -5.25 -4.25 -4.7 -4.4 -4.2 -4.25 -4.2 -2.45 -2.95 -1.15 -2.45 -0.7 -1.85 -0.35 -1.8 -0.35 -1.75 -0.3 -1.75 -0.25 -1.75 -0.2 -1.75 -0.15 -1.8 -0.15 -1.85 -0.1 -1.9 -0.1 L-1.9 -0.1 M1.85 -0.1 Q1.8 -0.15 1.8 -0.2 1.8 -0.25 1.8 -0.3 1.85 -0.3 1.85 -0.35 3.5 -1.2 4.0 -2.9 4.25 -3.55 4.2 -4.25 4.75 -4.4 5.25 -4.25 5.35 -4.0 5.45 -3.7 5.55 -3.35 5.65 -3.05 5.7 -2.65 5.7 -2.3 5.75 -1.85 5.65 -1.5 5.55 -1.15 5.3 -0.85 5.0 -0.55 4.6 -0.35 4.15 -0.1 3.5 -0.05 2.8 0.0 1.9 -0.1 L1.85 -0.1" fill="#000000" fill-rule="evenodd" stroke="none"/>
    <path d="M4.2 -4.25 Q4.2 -2.45 2.95 -1.15 2.45 -0.65 1.85 -0.35 1.8 -0.3 1.8 -0.25 1.75 -0.2 1.8 -0.15 1.8 -0.15 1.85 -0.1 2.75 0.0 3.45 -0.05 4.1 -0.1 4.55 -0.35 4.95 -0.55 5.25 -0.85 5.45 -1.15 5.6 -1.55 5.7 -1.85 5.7 -2.3 5.65 -2.65 5.6 -3.05 5.5 -3.4 5.4 -3.75 5.3 -4.0 5.2 -4.25 4.7 -4.4 4.2 -4.25 L4.2 -4.25" fill="#bcbec0" fill-rule="evenodd" stroke="none"/>
    <path d="M-4.2 -4.25 Q-4.7 -4.4 -5.25 -4.25 -5.35 -4.0 -5.45 -3.7 -5.55 -3.35 -5.65 -3.05 -5.7 -2.6 -5.75 -2.25 -5.75 -1.85 -5.65 -1.5 -5.55 -1.1 -5.3 -0.85 -5.05 -0.5 -4.6 -0.3 -4.15 -0.1 -3.5 -0.05 -2.8 0.05 -1.9 -0.1 -1.85 -0.1 -1.8 -0.15 -1.8 -0.2 -1.8 -0.25 -1.85 -0.3 -1.9 -0.3 -3.5 -1.15 -4.0 -2.9 -4.2 -3.55 -4.2 -4.25 L-4.2 -4.25" fill="#bcbec0" fill-rule="evenodd" stroke="none"/>
    <path d="M9.75 -11.55 Q9.35 -12.3 8.95 -12.9 8.55 -13.55 8.2 -14.1 7.8 -14.65 7.45 -15.1 7.1 -15.55 6.75 -15.9 6.4 -16.3 6.0 -16.6 5.65 -16.9 5.25 -17.15 4.85 -17.35 4.4 -17.55 4.0 -17.75 3.5 -17.9 2.95 -17.3 3.1 -17.4 2.85 -17.15 2.75 -17.0 2.6 -16.75 2.45 -16.55 2.3 -16.3 2.2 -16.0 2.1 -15.7 2.0 -15.3 1.9 -14.9 1.8 -14.35 1.7 -13.85 1.55 -13.15 1.45 -12.45 1.3 -11.5 0.0 -11.65 -1.35 -11.5 -1.5 -12.45 -1.6 -13.15 -1.7 -13.85 -1.8 -14.4 -1.9 -14.9 -2.0 -15.3 -2.1 -15.7 -2.2 -16.0 -2.3 -16.3 -2.45 -16.55 -2.55 -16.8 -2.75 -17.0 -2.85 -17.2 -3.1 -17.4 -3.1 -17.45 -3.5 -17.9 -4.0 -17.75 -4.45 -17.55 -4.85 -17.35 -5.25 -17.15 -5.65 -16.9 -6.05 -16.6 -6.45 -16.3 -6.8 -15.9 -7.15 -15.55 -7.5 -15.1 -7.85 -14.65 -8.25 -14.1 -8.6 -13.55 -8.95 -12.9 -9.35 -12.3 -9.75 -11.55 L-13.35 -11.55 Q-13.35 -11.7 -13.4 -5.05 -13.45 0.0 -13.0 1.3 -10.25 12.15 -0.65 17.85 -0.3 18.05 0.0 18.25 1.35 17.5 2.6 16.55 3.9 15.6 5.05 14.55 6.2 13.5 7.25 12.3 8.3 11.1 9.2 9.8 10.05 8.5 10.8 7.15 11.5 5.75 12.05 4.3 12.6 2.8 12.95 1.3 13.25 -0.25 13.35 -1.8 L13.35 -11.55 9.75 -11.55 M2.25 12.15 Q2.2 12.15 2.15 12.15 2.1 12.15 2.0 12.15 1.95 12.15 1.9 12.1 1.8 12.1 1.75 12.1 1.65 12.05 1.6 12.0 1.55 11.95 1.5 11.9 1.45 11.85 1.45 11.8 1.45 11.75 1.45 11.65 1.65 11.65 1.8 11.6 1.95 11.55 2.05 11.45 2.15 11.4 2.2 11.25 2.25 11.15 2.25 11.05 2.25 10.9 2.2 10.8 2.15 10.7 2.05 10.6 1.95 10.5 1.8 10.45 1.65 10.4 1.45 10.4 1.35 10.4 1.25 10.45 1.15 10.45 1.05 10.55 1.0 10.6 0.9 10.7 0.85 10.8 0.85 10.95 0.8 11.1 0.8 11.3 0.8 11.5 0.85 11.7 0.9 11.95 1.0 12.25 1.1 12.55 1.3 12.9 0.65 13.15 0.05 13.1 -0.6 13.15 -1.2 12.9 -1.05 12.55 -0.95 12.25 -0.85 11.95 -0.8 11.7 -0.75 11.45 -0.75 11.25 -0.75 11.05 -0.75 10.95 -0.8 10.8 -0.85 10.7 -0.9 10.6 -1.0 10.55 -1.1 10.45 -1.2 10.45 -1.3 10.4 -1.4 10.4 -1.6 10.4 -1.75 10.45 -1.85 10.5 -1.95 10.6 -2.05 10.7 -2.1 10.8 -2.15 10.9 -2.15 11.05 -2.15 11.15 -2.1 11.25 -2.05 11.4 -1.95 11.45 -1.85 11.55 -1.75 11.6 -1.55 11.65 -1.4 11.65 -1.4 11.7 -1.4 11.8 -1.45 11.85 -1.5 11.9 -1.55 11.95 -1.6 12.0 -1.65 12.05 -1.7 12.05 -1.75 12.1 -1.85 12.1 -1.9 12.15 -2.0 12.15 -2.05 12.15 -2.1 12.15 -2.15 12.15 -2.2 12.15 -2.45 12.1 -2.65 11.9 -2.85 11.75 -3.0 11.55 -3.15 11.3 -3.3 11.05 -3.4 10.8 -3.45 10.5 -3.55 10.3 -3.6 10.0 -3.65 9.8 -3.7 9.6 -3.7 9.45 -3.7 9.3 -3.75 9.25 -3.75 9.2 -1.9 8.75 0.0 8.7 1.9 8.75 3.75 9.2 3.75 9.2 3.75 9.3 3.75 9.45 3.7 9.6 3.7 9.8 3.65 10.0 3.6 10.3 3.5 10.5 3.4 10.8 3.3 11.05 3.2 11.3 3.05 11.5 2.9 11.75 2.7 11.9 2.5 12.05 2.25 12.15 L2.25 12.15 M11.0 -2.15 Q10.95 -2.15 10.75 -2.1 10.45 -2.0 10.15 -1.85 9.65 -1.65 9.2 -1.4 8.6 -1.0 8.05 -0.55 7.4 0.05 6.8 0.75 6.15 1.55 5.55 2.6 4.95 3.7 4.45 5.05 3.9 6.5 3.5 8.25 1.8 7.75 0.0 7.7 -1.75 7.75 -3.5 8.25 -3.85 6.55 -4.4 5.05 -4.9 3.7 -5.55 2.6 -6.1 1.6 -6.75 0.75 -7.35 0.05 -8.0 -0.55 -8.55 -1.0 -9.15 -1.4 -9.6 -1.65 -10.1 -1.85 -10.45 -2.0 -10.75 -2.1 -10.85 -2.1 -11.0 -2.15 -9.25 -3.25 -7.3 -4.05 -9.9 -4.55 -12.05 -3.1 -10.5 -7.5 -8.2 -11.55 -7.95 -12.0 -7.7 -12.35 -7.45 -12.75 -7.2 -13.15 -6.95 -13.55 -6.65 -13.85 -6.4 -14.25 -6.15 -14.55 -5.85 -14.85 -5.6 -15.1 -5.3 -15.4 -5.05 -15.6 -4.75 -15.85 -4.45 -16.0 -4.2 -16.15 -3.9 -16.25 -3.9 -16.25 -3.85 -16.2 -3.85 -16.15 -3.8 -16.05 -3.7 -15.95 -3.65 -15.8 -3.55 -15.6 -3.5 -15.35 -3.4 -15.1 -3.3 -14.75 -3.2 -14.35 -3.1 -13.9 -3.0 -13.45 -2.9 -12.85 -2.8 -12.25 -2.7 -11.55 -2.7 -11.5 -2.55 -9.9 -1.35 -10.15 -0.05 -10.15 1.25 -10.15 2.5 -9.9 2.5 -9.95 2.65 -11.55 2.75 -12.25 2.85 -12.9 2.95 -13.45 3.05 -13.95 3.15 -14.4 3.25 -14.75 3.35 -15.1 3.45 -15.4 3.55 -15.6 3.65 -15.8 3.7 -15.95 3.75 -16.05 3.8 -16.15 3.85 -16.2 3.9 -16.25 3.9 -16.25 4.2 -16.15 4.45 -16.0 4.75 -15.85 5.05 -15.6 5.3 -15.4 5.6 -15.1 5.85 -14.85 6.15 -14.5 6.4 -14.2 6.7 -13.85 6.95 -13.5 7.2 -13.15 7.45 -12.75 7.7 -12.35 7.95 -11.95 8.2 -11.55 10.45 -7.45 11.95 -3.05 9.8 -4.5 7.25 -4.05 9.25 -3.3 11.0 -2.15 L11.0 -2.15" fill="#bcbec0" fill-rule="evenodd" stroke="none"/>
  </g>
</svg>
