<?xml version="1.0" encoding="UTF-8" standalone="no"?>
<!DOCTYPE svg PUBLIC "-//W3C//DTD SVG 1.1//EN" "http://www.w3.org/Graphics/SVG/1.1/DTD/svg11.dtd">
<svg width="100%" height="100%" viewBox="0 0 40 40" version="1.1" xmlns="http://www.w3.org/2000/svg" xmlns:xlink="http://www.w3.org/1999/xlink" xml:space="preserve" xmlns:serif="http://www.serif.com/" style="fill-rule:evenodd;clip-rule:evenodd;stroke-linejoin:round;stroke-miterlimit:2;">
    <g transform="matrix(1.16853,0,0,1.14408,20.0292,18.9649)">
        <path d="M7.411,-10.533L12.6,-10.533L12.6,-0.6C12.6,8.886 4.836,15.92 -0.012,18.386C-4.344,16.247 -12.65,8.818 -12.65,-0.6L-12.65,-10.533L-7.337,-10.533C-7.122,-11.233 -6.823,-11.838 -5.787,-12.146C-5.911,-13.592 -5.217,-14.576 -4.082,-15.29C-3.302,-15.676 -2.917,-15.931 -1.884,-15.796C-1.466,-16.255 -0.865,-16.502 -0.093,-16.528C0.981,-16.42 1.668,-16.097 2.236,-15.382C2.874,-15.595 3.196,-15.934 3.703,-16.577C5.07,-15.579 6.258,-13.816 5.638,-12.325C6.443,-12.049 6.973,-11.326 7.411,-10.533ZM6.631,-8.951L6.412,-9.428C5.927,-10.452 5.116,-11.498 4.142,-11.897C4.586,-13.17 4.458,-13.7 3.634,-14.631C2.884,-13.909 2.176,-13.415 1.68,-14.067C1.273,-14.677 0.676,-15.016 -0.093,-15.108C-0.646,-15.086 -1.025,-14.765 -1.324,-14.373C-2.064,-14.488 -2.751,-14.396 -3.31,-14.067C-4.123,-13.457 -4.49,-12.475 -4.402,-11.24C-5.313,-10.918 -5.595,-10.793 -5.781,-10.027L-7.032,-8.951L-11.184,-8.951L-11.184,-0.42C-11.184,8.082 -3.599,14.691 -0.014,16.719C3.756,14.442 11.134,8.143 11.134,-0.42L11.134,-8.951L6.631,-8.951ZM7.339,-0.308C6.709,0.098 6.979,1.166 7.055,1.424C7.478,2.866 7.184,4.103 6.024,5.091C5.527,5.278 5.254,5.515 5.535,5.874C5.985,6.131 6.164,6.41 5.888,6.727C4.965,7.88 4.958,9.176 5.362,10.537C5.42,10.845 5.316,11.028 5.053,11.086C4.603,11.196 4.206,11.429 3.84,11.737L3.939,12.754C3.13,12.989 2.307,12.934 1.481,12.806C1.607,12.374 1.756,11.955 1.949,11.557C2.385,11.04 3.012,10.673 3.701,10.354C4.068,8.362 4.07,6.952 3.55,6.375C3.083,6.41 2.52,6.55 1.934,6.714C1.157,6.659 0.315,6.804 -0.572,7.084L-0.754,7.686L-2.973,8.842C-3.074,6.874 -2.402,5.767 -0.603,5.912L2.025,4.262C1.376,3.912 1.04,3.229 1.185,2.034C1.185,2.034 0.135,2.461 -0.367,2.306C-1.139,2.068 -2.557,1.344 -3.448,0.603L-3.656,1.1C-4.308,1.041 -5.299,1.181 -5.497,1.514C-5.793,2.01 -5.806,3.154 -5.405,4.092L-5.544,4.163L-5.127,4.341C-5.238,5.202 -5.47,5.956 -6.077,6.375C-6.296,5.724 -6.618,5.244 -7.084,5.003C-7.084,5.003 -7.667,2.306 -6.656,0.52C-6.311,-0.089 -4.907,-0.604 -4.907,-0.604C-5.321,-1.207 -5.786,-1.696 -6.354,-1.952C-6.626,-1.54 -6.94,-1.3 -7.304,-1.266C-7.517,-0.911 -7.682,-0.54 -7.802,-0.154L-8.034,-0.332L-7.837,0.201C-8.45,0.623 -8.988,1.044 -9.447,1.466C-9.81,0.848 -9.651,0.185 -9.273,-0.497L-9.423,-1.006L-7.015,-3.916L-6.1,-3.774L-4.073,-2.177C-4.94,-3.296 -4.472,-4.922 -2.683,-7.05L-2.984,-7.251C-3.284,-7.046 -3.573,-7.011 -3.841,-7.31C-3.841,-7.31 -4.65,-6.908 -4.942,-6.79C-5.15,-6.705 -5.373,-6.542 -5.59,-6.601C-5.86,-6.674 -6.399,-7.082 -6.563,-7.228C-6.624,-7.282 -6.537,-7.402 -6.574,-7.476C-6.613,-7.553 -6.764,-7.592 -6.795,-7.689C-6.825,-7.786 -6.76,-8.056 -6.76,-8.056L-4.953,-9.723C-4.953,-9.723 -4.771,-10.148 -4.386,-10.268C-3.811,-10.446 -2.903,-11.128 -2.162,-11.746C-2.162,-11.746 -1.935,-11.987 -1.78,-12.16C-2.143,-12.62 -2.649,-12.631 -3.413,-11.829C-3.235,-12.818 -2.616,-13.962 -0.877,-13.402C-0.877,-13.402 -0.181,-14.928 1.115,-13.355C2.337,-11.872 3.547,-13.426 3.547,-13.426C3.616,-12.724 3.421,-12.121 2.656,-11.734C4.198,-11.005 5.248,-9.94 5.771,-8.517C5.153,-8.904 4.551,-8.958 3.964,-8.683C3.964,-8.683 4.344,-7.6 4.844,-7.18C5.982,-6.228 6.769,-4.955 6.836,-3.312C6.105,-4.344 5.398,-5.049 4.729,-5.229C5.298,-4.474 5.529,-3.755 5.481,-3.064C5.109,-3.8 4.638,-4.303 3.987,-4.377C3.982,-3.636 4.371,-2.988 5.169,-2.437C4.706,-2.314 4.207,-2.406 3.652,-2.851C3.652,-2.851 4.044,-2.084 4.345,-1.789C4.666,-1.474 5.582,-0.959 5.582,-0.959C5.758,-0.795 5.918,-0.627 6.063,-0.457C7.49,-2.022 7.673,-2.707 7.271,-4.534C8.033,-4.595 8.611,-4.385 8.861,-3.688C10.327,-0.732 8.721,1.981 8.298,3.268C8.206,3.499 8.245,3.9 8.335,4.367C7.891,3.709 7.896,2.845 7.933,1.966C7.955,1.042 7.763,0.28 7.339,-0.308ZM2.81,3.736C2.81,3.736 2.856,2.73 3.125,2.399C3.62,1.792 4.484,1.745 4.484,1.745C5.031,1.457 4.903,0.36 4.317,-0.025C3.38,-0.179 2.691,0.226 2.279,1.252C1.89,2.578 2.07,3.403 2.81,3.736ZM-2.834,-2.081C-2.257,-1.501 -1.653,-1.004 -0.894,-0.663C-0.083,-0.299 0.638,0.256 1.29,0.915C1.29,0.915 1.11,-0.03 0.095,-0.944C-0.468,-1.452 -0.864,-1.884 -1.06,-2.539C-1.292,-3.312 -1.227,-4.078 -0.091,-4.505C0.378,-4.608 1.381,-3.946 1.401,-3.912C1.175,-4.475 0.8,-4.923 0.071,-5.101C0.352,-5.488 0.435,-5.709 0.411,-6.301C0.756,-5.692 1.207,-5.426 1.894,-5.435C1.302,-5.91 0.904,-6.431 0.738,-7.289C0.551,-8.257 0.262,-9.179 -0.383,-9.587C0.58,-10.296 1.169,-10.782 2.606,-10.764C1.236,-11.19 -0.27,-11.007 -1.325,-10.562L-1.985,-10.891C-2.583,-10.341 -3.239,-9.818 -3.996,-9.652C-4.109,-9.627 -4.247,-9.455 -4.2,-9.369L-5.851,-7.992C-5.646,-7.879 -5.564,-7.721 -5.636,-7.507C-4.881,-7.928 -4.151,-8.067 -3.119,-8.265C-3.399,-8.512 -3.698,-8.533 -4.105,-8.547L-3.423,-9.047L-2.289,-9.607C-2.144,-9.711 -2.05,-9.84 -1.968,-9.976C-1.891,-9.865 -1.881,-9.733 -1.925,-9.584C-1.587,-8.785 -1.713,-8.438 -1.966,-7.781L-1.277,-7.168C-3.285,-4.834 -4.283,-3.535 -2.834,-2.081Z"/>
    </g>
    <g transform="matrix(0.972795,0,0,0.972795,0.560199,0.917958)">
        <path d="M27.978,8.025L33.387,8.025L33.387,18.058C33.387,28.129 24.525,35.537 19.997,38.215C15.69,35.829 6.58,28.056 6.58,18.058L6.58,8.025L11.567,8.025L13.069,6.759C13.293,5.858 13.632,5.712 14.726,5.332C14.62,3.88 15.061,2.725 16.038,2.008C16.709,1.621 17.534,1.513 18.423,1.648C18.782,1.187 19.238,0.809 19.902,0.784C20.826,0.892 21.543,1.29 22.031,2.008C22.627,2.774 23.478,2.193 24.379,1.345C25.369,2.44 25.522,3.063 24.988,4.56C26.159,5.029 27.132,6.259 27.716,7.463L27.978,8.025ZM28.829,18.19C29.338,18.88 29.569,19.777 29.543,20.864C29.498,21.898 29.492,22.913 30.026,23.687C29.918,23.138 29.871,22.666 29.981,22.395C30.489,20.881 32.419,17.691 30.657,14.215C30.357,13.395 29.662,13.147 28.748,13.219C29.23,15.368 29.011,16.173 27.296,18.014C27.122,17.814 26.93,17.617 26.718,17.423C26.718,17.423 25.619,16.818 25.232,16.447C24.872,16.101 24.4,15.199 24.4,15.199C25.067,15.722 25.666,15.83 26.222,15.685C25.264,15.037 24.797,14.275 24.803,13.404C25.585,13.49 26.15,14.083 26.598,14.948C26.655,14.135 26.378,13.289 25.694,12.402C26.498,12.614 27.347,13.443 28.225,14.656C28.145,12.724 27.199,11.227 25.833,10.107C25.231,9.614 24.775,8.34 24.775,8.34C25.48,8.016 26.204,8.08 26.946,8.535C26.317,6.861 25.056,5.609 23.203,4.751C24.123,4.297 24.357,3.588 24.275,2.762C24.275,2.762 22.821,4.59 21.353,2.845C19.796,0.995 18.96,2.79 18.96,2.79C16.871,2.131 16.127,3.476 15.914,4.64C16.832,3.697 17.44,3.709 17.875,4.25C17.689,4.454 17.416,4.737 17.416,4.737C16.526,5.465 15.436,6.266 14.745,6.476C14.283,6.617 14.064,7.116 14.064,7.116L11.894,9.078C11.894,9.078 11.815,9.395 11.852,9.509C11.889,9.622 12.07,9.669 12.116,9.759C12.161,9.846 12.057,9.987 12.13,10.051C12.327,10.223 12.974,10.703 13.299,10.789C13.56,10.858 13.827,10.666 14.078,10.566C14.428,10.427 15.399,9.954 15.399,9.954C15.722,10.306 16.069,10.265 16.429,10.024L16.79,10.26C14.642,12.763 14.08,14.676 15.121,15.991L12.687,14.113L11.588,13.947L8.694,17.369L8.875,17.967C8.421,18.769 8.23,19.549 8.666,20.276C9.218,19.78 9.863,19.284 10.6,18.788L10.363,18.162L10.642,18.37C10.785,17.916 10.985,17.48 11.24,17.063C11.677,17.023 12.054,16.741 12.38,16.256C13.064,16.557 13.622,17.133 14.119,17.842C14.119,17.842 12.433,18.447 12.019,19.163C10.804,21.264 11.504,24.436 11.504,24.436C12.064,24.719 12.451,25.284 12.714,26.049C13.442,25.556 13.721,24.67 13.855,23.657L13.354,23.448L13.521,23.364C13.039,22.261 13.054,20.915 13.41,20.332C13.649,19.94 14.838,19.776 15.622,19.845L15.872,19.261C16.943,20.132 18.645,20.983 19.573,21.264C20.176,21.446 21.437,20.944 21.437,20.944C21.263,22.349 21.666,23.153 22.446,23.564L19.29,25.505C17.129,25.334 16.321,26.636 16.442,28.95L19.108,27.591L19.326,26.883C20.391,26.553 21.403,26.383 22.337,26.448C23.04,26.255 23.717,26.09 24.278,26.049C24.902,26.728 24.9,28.386 24.459,30.729C23.631,31.103 22.878,31.535 22.355,32.144C22.123,32.611 21.943,33.105 21.793,33.613C22.785,33.763 23.773,33.828 24.745,33.551L24.626,32.355C25.065,31.993 25.542,31.719 26.083,31.59C26.399,31.521 26.524,31.306 26.454,30.943C25.969,29.344 25.978,27.82 27.086,26.463C27.418,26.091 27.202,25.762 26.662,25.46C26.325,25.037 26.653,24.759 27.249,24.539C28.643,23.377 28.996,21.923 28.488,20.227C28.397,19.923 28.073,18.667 28.829,18.19ZM23.389,22.946C22.5,22.554 22.284,21.583 22.751,20.024C23.246,18.817 24.073,18.341 25.199,18.522C25.903,18.975 26.057,20.265 25.4,20.604C25.4,20.604 24.361,20.659 23.768,21.373C23.444,21.762 23.389,22.946 23.389,22.946ZM16.609,16.104C14.869,14.395 16.068,12.867 18.479,10.122L17.651,9.401C17.956,8.628 18.107,8.22 17.701,7.28C17.754,7.105 17.742,6.949 17.65,6.819C17.551,6.979 17.439,7.131 17.264,7.253L15.902,7.911L15.082,8.499C15.571,8.516 15.931,8.541 16.267,8.831C15.027,9.065 14.151,9.228 13.244,9.722C13.33,9.471 13.232,9.285 12.985,9.153L14.969,7.533C14.912,7.432 15.078,7.229 15.213,7.2C16.123,7.005 16.911,6.39 17.63,5.743L18.422,6.129C19.689,5.607 21.498,5.391 23.144,5.892C21.417,5.871 20.71,6.443 19.553,7.277C20.328,7.757 20.675,8.841 20.9,9.979C21.099,10.988 21.577,11.601 22.289,12.16C21.463,12.17 20.922,11.857 20.507,11.142C20.536,11.837 20.437,12.098 20.099,12.552C20.974,12.761 21.425,13.289 21.697,13.95C21.673,13.911 20.468,13.132 19.905,13.254C18.539,13.755 18.462,14.656 18.74,15.565C18.976,16.336 19.451,16.844 20.128,17.441C21.347,18.516 21.563,19.628 21.563,19.628C20.78,18.853 19.914,18.2 18.939,17.772C18.028,17.371 17.303,16.786 16.609,16.104Z" style="fill:rgb(188,190,192);"/>
    </g>
</svg>
