<?xml version="1.0" encoding="UTF-8" standalone="no"?>
<!DOCTYPE svg PUBLIC "-//W3C//DTD SVG 1.1//EN" "http://www.w3.org/Graphics/SVG/1.1/DTD/svg11.dtd">
<svg width="100%" height="100%" viewBox="0 0 400 400" version="1.1" xmlns="http://www.w3.org/2000/svg" xmlns:xlink="http://www.w3.org/1999/xlink" xml:space="preserve" xmlns:serif="http://www.serif.com/" style="fill-rule:evenodd;clip-rule:evenodd;stroke-linejoin:round;stroke-miterlimit:2;">
    <g transform="matrix(15.9709,0,0,15.7033,-69.7357,-30.0647)">
        <path d="M7.522,6.579C5.573,4.859 6.585,1.915 8.892,1.915C9.431,1.915 10.031,2.073 10.414,2.452C11.077,2.259 11.73,2.443 12.083,2.838C12.76,2.569 13.58,2.792 13.932,3.329C14.663,3.206 15.337,3.476 15.868,4.393C17.202,4.217 18.135,5.116 18.425,6.089L26.267,4.425L26.267,13.587C26.267,20.482 20.503,25.594 16.904,27.387C13.688,25.832 7.522,20.432 7.522,13.587L7.522,6.579ZM8.611,6.164L8.611,13.718C8.611,19.897 14.241,24.701 16.903,26.176C19.702,24.521 25.178,19.942 25.178,13.718L25.178,5.813L17.421,7.41C17.489,6.377 17.143,5.76 16.558,5.545C15.705,5.233 15.213,5.658 15.213,5.658C15.06,4.833 14.342,4.174 13.462,4.378C13.047,3.746 12.478,3.698 11.857,3.949C11.307,3.321 10.874,3.359 10.058,3.577C9.415,2.506 7.907,3.086 7.678,3.804C7.281,5.047 8.025,5.745 8.611,6.164ZM12.728,9.362C12.598,9.848 12.669,10.216 12.783,10.418C13.013,10.826 13.613,11.143 14.936,11.012C14.201,12.042 14.489,12.548 14.697,13.86C15.501,14.11 16.392,14.147 17.399,13.896C18.311,13.56 19.399,13.57 20.58,13.766C21.831,13.181 22.119,12.435 20.946,11.442C21.167,11.045 20.785,10.702 19.962,10.398C20.237,10.15 20.658,10.067 21.237,10.163C21.735,9.991 22.119,10.222 22.449,10.644C22.832,10.474 23.134,10.666 23.383,11.09C23.534,11.237 23.645,11.456 23.661,11.853C23.921,12.025 23.964,12.437 23.686,13.203C23.775,13.674 23.564,14 22.878,14.095L22.108,14.306C22.519,14.566 22.791,14.903 22.865,15.351C23.292,16.578 23.48,18.216 21.348,20.163C20.989,20.51 20.873,20.791 21.222,20.95C21.461,21.243 21.598,21.537 21.197,21.83C20.362,23.052 16.96,25.39 16.96,25.39C16.96,25.39 13.873,23.831 13.268,22.206C12.736,21.89 12.55,21.439 12.625,20.904C11.803,19.703 10.558,18.914 10.342,17.463C10.241,14.46 10.493,12.27 12.728,9.362ZM12.12,17.554C13.251,17.913 14.189,18.444 13.637,19.625C13.479,20.755 13.478,20.296 13.994,20.878C14.437,21.428 14.507,21.913 14.278,22.346C14.141,22.372 15.512,23.904 15.653,23.75C15.776,23.734 15.75,22.894 15.575,22.835C15.009,22.376 14.878,21.827 15.448,21.133L15.12,19.273C14.555,17.637 13.151,17.612 12.12,17.554ZM21.139,16.856C19.249,16.129 18.381,16.854 18.552,18.122C18.788,19.548 19.984,19.312 19.126,20.033C19.898,20.147 20.099,19.203 19.664,18.156C19.199,17.034 19.837,16.725 21.139,16.856ZM16.96,24.407C18.653,22.737 19.19,21.58 18.148,20.341C17.724,20.114 17.775,19.791 17.942,19.446C18.103,18.434 16.903,18.003 16.173,17.806C15.115,17.52 15.34,16.973 16.015,16.486C15.109,16.867 14.362,17.487 15.4,18.026C16.148,18.415 17.072,18.841 16.856,19.742C16.477,20.394 16.297,20.272 16.38,21.001C16.732,21.523 16.87,22.03 16.633,22.513C16.482,23.444 16.69,23.827 16.96,24.407ZM13.429,9.305C13.604,9.071 13.913,8.855 14.49,8.674C12.912,8.352 12.209,7.797 11.966,7.12C12.038,6.909 12.404,6.827 12.873,6.79C9.837,6.2 8.329,5.695 8.272,4.442C8.237,3.678 9.263,3.104 9.573,4.135C9.607,4.245 9.362,4.429 9.251,4.596C8.995,4.984 9.883,5.558 10.447,5.668C10.139,5.278 10.121,4.85 10.324,4.297C10.526,3.743 11.396,3.931 11.394,4.536C11.393,4.798 11.112,4.843 10.965,5.055C10.809,5.279 11.306,5.847 12.074,6.063C11.668,5.689 11.699,5.262 11.971,4.642C12.197,4.259 12.958,4.313 12.955,4.857C12.953,5.108 12.756,5.17 12.584,5.431C12.441,5.647 12.689,6.183 13.39,6.338C13.162,5.713 13.331,5.395 13.645,5.064C14.146,4.801 14.537,5.329 14.458,5.573C14.41,5.721 14.311,5.67 14.065,5.908C13.845,6.12 13.987,6.634 14.704,6.943C15.458,7.151 15.781,6.841 15.788,6.352C15.795,5.864 16.592,5.932 16.698,6.668C16.557,7.409 15.924,7.684 15.011,7.465C15.184,7.933 15.662,8.175 16.653,8.628C17.255,8.904 17.637,9.523 17.764,10.304C18.066,11.012 18.432,11.404 18.891,11.33C18.717,11.952 18.123,12.208 17.343,12.303C17.06,11.213 16.132,10.422 14.987,10.455C13.338,10.501 13.143,9.883 13.429,9.305ZM15.962,9.058C15.686,9.106 15.501,9.367 15.549,9.641C15.597,9.915 15.86,10.098 16.135,10.049C16.411,10.001 16.596,9.74 16.548,9.466C16.5,9.192 16.237,9.009 15.962,9.058Z"/>
    </g>
    <g transform="matrix(10.4791,0,0,10.3035,200.346,191.536)">
        <path d="M-12.65,-12.114C-13.542,-12.751 -14.676,-13.816 -14.072,-15.709C-13.723,-16.804 -11.424,-17.688 -10.445,-16.056C-9.201,-16.388 -8.54,-16.447 -7.702,-15.488C-6.757,-15.871 -5.889,-15.799 -5.256,-14.835C-3.915,-15.146 -2.822,-14.141 -2.587,-12.884C-2.587,-12.884 -1.837,-13.532 -0.537,-13.056C0.354,-12.729 0.88,-11.788 0.778,-10.213L12.6,-12.648L12.6,-0.6C12.6,8.886 4.253,15.864 -0.012,18.386C-4.069,16.139 -12.65,8.818 -12.65,-0.6L-12.65,-12.114ZM-5.307,-7.327C-5.742,-6.445 -5.446,-5.503 -2.932,-5.574C-1.187,-5.623 0.228,-4.417 0.658,-2.756C1.847,-2.901 2.753,-3.292 3.017,-4.24C2.318,-4.127 1.761,-4.724 1.301,-5.803C1.107,-6.994 0.525,-7.938 -0.393,-8.358C-1.903,-9.049 -2.632,-9.417 -2.896,-10.131C-1.505,-9.796 -0.539,-10.215 -0.325,-11.345C-0.487,-12.467 -1.701,-12.57 -1.712,-11.826C-1.722,-11.081 -2.215,-10.609 -3.364,-10.925C-4.456,-11.397 -4.673,-12.18 -4.337,-12.504C-3.962,-12.866 -3.811,-12.788 -3.739,-13.013C-3.619,-13.385 -4.214,-14.19 -4.977,-13.789C-5.456,-13.285 -5.713,-12.801 -5.366,-11.848C-6.435,-12.084 -6.812,-12.901 -6.595,-13.231C-6.333,-13.628 -6.032,-13.722 -6.029,-14.105C-6.025,-14.934 -7.184,-15.017 -7.529,-14.433C-7.943,-13.488 -7.99,-12.836 -7.371,-12.266C-8.543,-12.596 -9.299,-13.462 -9.062,-13.803C-8.838,-14.126 -8.41,-14.195 -8.408,-14.594C-8.405,-15.516 -9.731,-15.802 -10.039,-14.959C-10.348,-14.115 -10.321,-13.463 -9.852,-12.869C-10.711,-13.037 -12.064,-13.912 -11.674,-14.502C-11.506,-14.758 -11.132,-15.037 -11.183,-15.206C-11.656,-16.776 -13.22,-15.902 -13.167,-14.737C-13.08,-12.828 -10.782,-12.057 -6.153,-11.159C-6.869,-11.103 -7.427,-10.978 -7.536,-10.657C-7.166,-9.624 -6.094,-8.779 -3.69,-8.288C-4.569,-8.011 -5.04,-7.682 -5.307,-7.327ZM-1.447,-7.703C-1.027,-7.776 -0.626,-7.497 -0.553,-7.08C-0.48,-6.663 -0.762,-6.265 -1.182,-6.191C-1.602,-6.118 -2.002,-6.397 -2.075,-6.814C-2.148,-7.231 -1.867,-7.629 -1.447,-7.703ZM-6.376,-7.239C-9.782,-2.808 -10.166,0.531 -10.011,5.107C-9.683,7.319 -7.785,8.522 -6.532,10.352C-6.646,11.167 -6.362,11.855 -5.553,12.335C-4.63,14.813 0.075,17.189 0.075,17.189C0.075,17.189 5.26,13.625 6.532,11.763C7.144,11.316 6.935,10.869 6.57,10.421C6.039,10.18 6.216,9.751 6.763,9.223C10.012,6.255 9.725,3.759 9.075,1.889C8.962,1.206 8.546,0.693 7.921,0.297L9.094,-0.025C10.14,-0.171 10.461,-0.667 10.326,-1.385C10.75,-2.553 10.684,-3.18 10.287,-3.442C10.263,-4.047 10.093,-4.382 9.864,-4.605C9.485,-5.252 9.025,-5.544 8.44,-5.285C7.937,-5.928 7.352,-6.281 6.593,-6.018C5.711,-6.165 5.07,-6.038 4.649,-5.66C5.904,-5.197 6.487,-4.674 6.15,-4.068C7.938,-2.556 7.499,-1.418 5.592,-0.526C3.791,-0.825 2.134,-0.842 0.743,-0.329C-0.791,0.053 -2.148,-0.003 -3.375,-0.383C-3.692,-2.383 -4.13,-3.154 -3.01,-4.725C-5.026,-4.524 -5.941,-5.008 -6.291,-5.629C-6.464,-5.937 -6.573,-6.498 -6.376,-7.239ZM-7.302,5.246C-5.73,5.335 -3.59,5.372 -2.729,7.866L-2.23,10.701C-3.098,11.759 -2.899,12.596 -2.036,13.295C-1.77,13.384 -1.73,14.666 -1.918,14.689C-2.131,14.924 -4.221,12.59 -4.013,12.549C-3.663,11.89 -3.77,11.151 -4.446,10.313C-5.232,9.425 -5.23,10.125 -4.99,8.403C-4.148,6.603 -5.579,5.793 -7.302,5.246ZM0.075,15.69C-0.336,14.807 -0.654,14.223 -0.424,12.803C-0.063,12.068 -0.272,11.295 -0.809,10.5C-0.936,9.388 -0.662,9.574 -0.083,8.581C0.245,7.208 -1.163,6.558 -2.303,5.966C-3.885,5.144 -2.747,4.2 -1.365,3.618C-2.395,4.361 -2.737,5.194 -1.125,5.63C-0.012,5.931 1.817,6.588 1.571,8.13C1.318,8.656 1.239,9.147 1.885,9.494C3.474,11.383 2.656,13.146 0.075,15.69ZM6.444,4.182C4.459,3.983 3.487,4.453 4.197,6.163C4.859,7.76 4.553,9.199 3.376,9.024C4.684,7.925 2.861,8.285 2.502,6.112C2.24,4.179 3.563,3.074 6.444,4.182Z" style="fill:rgb(188,190,192);"/>
    </g>
</svg>
