<?xml version="1.0" encoding="UTF-8" standalone="no"?>
<svg xmlns:xlink="http://www.w3.org/1999/xlink" height="40.0px" width="40.0px" xmlns="http://www.w3.org/2000/svg">
  <g transform="matrix(1.0, 0.0, 0.0, 1.0, 20.0, 20.0)">
    <path d="M12.2 -11.75 Q12.15 -11.8 12.1 -11.85 12.05 -11.9 12.0 -12.0 11.95 -12.05 11.9 -12.1 11.85 -12.15 11.8 -12.2 11.75 -12.25 11.7 -12.3 11.65 -12.35 11.6 -12.4 11.55 -12.45 11.5 -12.5 11.45 -12.55 11.4 -12.6 11.35 -12.7 11.35 -12.8 11.3 -12.9 11.3 -13.0 11.25 -13.1 11.2 -13.2 11.15 -13.3 11.15 -13.4 11.1 -13.5 11.05 -13.6 11.0 -13.7 10.95 -13.8 10.9 -13.9 10.85 -14.0 10.8 -14.1 10.75 -14.2 10.6 -14.45 10.45 -14.7 10.25 -15.0 10.05 -15.25 9.8 -15.55 9.55 -15.85 9.3 -16.15 9.0 -16.45 8.7 -16.75 8.35 -17.0 8.05 -17.25 7.7 -17.5 7.3 -17.7 6.95 -17.9 6.55 -18.1 6.15 -18.2 5.8 -18.5 5.4 -18.7 5.05 -18.95 4.65 -19.15 4.25 -19.3 3.8 -19.45 3.4 -19.6 2.95 -19.7 2.55 -19.75 2.15 -19.85 1.75 -19.9 1.35 -19.95 1.0 -19.95 0.65 -20.0 0.3 -20.0 0.0 -20.0 -0.3 -20.0 -0.65 -20.0 -1.0 -19.95 -1.35 -19.95 -1.75 -19.9 -2.15 -19.85 -2.55 -19.75 -2.95 -19.7 -3.4 -19.6 -3.8 -19.45 -4.25 -19.3 -4.65 -19.15 -5.05 -18.95 -5.4 -18.7 -5.8 -18.5 -6.15 -18.2 -6.55 -18.1 -6.95 -17.9 -7.3 -17.7 -7.7 -17.5 -8.05 -17.25 -8.35 -17.0 -8.7 -16.75 -9.0 -16.45 -9.3 -16.15 -9.55 -15.85 -9.8 -15.55 -10.05 -15.25 -10.25 -15.0 -10.4 -14.7 -10.6 -14.45 -10.75 -14.2 -10.8 -14.1 -10.85 -14.0 -10.9 -13.9 -10.95 -13.8 -11.0 -13.7 -11.05 -13.6 -11.1 -13.5 -11.15 -13.4 -11.15 -13.3 -11.2 -13.2 -11.25 -13.1 -11.3 -13.0 -11.3 -12.9 -11.35 -12.8 -11.4 -12.7 -11.4 -12.6 -11.45 -12.55 -11.5 -12.5 -11.55 -12.45 -11.6 -12.4 -11.65 -12.35 -11.7 -12.3 -11.75 -12.25 -11.8 -12.2 -11.85 -12.15 -11.9 -12.1 -11.95 -12.05 -12.0 -11.95 -12.05 -11.9 -12.1 -11.85 -12.15 -11.8 -12.2 -11.75 L-14.35 -11.75 -14.35 -0.6 Q-14.35 -0.1 -14.3 0.4 -14.3 0.9 -14.2 1.45 -14.1 2.0 -14.0 2.55 -13.9 3.1 -13.7 3.65 -13.55 4.2 -13.35 4.8 -13.15 5.35 -12.9 5.95 -12.65 6.55 -12.4 7.2 -12.1 7.8 -11.75 8.45 -11.3 9.35 -10.8 10.2 -10.3 11.05 -9.7 11.8 -9.15 12.6 -8.55 13.35 -7.9 14.1 -7.25 14.8 -6.6 15.5 -5.85 16.15 -5.15 16.8 -4.35 17.4 -3.6 18.05 -2.75 18.6 -1.9 19.15 -1.05 19.65 L-0.75 20.0 0.7 20.0 1.05 19.65 Q1.95 19.15 2.75 18.6 3.6 18.05 4.4 17.45 5.15 16.8 5.9 16.15 6.6 15.5 7.25 14.8 7.95 14.1 8.55 13.35 9.15 12.6 9.75 11.8 10.3 11.0 10.8 10.2 11.3 9.35 11.75 8.45 12.1 7.8 12.35 7.2 12.65 6.6 12.9 6.0 13.15 5.35 13.35 4.8 13.55 4.2 13.7 3.65 13.85 3.05 14.0 2.55 14.1 2.0 14.2 1.45 14.3 0.9 14.35 0.4 14.35 -0.1 14.35 -0.6 L14.35 -11.75 12.2 -11.75 M12.65 -0.6 Q12.65 -0.5 12.65 -0.3 12.65 -0.1 12.65 0.15 12.6 0.35 12.6 0.6 12.55 0.8 12.55 1.05 12.5 1.25 12.45 1.5 12.4 1.7 12.35 1.95 12.3 2.15 12.25 2.4 12.2 2.65 12.15 2.9 12.1 3.15 12.0 3.35 11.9 3.6 11.85 3.9 11.75 4.15 11.65 4.45 11.55 4.7 11.45 5.0 11.35 5.25 11.2 5.55 11.1 5.8 11.0 6.1 10.85 6.4 10.7 6.7 10.6 7.0 10.45 7.25 10.3 7.55 10.15 7.85 10.0 8.15 9.8 8.45 9.65 8.75 9.5 9.05 9.3 9.35 9.15 9.65 8.95 9.95 8.75 10.2 8.6 10.5 8.4 10.75 8.2 11.05 8.0 11.3 7.8 11.55 7.6 11.85 7.4 12.1 7.2 12.35 6.85 12.8 6.45 13.25 6.05 13.65 5.65 14.05 5.25 14.5 4.8 14.85 4.35 15.25 3.95 15.65 3.5 16.0 3.0 16.35 2.55 16.7 2.05 17.05 1.55 17.4 1.05 17.7 0.55 18.05 0.05 18.3 L0.0 18.3 Q-0.55 18.0 -1.05 17.7 -1.55 17.4 -2.05 17.05 -2.5 16.7 -3.0 16.35 -3.45 16.0 -3.9 15.65 -4.35 15.25 -4.8 14.85 -5.2 14.5 -5.6 14.05 -6.0 13.65 -6.4 13.25 -6.8 12.8 -7.15 12.35 -7.35 12.1 -7.55 11.85 -7.8 11.55 -8.0 11.3 -8.15 11.05 -8.35 10.75 -8.55 10.5 -8.75 10.2 -8.95 9.95 -9.1 9.65 -9.3 9.35 -9.45 9.05 -9.65 8.75 -9.8 8.45 -9.95 8.15 -10.1 7.85 -10.25 7.55 -10.4 7.25 -10.55 6.95 -10.7 6.7 -10.85 6.4 -10.95 6.1 -11.1 5.8 -11.2 5.55 -11.3 5.25 -11.45 5.0 -11.55 4.7 -11.65 4.45 -11.75 4.15 -11.85 3.9 -11.9 3.65 -12.0 3.35 -12.05 3.1 -12.15 2.85 -12.2 2.65 -12.25 2.4 -12.3 2.15 -12.35 1.95 -12.4 1.7 -12.45 1.5 -12.5 1.25 -12.5 1.05 -12.55 0.8 -12.55 0.6 -12.6 0.35 -12.6 0.15 -12.6 -0.05 -12.6 -0.3 -12.6 -0.4 -12.6 -0.6 L-12.6 -10.05 -11.2 -10.05 Q-11.15 -10.2 -11.05 -10.3 -11.0 -10.45 -10.9 -10.55 -10.8 -10.65 -10.75 -10.75 -10.65 -10.9 -10.55 -11.0 -10.5 -11.1 -10.4 -11.2 -10.3 -11.25 -10.2 -11.35 -10.1 -11.45 -10.05 -11.5 -9.95 -11.6 -9.85 -11.65 -9.85 -11.75 -9.8 -11.85 -9.8 -11.95 -9.75 -12.05 -9.75 -12.15 -9.7 -12.25 -9.65 -12.35 -9.65 -12.45 -9.6 -12.6 -9.55 -12.7 -9.5 -12.8 -9.45 -12.9 -9.4 -13.0 -9.35 -13.15 -9.3 -13.25 -9.2 -13.35 -9.1 -13.6 -8.9 -13.8 -8.75 -14.05 -8.55 -14.35 -8.35 -14.6 -8.1 -14.85 -7.85 -15.1 -7.6 -15.35 -7.35 -15.6 -7.1 -15.8 -6.8 -16.0 -6.5 -16.15 -6.2 -16.35 -5.9 -16.45 -5.6 -16.6 -5.3 -16.65 -5.05 -16.9 -4.7 -17.15 -4.4 -17.35 -4.05 -17.5 -3.7 -17.65 -3.3 -17.8 -2.95 -17.9 -2.55 -18.0 -2.2 -18.1 -1.85 -18.15 -1.5 -18.2 -1.15 -18.25 -0.8 -18.25 -0.5 -18.25 -0.25 -18.3 0.0 -18.3 0.25 -18.3 0.55 -18.3 0.85 -18.25 1.15 -18.25 1.55 -18.2 1.85 -18.15 2.25 -18.1 2.6 -18.0 3.0 -17.9 3.35 -17.8 3.75 -17.65 4.1 -17.5 4.45 -17.35 4.75 -17.1 5.05 -16.9 5.35 -16.65 5.65 -16.6 5.95 -16.45 6.25 -16.35 6.55 -16.2 6.85 -16.0 7.15 -15.8 7.4 -15.6 7.65 -15.35 7.9 -15.1 8.15 -14.85 8.4 -14.6 8.6 -14.35 8.8 -14.1 8.95 -13.85 9.1 -13.6 9.25 -13.35 9.3 -13.25 9.4 -13.1 9.45 -13.0 9.5 -12.9 9.55 -12.8 9.6 -12.7 9.65 -12.6 9.65 -12.45 9.7 -12.35 9.75 -12.25 9.75 -12.15 9.8 -12.05 9.8 -11.95 9.85 -11.85 9.85 -11.75 9.85 -11.65 9.95 -11.6 10.05 -11.5 10.15 -11.45 10.25 -11.35 10.35 -11.25 10.4 -11.2 10.5 -11.1 10.6 -11.0 10.7 -10.9 10.75 -10.8 10.85 -10.65 10.9 -10.55 11.0 -10.45 11.1 -10.3 11.15 -10.2 11.2 -10.05 L12.65 -10.05 12.65 -0.6 12.65 -0.6" fill="#000000" fill-rule="evenodd" stroke="none"/>
    <path d="M8.6 -10.05 Q8.55 -10.05 8.5 -10.1 8.45 -10.1 8.45 -10.15 8.4 -10.15 8.35 -10.15 8.3 -10.15 8.25 -10.15 8.25 -10.15 8.2 -10.15 8.15 -10.15 8.1 -10.15 8.1 -10.15 8.05 -10.15 8.0 -10.15 7.95 -10.15 7.95 -10.1 7.9 -10.1 7.85 -10.1 7.85 -10.1 7.8 -10.05 7.8 -10.05 7.7 -10.0 7.65 -9.9 7.6 -9.85 7.55 -9.75 7.55 -9.7 7.55 -9.6 7.5 -9.5 7.5 -9.4 7.5 -9.4 7.5 -9.25 7.5 -9.2 7.5 -9.15 7.5 -9.1 7.45 -9.05 7.45 -9.0 7.4 -9.0 7.4 -9.0 7.35 -9.05 7.3 -9.05 7.3 -9.05 7.25 -9.1 7.2 -9.1 7.15 -9.15 7.1 -9.2 7.05 -9.25 6.95 -9.35 6.9 -9.4 6.85 -9.45 6.8 -9.55 6.8 -9.6 6.75 -9.7 6.7 -9.75 6.65 -9.85 6.6 -9.9 6.6 -10.0 6.55 -10.05 6.55 -10.1 6.55 -10.15 6.5 -10.2 6.5 -10.2 6.5 -10.25 6.5 -10.3 6.5 -10.35 6.5 -10.35 6.5 -10.4 6.5 -10.45 6.5 -10.45 6.5 -10.5 6.55 -10.5 6.55 -10.55 6.55 -10.55 6.6 -10.6 6.6 -10.6 6.65 -10.6 6.65 -10.6 6.7 -10.6 6.75 -10.6 6.8 -10.6 6.8 -10.6 6.85 -10.6 6.9 -10.55 6.95 -10.55 7.0 -10.55 7.05 -10.5 7.1 -10.5 7.15 -10.5 7.2 -10.45 7.25 -10.45 7.3 -10.45 7.35 -10.45 7.4 -10.4 7.45 -10.4 7.5 -10.4 7.5 -10.4 7.55 -10.45 7.6 -10.45 7.65 -10.5 7.65 -10.5 7.7 -10.55 7.7 -10.6 7.85 -10.85 7.85 -11.15 7.85 -11.45 7.75 -11.8 7.6 -12.1 7.4 -12.45 7.2 -12.75 6.95 -13.1 6.7 -13.4 6.4 -13.7 6.15 -13.95 5.85 -14.2 5.55 -14.4 5.3 -14.5 5.05 -14.65 4.9 -14.65 4.85 -14.65 4.8 -14.65 4.75 -14.6 4.75 -14.6 4.7 -14.6 4.65 -14.55 4.55 -14.5 4.55 -14.4 4.5 -14.3 4.55 -14.15 4.55 -14.0 4.6 -13.85 2.9 -20.8 4.7 -13.55 4.7 -13.35 4.75 -13.25 4.75 -13.1 4.75 -13.0 4.7 -12.9 4.65 -12.8 4.55 -12.75 4.4 -12.75 4.35 -12.75 4.35 -12.75 4.3 -12.75 4.25 -12.75 4.2 -12.75 4.15 -12.8 4.15 -12.8 4.1 -12.8 4.05 -12.8 4.0 -12.8 3.95 -12.85 3.9 -12.85 3.85 -12.85 3.8 -12.9 3.75 -12.9 3.7 -12.9 3.5 -12.95 3.4 -13.05 3.35 -13.15 3.35 -13.3 3.35 -13.4 3.4 -13.55 3.5 -13.65 3.6 -13.8 1.1 -10.25 3.8 -14.1 3.9 -14.25 3.95 -14.35 4.05 -14.55 4.05 -14.65 4.1 -14.8 4.05 -14.9 3.95 -15.15 3.7 -15.35 3.5 -15.55 3.15 -15.7 2.85 -15.8 2.5 -15.9 2.15 -16.0 1.8 -16.1 1.45 -16.15 1.1 -16.2 0.85 -16.2 0.55 -16.25 0.35 -16.25 0.15 -16.25 0.05 -16.25 0.0 -16.25 0.0 -16.25 -0.15 -16.25 -0.35 -16.25 -0.55 -16.25 -0.85 -16.2 -1.15 -16.2 -1.5 -16.15 -1.8 -16.1 -2.2 -16.0 -2.5 -15.9 -2.9 -15.8 -3.15 -15.7 -3.5 -15.55 -3.7 -15.35 -3.95 -15.15 -4.05 -14.9 -4.1 -14.8 -4.1 -14.65 -4.05 -14.5 -4.0 -14.35 -3.9 -14.25 -3.8 -14.1 -13.45 -27.65 -3.6 -13.8 -3.5 -13.65 -3.45 -13.55 -3.35 -13.4 -3.35 -13.3 -3.35 -13.2 -3.4 -13.1 -3.5 -13.0 -3.7 -12.9 -4.2 -12.75 -4.4 -12.75 -4.55 -12.75 -4.65 -12.8 -4.7 -12.9 -4.75 -13.0 -4.75 -13.1 -4.75 -13.25 -4.75 -13.35 -4.7 -13.55 -4.5 -14.3 -4.6 -13.85 -4.55 -14.0 -4.55 -14.15 -4.55 -14.3 -4.55 -14.4 -4.6 -14.5 -4.65 -14.55 -4.7 -14.6 -4.75 -14.6 -4.75 -14.6 -4.8 -14.6 -4.85 -14.65 -4.9 -14.65 -5.1 -14.65 -5.35 -14.5 -5.6 -14.4 -5.85 -14.2 -6.15 -14.0 -6.4 -13.7 -6.7 -13.4 -6.95 -13.1 -7.25 -12.75 -7.4 -12.45 -7.65 -12.1 -7.75 -11.75 -7.85 -11.45 -7.85 -11.15 -7.85 -10.85 -7.7 -10.6 -7.7 -10.55 -7.65 -10.5 -7.6 -10.5 -7.6 -10.45 -7.55 -10.45 -7.5 -10.45 -7.5 -10.4 -7.45 -10.4 -7.4 -10.4 -7.35 -10.4 -7.3 -10.45 -7.25 -10.45 -7.2 -10.45 -7.15 -10.5 -7.1 -10.5 -7.05 -10.5 -7.0 -10.55 -6.95 -10.55 -6.9 -10.55 -6.85 -10.6 -6.8 -10.6 -6.8 -10.6 -6.75 -10.6 -6.7 -10.6 -6.65 -10.6 -6.65 -10.6 -6.6 -10.6 -6.55 -10.55 -6.55 -10.55 -6.5 -10.5 -6.5 -10.5 -6.5 -10.45 -6.5 -10.45 -6.5 -10.4 -6.5 -10.4 -6.5 -10.35 -6.5 -10.35 -6.5 -10.3 -6.5 -10.3 -6.5 -10.25 -6.5 -10.2 -6.55 -10.2 -6.55 -10.15 -6.55 -10.1 -6.55 -10.1 -6.55 -10.05 -6.6 -10.0 -6.6 -9.9 -6.65 -9.85 -6.7 -9.75 -6.75 -9.7 -6.8 -9.6 -6.8 -9.55 -6.85 -9.45 -6.9 -9.4 -6.95 -9.35 -7.05 -9.25 -7.1 -9.2 -7.15 -9.15 -7.2 -9.15 -7.25 -9.1 -7.3 -9.05 -7.3 -9.05 -7.35 -9.05 -7.4 -9.0 -7.4 -9.0 -7.45 -9.0 -7.45 -9.05 -7.5 -9.05 -7.5 -9.15 -7.5 -9.15 -7.5 -9.25 -7.5 -9.45 -7.5 -9.4 -7.5 -9.5 -7.5 -9.6 -7.55 -9.7 -7.55 -9.75 -7.6 -9.85 -7.65 -9.9 -7.7 -10.0 -7.8 -10.05 -7.85 -10.05 -7.85 -10.1 -7.9 -10.1 -7.95 -10.1 -8.0 -10.15 -8.05 -10.15 -8.1 -10.15 -8.1 -10.15 -8.15 -10.15 -8.2 -10.15 -8.25 -10.15 -8.25 -10.15 -8.3 -10.15 -8.35 -10.15 -8.4 -10.15 -8.45 -10.15 -8.45 -10.1 -8.5 -10.1 -8.55 -10.1 -8.6 -10.05 -8.85 -9.9 -9.05 -9.65 -9.25 -9.4 -9.45 -9.0 -9.65 -8.65 -9.8 -8.2 -9.9 -7.8 -10.0 -7.35 -10.1 -6.9 -10.1 -6.5 -10.15 -6.05 -10.1 -5.7 -10.05 -5.35 -9.9 -5.1 -9.75 -4.85 -9.55 -4.7 -9.5 -4.7 -9.45 -4.65 -9.4 -4.65 -9.4 -4.65 -9.35 -4.65 -9.3 -4.6 -9.25 -4.6 -9.2 -4.6 -9.1 -4.6 -9.0 -4.65 -8.9 -4.7 -8.8 -4.75 -8.7 -4.85 -8.6 -4.95 -8.55 -5.0 -8.45 -5.15 -8.25 -5.4 -8.3 -5.3 -8.2 -5.45 -8.15 -5.5 -8.1 -5.55 -8.0 -5.6 -7.95 -5.65 -7.9 -5.65 -7.85 -5.65 -7.8 -5.65 -7.8 -5.6 -7.75 -5.6 -7.7 -5.55 -7.65 -5.5 -7.6 -5.4 -7.55 -5.3 -7.55 -5.2 -7.5 -5.05 -7.5 -4.9 -7.45 -4.8 -7.45 -4.65 -7.45 -4.5 -7.5 -4.4 -7.5 -4.25 -7.55 -4.15 -7.55 -4.05 -7.6 -3.95 -7.7 -3.9 -7.75 -3.85 -7.75 -3.85 -7.8 -3.8 -7.85 -3.8 -7.85 -3.8 -7.9 -3.8 -7.95 -3.75 -7.95 -3.75 -8.0 -3.75 -8.05 -3.75 -8.1 -3.75 -8.15 -3.75 -8.25 -3.8 -8.3 -3.8 -8.35 -3.85 -8.4 -3.9 -8.45 -3.9 -8.55 -3.95 -8.6 -4.0 -8.65 -4.05 -8.7 -4.05 -8.75 -4.1 -8.8 -4.1 -8.85 -4.15 -8.95 -4.15 -9.0 -4.15 -9.05 -4.15 -9.05 -4.15 -9.1 -4.15 -9.15 -4.1 -9.15 -4.1 -9.2 -4.05 -9.3 -3.95 -9.4 -3.75 -9.45 -3.55 -9.45 -3.3 -9.5 -3.05 -9.45 -2.75 -9.4 -2.4 -9.3 -2.1 -9.2 -1.8 -9.05 -1.55 -8.9 -1.25 -8.75 -1.0 -8.5 -0.8 -8.3 -0.65 -8.05 -0.55 -7.75 -0.55 -7.7 -0.55 -7.65 -0.55 -7.65 -0.55 -7.6 -0.55 -7.55 -0.55 -7.5 -0.55 -7.4 -0.55 -7.35 -0.65 -7.25 -0.7 -7.2 -0.85 -7.15 -0.95 -7.1 -1.1 -7.1 -1.2 -7.05 -1.4 -7.0 -1.6 -6.95 -1.7 -6.9 -1.85 -6.9 -1.95 -6.85 -2.1 -6.75 -2.15 -6.7 -2.2 -6.6 -2.25 L-6.6 -2.25 Q-6.5 -2.25 -6.45 -2.2 -6.35 -2.15 -6.3 -2.1 -6.25 -2.0 -6.2 -1.9 -6.1 -1.8 -6.05 -1.7 -6.0 -1.6 -6.0 -1.45 -5.95 -1.35 -5.95 -1.25 -5.9 -1.1 -5.9 -1.0 -5.9 -0.9 -5.95 -0.85 -5.95 -0.75 -6.0 -0.7 -6.05 -0.65 -6.15 -0.6 -6.2 -0.55 -6.3 -0.55 -6.35 -0.55 -6.45 -0.55 -6.4 -0.55 -6.6 -0.55 -6.7 -0.55 -6.75 -0.5 -6.8 -0.5 -6.85 -0.5 -6.9 -0.45 -6.9 -0.4 -6.9 -0.3 -6.85 -0.1 -6.75 0.05 -6.6 0.25 -6.45 0.5 -6.25 0.7 -6.0 0.9 -5.75 1.1 -5.5 1.35 -5.2 1.5 -4.9 1.7 -4.6 1.85 -4.25 1.95 -3.95 2.05 -3.65 2.15 -3.35 2.15 -3.3 2.15 -3.25 2.15 -3.2 2.15 -3.15 2.15 -3.05 2.1 -3.0 2.1 -2.95 2.1 -2.9 2.1 -2.85 2.05 -2.8 2.05 -2.75 2.0 -2.7 2.0 -2.65 1.95 -2.6 1.95 -2.55 1.9 -2.5 1.9 -2.4 1.8 -2.35 1.7 -2.35 1.6 -2.4 1.5 -2.45 1.4 -2.55 1.25 -2.6 1.25 -2.75 1.0 -2.9 0.8 -2.95 0.7 -3.05 0.55 -3.1 0.45 -3.15 0.25 -3.1 0.15 -3.05 0.0 -2.95 -0.15 -2.95 -0.15 -2.9 -0.15 -2.85 -0.15 -2.85 -0.15 -2.65 -0.15 -2.4 -0.05 -2.25 0.05 -2.05 0.25 -1.9 0.45 -1.8 0.75 -1.65 1.05 -1.6 1.4 -1.5 1.75 -1.5 2.2 -1.5 2.6 -1.55 3.1 -1.6 3.6 -1.7 4.1 -1.8 4.65 -2.0 5.15 -2.1 5.15 -2.15 5.1 -2.25 5.1 -2.35 5.1 -2.4 5.05 -2.5 5.05 -2.55 5.05 -2.65 5.0 -2.7 5.0 -2.8 5.0 -2.85 5.0 -2.9 5.0 -2.95 5.0 -3.05 5.0 -3.1 5.0 -3.15 5.0 -3.45 5.0 -3.7 5.05 -3.9 5.15 -4.1 5.3 -4.25 5.4 -4.4 5.6 -5.9 7.15 -4.75 5.9 -4.95 6.1 -5.1 6.25 -5.35 6.45 -5.6 6.55 -5.9 6.7 -6.3 6.75 -6.7 6.85 -7.25 6.85 -7.3 6.85 -7.35 6.85 -7.45 6.85 -7.5 6.85 -7.55 6.85 -7.6 6.85 -7.7 6.85 -7.75 6.85 -7.8 6.85 -7.9 6.8 -7.95 6.8 -8.05 6.8 -8.1 6.8 -8.15 6.8 -8.25 6.8 -8.3 6.8 -8.3 6.8 -8.3 6.85 -8.25 6.9 -8.2 6.95 -8.15 7.05 -8.05 7.1 -7.95 7.15 -7.85 7.2 -7.7 7.3 -7.6 7.35 -7.4 7.4 -7.25 7.45 -7.05 7.5 -6.85 7.55 -6.6 7.55 -6.35 7.55 -6.2 7.55 -6.05 7.55 -5.9 7.55 -5.75 7.5 -5.6 7.5 -5.4 7.45 -5.25 7.45 -5.05 7.4 -4.85 7.35 -4.65 7.3 -4.45 7.2 -4.25 7.15 -4.05 7.05 -3.85 6.95 -3.6 6.85 -3.4 6.75 -3.4 6.75 -3.65 7.1 -4.05 7.6 -4.5 8.35 -4.6 8.5 -4.65 8.65 -4.7 8.8 -4.75 8.95 -4.8 9.1 -4.85 9.3 -4.95 9.8 -4.95 9.65 -5.0 9.85 -5.05 10.0 -5.1 10.2 -5.15 10.35 -5.25 10.55 -5.35 10.7 -5.45 10.85 -5.55 11.0 -5.55 11.0 -5.45 11.05 -5.4 11.05 -5.3 11.05 -5.2 11.05 -5.05 11.0 -4.9 11.0 -4.7 10.95 -4.5 10.9 -4.35 10.8 -4.15 10.75 -3.95 10.6 -3.75 10.5 -3.6 10.4 -3.4 10.25 -3.25 10.1 -3.1 9.9 -2.95 9.75 -2.85 9.55 -2.75 9.3 -2.65 9.1 -2.6 8.9 -2.5 8.75 -2.4 8.55 -2.3 8.4 -2.2 8.25 -2.1 8.15 -1.95 8.05 -1.85 7.95 -1.75 7.85 -1.65 7.75 -1.55 7.7 -1.45 7.65 -1.35 7.65 -1.3 7.6 -1.2 7.6 -1.2 7.6 -1.2 7.6 -1.2 7.6 -1.2 7.6 -1.2 7.65 -1.25 7.8 -1.25 8.05 -1.3 8.15 -1.35 8.45 -1.35 8.7 -1.35 9.05 -1.35 9.4 -1.35 9.8 -1.25 10.15 -1.2 10.6 -1.05 11.05 -0.9 11.5 -0.65 12.0 -0.35 12.5 0.0 12.95 0.35 12.5 0.65 11.95 0.85 11.5 1.05 11.05 1.2 10.6 1.25 10.15 1.35 9.8 1.35 9.4 1.35 9.05 1.35 8.7 1.3 8.45 1.25 8.2 1.25 8.0 1.2 7.8 1.15 7.65 1.15 7.6 1.2 7.6 1.2 7.6 1.25 7.6 1.35 7.65 1.45 7.65 1.55 7.7 1.65 7.75 1.75 7.85 1.85 7.95 1.95 8.05 2.05 8.15 2.2 8.3 2.3 8.4 2.4 8.55 2.5 8.75 2.6 8.9 2.65 9.1 2.75 9.3 2.85 9.5 2.95 9.7 3.1 9.9 3.25 10.05 3.4 10.25 3.6 10.35 3.75 10.5 3.95 10.6 4.15 10.7 4.35 10.8 4.5 10.9 4.7 10.95 4.9 11.0 5.05 11.0 5.2 11.05 5.3 11.05 5.4 11.05 5.45 11.05 5.55 11.0 5.55 11.0 5.4 10.85 5.3 10.7 5.2 10.55 5.15 10.35 5.1 10.2 5.05 10.0 5.0 9.85 4.95 9.65 4.95 9.8 4.85 9.3 4.8 9.1 4.75 8.95 4.7 8.8 4.65 8.65 4.6 8.45 4.5 8.35 3.75 7.15 3.35 6.75 3.6 6.85 3.8 6.95 4.05 7.05 4.25 7.15 4.45 7.2 4.65 7.3 4.85 7.35 5.05 7.4 5.2 7.45 5.4 7.45 5.55 7.5 5.75 7.5 5.9 7.55 6.05 7.55 6.2 7.55 6.35 7.55 6.6 7.55 6.85 7.55 7.05 7.5 7.25 7.45 7.4 7.4 7.55 7.35 7.7 7.3 7.85 7.2 7.95 7.15 8.05 7.1 8.15 7.0 8.2 6.95 8.25 6.9 8.3 6.85 8.3 6.8 8.3 6.8 7.65 6.85 7.25 6.85 6.7 6.85 6.3 6.75 5.9 6.7 5.6 6.55 5.35 6.45 5.1 6.25 4.9 6.1 4.75 5.9 5.5 6.75 4.4 5.55 4.25 5.4 4.1 5.25 3.9 5.15 3.7 5.05 3.45 5.0 3.15 5.0 3.1 5.0 3.05 5.0 2.95 5.0 2.9 5.0 2.85 5.0 2.75 5.0 2.7 5.0 2.65 5.05 2.55 5.05 2.5 5.05 2.4 5.05 2.35 5.1 2.25 5.1 2.15 5.1 2.1 5.15 2.0 5.15 1.8 4.6 1.7 4.1 1.55 3.55 1.5 3.1 1.45 2.6 1.5 2.2 1.5 1.75 1.55 1.4 1.65 1.05 1.75 0.75 1.9 0.45 2.05 0.25 2.2 0.05 2.4 -0.05 2.6 -0.15 2.8 -0.15 2.9 -0.15 2.9 -0.15 3.05 0.0 3.05 0.15 3.1 0.25 3.05 0.4 3.05 0.55 2.95 0.7 2.85 0.8 2.75 1.0 2.55 1.25 2.55 1.25 2.45 1.4 2.4 1.5 2.35 1.6 2.35 1.7 2.4 1.8 2.5 1.9 2.55 1.95 2.6 1.95 2.65 2.0 2.7 2.0 2.75 2.0 2.8 2.05 2.85 2.05 2.9 2.1 2.95 2.1 3.0 2.1 3.05 2.1 3.1 2.1 3.15 2.15 3.2 2.15 3.3 2.15 3.35 2.15 3.65 2.15 3.95 2.05 4.25 2.0 4.55 1.85 4.85 1.7 5.15 1.5 5.45 1.35 5.75 1.1 6.0 0.9 6.2 0.7 6.45 0.45 6.6 0.25 6.75 0.05 6.8 -0.1 6.9 -0.3 6.85 -0.4 6.85 -0.45 6.8 -0.5 6.8 -0.5 6.7 -0.5 6.65 -0.55 6.6 -0.55 6.05 -0.55 6.4 -0.55 6.3 -0.55 6.25 -0.55 6.15 -0.55 6.1 -0.6 6.05 -0.65 6.0 -0.7 5.95 -0.75 5.9 -0.85 5.9 -0.95 5.9 -1.05 5.9 -1.15 5.9 -1.25 5.9 -1.35 5.95 -1.45 6.0 -1.6 6.05 -1.7 6.1 -1.8 6.15 -1.9 6.2 -2.0 6.3 -2.05 6.35 -2.15 6.4 -2.2 6.5 -2.25 6.55 -2.25 L6.6 -2.25 Q6.7 -2.25 6.75 -2.15 6.8 -2.1 6.85 -1.95 6.9 -1.85 6.95 -1.7 7.0 -1.6 7.05 -1.4 7.1 -1.2 7.1 -1.1 7.15 -0.95 7.2 -0.85 7.25 -0.75 7.35 -0.65 7.4 -0.6 7.5 -0.55 7.55 -0.55 7.6 -0.55 7.7 -0.55 7.7 -0.55 8.0 -0.55 8.25 -0.7 8.5 -0.8 8.7 -1.05 8.9 -1.25 9.05 -1.55 9.2 -1.8 9.3 -2.1 9.4 -2.4 9.45 -2.75 9.45 -3.05 9.45 -3.3 9.45 -3.6 9.4 -3.75 9.3 -4.0 9.2 -4.05 9.15 -4.1 9.1 -4.1 9.1 -4.15 9.05 -4.15 9.0 -4.15 8.95 -4.15 8.9 -4.15 8.85 -4.15 8.8 -4.1 8.75 -4.1 8.7 -4.05 8.6 -4.05 8.6 -4.0 8.5 -3.95 8.45 -3.9 8.4 -3.9 8.3 -3.85 8.25 -3.8 8.2 -3.8 8.15 -3.75 8.1 -3.75 8.0 -3.75 7.95 -3.75 7.95 -3.75 7.9 -3.75 7.85 -3.8 7.85 -3.8 7.8 -3.8 7.75 -3.8 7.75 -3.85 7.7 -3.85 7.65 -3.9 7.6 -3.95 7.55 -4.05 7.5 -4.15 7.5 -4.25 7.45 -4.4 7.45 -4.5 7.45 -4.65 7.45 -4.8 7.45 -4.9 7.5 -5.05 7.5 -5.2 7.55 -5.3 7.6 -5.4 7.6 -5.5 7.65 -5.55 7.75 -5.6 7.8 -5.65 7.85 -5.65 7.9 -5.65 8.0 -5.6 8.05 -5.55 8.15 -5.5 8.2 -5.45 8.3 -5.3 8.1 -5.55 8.45 -5.15 8.55 -5.0 8.6 -4.95 8.7 -4.85 8.8 -4.8 8.9 -4.7 9.0 -4.65 9.1 -4.6 9.2 -4.6 9.25 -4.6 9.3 -4.6 9.3 -4.65 9.35 -4.65 9.4 -4.65 9.45 -4.65 9.5 -4.7 9.55 -4.7 9.75 -4.8 9.9 -5.1 10.05 -5.35 10.1 -5.7 10.15 -6.05 10.1 -6.5 10.1 -6.9 10.0 -7.35 9.9 -7.8 9.75 -8.2 9.6 -8.65 9.45 -9.0 9.25 -9.4 9.05 -9.65 8.8 -9.9 8.55 -10.05 L8.6 -10.05 M-1.65 -2.9 Q-1.7 -2.9 -1.7 -2.9 -1.8 -2.95 -1.85 -3.0 -1.95 -3.1 -2.0 -3.1 -2.1 -3.15 -2.15 -3.2 -2.2 -3.25 -2.25 -3.25 -2.35 -3.3 -2.4 -3.3 -2.45 -3.3 -2.5 -3.35 -2.55 -3.35 -2.6 -3.35 -2.65 -3.35 -2.7 -3.35 -2.75 -3.35 -2.85 -3.35 -2.9 -3.35 -2.95 -3.35 -3.0 -3.3 -3.1 -3.3 -3.1 -3.3 -3.2 -3.3 -3.3 -3.25 -3.35 -3.25 -3.4 -3.25 -3.5 -3.25 -3.55 -3.25 -3.6 -3.2 -3.7 -3.2 -3.8 -3.2 -4.15 -3.25 -4.35 -3.3 -4.5 -3.35 -4.7 -3.45 -4.85 -3.55 -5.0 -3.65 -5.15 -3.8 -5.25 -3.95 -5.4 -4.1 -5.45 -4.3 -5.55 -4.45 -5.65 -4.6 -5.7 -4.75 -5.7 -4.85 -5.75 -5.0 -5.75 -5.05 -5.75 -5.1 -5.65 -5.1 -5.65 -5.1 -5.65 -5.1 -5.5 -5.05 -5.35 -5.0 -5.25 -4.95 -5.15 -4.95 -5.0 -4.9 -4.9 -4.9 -4.85 -4.85 -4.75 -4.85 -4.65 -4.85 -4.6 -4.85 -4.5 -4.8 -4.45 -4.8 -4.4 -4.8 -4.3 -4.8 -4.25 -4.8 -4.2 -4.8 -3.95 -4.8 -3.7 -4.8 L-3.6 -4.8 Q-3.35 -4.8 -3.15 -4.7 -2.95 -4.65 -2.75 -4.5 -2.55 -4.35 -2.4 -4.2 -2.2 -4.0 -2.1 -3.85 -1.95 -3.65 -1.85 -3.5 -1.75 -3.3 -1.7 -3.15 -1.65 -3.05 -1.65 -2.95 -1.6 -2.9 -1.65 -2.9 L-1.65 -2.9 M-1.2 -6.4 Q-1.2 -6.4 -1.25 -6.4 -1.25 -6.4 -1.3 -6.45 -1.4 -6.6 -1.5 -6.65 -1.65 -6.85 -1.9 -7.1 -2.2 -7.4 -2.6 -7.8 -2.75 -7.9 -2.95 -7.95 -3.1 -8.0 -3.4 -8.05 -3.45 -8.05 -3.85 -8.05 -4.15 -8.05 -4.35 -8.1 -4.55 -8.15 -4.7 -8.2 -4.9 -8.3 -5.0 -8.45 -5.05 -8.6 -5.05 -8.9 -5.05 -9.15 -4.9 -9.55 -4.9 -9.6 -4.85 -9.65 -4.85 -9.7 -4.8 -9.7 -4.8 -9.75 -4.8 -9.8 -4.75 -9.85 -4.75 -9.85 -4.75 -9.9 -4.7 -9.9 -4.7 -9.95 -4.7 -9.95 -4.65 -10.0 -4.65 -10.0 -4.6 -10.05 -4.6 -10.05 -4.55 -10.1 -4.55 -10.1 -4.5 -10.15 -4.45 -10.15 -4.45 -10.15 -4.4 -10.2 -4.35 -10.2 -4.35 -10.2 -4.3 -10.2 -4.25 -10.2 -4.2 -10.2 -4.2 -10.2 -4.15 -10.2 -4.1 -10.2 -4.1 -10.15 -4.05 -10.15 -4.0 -10.15 -3.95 -10.1 -3.9 -10.1 -3.85 -10.05 -3.75 -10.0 -3.7 -9.9 -3.6 -9.85 -3.5 -9.75 -3.45 -9.7 -3.35 -9.6 -3.3 -9.55 -3.2 -9.4 -3.1 -9.3 -3.0 -9.2 -2.95 -9.15 -2.85 -9.05 -2.8 -9.0 -2.7 -8.9 -2.65 -8.85 -2.55 -8.8 -2.35 -8.7 -2.2 -8.55 -2.0 -8.4 -1.9 -8.2 -1.75 -8.0 -1.65 -7.8 -1.55 -7.6 -1.45 -7.4 -1.35 -7.2 -1.3 -7.0 -1.25 -6.85 -1.25 -6.7 -1.2 -6.55 -1.2 -6.5 -1.2 -6.4 -1.2 -6.4 L-1.2 -6.4 M0.15 -11.3 Q0.15 -11.25 0.15 -11.2 0.1 -11.15 0.1 -11.1 0.1 -11.05 0.1 -10.95 0.1 -10.9 0.1 -10.85 0.1 -10.8 0.1 -10.8 0.05 -10.75 0.05 -10.7 0.05 -10.7 0.05 -10.65 0.0 -10.65 0.0 -10.65 0.0 -10.65 -0.05 -10.65 -0.05 -10.7 -0.05 -10.7 -0.05 -10.75 -0.05 -10.8 -0.05 -10.8 -0.1 -10.85 -0.1 -11.05 -0.1 -10.95 -0.1 -11.05 -0.1 -11.1 -0.1 -11.15 -0.15 -11.2 -0.15 -11.25 -0.15 -11.3 -0.25 -11.6 -0.35 -11.8 -0.5 -12.05 -0.6 -12.25 -0.75 -12.4 -0.9 -12.55 -1.0 -12.65 -1.15 -12.8 -1.25 -12.85 -1.4 -13.0 -1.5 -13.1 -1.55 -13.15 -1.65 -13.2 -1.7 -13.25 -1.75 -13.35 -1.75 -13.4 -1.75 -13.45 -1.75 -13.45 -1.75 -13.5 -1.7 -13.55 -1.7 -13.6 -1.65 -13.6 -1.65 -13.65 -1.6 -13.7 -1.55 -13.7 -1.5 -13.75 -1.45 -13.8 -1.4 -13.8 -1.3 -13.8 -1.25 -13.85 -1.15 -13.85 -1.05 -13.85 L0.0 -13.85 Q0.55 -13.85 1.05 -13.85 1.15 -13.85 1.25 -13.85 1.3 -13.8 1.4 -13.8 1.45 -13.8 1.5 -13.75 1.55 -13.75 1.6 -13.7 1.65 -13.65 1.65 -13.65 1.7 -13.6 1.7 -13.55 1.75 -13.5 1.75 -13.5 1.75 -13.45 1.75 -13.4 1.75 -13.35 1.7 -13.25 1.65 -13.2 1.6 -13.15 1.55 -13.1 1.4 -13.0 1.25 -12.85 1.15 -12.8 1.0 -12.65 0.9 -12.55 0.75 -12.4 0.65 -12.25 0.5 -12.05 0.4 -11.8 0.25 -11.55 0.15 -11.3 L0.15 -11.3 M1.25 -6.4 Q1.25 -6.4 1.2 -6.4 1.2 -6.4 1.2 -6.5 1.2 -6.55 1.25 -6.7 1.25 -6.85 1.3 -7.0 1.35 -7.2 1.45 -7.4 1.55 -7.6 1.65 -7.8 1.75 -8.0 1.9 -8.2 2.05 -8.4 2.2 -8.55 2.35 -8.7 2.55 -8.8 2.6 -8.85 2.7 -8.9 2.8 -8.95 2.85 -9.05 2.95 -9.1 3.05 -9.2 3.1 -9.3 3.2 -9.4 3.3 -9.55 3.35 -9.6 3.45 -9.7 3.55 -9.75 3.65 -9.85 3.7 -9.9 3.8 -10.0 3.9 -10.05 3.95 -10.1 3.95 -10.1 4.0 -10.15 4.05 -10.15 4.1 -10.15 4.1 -10.2 4.15 -10.2 4.2 -10.2 4.25 -10.2 4.3 -10.2 4.35 -10.2 4.35 -10.2 4.4 -10.2 4.4 -10.2 4.45 -10.15 4.5 -10.15 4.5 -10.15 4.55 -10.1 4.55 -10.1 4.6 -10.05 4.6 -10.05 4.65 -10.0 4.65 -10.0 4.65 -9.95 4.7 -9.95 4.7 -9.9 4.75 -9.9 4.75 -9.85 4.75 -9.85 4.8 -9.8 4.8 -9.75 4.8 -9.7 4.85 -9.7 4.85 -9.65 4.85 -9.6 4.9 -9.55 5.05 -9.15 5.05 -8.85 5.1 -8.6 5.0 -8.45 4.9 -8.3 4.75 -8.2 4.6 -8.1 4.35 -8.1 4.2 -8.05 3.9 -8.05 3.5 -8.05 3.4 -8.05 3.15 -8.0 2.95 -7.95 2.75 -7.9 2.65 -7.8 1.9 -7.15 1.5 -6.65 1.25 -6.4 1.25 -6.4 L1.25 -6.4 M4.35 -3.3 Q4.3 -3.3 4.25 -3.3 4.25 -3.25 4.2 -3.25 4.15 -3.25 4.1 -3.25 4.1 -3.25 4.05 -3.25 4.0 -3.25 4.0 -3.25 3.95 -3.25 3.9 -3.2 3.9 -3.2 3.85 -3.2 3.8 -3.2 3.8 -3.2 3.7 -3.2 3.65 -3.2 3.55 -3.2 3.5 -3.25 3.4 -3.25 3.35 -3.25 3.3 -3.25 3.2 -3.3 3.15 -3.3 3.1 -3.3 3.0 -3.3 2.95 -3.35 2.9 -3.35 2.85 -3.35 2.8 -3.35 2.75 -3.35 2.7 -3.35 2.65 -3.35 2.6 -3.35 2.5 -3.35 2.45 -3.3 2.4 -3.3 2.35 -3.3 2.3 -3.25 2.2 -3.25 2.15 -3.2 2.1 -3.15 2.0 -3.15 1.95 -3.1 1.9 -3.05 1.8 -3.0 1.75 -2.9 1.75 -2.9 1.7 -2.9 1.7 -2.9 1.7 -2.9 1.65 -2.9 1.65 -3.0 1.7 -3.05 1.75 -3.2 1.8 -3.35 1.9 -3.5 2.0 -3.65 2.1 -3.85 2.25 -4.05 2.4 -4.2 2.55 -4.35 2.75 -4.5 2.95 -4.65 3.15 -4.7 3.4 -4.8 3.6 -4.8 L3.7 -4.8 Q3.9 -4.8 4.2 -4.8 4.25 -4.8 4.35 -4.8 4.4 -4.8 4.45 -4.8 4.55 -4.8 4.6 -4.85 4.7 -4.85 4.75 -4.85 4.85 -4.9 4.95 -4.9 5.05 -4.95 5.15 -4.95 5.25 -5.0 5.35 -5.05 5.5 -5.05 5.65 -5.1 5.65 -5.1 5.7 -5.1 5.75 -5.1 5.75 -5.05 5.75 -4.95 5.75 -4.85 5.7 -4.75 5.65 -4.6 5.6 -4.45 5.5 -4.3 5.4 -4.1 5.25 -3.95 5.15 -3.8 5.0 -3.65 4.85 -3.55 4.7 -3.45 4.5 -3.35 4.35 -3.3 L4.35 -3.3" fill="#000000" fill-rule="evenodd" stroke="none"/>
    <path d="M11.2 -10.05 Q11.15 -10.2 11.05 -10.3 11.0 -10.45 10.9 -10.55 10.85 -10.65 10.75 -10.75 10.65 -10.9 10.6 -11.0 10.5 -11.1 10.4 -11.2 10.3 -11.25 10.25 -11.35 10.15 -11.45 10.05 -11.5 9.95 -11.6 9.85 -11.65 9.85 -11.75 9.8 -11.85 9.8 -11.95 9.75 -12.05 9.75 -12.15 9.7 -12.25 9.7 -12.35 9.65 -12.45 9.6 -12.6 9.55 -12.7 9.5 -12.8 9.45 -12.9 9.4 -13.0 9.35 -13.15 9.3 -13.25 9.25 -13.35 9.1 -13.6 8.95 -13.8 8.8 -14.1 8.6 -14.35 8.35 -14.6 8.15 -14.85 7.9 -15.1 7.65 -15.35 7.4 -15.6 7.1 -15.8 6.8 -16.0 6.55 -16.15 6.2 -16.35 5.95 -16.45 5.6 -16.6 5.3 -16.65 5.05 -16.9 4.7 -17.15 4.4 -17.35 4.05 -17.5 3.7 -17.65 3.35 -17.8 3.0 -17.9 2.6 -18.0 2.25 -18.1 1.85 -18.15 1.5 -18.2 1.15 -18.25 0.85 -18.25 0.55 -18.25 0.25 -18.3 0.0 -18.3 -0.25 -18.3 -0.5 -18.3 -0.85 -18.25 -1.15 -18.25 -1.5 -18.2 -1.85 -18.15 -2.25 -18.1 -2.6 -18.0 -3.0 -17.9 -3.35 -17.8 -3.7 -17.65 -4.05 -17.5 -4.4 -17.35 -4.75 -17.1 -5.05 -16.9 -5.3 -16.65 -5.6 -16.6 -5.9 -16.45 -6.2 -16.35 -6.5 -16.2 -6.8 -16.0 -7.1 -15.8 -7.35 -15.6 -7.65 -15.35 -7.9 -15.1 -8.15 -14.85 -8.35 -14.6 -8.55 -14.35 -8.75 -14.1 -8.95 -13.85 -9.1 -13.6 -9.25 -13.35 -9.3 -13.25 -9.35 -13.1 -9.45 -13.0 -9.5 -12.9 -9.55 -12.8 -9.55 -12.7 -9.6 -12.6 -9.65 -12.45 -9.7 -12.35 -9.7 -12.25 -9.75 -12.15 -9.75 -12.05 -9.8 -11.95 -9.8 -11.85 -9.85 -11.75 -9.85 -11.65 -9.95 -11.6 -10.05 -11.5 -10.15 -11.45 -10.25 -11.35 -10.3 -11.25 -10.4 -11.2 -10.5 -11.1 -10.6 -11.0 -10.65 -10.9 -10.75 -10.8 -10.85 -10.65 -10.9 -10.55 -11.0 -10.45 -11.05 -10.3 -11.15 -10.2 -11.2 -10.05 L-12.65 -10.05 -12.65 -0.6 Q-12.65 -0.5 -12.65 -0.25 -12.65 -0.05 -12.65 0.15 -12.6 0.4 -12.6 0.6 -12.55 0.8 -12.55 1.05 -12.5 1.25 -12.45 1.5 -12.4 1.7 -12.35 1.95 -12.35 2.15 -12.25 2.4 -12.2 2.65 -12.15 2.9 -12.1 3.15 -12.0 3.35 -11.9 3.6 -11.85 3.9 -11.75 4.15 -11.65 4.45 -11.55 4.7 -11.45 5.0 -11.35 5.25 -11.25 5.55 -11.1 5.85 -11.0 6.1 -10.85 6.4 -10.75 6.7 -10.6 7.0 -10.45 7.3 -10.3 7.6 -10.15 7.9 -10.0 8.2 -9.8 8.5 -9.65 8.8 -9.5 9.1 -9.3 9.35 -9.15 9.65 -8.95 9.95 -8.75 10.2 -8.6 10.5 -8.4 10.75 -8.2 11.05 -8.0 11.3 -7.8 11.6 -7.6 11.85 -7.4 12.1 -7.2 12.35 -6.85 12.8 -6.45 13.25 -6.05 13.65 -5.65 14.05 -5.25 14.5 -4.8 14.9 -4.4 15.25 -3.95 15.65 -3.5 16.0 -3.0 16.35 -2.55 16.75 -2.05 17.05 -1.55 17.4 -1.05 17.7 -0.55 18.05 -0.05 18.35 L0.0 18.35 Q0.55 18.05 1.05 17.75 1.55 17.4 2.05 17.05 2.55 16.75 3.0 16.4 3.45 16.0 3.9 15.65 4.35 15.3 4.8 14.9 5.2 14.5 5.6 14.1 6.05 13.65 6.4 13.25 6.8 12.8 7.15 12.35 7.35 12.1 7.55 11.85 7.8 11.6 8.0 11.3 8.15 11.05 8.35 10.75 8.55 10.5 8.75 10.2 8.95 9.95 9.1 9.65 9.3 9.35 9.45 9.05 9.65 8.8 9.8 8.5 9.95 8.2 10.1 7.9 10.25 7.6 10.4 7.3 10.55 7.0 10.7 6.7 10.85 6.4 10.95 6.15 11.1 5.85 11.2 5.55 11.3 5.3 11.45 5.0 11.55 4.7 11.65 4.45 11.75 4.2 11.8 3.9 11.9 3.65 12.0 3.4 12.05 3.15 12.15 2.9 12.2 2.65 12.25 2.45 12.3 2.2 12.35 1.95 12.4 1.7 12.45 1.5 12.5 1.25 12.5 1.05 12.55 0.8 12.55 0.6 12.6 0.35 12.6 0.15 12.6 -0.05 12.6 -0.25 12.6 -0.3 12.6 -0.35 12.6 -0.4 12.6 -0.45 12.6 -0.45 12.6 -0.5 12.6 -0.55 12.6 -0.6 L12.6 -10.05 11.2 -10.05 11.2 -10.05 M9.55 -4.7 Q9.5 -4.7 9.45 -4.65 9.4 -4.65 9.4 -4.65 9.35 -4.65 9.3 -4.6 9.25 -4.6 9.2 -4.6 9.1 -4.6 9.0 -4.65 8.9 -4.7 8.8 -4.75 8.7 -4.85 8.6 -4.95 8.55 -5.0 8.45 -5.15 8.25 -5.35 8.3 -5.3 8.25 -5.4 8.15 -5.5 8.1 -5.55 8.05 -5.6 7.95 -5.65 7.9 -5.65 7.85 -5.65 7.8 -5.65 7.8 -5.6 7.75 -5.6 7.7 -5.55 7.65 -5.5 7.6 -5.4 7.55 -5.3 7.55 -5.2 7.5 -5.05 7.5 -4.9 7.45 -4.8 7.45 -4.65 7.45 -4.5 7.5 -4.4 7.5 -4.25 7.55 -4.15 7.55 -4.05 7.6 -3.95 7.7 -3.9 7.75 -3.85 7.75 -3.85 7.8 -3.8 7.85 -3.8 7.85 -3.8 7.9 -3.8 7.95 -3.75 7.95 -3.75 8.0 -3.75 8.05 -3.75 8.1 -3.75 8.15 -3.75 8.25 -3.8 8.3 -3.8 8.35 -3.85 8.4 -3.9 8.45 -3.9 8.55 -3.95 8.6 -4.0 8.65 -4.05 8.7 -4.05 8.75 -4.1 8.8 -4.1 8.85 -4.15 8.95 -4.15 9.0 -4.15 9.05 -4.15 9.05 -4.15 9.1 -4.15 9.15 -4.1 9.2 -4.1 9.2 -4.05 9.3 -3.95 9.4 -3.75 9.45 -3.55 9.45 -3.3 9.5 -3.05 9.45 -2.75 9.4 -2.4 9.3 -2.1 9.2 -1.8 9.05 -1.55 8.9 -1.25 8.75 -1.0 8.55 -0.8 8.3 -0.65 8.05 -0.55 7.75 -0.55 7.7 -0.55 7.65 -0.55 7.65 -0.55 7.6 -0.55 7.55 -0.55 7.5 -0.55 7.4 -0.55 7.35 -0.65 7.25 -0.7 7.2 -0.85 7.15 -0.95 7.1 -1.1 7.1 -1.2 7.05 -1.4 7.0 -1.6 6.95 -1.7 6.95 -1.85 6.9 -1.95 6.85 -2.1 6.75 -2.15 6.7 -2.2 6.6 -2.25 L6.6 -2.25 Q6.55 -2.25 6.45 -2.2 6.4 -2.15 6.3 -2.1 6.25 -2.0 6.2 -1.9 6.1 -1.8 6.05 -1.7 6.0 -1.6 6.0 -1.45 5.95 -1.35 5.95 -1.25 5.9 -1.1 5.9 -1.0 5.9 -0.9 5.95 -0.85 5.95 -0.75 6.0 -0.7 6.05 -0.65 6.15 -0.6 6.2 -0.55 6.3 -0.55 6.35 -0.55 6.45 -0.55 6.4 -0.55 6.6 -0.55 6.7 -0.55 6.75 -0.5 6.8 -0.5 6.85 -0.5 6.9 -0.45 6.9 -0.4 6.9 -0.3 6.85 -0.1 6.75 0.05 6.6 0.25 6.45 0.5 6.25 0.7 6.0 0.9 5.75 1.1 5.5 1.35 5.2 1.5 4.9 1.7 4.6 1.85 4.25 1.95 3.95 2.05 3.65 2.15 3.35 2.15 3.3 2.15 3.25 2.15 3.2 2.15 3.15 2.15 3.05 2.1 3.0 2.1 2.95 2.1 2.9 2.1 2.85 2.05 2.8 2.05 2.75 2.0 2.7 2.0 2.65 1.95 2.6 1.95 2.55 1.9 2.5 1.9 2.4 1.8 2.35 1.7 2.35 1.6 2.4 1.5 2.45 1.4 2.55 1.25 2.6 1.25 2.75 1.0 2.9 0.8 2.95 0.7 3.05 0.55 3.1 0.45 3.15 0.25 3.1 0.15 3.05 0.0 2.95 -0.15 2.95 -0.15 2.9 -0.15 2.85 -0.15 2.85 -0.15 2.65 -0.15 2.45 -0.05 2.25 0.05 2.05 0.25 1.9 0.45 1.8 0.75 1.65 1.05 1.6 1.4 1.5 1.75 1.5 2.2 1.5 2.6 1.55 3.1 1.6 3.6 1.7 4.1 1.8 4.65 2.0 5.15 2.1 5.15 2.15 5.1 2.25 5.1 2.35 5.1 2.4 5.05 2.5 5.05 2.55 5.05 2.65 5.0 2.7 5.0 2.8 5.0 2.85 5.0 2.9 5.0 2.95 5.0 3.05 5.0 3.1 5.0 3.15 5.0 3.45 5.0 3.7 5.05 3.9 5.15 4.1 5.3 4.25 5.4 4.4 5.6 5.75 6.95 4.75 5.9 4.95 6.1 5.1 6.25 5.35 6.45 5.6 6.55 5.9 6.7 6.3 6.75 6.7 6.85 7.25 6.85 7.3 6.85 7.35 6.85 7.45 6.85 7.5 6.85 7.55 6.85 7.6 6.85 7.7 6.85 7.75 6.85 7.8 6.85 7.9 6.8 7.95 6.8 8.05 6.8 8.1 6.8 8.2 6.8 8.25 6.8 8.35 6.8 8.35 6.8 8.3 6.85 8.3 6.9 8.2 6.95 8.15 7.05 8.05 7.1 8.0 7.15 7.85 7.2 7.75 7.3 7.6 7.35 7.45 7.4 7.25 7.45 7.05 7.5 6.85 7.55 6.6 7.55 6.35 7.55 6.2 7.55 6.05 7.55 5.9 7.55 5.75 7.5 5.6 7.5 5.4 7.45 5.25 7.45 5.05 7.4 4.85 7.35 4.65 7.3 4.45 7.2 4.25 7.15 4.05 7.05 3.85 6.95 3.6 6.85 3.4 6.75 3.4 6.75 3.65 7.1 4.05 7.6 4.5 8.35 4.6 8.5 4.65 8.65 4.7 8.8 4.75 8.95 4.8 9.1 4.85 9.3 5.0 9.9 4.95 9.65 5.0 9.85 5.05 10.0 5.1 10.2 5.15 10.35 5.25 10.55 5.35 10.7 5.45 10.85 5.6 11.0 5.6 11.0 5.55 11.0 5.5 11.05 5.5 11.05 5.45 11.05 5.4 11.05 5.35 11.05 5.35 11.05 5.25 11.05 5.05 11.0 4.9 11.0 4.75 10.95 4.55 10.9 4.35 10.8 4.15 10.75 4.0 10.6 3.8 10.5 3.6 10.4 3.4 10.25 3.25 10.1 3.1 9.9 2.95 9.75 2.85 9.55 2.75 9.3 2.7 9.1 2.6 8.9 2.5 8.75 2.4 8.55 2.3 8.4 2.2 8.25 2.1 8.15 2.0 8.05 1.85 7.95 1.75 7.85 1.65 7.75 1.55 7.7 1.45 7.65 1.4 7.65 1.3 7.6 1.2 7.6 1.2 7.6 1.2 7.6 1.2 7.6 1.2 7.6 1.2 7.65 1.25 7.8 1.25 8.0 1.3 8.15 1.35 8.45 1.35 8.7 1.4 9.05 1.35 9.4 1.35 9.8 1.3 10.15 1.2 10.6 1.05 11.05 0.9 11.5 0.65 12.0 0.4 12.5 0.0 12.95 -0.35 12.5 -0.65 11.95 -0.85 11.5 -1.05 11.05 -1.15 10.6 -1.25 10.15 -1.3 9.8 -1.35 9.4 -1.35 9.05 -1.3 8.7 -1.3 8.45 -1.25 8.2 -1.25 8.0 -1.2 7.8 -1.15 7.65 -1.15 7.6 -1.15 7.6 -1.2 7.6 -1.25 7.6 -1.35 7.65 -1.45 7.65 -1.55 7.7 -1.65 7.75 -1.75 7.85 -1.85 7.95 -1.95 8.05 -2.05 8.15 -2.15 8.3 -2.3 8.4 -2.35 8.55 -2.5 8.75 -2.55 8.9 -2.65 9.1 -2.75 9.3 -2.85 9.5 -2.95 9.7 -3.05 9.9 -3.25 10.05 -3.4 10.25 -3.55 10.35 -3.75 10.5 -3.95 10.6 -4.15 10.7 -4.35 10.8 -4.5 10.9 -4.7 10.95 -4.85 11.0 -5.05 11.0 -5.2 11.05 -5.3 11.05 -5.4 11.05 -5.45 11.05 -5.5 11.0 -5.55 11.0 -5.4 10.85 -5.3 10.7 -5.2 10.55 -5.15 10.35 -5.05 10.2 -5.0 10.0 -4.95 9.85 -4.9 9.65 -4.95 9.7 -4.85 9.3 -4.8 9.1 -4.75 8.95 -4.7 8.8 -4.65 8.65 -4.55 8.45 -4.5 8.35 -3.75 7.15 -3.35 6.75 -3.6 6.85 -3.8 6.95 -4.05 7.05 -4.25 7.15 -4.45 7.2 -4.65 7.3 -4.85 7.35 -5.05 7.4 -5.2 7.45 -5.4 7.45 -5.55 7.5 -5.75 7.5 -5.9 7.55 -6.05 7.55 -6.2 7.55 -6.35 7.55 -6.6 7.55 -6.8 7.55 -7.05 7.5 -7.25 7.45 -7.4 7.4 -7.55 7.35 -7.7 7.3 -7.85 7.2 -7.95 7.15 -8.05 7.1 -8.15 7.0 -8.2 6.95 -8.25 6.9 -8.25 6.85 -8.3 6.8 -8.3 6.8 -7.65 6.85 -7.2 6.85 -6.7 6.85 -6.25 6.75 -5.9 6.7 -5.55 6.55 -5.3 6.45 -5.1 6.25 -4.9 6.1 -4.7 5.9 -5.85 7.15 -4.4 5.55 -4.2 5.4 -4.1 5.25 -3.9 5.15 -3.7 5.05 -3.45 5.0 -3.15 5.0 -3.1 5.0 -3.05 5.0 -2.95 5.0 -2.9 5.0 -2.85 5.0 -2.75 5.0 -2.7 5.0 -2.65 5.05 -2.55 5.05 -2.5 5.05 -2.4 5.05 -2.35 5.1 -2.25 5.1 -2.15 5.1 -2.1 5.15 -2.0 5.15 -1.8 4.6 -1.7 4.1 -1.55 3.55 -1.5 3.1 -1.45 2.6 -1.5 2.2 -1.5 1.75 -1.55 1.4 -1.65 1.05 -1.75 0.75 -1.9 0.45 -2.05 0.25 -2.2 0.05 -2.4 -0.05 -2.6 -0.15 -2.8 -0.15 -2.9 -0.15 -2.9 -0.15 -3.05 0.0 -3.05 0.15 -3.1 0.25 -3.05 0.4 -3.05 0.55 -2.95 0.7 -2.85 0.8 -2.75 1.0 -2.55 1.25 -2.55 1.25 -2.45 1.4 -2.4 1.5 -2.35 1.6 -2.35 1.7 -2.4 1.8 -2.5 1.9 -2.55 1.95 -2.6 1.95 -2.65 2.0 -2.7 2.0 -2.75 2.0 -2.8 2.05 -2.85 2.05 -2.9 2.1 -2.95 2.1 -3.0 2.1 -3.05 2.1 -3.1 2.1 -3.15 2.15 -3.2 2.15 -3.3 2.15 -3.35 2.15 -3.65 2.15 -3.95 2.05 -4.25 2.0 -4.55 1.85 -4.85 1.7 -5.2 1.5 -5.45 1.35 -5.75 1.1 -6.0 0.9 -6.2 0.7 -6.45 0.45 -6.6 0.25 -6.75 0.05 -6.85 -0.1 -6.9 -0.3 -6.9 -0.4 -6.9 -0.45 -6.85 -0.5 -6.8 -0.5 -6.75 -0.5 -6.7 -0.55 -6.6 -0.55 -6.15 -0.55 -6.45 -0.55 -6.35 -0.55 -6.25 -0.55 -6.15 -0.55 -6.1 -0.6 -6.05 -0.65 -6.0 -0.7 -5.95 -0.75 -5.9 -0.85 -5.9 -0.95 -5.9 -1.05 -5.9 -1.15 -5.9 -1.25 -5.9 -1.35 -5.95 -1.45 -6.0 -1.6 -6.05 -1.7 -6.1 -1.8 -6.15 -1.9 -6.2 -2.0 -6.3 -2.05 -6.35 -2.15 -6.4 -2.2 -6.5 -2.25 -6.55 -2.25 L-6.6 -2.25 Q-6.7 -2.25 -6.75 -2.15 -6.8 -2.1 -6.85 -1.95 -6.9 -1.85 -6.95 -1.7 -7.0 -1.6 -7.05 -1.4 -7.1 -1.2 -7.1 -1.1 -7.15 -0.95 -7.2 -0.85 -7.25 -0.75 -7.35 -0.65 -7.4 -0.6 -7.5 -0.55 -7.55 -0.55 -7.6 -0.55 -7.7 -0.55 -7.7 -0.55 -8.0 -0.55 -8.25 -0.7 -8.5 -0.8 -8.7 -1.05 -8.9 -1.25 -9.05 -1.55 -9.2 -1.8 -9.3 -2.1 -9.4 -2.4 -9.4 -2.75 -9.45 -3.05 -9.45 -3.3 -9.45 -3.6 -9.35 -3.75 -9.3 -4.0 -9.2 -4.05 -9.15 -4.1 -9.1 -4.1 -9.1 -4.15 -9.05 -4.15 -9.0 -4.15 -8.95 -4.15 -8.9 -4.15 -8.85 -4.15 -8.8 -4.1 -8.75 -4.1 -8.7 -4.05 -8.6 -4.05 -8.6 -4.0 -8.5 -3.95 -8.45 -3.9 -8.4 -3.9 -8.3 -3.85 -8.25 -3.8 -8.2 -3.8 -8.15 -3.75 -8.1 -3.75 -8.0 -3.75 -7.95 -3.75 -7.95 -3.75 -7.9 -3.75 -7.85 -3.8 -7.85 -3.8 -7.8 -3.8 -7.75 -3.8 -7.75 -3.85 -7.7 -3.85 -7.65 -3.9 -7.6 -3.95 -7.55 -4.05 -7.5 -4.15 -7.5 -4.25 -7.45 -4.4 -7.45 -4.5 -7.45 -4.65 -7.45 -4.8 -7.45 -4.9 -7.5 -5.05 -7.5 -5.2 -7.55 -5.3 -7.6 -5.4 -7.6 -5.5 -7.65 -5.55 -7.75 -5.6 -7.8 -5.65 -7.85 -5.65 -7.9 -5.65 -8.0 -5.6 -8.05 -5.55 -8.15 -5.5 -8.2 -5.45 -8.3 -5.3 -8.1 -5.55 -8.45 -5.15 -8.55 -5.0 -8.6 -4.95 -8.7 -4.85 -8.8 -4.8 -8.9 -4.7 -9.0 -4.65 -9.1 -4.6 -9.2 -4.6 -9.25 -4.6 -9.3 -4.6 -9.3 -4.65 -9.35 -4.65 -9.4 -4.65 -9.45 -4.65 -9.5 -4.7 -9.55 -4.7 -9.75 -4.8 -9.9 -5.1 -10.05 -5.35 -10.1 -5.7 -10.15 -6.05 -10.1 -6.5 -10.1 -6.9 -10.0 -7.35 -9.9 -7.8 -9.75 -8.2 -9.6 -8.65 -9.45 -9.0 -9.25 -9.4 -9.05 -9.65 -8.8 -9.9 -8.55 -10.05 -8.5 -10.1 -8.45 -10.1 -8.4 -10.15 -8.35 -10.15 -8.3 -10.15 -8.25 -10.15 -8.2 -10.15 -8.15 -10.15 -8.15 -10.15 -8.1 -10.15 -8.05 -10.15 -8.0 -10.15 -7.95 -10.15 -7.9 -10.15 -7.9 -10.1 -7.85 -10.1 -7.8 -10.05 -7.75 -10.05 -7.65 -10.0 -7.6 -9.9 -7.55 -9.85 -7.55 -9.75 -7.5 -9.7 -7.5 -9.6 -7.5 -9.5 -7.5 -9.4 -7.5 -9.5 -7.5 -9.25 -7.5 -9.2 -7.5 -9.15 -7.45 -9.1 -7.45 -9.05 -7.45 -9.0 -7.4 -9.0 -7.3 -9.05 -7.3 -9.05 -7.25 -9.1 -7.2 -9.1 -7.1 -9.15 -7.05 -9.2 -7.0 -9.25 -6.95 -9.35 -6.9 -9.4 -6.85 -9.45 -6.8 -9.55 -6.75 -9.6 -6.7 -9.7 -6.7 -9.75 -6.65 -9.85 -6.6 -9.9 -6.55 -10.0 -6.55 -10.05 -6.55 -10.1 -6.5 -10.15 -6.5 -10.2 -6.5 -10.2 -6.5 -10.25 -6.5 -10.3 -6.5 -10.35 -6.5 -10.35 -6.5 -10.4 -6.5 -10.45 -6.5 -10.45 -6.5 -10.5 -6.5 -10.5 -6.5 -10.55 -6.5 -10.55 -6.55 -10.6 -6.6 -10.6 -6.6 -10.6 -6.65 -10.6 -6.7 -10.6 -6.75 -10.6 -6.8 -10.6 -6.8 -10.6 -6.85 -10.6 -6.9 -10.55 -6.95 -10.55 -7.0 -10.55 -7.05 -10.5 -7.1 -10.5 -7.15 -10.5 -7.2 -10.45 -7.25 -10.45 -7.3 -10.45 -7.3 -10.45 -7.35 -10.4 -7.4 -10.4 -7.45 -10.4 -7.5 -10.4 -7.55 -10.45 -7.55 -10.45 -7.6 -10.5 -7.65 -10.5 -7.65 -10.55 -7.7 -10.6 -7.85 -10.85 -7.85 -11.15 -7.85 -11.45 -7.7 -11.8 -7.6 -12.1 -7.4 -12.45 -7.2 -12.75 -6.95 -13.1 -6.7 -13.4 -6.4 -13.7 -6.1 -13.95 -5.85 -14.2 -5.55 -14.4 -5.3 -14.5 -5.05 -14.65 -4.85 -14.65 -4.8 -14.65 -4.8 -14.65 -4.75 -14.6 -4.7 -14.6 -4.7 -14.6 -4.65 -14.55 -4.55 -14.5 -4.55 -14.4 -4.5 -14.3 -4.55 -14.15 -4.55 -14.0 -4.6 -13.85 -4.4 -14.65 -4.65 -13.55 -4.7 -13.35 -4.7 -13.25 -4.75 -13.1 -4.7 -13.0 -4.7 -12.9 -4.6 -12.8 -4.55 -12.75 -4.35 -12.75 -4.3 -12.75 -4.3 -12.75 -4.25 -12.75 -4.25 -12.75 -4.2 -12.75 -4.15 -12.8 -4.1 -12.8 -4.05 -12.8 -4.05 -12.8 -4.0 -12.8 -3.95 -12.85 -3.9 -12.85 -3.85 -12.85 -3.8 -12.9 -3.75 -12.9 -3.65 -12.9 -3.45 -12.95 -3.4 -13.05 -3.3 -13.15 -3.3 -13.3 -3.35 -13.4 -3.4 -13.55 -3.45 -13.65 -3.55 -13.8 -4.25 -14.75 -3.8 -14.1 -3.9 -14.25 -3.95 -14.35 -4.05 -14.55 -4.05 -14.65 -4.1 -14.8 -4.05 -14.9 -3.95 -15.15 -3.7 -15.35 -3.5 -15.55 -3.15 -15.7 -2.85 -15.8 -2.5 -15.9 -2.15 -16.0 -1.8 -16.1 -1.45 -16.15 -1.1 -16.2 -0.8 -16.2 -0.55 -16.25 -0.35 -16.25 -0.15 -16.25 -0.05 -16.25 0.0 -16.25 0.0 -16.25 0.15 -16.25 0.35 -16.25 0.55 -16.25 0.85 -16.2 1.15 -16.2 1.5 -16.15 1.8 -16.1 2.2 -16.0 2.5 -15.9 2.9 -15.8 3.2 -15.7 3.5 -15.55 3.7 -15.35 3.95 -15.15 4.05 -14.9 4.1 -14.8 4.1 -14.65 4.05 -14.5 4.0 -14.35 3.9 -14.25 3.8 -14.1 6.4 -17.75 3.6 -13.8 3.5 -13.65 3.45 -13.55 3.35 -13.4 3.35 -13.3 3.35 -13.2 3.4 -13.1 3.5 -13.0 3.7 -12.9 4.25 -12.75 4.4 -12.75 4.55 -12.75 4.65 -12.8 4.75 -12.9 4.75 -13.0 4.8 -13.1 4.75 -13.25 4.75 -13.35 4.7 -13.55 4.4 -14.75 4.6 -13.85 4.6 -14.0 4.55 -14.15 4.55 -14.3 4.55 -14.4 4.6 -14.5 4.7 -14.55 4.7 -14.6 4.75 -14.6 4.8 -14.6 4.8 -14.6 4.85 -14.65 4.9 -14.65 5.1 -14.65 5.35 -14.5 5.6 -14.4 5.85 -14.2 6.15 -14.0 6.45 -13.7 6.75 -13.4 7.0 -13.1 7.25 -12.75 7.45 -12.45 7.65 -12.1 7.75 -11.75 7.9 -11.45 7.9 -11.15 7.9 -10.85 7.75 -10.6 7.7 -10.55 7.7 -10.55 7.65 -10.5 7.65 -10.5 7.6 -10.45 7.6 -10.45 7.55 -10.45 7.5 -10.45 7.5 -10.4 7.45 -10.4 7.4 -10.4 7.35 -10.4 7.3 -10.45 7.25 -10.45 7.2 -10.45 7.15 -10.5 7.15 -10.5 7.05 -10.5 7.0 -10.55 7.0 -10.55 6.95 -10.55 6.9 -10.6 6.85 -10.6 6.8 -10.6 6.75 -10.6 6.75 -10.6 6.7 -10.6 6.65 -10.6 6.6 -10.6 6.6 -10.55 6.55 -10.55 6.55 -10.5 6.55 -10.45 6.55 -10.45 6.5 -10.4 6.5 -10.35 6.55 -10.3 6.55 -10.25 6.55 -10.2 6.55 -10.15 6.55 -10.1 6.6 -10.05 6.6 -10.0 6.65 -9.9 6.7 -9.85 6.7 -9.75 6.75 -9.7 6.8 -9.6 6.85 -9.55 6.9 -9.45 6.95 -9.4 7.0 -9.35 7.05 -9.25 7.1 -9.2 7.15 -9.15 7.2 -9.15 7.25 -9.1 7.3 -9.05 7.35 -9.05 7.4 -9.05 7.4 -9.0 7.4 -9.0 7.45 -9.0 7.45 -9.05 7.5 -9.05 7.5 -9.15 7.5 -9.2 7.5 -9.25 7.55 -9.65 7.55 -9.4 7.55 -9.5 7.55 -9.6 7.55 -9.7 7.6 -9.75 7.6 -9.85 7.65 -9.9 7.7 -10.0 7.8 -10.05 7.85 -10.05 7.9 -10.1 7.9 -10.1 7.95 -10.1 8.0 -10.15 8.05 -10.15 8.15 -10.15 8.2 -10.15 8.25 -10.15 8.3 -10.15 8.3 -10.15 8.35 -10.15 8.4 -10.15 8.45 -10.15 8.5 -10.1 8.5 -10.1 8.55 -10.1 8.6 -10.05 8.85 -9.9 9.05 -9.65 9.25 -9.4 9.45 -9.0 9.65 -8.65 9.8 -8.2 9.95 -7.8 10.0 -7.35 10.1 -6.9 10.15 -6.5 10.15 -6.05 10.1 -5.7 10.05 -5.35 9.95 -5.1 9.8 -4.85 9.55 -4.7 L9.55 -4.7" fill="#bcbec0" fill-rule="evenodd" stroke="none"/>
    <path d="M1.75 -13.4 Q1.75 -13.45 1.75 -13.45 1.75 -13.5 1.7 -13.55 1.7 -13.6 1.65 -13.6 1.65 -13.65 1.6 -13.7 1.55 -13.7 1.5 -13.75 1.45 -13.8 1.4 -13.8 1.3 -13.8 1.25 -13.85 1.15 -13.85 1.05 -13.85 L0.0 -13.85 Q-0.55 -13.85 -1.1 -13.85 -1.2 -13.85 -1.25 -13.85 -1.35 -13.8 -1.4 -13.8 -1.5 -13.8 -1.55 -13.75 -1.6 -13.75 -1.6 -13.7 -1.65 -13.65 -1.7 -13.65 -1.7 -13.6 -1.75 -13.55 -1.75 -13.5 -1.75 -13.5 -1.75 -13.45 -1.75 -13.4 -1.75 -13.35 -1.7 -13.25 -1.65 -13.2 -1.6 -13.15 -1.55 -13.1 -1.4 -13.0 -1.25 -12.85 -1.15 -12.8 -1.05 -12.65 -0.9 -12.55 -0.75 -12.4 -0.65 -12.25 -0.5 -12.05 -0.4 -11.8 -0.25 -11.55 -0.2 -11.3 -0.2 -11.25 -0.15 -11.2 -0.15 -11.15 -0.15 -11.1 -0.15 -11.05 -0.1 -10.95 -0.1 -11.0 -0.1 -10.85 -0.1 -10.8 -0.1 -10.8 -0.1 -10.75 -0.1 -10.7 -0.05 -10.7 -0.05 -10.65 -0.05 -10.65 0.0 -10.65 0.0 -10.65 0.05 -10.65 0.05 -10.7 0.05 -10.7 0.05 -10.75 0.05 -10.8 0.05 -10.8 0.05 -10.85 0.05 -10.95 0.05 -10.95 0.1 -11.05 0.1 -11.1 0.1 -11.15 0.1 -11.2 0.1 -11.25 0.15 -11.3 0.25 -11.6 0.35 -11.8 0.45 -12.05 0.6 -12.25 0.7 -12.4 0.85 -12.55 1.0 -12.65 1.1 -12.8 1.2 -12.85 1.35 -13.0 1.5 -13.1 1.55 -13.15 1.65 -13.2 1.65 -13.25 1.7 -13.35 1.7 -13.4 L1.75 -13.4" fill="#bcbec0" fill-rule="evenodd" stroke="none"/>
    <path d="M-2.55 -8.8 Q-2.6 -8.85 -2.7 -8.9 -2.8 -8.95 -2.85 -9.05 -2.95 -9.1 -3.05 -9.2 -3.1 -9.3 -3.2 -9.4 -3.3 -9.55 -3.35 -9.6 -3.45 -9.7 -3.55 -9.75 -3.65 -9.85 -3.7 -9.9 -3.8 -10.0 -3.9 -10.05 -3.95 -10.1 -3.95 -10.1 -4.0 -10.15 -4.05 -10.15 -4.1 -10.15 -4.1 -10.2 -4.15 -10.2 -4.2 -10.2 -4.25 -10.2 -4.3 -10.2 -4.35 -10.2 -4.35 -10.2 -4.4 -10.2 -4.4 -10.2 -4.45 -10.15 -4.5 -10.15 -4.5 -10.15 -4.55 -10.1 -4.55 -10.1 -4.6 -10.05 -4.6 -10.05 -4.65 -10.0 -4.65 -10.0 -4.7 -9.95 -4.7 -9.95 -4.7 -9.9 -4.75 -9.9 -4.75 -9.85 -4.75 -9.85 -4.8 -9.8 -4.8 -9.75 -4.8 -9.7 -4.85 -9.7 -4.85 -9.65 -4.85 -9.6 -4.9 -9.55 -5.05 -9.15 -5.05 -8.85 -5.1 -8.6 -5.0 -8.45 -4.9 -8.3 -4.75 -8.2 -4.6 -8.1 -4.35 -8.1 -4.15 -8.05 -3.9 -8.05 -3.5 -8.05 -3.4 -8.05 -3.15 -8.0 -2.95 -7.95 -2.75 -7.9 -2.6 -7.8 -1.85 -7.15 -1.5 -6.65 -1.25 -6.4 -1.25 -6.4 -1.25 -6.4 -1.2 -6.4 -1.2 -6.4 -1.2 -6.5 -1.2 -6.55 -1.25 -6.7 -1.25 -6.85 -1.3 -7.0 -1.35 -7.2 -1.45 -7.4 -1.55 -7.6 -1.65 -7.8 -1.75 -8.0 -1.9 -8.2 -2.05 -8.4 -2.2 -8.55 -2.35 -8.7 -2.55 -8.8 L-2.55 -8.8" fill="#bcbec0" fill-rule="evenodd" stroke="none"/>
    <path d="M2.6 -7.8 Q2.75 -7.9 2.95 -7.95 3.1 -8.0 3.4 -8.05 3.45 -8.05 3.85 -8.05 4.15 -8.05 4.35 -8.1 4.55 -8.15 4.7 -8.2 4.9 -8.3 5.0 -8.45 5.05 -8.6 5.05 -8.9 5.05 -9.15 4.9 -9.55 4.9 -9.6 4.85 -9.65 4.85 -9.7 4.8 -9.75 4.8 -9.8 4.75 -9.8 4.75 -9.85 4.75 -9.9 4.7 -9.95 4.7 -9.95 4.65 -10.0 4.65 -10.0 4.6 -10.05 4.6 -10.05 4.55 -10.1 4.55 -10.1 4.55 -10.1 4.5 -10.15 4.45 -10.15 4.45 -10.2 4.4 -10.2 4.35 -10.2 4.3 -10.2 4.25 -10.2 4.2 -10.2 4.2 -10.2 4.15 -10.2 4.1 -10.2 4.1 -10.15 4.05 -10.15 4.0 -10.15 3.95 -10.1 3.9 -10.1 3.85 -10.05 3.75 -10.0 3.7 -9.9 3.6 -9.85 3.5 -9.75 3.45 -9.7 3.35 -9.6 3.3 -9.55 3.2 -9.4 3.1 -9.3 3.0 -9.2 2.95 -9.15 2.85 -9.05 2.8 -9.0 2.7 -8.9 2.65 -8.85 2.55 -8.8 2.35 -8.7 2.2 -8.55 2.0 -8.4 1.9 -8.2 1.75 -8.0 1.65 -7.8 1.55 -7.6 1.45 -7.4 1.35 -7.2 1.3 -7.0 1.25 -6.85 1.25 -6.7 1.2 -6.55 1.2 -6.5 1.2 -6.4 1.2 -6.4 1.2 -6.4 1.2 -6.4 1.2 -6.4 1.25 -6.4 1.25 -6.4 1.3 -6.45 1.3 -6.45 1.35 -6.55 1.4 -6.6 1.45 -6.65 1.55 -6.75 1.65 -6.85 1.75 -7.0 1.85 -7.1 2.0 -7.25 2.2 -7.4 2.4 -7.6 2.6 -7.8 L2.6 -7.8" fill="#bcbec0" fill-rule="evenodd" stroke="none"/>
    <path d="M5.65 -5.1 Q5.65 -5.1 5.65 -5.1 5.5 -5.05 5.35 -5.0 5.25 -5.0 5.15 -4.95 5.0 -4.9 4.9 -4.9 4.85 -4.9 4.75 -4.85 4.65 -4.85 4.6 -4.85 4.5 -4.85 4.45 -4.8 4.4 -4.8 4.3 -4.8 4.25 -4.8 4.2 -4.8 4.05 -4.8 3.7 -4.8 L3.6 -4.8 Q3.35 -4.8 3.15 -4.7 2.95 -4.65 2.75 -4.5 2.55 -4.35 2.4 -4.2 2.25 -4.05 2.1 -3.85 1.95 -3.65 1.85 -3.5 1.75 -3.35 1.7 -3.2 1.65 -3.05 1.65 -2.95 1.65 -2.9 1.65 -2.9 1.7 -2.9 1.7 -2.9 1.8 -2.95 1.85 -3.0 1.95 -3.1 2.0 -3.1 2.05 -3.15 2.15 -3.2 2.2 -3.25 2.25 -3.25 2.35 -3.3 2.4 -3.3 2.45 -3.3 2.5 -3.35 2.55 -3.35 2.6 -3.35 2.65 -3.35 2.7 -3.35 2.75 -3.35 2.8 -3.35 2.9 -3.35 2.95 -3.35 3.0 -3.3 3.05 -3.3 3.1 -3.3 3.2 -3.3 3.25 -3.25 3.3 -3.25 3.4 -3.25 3.45 -3.25 3.55 -3.25 3.6 -3.2 3.7 -3.2 3.75 -3.2 4.1 -3.25 4.3 -3.3 4.5 -3.35 4.65 -3.45 4.8 -3.55 4.95 -3.65 5.1 -3.8 5.25 -3.95 5.35 -4.1 5.45 -4.3 5.55 -4.45 5.6 -4.6 5.65 -4.75 5.7 -4.85 5.75 -5.0 5.7 -5.05 5.7 -5.1 5.65 -5.1 L5.65 -5.1" fill="#bcbec0" fill-rule="evenodd" stroke="none"/>
    <path d="M-3.6 -4.8 L-3.7 -4.8 Q-3.9 -4.8 -4.2 -4.8 -4.25 -4.8 -4.35 -4.8 -4.4 -4.8 -4.45 -4.8 -4.55 -4.8 -4.6 -4.85 -4.7 -4.85 -4.75 -4.85 -4.85 -4.9 -4.95 -4.9 -5.05 -4.95 -5.15 -4.95 -5.25 -5.0 -5.35 -5.05 -5.5 -5.05 -5.65 -5.1 -5.65 -5.1 -5.7 -5.1 -5.75 -5.1 -5.75 -5.05 -5.75 -4.95 -5.75 -4.85 -5.7 -4.75 -5.65 -4.6 -5.6 -4.45 -5.5 -4.3 -5.4 -4.1 -5.3 -3.95 -5.15 -3.8 -5.0 -3.65 -4.85 -3.55 -4.7 -3.45 -4.55 -3.35 -4.35 -3.3 -4.3 -3.3 -4.3 -3.3 -4.25 -3.25 -4.2 -3.25 -4.15 -3.25 -4.15 -3.25 -4.1 -3.25 -4.05 -3.25 -4.05 -3.25 -4.0 -3.25 -3.95 -3.25 -3.95 -3.25 -3.9 -3.25 -3.85 -3.25 -3.85 -3.25 -3.8 -3.25 -3.7 -3.25 -3.65 -3.25 -3.55 -3.25 -3.5 -3.25 -3.45 -3.25 -3.35 -3.3 -3.3 -3.3 -3.25 -3.3 -3.7 -3.2 -3.1 -3.3 -3.05 -3.35 -3.0 -3.35 -2.9 -3.35 -2.85 -3.35 -2.8 -3.35 -2.75 -3.35 -2.7 -3.35 -2.65 -3.35 -2.6 -3.35 -2.55 -3.35 -2.5 -3.35 -2.4 -3.3 -2.35 -3.3 -2.3 -3.25 -2.25 -3.25 -2.2 -3.2 -2.1 -3.2 -2.05 -3.15 -1.95 -3.1 -1.9 -3.05 -1.85 -3.0 -1.75 -2.9 -1.75 -2.9 -1.7 -2.9 -1.7 -2.9 -1.7 -2.9 -1.65 -2.9 -1.7 -3.0 -1.7 -3.05 -1.75 -3.2 -1.8 -3.35 -1.9 -3.5 -2.0 -3.7 -2.1 -3.85 -2.25 -4.05 -2.4 -4.2 -2.6 -4.4 -2.75 -4.5 -2.95 -4.65 -3.15 -4.75 -3.4 -4.8 -3.6 -4.8 L-3.6 -4.8" fill="#bcbec0" fill-rule="evenodd" stroke="none"/>
  </g>
</svg>
