<?xml version="1.0" encoding="UTF-8" standalone="no"?>
<!DOCTYPE svg PUBLIC "-//W3C//DTD SVG 1.1//EN" "http://www.w3.org/Graphics/SVG/1.1/DTD/svg11.dtd">
<svg width="100%" height="100%" viewBox="0 0 400 400" version="1.1" xmlns="http://www.w3.org/2000/svg" xmlns:xlink="http://www.w3.org/1999/xlink" xml:space="preserve" xmlns:serif="http://www.serif.com/" style="fill-rule:evenodd;clip-rule:evenodd;stroke-linejoin:round;stroke-miterlimit:2;">
    <g transform="matrix(10.0883,0,0,10.0883,197.73,201.765)">
        <path d="M3.25,-10.7L3.25,-11L-2.75,-11L-2.75,-10.6C-2.717,-7.4 -2.417,-4.533 -1.85,-2C-1.45,-0.067 -0.75,2.1 0.25,4.5C1.217,2.067 1.917,-0.1 2.35,-2C2.917,-4.567 3.217,-7.467 3.25,-10.7M7.95,-18L7.95,-10.6C7.883,-4.667 6.983,0.75 5.25,5.65L0.65,17.65L-0.15,17.65L-4.8,5.65C-6.533,0.783 -7.433,-4.617 -7.5,-10.55L-7.5,-18L7.95,-18" style="fill:rgb(188,190,192);"/>
        <path d="M3.25,-10.7C3.217,-7.467 2.917,-4.567 2.35,-2C1.917,-0.1 1.217,2.067 0.25,4.5C-0.75,2.1 -1.45,-0.067 -1.85,-2C-2.417,-4.533 -2.717,-7.4 -2.75,-10.6L-2.75,-11L3.25,-11L3.25,-10.7M9.95,-20L9.95,-10.55C9.917,-5.85 9.4,-1.583 8.4,2.25C7.833,4.417 6.767,7.4 5.2,11.2C3.967,14 3.083,16.35 2.55,18.25L2.1,19.65L-1.65,19.65L-2.1,18.25C-2.633,16.35 -3.517,14 -4.75,11.2C-6.317,7.4 -7.383,4.417 -7.95,2.25C-8.95,-1.583 -9.467,-5.833 -9.5,-10.5L-9.5,-20L9.95,-20M7.95,-18L-7.5,-18L-7.5,-10.55C-7.433,-4.617 -6.533,0.783 -4.8,5.65L-0.15,17.65L0.65,17.65L5.25,5.65C6.983,0.75 7.883,-4.667 7.95,-10.6L7.95,-18"/>
    </g>
</svg>
