<?xml version="1.0" encoding="UTF-8" standalone="no"?>
<!DOCTYPE svg PUBLIC "-//W3C//DTD SVG 1.1//EN" "http://www.w3.org/Graphics/SVG/1.1/DTD/svg11.dtd">
<svg width="100%" height="100%" viewBox="0 0 400 400" version="1.1" xmlns="http://www.w3.org/2000/svg" xmlns:xlink="http://www.w3.org/1999/xlink" xml:space="preserve" xmlns:serif="http://www.serif.com/" style="fill-rule:evenodd;clip-rule:evenodd;stroke-linejoin:round;stroke-miterlimit:2;">
    <g transform="matrix(9.52381,0,0,9.52381,203.81,200)">
        <path d="M11.75,-14.85C12.817,-14.85 13.483,-14.5 13.75,-13.8L13.8,-13.3C13.867,-11.8 13.583,-10.567 12.95,-9.6L13.4,-9.05L13.55,-8.15C13.45,-6.983 12.9,-6.117 11.9,-5.55L11.8,-4.5C11.533,-3.8 11.1,-3.217 10.5,-2.75L10.5,-2.6C10.567,-1.467 10.183,-0.55 9.35,0.15L9.45,0.6C9.517,1.833 8.983,2.833 7.85,3.6L8.55,4.05L10.05,6.25C10.283,6.583 10.383,6.933 10.35,7.3C10.317,7.7 10.167,8.033 9.9,8.3L10.1,8.35C10.533,8.483 10.983,8.9 11.45,9.6L11.5,9.7L15,15.7L15.2,16.45L15.2,16.65L15.1,17.2C14.833,17.967 14.233,18.7 13.3,19.4C12.467,20.067 11.517,20.417 10.45,20.45L9.45,20.45L9.2,20.4L9,20.4L8.65,20.35C8.217,20.317 7.85,20.083 7.55,19.65C6.717,18.25 5.7,16.15 4.5,13.35L4.45,13.2C4.15,12.667 4.017,12.183 4.05,11.75C4.05,11.417 4.15,11.117 4.35,10.85L0.6,11.6C0.1,13.8 -0.233,16.183 -0.4,18.75L-0.4,21L-4.35,21L-4.35,19.25L-4.4,18.9L-4.35,11.7C-7.55,11.4 -10.183,10.25 -12.25,8.25C-14.55,5.95 -15.8,3.067 -16,-0.4L-16,-1.5C-15.9,-3.267 -15.5,-5.05 -14.8,-6.85C-14.3,-8.083 -13.6,-9.383 -12.7,-10.75C-11.1,-13.117 -9.25,-15.183 -7.15,-16.95L-6.2,-17.3L-6,-17.3L-5.5,-17.2C-5.333,-18 -4.967,-18.783 -4.4,-19.55L-3.45,-20.65L-2.45,-21C-2.05,-21 -1.717,-20.883 -1.45,-20.65L-0.35,-19.45C0.25,-18.55 0.6,-17.65 0.7,-16.75C1.267,-16.817 1.717,-16.633 2.05,-16.2L2.75,-14.65C2.883,-13.85 2.8,-13.05 2.5,-12.25L2.7,-12.05L3.1,-11.3L3.55,-11.55L4,-11.65C4.267,-12.583 4.767,-13.3 5.5,-13.8C6.067,-14.2 6.617,-14.4 7.15,-14.4C7.617,-14.4 8.017,-14.2 8.35,-13.8C9.25,-14.5 10.383,-14.85 11.75,-14.85M6.35,-12.7C5.85,-12.333 5.533,-11.8 5.4,-11.1C5.133,-9.967 5.3,-8.633 5.9,-7.1C6.8,-7.267 7.333,-7.867 7.5,-8.9C7.6,-9.567 7.567,-10.45 7.4,-11.55L7.15,-13L6.35,-12.7M0.85,-15.35L-0.3,-14.4C-1.133,-13.667 -1.7,-12.967 -2,-12.3C-2.333,-11.667 -2.417,-11.033 -2.25,-10.4L-1.9,-9.7C-0.467,-10.667 0.5,-11.667 1,-12.7C1.5,-13.767 1.45,-14.65 0.85,-15.35M6.85,-6.45L8.3,-6.4L10.75,-6.75C11.317,-6.983 11.7,-7.35 11.9,-7.85L12.05,-8.5L8.2,-8.4C7.567,-8.133 7.15,-7.733 6.95,-7.2L6.85,-6.45M9.45,-9.35C10.317,-9.517 10.983,-9.817 11.45,-10.25C12.15,-10.95 12.433,-12 12.3,-13.4C10.933,-13.6 9.85,-13.3 9.05,-12.5C8.55,-12.033 8.283,-11.333 8.25,-10.4C8.217,-9.967 8.233,-9.567 8.3,-9.2L9.45,-9.35M3.4,-9.85C2.9,-9.417 2.65,-8.817 2.65,-8.05C2.617,-6.817 3.05,-5.45 3.95,-3.95C4.783,-4.25 5.2,-4.967 5.2,-6.1L4.7,-8.85L4.15,-10.25C3.917,-10.183 3.667,-10.05 3.4,-9.85M0.2,-10.4L-1.75,-8.35C-2.15,-7.683 -2.283,-7.017 -2.15,-6.35L-1.85,-5.6C-0.283,-6.5 0.8,-7.483 1.4,-8.55C2.033,-9.583 2.067,-10.5 1.5,-11.3L0.2,-10.4M4.95,-3.35L6.45,-3.35L9.05,-3.75C9.983,-4.15 10.433,-4.75 10.4,-5.55L6.3,-5.4C5.667,-5.1 5.25,-4.667 5.05,-4.1L4.95,-3.35M4.8,-0.15C6,-0.217 6.917,-0.383 7.55,-0.65C8.583,-1.017 9.067,-1.633 9,-2.5L4.65,-2.3C3.983,-2 3.55,-1.55 3.35,-0.95L3.25,-0.15L4.8,-0.15M2.4,-3.15C0.567,-2.383 -0.75,-1.467 -1.55,-0.4C-2.083,0.267 -2.317,0.967 -2.25,1.7L-2.05,2.6L-0.5,1.85L1.95,-0.15C2.45,-0.783 2.683,-1.483 2.65,-2.25L2.4,-3.15M2.05,-7.2C0.35,-6.367 -0.85,-5.417 -1.55,-4.35C-2.017,-3.717 -2.2,-3.05 -2.1,-2.35L-1.85,-1.5L-0.45,-2.3C0.583,-3 1.333,-3.683 1.8,-4.35C2.5,-5.383 2.583,-6.333 2.05,-7.2M5.7,5.75C4.133,6.383 2.283,6.817 0.15,7.05L1.45,3.25L1.35,0.8L-0.75,7.1L-1.9,7.15L-1.9,2.8L-2.85,2.8L-2.85,7.1C-5.75,6.833 -7.933,5.533 -9.4,3.2C-10.6,1.3 -11.217,-1.033 -11.25,-3.8C-11.283,-6 -10.45,-8.55 -8.75,-11.45L-6.15,-15.15L-5.95,-15.55L-6,-15.9L-6.2,-15.9C-8.167,-14.233 -9.917,-12.267 -11.45,-10L-13.4,-6.4C-14.067,-4.733 -14.417,-3.133 -14.45,-1.6L-14.45,-0.6C-14.317,2.433 -13.217,4.983 -11.15,7.05C-9.25,8.95 -6.617,9.983 -3.25,10.15L-2.85,10.15L-2.85,18.55L-2.9,18.85L-2.85,18.85L-1.9,18.55C-1.767,15.917 -1.35,13.1 -0.65,10.1C1.15,9.967 3.117,9.55 5.25,8.85C5.817,9.483 6.083,10.017 6.05,10.45L5.85,11.15L5.55,11.7L5.9,12.65C7,15.217 7.983,17.25 8.85,18.75L10.4,18.8C11.167,18.767 11.833,18.517 12.4,18.05C13.067,17.55 13.5,17.05 13.7,16.55L13.7,16.3L10.25,10.45L9.65,9.7L9.1,9.7C8.633,9.7 8.217,9.55 7.85,9.25C7.05,8.583 6.9,8.083 7.4,7.75L8.85,7.05L7.4,4.9L5.7,5.75M7.95,0.55L3.35,0.8C2.617,1.1 2.15,1.583 1.95,2.25L1.85,3.05L3.5,3.05L6.4,2.5C7.1,2.267 7.567,1.867 7.8,1.3L7.95,0.55M-2.45,-19.6L-3.25,-18.65C-3.817,-17.85 -4.1,-17.083 -4.1,-16.35C-4.1,-15.183 -3.55,-14.117 -2.45,-13.15C-1.35,-14.117 -0.8,-15.183 -0.8,-16.35C-0.8,-17.083 -1.067,-17.85 -1.6,-18.65L-2.45,-19.6M-6.1,-14.6C-6.267,-14 -6.2,-13.367 -5.9,-12.7C-5.4,-11.667 -4.433,-10.667 -3,-9.7C-2.4,-10.4 -2.367,-11.267 -2.9,-12.3C-3.2,-12.967 -3.767,-13.667 -4.6,-14.4L-5.75,-15.35L-6.1,-14.6M-5.05,-10.4L-6.35,-11.3L-6.65,-10.5C-6.783,-9.833 -6.65,-9.183 -6.25,-8.55C-5.65,-7.483 -4.567,-6.5 -3,-5.6C-2.433,-6.367 -2.467,-7.283 -3.1,-8.35L-5.05,-10.4M-7.15,-6.35C-7.25,-5.65 -7.083,-4.983 -6.65,-4.35C-5.917,-3.283 -4.7,-2.333 -3,-1.5C-2.867,-1.7 -2.783,-1.983 -2.75,-2.35C-2.65,-3.05 -2.833,-3.717 -3.3,-4.35C-3.733,-5.017 -4.467,-5.683 -5.5,-6.35L-6.9,-7.2L-7.15,-6.35M-7.5,-2.25C-7.567,-1.483 -7.333,-0.783 -6.8,-0.15C-5.967,0.917 -4.633,1.833 -2.8,2.6L-2.6,1.7C-2.533,0.967 -2.767,0.267 -3.3,-0.4L-5.75,-2.35L-7.25,-3.15L-7.5,-2.25"/>
    </g>
    <g transform="matrix(9.52381,0,0,9.52381,203.81,200)">
        <path d="M-7.5,-2.25L-7.25,-3.15L-5.75,-2.35L-3.3,-0.4C-2.767,0.267 -2.533,0.967 -2.6,1.7L-2.8,2.6C-4.633,1.833 -5.967,0.917 -6.8,-0.15C-7.333,-0.783 -7.567,-1.483 -7.5,-2.25M-7.15,-6.35L-6.9,-7.2L-5.5,-6.35C-4.467,-5.683 -3.733,-5.017 -3.3,-4.35C-2.833,-3.717 -2.65,-3.05 -2.75,-2.35C-2.783,-1.983 -2.867,-1.7 -3,-1.5C-4.7,-2.333 -5.917,-3.283 -6.65,-4.35C-7.083,-4.983 -7.25,-5.65 -7.15,-6.35M-5.05,-10.4L-3.1,-8.35C-2.467,-7.283 -2.433,-6.367 -3,-5.6C-4.567,-6.5 -5.65,-7.483 -6.25,-8.55C-6.65,-9.183 -6.783,-9.833 -6.65,-10.5L-6.35,-11.3L-5.05,-10.4M-6.1,-14.6L-5.75,-15.35L-4.6,-14.4C-3.767,-13.667 -3.2,-12.967 -2.9,-12.3C-2.367,-11.267 -2.4,-10.4 -3,-9.7C-4.433,-10.667 -5.4,-11.667 -5.9,-12.7C-6.2,-13.367 -6.267,-14 -6.1,-14.6M-2.45,-19.6L-1.6,-18.65C-1.067,-17.85 -0.8,-17.083 -0.8,-16.35C-0.8,-15.183 -1.35,-14.117 -2.45,-13.15C-3.55,-14.117 -4.1,-15.183 -4.1,-16.35C-4.1,-17.083 -3.817,-17.85 -3.25,-18.65L-2.45,-19.6M7.95,0.55L7.8,1.3C7.567,1.867 7.1,2.267 6.4,2.5L3.5,3.05L1.85,3.05L1.95,2.25C2.15,1.583 2.617,1.1 3.35,0.8L7.95,0.55M5.7,5.75L7.4,4.9L8.85,7.05L7.4,7.75C6.9,8.083 7.05,8.583 7.85,9.25C8.217,9.55 8.633,9.7 9.1,9.7L9.65,9.7L10.25,10.45L13.7,16.3L13.7,16.55C13.5,17.05 13.067,17.55 12.4,18.05C11.833,18.517 11.167,18.767 10.4,18.8L8.85,18.75C7.983,17.25 7,15.217 5.9,12.65L5.55,11.7L5.85,11.15L6.05,10.45C6.083,10.017 5.817,9.483 5.25,8.85C3.117,9.55 1.15,9.967 -0.65,10.1C-1.35,13.1 -1.767,15.917 -1.9,18.55L-2.85,18.85L-2.9,18.85L-2.85,18.55L-2.85,10.15L-3.25,10.15C-6.617,9.983 -9.25,8.95 -11.15,7.05C-13.217,4.983 -14.317,2.433 -14.45,-0.6L-14.45,-1.6C-14.417,-3.133 -14.067,-4.733 -13.4,-6.4L-11.45,-10C-9.917,-12.267 -8.167,-14.233 -6.2,-15.9L-6,-15.9L-5.95,-15.55L-6.15,-15.15L-8.75,-11.45C-10.45,-8.55 -11.283,-6 -11.25,-3.8C-11.217,-1.033 -10.6,1.3 -9.4,3.2C-7.933,5.533 -5.75,6.833 -2.85,7.1L-2.85,2.8L-1.9,2.8L-1.9,7.15L-0.75,7.1L1.35,0.8L1.45,3.25L0.15,7.05C2.283,6.817 4.133,6.383 5.7,5.75M2.05,-7.2C2.583,-6.333 2.5,-5.383 1.8,-4.35C1.333,-3.683 0.583,-3 -0.45,-2.3L-1.85,-1.5L-2.1,-2.35C-2.2,-3.05 -2.017,-3.717 -1.55,-4.35C-0.85,-5.417 0.35,-6.367 2.05,-7.2M2.4,-3.15L2.65,-2.25C2.683,-1.483 2.45,-0.783 1.95,-0.15L-0.5,1.85L-2.05,2.6L-2.25,1.7C-2.317,0.967 -2.083,0.267 -1.55,-0.4C-0.75,-1.467 0.567,-2.383 2.4,-3.15M4.8,-0.15L3.25,-0.15L3.35,-0.95C3.55,-1.55 3.983,-2 4.65,-2.3L9,-2.5C9.067,-1.633 8.583,-1.017 7.55,-0.65C6.917,-0.383 6,-0.217 4.8,-0.15M4.95,-3.35L5.05,-4.1C5.25,-4.667 5.667,-5.1 6.3,-5.4L10.4,-5.55C10.433,-4.75 9.983,-4.15 9.05,-3.75L6.45,-3.35L4.95,-3.35M0.2,-10.4L1.5,-11.3C2.067,-10.5 2.033,-9.583 1.4,-8.55C0.8,-7.483 -0.283,-6.5 -1.85,-5.6L-2.15,-6.35C-2.283,-7.017 -2.15,-7.683 -1.75,-8.35L0.2,-10.4M3.4,-9.85C3.667,-10.05 3.917,-10.183 4.15,-10.25L4.7,-8.85L5.2,-6.1C5.2,-4.967 4.783,-4.25 3.95,-3.95C3.05,-5.45 2.617,-6.817 2.65,-8.05C2.65,-8.817 2.9,-9.417 3.4,-9.85M9.45,-9.35L8.3,-9.2C8.233,-9.567 8.217,-9.967 8.25,-10.4C8.283,-11.333 8.55,-12.033 9.05,-12.5C9.85,-13.3 10.933,-13.6 12.3,-13.4C12.433,-12 12.15,-10.95 11.45,-10.25C10.983,-9.817 10.317,-9.517 9.45,-9.35M6.85,-6.45L6.95,-7.2C7.15,-7.733 7.567,-8.133 8.2,-8.4L12.05,-8.5L11.9,-7.85C11.7,-7.35 11.317,-6.983 10.75,-6.75L8.3,-6.4L6.85,-6.45M0.85,-15.35C1.45,-14.65 1.5,-13.767 1,-12.7C0.5,-11.667 -0.467,-10.667 -1.9,-9.7L-2.25,-10.4C-2.417,-11.033 -2.333,-11.667 -2,-12.3C-1.7,-12.967 -1.133,-13.667 -0.3,-14.4L0.85,-15.35M6.35,-12.7L7.15,-13L7.4,-11.55C7.567,-10.45 7.6,-9.567 7.5,-8.9C7.333,-7.867 6.8,-7.267 5.9,-7.1C5.3,-8.633 5.133,-9.967 5.4,-11.1C5.533,-11.8 5.85,-12.333 6.35,-12.7" style="fill:rgb(188,190,192);"/>
    </g>
</svg>
