<?xml version="1.0" encoding="UTF-8" standalone="no"?>
<!DOCTYPE svg PUBLIC "-//W3C//DTD SVG 1.1//EN" "http://www.w3.org/Graphics/SVG/1.1/DTD/svg11.dtd">
<svg width="100%" height="100%" viewBox="0 0 400 400" version="1.1" xmlns="http://www.w3.org/2000/svg" xmlns:xlink="http://www.w3.org/1999/xlink" xml:space="preserve" xmlns:serif="http://www.serif.com/" style="fill-rule:evenodd;clip-rule:evenodd;stroke-linejoin:round;stroke-miterlimit:2;">
    <g transform="matrix(9.52381,0,0,9.52381,200,200.417)">
        <path d="M-1.15,-18.4L8.4,-4.2L18,10L14,11.35L6.1,-1.2L-1.75,-13.7L-1.9,-13.65L-16.5,-2.55L-16.65,-2.45L-16.75,-2.4L-18.8,-5.25L-1.35,-18.3L-1.25,-18.4L-1.15,-18.4" style="fill:rgb(188,190,192);"/>
    </g>
    <g transform="matrix(9.52381,0,0,9.52381,200,200.417)">
        <path d="M-7.55,-2.2L-5.8,3.45L-4.05,4.2L-2.35,4.9L-1.3,-2.5L-4.4,-2.35L-7.55,-2.2M-2.25,-10.8L11.6,12.5L11.65,12.6L11.7,12.75L4.7,15.9L-2.35,19L-11.25,14.65L-11.25,-3.7L-2.25,-10.8" style="fill:rgb(188,190,192);"/>
    </g>
    <g transform="matrix(9.52381,0,0,9.52381,200,200.417)">
        <path d="M-0.2,-20.8L21,10.35L21,10.4L-2.45,20.7C-2.483,20.8 -2.55,20.833 -2.65,20.8L-2.7,20.7L-12.9,15.7L-12.9,-3.6L-15.15,-1.9L-17.35,-0.25L-21,-5.35L-0.25,-20.9L-0.2,-20.8M-1.75,-13.7L6.1,-1.2L14,11.35L18,10L8.4,-4.2L-1.15,-18.4L-1.25,-18.4L-1.35,-18.3L-18.8,-5.25L-16.75,-2.4L-16.65,-2.45L-16.5,-2.55L-1.9,-13.65L-1.75,-13.7M-11.25,-3.7L-11.25,14.65L-2.35,19L4.7,15.9L11.7,12.75L11.65,12.6L11.6,12.5L-2.25,-10.8L-11.25,-3.7" style="fill:rgb(2,2,2);"/>
    </g>
    <g transform="matrix(9.52381,0,0,9.52381,200,200.417)">
        <path d="M-4.4,-2.35L-1.3,-2.5L-2.35,4.9L-4.05,4.2L-5.8,3.45L-7.55,-2.2L-4.4,-2.35" style="fill:rgb(2,2,2);"/>
    </g>
</svg>
