<?xml version="1.0" encoding="UTF-8" standalone="no"?>
<!DOCTYPE svg PUBLIC "-//W3C//DTD SVG 1.1//EN" "http://www.w3.org/Graphics/SVG/1.1/DTD/svg11.dtd">
<svg width="100%" height="100%" viewBox="0 0 400 400" version="1.1" xmlns="http://www.w3.org/2000/svg" xmlns:xlink="http://www.w3.org/1999/xlink" xml:space="preserve" xmlns:serif="http://www.serif.com/" style="fill-rule:evenodd;clip-rule:evenodd;stroke-linejoin:round;stroke-miterlimit:2;">
    <g transform="matrix(0.68627,0,0,0.778669,62.746,0)">
        <path d="M200,513.697L45.337,432.899L44.732,350.291C56.065,350.291 59.857,343.029 59.857,331.696C59.857,306.324 69.639,273.797 105.804,246.733L105.804,180.242C105.804,148.59 94.397,138.886 85.454,129.444L85.179,76.04L116.949,0L283.051,0L314.821,76.04L314.546,129.444C305.603,138.886 294.196,148.59 294.196,180.242L294.196,246.733C330.361,273.797 340.143,306.324 340.143,331.696C340.143,343.029 343.935,350.291 355.268,350.291L354.663,432.899L200,513.697ZM200,489.767L331.599,420.792L331.589,365.742C323.837,363.291 316.594,356.105 316.594,347.754C316.594,301.701 297.75,274.541 274.144,256.574L274.144,167.746C274.144,143.286 282.153,130.308 291.718,120.113L291.979,82.208L267.538,16.39L252.183,16.39L258.503,51.779L244.978,51.779L238.657,16.39L222.671,16.39L224.736,51.779L209.716,51.779L207.65,16.39L192.35,16.39L190.284,51.779L175.264,51.779L177.329,16.39L161.343,16.39L155.022,51.779L141.497,51.779L147.817,16.39L132.462,16.39L108.021,82.208L108.282,120.113C117.847,130.308 125.856,143.286 125.856,167.746L125.856,256.574C102.25,274.541 83.406,301.701 83.406,347.754C83.406,356.105 76.163,363.291 68.411,365.742L68.401,420.792L200,489.767ZM239.064,256.849L239.064,118.226C239.064,114.112 242.56,110.772 246.865,110.772C251.17,110.772 254.665,114.112 254.665,118.226L254.665,256.849L239.064,256.849ZM208.311,256.849L208.311,118.226C208.311,114.112 211.806,110.772 216.111,110.772C220.417,110.772 223.912,114.112 223.912,118.226L223.912,256.849L208.311,256.849ZM145.335,256.849L145.335,118.226C145.335,114.112 148.83,110.772 153.135,110.772C157.44,110.772 160.936,114.112 160.936,118.226L160.936,256.849L145.335,256.849ZM174.749,454.161L174.749,406.538C174.749,392.822 186.064,381.686 200,381.686C213.936,381.686 225.251,392.822 225.251,406.538L225.251,454.161L174.749,454.161ZM176.088,256.849L176.088,118.226C176.088,114.112 179.583,110.772 183.889,110.772C188.194,110.772 191.689,114.112 191.689,118.226L191.689,256.849L176.088,256.849Z"/>
    </g>
    <g transform="matrix(1.00674,0,0,0.761117,-1.34786,23.031)">
        <path d="M200,470.801L110.292,400.236L110.299,343.917C115.583,341.409 120.521,334.057 120.521,325.514C120.521,278.399 133.366,250.612 149.458,232.231L149.458,141.355C149.458,116.33 143.999,103.054 137.478,92.623L137.3,53.844L153.961,-13.492L164.428,-13.492L160.12,22.713L169.34,22.713L173.648,-13.492L184.546,-13.492L183.138,22.713L193.377,22.713L194.785,-13.492L205.215,-13.492L206.623,22.713L216.862,22.713L215.454,-13.492L226.352,-13.492L230.66,22.713L239.88,22.713L235.572,-13.492L246.039,-13.492L262.7,53.844L262.522,92.623C256.001,103.054 250.542,116.33 250.542,141.355L250.542,232.231C266.634,250.612 279.479,278.399 279.479,325.514C279.479,334.057 284.417,341.409 289.701,343.917L289.708,400.236L200,470.801ZM182.787,434.374L217.213,434.374L217.213,385.653C217.213,371.621 209.5,360.229 200,360.229C190.5,360.229 182.787,371.621 182.787,385.653L182.787,434.374ZM162.736,232.512L173.371,232.512L173.371,90.693C173.371,86.484 170.988,83.067 168.053,83.067C165.119,83.067 162.736,86.484 162.736,90.693L162.736,232.512ZM205.665,232.512L216.3,232.512L216.3,90.693C216.3,86.484 213.917,83.067 210.983,83.067C208.048,83.067 205.665,86.484 205.665,90.693L205.665,232.512ZM183.7,232.512L194.335,232.512L194.335,90.693C194.335,86.484 191.952,83.067 189.017,83.067C186.083,83.067 183.7,86.484 183.7,90.693L183.7,232.512ZM226.629,232.512L237.264,232.512L237.264,90.693C237.264,86.484 234.881,83.067 231.947,83.067C229.012,83.067 226.629,86.484 226.629,90.693L226.629,232.512Z" style="fill:rgb(188,190,192);"/>
    </g>
</svg>
