<?xml version="1.0" encoding="UTF-8" standalone="no"?>
<!DOCTYPE svg PUBLIC "-//W3C//DTD SVG 1.1//EN" "http://www.w3.org/Graphics/SVG/1.1/DTD/svg11.dtd">
<svg width="100%" height="100%" viewBox="0 0 400 400" version="1.1" xmlns="http://www.w3.org/2000/svg" xmlns:xlink="http://www.w3.org/1999/xlink" xml:space="preserve" xmlns:serif="http://www.serif.com/" style="fill-rule:evenodd;clip-rule:evenodd;stroke-linejoin:round;stroke-miterlimit:2;">
    <g transform="matrix(9.91326,0,0,9.91326,199.752,198.265)">
        <path d="M3.7,-6.3L3.7,-2.9L5.5,-2.9L5.5,-6.3L3.7,-6.3M1,-2.9L1,-6.3L-0.8,-6.3L-0.8,-2.9L1,-2.9M4.6,-14.65L7.5,-14.65L7.5,-18L10.55,-18L10.55,-11.55L8.1,-8.6L8.1,11.45L-0.05,17.8L-8.05,11.45L-8.05,-8.6L-10.5,-11.55L-10.5,-18L-7.4,-18L-7.4,-14.65L-4.5,-14.65L-4.5,-18L-1.4,-18L-1.4,-14.65L1.5,-14.65L1.5,-18L4.6,-18L4.6,-14.65M-5.4,-6.3L-5.4,-2.9L-3.65,-2.9L-3.65,-6.3L-5.4,-6.3" style="fill:rgb(188,190,192);"/>
    </g>
    <g transform="matrix(9.91326,0,0,9.91326,199.752,198.265)">
        <path d="M4.6,-14.65L4.6,-18L1.5,-18L1.5,-14.65L-1.4,-14.65L-1.4,-18L-4.5,-18L-4.5,-14.65L-7.4,-14.65L-7.4,-18L-10.5,-18L-10.5,-11.55L-8.05,-8.6L-8.05,11.45L-0.05,17.8L8.1,11.45L8.1,-8.6L10.55,-11.55L10.55,-18L7.5,-18L7.5,-14.65L4.6,-14.65M1,-2.9L-0.8,-2.9L-0.8,-6.3L1,-6.3L1,-2.9M3.7,-6.3L5.5,-6.3L5.5,-2.9L3.7,-2.9L3.7,-6.3M12.55,-10.8L10.1,-7.85L10.1,12.4L-0.05,20.35L-10.05,12.4L-10.05,-7.85L-12.5,-10.8L-12.5,-20L12.55,-20L12.55,-10.8M-5.4,-6.3L-3.65,-6.3L-3.65,-2.9L-5.4,-2.9L-5.4,-6.3"/>
    </g>
</svg>
