<?xml version="1.0" encoding="UTF-8"?> <svg xmlns="http://www.w3.org/2000/svg" viewBox="0 0 120 14.4"><path fill="#fff" d="M108.76 10.12c.42 0 .76-.34.76-.75a.75.75 0 00-.2-.5.37.37 0 00-.28-.19.87.87 0 00-.28-.05c-.42 0-.76.34-.76.75s.34.74.76.74zm.51-1.07c0 .15-.13.28-.28.28s-.28-.12-.28-.28c0-.15.13-.28.28-.28s.28.13.28.28zm-.51-.33h.04a.4.4 0 00-.19.32c0 .21.17.38.38.38.19 0 .34-.14.37-.31.04.08.06.17.06.26 0 .36-.3.65-.66.65a.66.66 0 01-.66-.65c0-.36.29-.65.66-.65zm6.98-1.85a.79.79 0 00-1.58 0c0 .43.35.78.79.78.44 0 .79-.35.79-.78zm-1.47 0c0-.37.31-.68.68-.68.38 0 .68.3.68.68 0 .37-.31.68-.68.68a.69.69 0 01-.68-.68zm-.85-3.2c-.34 0-.61.27-.61.6s.27.6.61.6.61-.27.61-.6-.27-.6-.61-.6zm0 1.1a.5.5 0 01-.51-.5c0-.28.23-.5.51-.5s.51.22.51.5a.5.5 0 01-.51.5zm1.62-2.42l-.16-.12a6.1 6.1 0 00-9.68 4.88c.02.48.1.98.1.98a10.2 10.2 0 00.28 1.04 6.08 6.08 0 009.22 2.86l.48-.37a5.96 5.96 0 002.1-4.53c0-3.12-2.34-4.74-2.34-4.74zm-3.75 9.72a5.04 5.04 0 01-4.96-6.03v.19a4.53 4.53 0 001.23 3.06v.08c0 .65.53 1.18 1.19 1.18.15 0 .29-.03.42-.07.3.14.61.25.95.32.72.16 1.45.1 2.13-.17a1.41 1.41 0 001.56.79c-.77.43-1.62.65-2.52.65zm-3.57-2.7c0-.57.47-1.03 1.04-1.03.57 0 1.04.46 1.04 1.03 0 .57-.47 1.03-1.04 1.03-.57 0-1.04-.46-1.04-1.03zm5.8 1.93c-.68 0-1.24-.55-1.24-1.23 0-.24.07-.46.19-.65a.47.47 0 00.69-.43l-.01-.09a1.24 1.24 0 011.6 1.17c.02.68-.54 1.23-1.23 1.23zM112.31 9a.38.38 0 11.38.38.4.4 0 01-.38-.38zm2.57 1.61l-.13.12c.11-.2.17-.42.17-.66 0-.51-.29-.96-.71-1.2.12-.22.22-.46.29-.71.14.05.3.08.46.08.74 0 1.34-.62 1.34-1.38 0-.76-.6-1.38-1.34-1.38-.27 0-.53.08-.74.23-.06-.09-.11-.19-.18-.28.43-.22.73-.67.73-1.18 0-.73-.6-1.33-1.34-1.33-.71 0-1.29.54-1.34 1.23a2.54 2.54 0 00-2.25.66.71.71 0 00-.21-.03c-.38 0-.68.3-.68.68 0 .19.08.36.21.49l-.03.13a2.01 2.01 0 001.51 2.39c.41.09.83.01 1.18-.21.37-.24.62-.61.72-1.04.08-.37-.01-.74-.2-1.02a1.24 1.24 0 00-1.06-.58c-.68 0-1.24.55-1.24 1.23a1.24 1.24 0 001.99.98c-.09.11-.2.2-.32.28-.31.2-.67.26-1.03.18a1.82 1.82 0 01-1.36-2.15l.01-.05a.67.67 0 00.98-.61.7.7 0 00-.28-.55 2.34 2.34 0 012.04-.55h.02a1.33 1.33 0 001.76 1.15c.08.1.15.21.21.32a1.4 1.4 0 00.26 2.23c-.07.25-.17.49-.29.71a1.42 1.42 0 00-.92-.03.49.49 0 00-.42-.24.47.47 0 00-.48.48c0 .13.05.25.14.34a1.34 1.34 0 00-.17 1.1c-.64.25-1.33.31-2.01.16a4.8 4.8 0 01-.76-.24c.33-.21.54-.57.54-.98a1.2 1.2 0 00-2.27-.5 3.92 3.92 0 01-.73-2.12 4.28 4.28 0 014.35-4.68c1.35 0 2.63.52 3.58 1.46a4.95 4.95 0 010 7.07zm-1.12-3.74c0-.68.53-1.23 1.19-1.23.66 0 1.19.55 1.19 1.23s-.53 1.23-1.19 1.23c-.65 0-1.19-.55-1.19-1.23zm-.34-1.42c-.66 0-1.19-.53-1.19-1.18s.53-1.18 1.19-1.18 1.19.53 1.19 1.18-.53 1.18-1.19 1.18zm-3.27.02c0 .29-.24.53-.53.53s-.53-.24-.53-.53c0-.29.24-.53.53-.53s.53.24.53.53zm1.12 2.4c-.57 0-1.04-.46-1.04-1.03s.47-1.03 1.04-1.03c.57 0 1.04.46 1.04 1.03s-.47 1.03-1.04 1.03zm4.75-1a1.06 1.06 0 00-2.12 0 1.06 1.06 0 002.12 0zm-2.03 0a.96.96 0 011.92 0c0 .52-.43.95-.96.95s-.96-.42-.96-.95zm1.4 0c0-.23-.19-.43-.43-.43s-.43.19-.43.43c0 .23.19.43.43.43s.43-.19.43-.43zm-1.87 2.53c-.38 0-.68.3-.68.68 0 .37.31.68.68.68.38 0 .68-.3.68-.68a.67.67 0 00-.68-.68zm-4.28-3.93a.38.38 0 10.38-.38.39.39 0 00-.38.38zm.66 0c0 .15-.13.28-.28.28s-.28-.12-.28-.28c0-.15.13-.28.28-.28s.28.13.28.28z"></path><path fill="#fefefe" d="M7.8 6.67c.77-.1 1.5-.7 1.51-1.82 0-1.51-1.33-2.11-3.12-2.11H2.64v.12h.16a.8.8 0 01.79.76v6.84a.79.79 0 01-.79.77h-.16v.12h3.88c2.08 0 3.46-.82 3.45-2.4.01-1.31-.93-2.17-2.17-2.28zm-1.81 4.12h-.57V3.27h.35c.94 0 1.57.5 1.57 1.73 0 1.24-.73 1.69-1.51 1.69v.12c1.09 0 2.03.56 2.02 2 .02 1.39-.77 1.99-1.86 1.98zm8.83.07h-1.48V7.94h1.41c.57.02.92.43.92.97V9h.13V6.39h-.13v.08c0 .55-.36.96-.94.97h-1.4V4.46h1.77c.71.01 1.12.46 1.12 1.17v.11h.13V3.78c-.19.08-.81.19-1.27.19h-4.32v.12h.15c.36 0 .66.27.66.64v5.85a.65.65 0 01-.66.64h-.15v.12h5.77l.48-2.26h-.12c-.32 1.1-1.03 1.77-2.07 1.78zm10.64-6.77v-.12h-2.63v.12h.13c.31 0 .53.31.4.61L21.7 7.52 20.07 4.7a.43.43 0 01.4-.61h.13v-.12h-3.73v.12h.15c.45 0 .86.26 1.08.6l2.17 3.37v2.51c0 .37-.31.65-.68.65h-.14v.12h3.43v-.12h-.14a.67.67 0 01-.69-.65v-2.5l2.18-3.37a1.4 1.4 0 011.09-.61h.14zm3.94-.28c-2.6 0-4.34 1.47-4.34 3.85 0 2.37 1.74 3.85 4.34 3.85 2.6 0 4.35-1.48 4.35-3.85-.01-2.38-1.75-3.85-4.35-3.85zm0 7.22c-1.49 0-2.46-1.29-2.46-3.36 0-2.08.97-3.37 2.46-3.37 1.5 0 2.46 1.29 2.46 3.37-.01 2.07-.97 3.36-2.46 3.36zm10.51-6.94h.21c.37 0 .67.27.67.63v4.05L35.16 3.8h-.12s.13.56.13 1.39v5.41c0 .36-.31.63-.68.63h-.2v.12h3.43v-.12h-.2a.66.66 0 01-.68-.63V6.53l5.64 4.98h.11s-.13-.57-.13-1.43V4.7c.02-.35.31-.61.68-.61h.21v-.12h-3.44v.12zm8.24-.12H44v.12h.15c.38 0 .68.27.7.64v5.83a.69.69 0 01-.69.67h-.15v.12h4.14c2.63 0 4.22-1.37 4.22-3.69 0-2.31-1.58-3.69-4.22-3.69zm-.14 6.89h-1.38V4.45h1.38c1.54 0 2.49 1.2 2.49 3.21s-.96 3.2-2.49 3.2zm13.26-3.92l-2.34-1.52c-.51-.34-.88-.66-.86-1.14.03-.66.64-1.18 1.61-1.18 1.04 0 1.73.56 1.73 1.42h.12l.16-1.81h-.77c-.56-.07-1.28-.13-1.67-.13-1.55 0-2.48.88-2.58 2.16-.09.9.33 1.65 1.17 2.21l2.14 1.42c.66.44.98.77.98 1.27 0 .77-.63 1.36-1.7 1.38-1.47.02-2.41-1.04-2.31-2.32h-.11c-.32.54-.49 1.58-.29 2.09.45.46 1.48.75 2.58.75 1.96 0 3.17-.95 3.24-2.55.06-.93-.37-1.58-1.1-2.05zm5.33 4.29a.67.67 0 01-.68-.65V4.73a.67.67 0 01.68-.64h.13v-.12h-3.4v.12h.13c.37 0 .67.29.68.65v5.84a.67.67 0 01-.68.65h-.13v.12h3.39v-.12h-.12zm10.15-7.14h.13c.31 0 .53.31.4.61l-1.66 2.82-1.63-2.82a.43.43 0 01.4-.61h.13v-.12H68.46v.11h.1c.29 0 .43.26.25.49l-2.52 3.34a233 233 0 001.78 2.5c.75.98 2.11.95 2.43.95h.94v-.11c-.45-.01-.78-.25-1.1-.71l-2.59-3.6 2.04-2.41c.25-.25.6-.4.99-.43h.15c.45 0 .86.26 1.08.6l2.17 3.37v2.51c0 .37-.31.65-.68.65h-.14v.12h3.43v-.12h-.14a.67.67 0 01-.69-.65V8.07l2.18-3.37a1.4 1.4 0 011.09-.61h.15v-.12h-2.63v.12zm13.43 6.49V4.74a.7.7 0 01.71-.65h.14v-.12h-3.48v.12h.15c.38 0 .7.28.71.65v5.83c0 .37-.32.65-.71.65h-.04c-.51 0-.78-.18-1.26-.84a14.3 14.3 0 01-.89-1.37c-.23-.38-.7-.9-1.18-1.05 1.21-.17 1.7-1.12 1.7-1.99 0-1.54-1.32-2.02-2.68-2.02h-3.77v.12h.15c.35 0 .64.27.65.64v5.86a.65.65 0 01-.65.64h-.15v.12h3.38v-.12h-.13c-.33 0-.67-.24-.67-.65v-6.1c.14.01.39-.01.7.01.43.02 1.25.2 1.3 1.41.01.24-.02.42-.04.52-.21 1.03-.77 1.22-1.27 1.23h-.31v.1c.23.02.53.24.73.75.11.41.55 1.24.82 1.68.58.92 1.21 1.18 2.54 1.18h4.41v-.12h-.15c-.39.01-.7-.27-.71-.64zm11.8.65c-.37 0-.7-.22-.78-.61l-.99-6.81h-.11l-3.25 5.2-3.47-5.2h-.1l-.95 6.76c-.06.43-.41.66-.81.66h-.17v.12h2.33v-.12h-.17c-.33 0-.44-.32-.42-.49l.42-3.47 2.83 4.31h.11c.01-.55.44-1.25.44-1.25l1.96-3.12.48 3.52c.02.18-.07.49-.42.49h-.17v.12h3.41v-.12h-.17z"></path></svg> 