<?xml version="1.0" encoding="UTF-8" standalone="no"?>
<!DOCTYPE svg PUBLIC "-//W3C//DTD SVG 1.1//EN" "http://www.w3.org/Graphics/SVG/1.1/DTD/svg11.dtd">
<svg width="100%" height="100%" viewBox="0 0 400 400" version="1.1" xmlns="http://www.w3.org/2000/svg" xmlns:xlink="http://www.w3.org/1999/xlink" xml:space="preserve" xmlns:serif="http://www.serif.com/" style="fill-rule:evenodd;clip-rule:evenodd;stroke-linejoin:round;stroke-miterlimit:2;">
    <g transform="matrix(1,0,0,1,200.2,200.1)">
        <g transform="matrix(10.8696,0,0,10.8696,2.00188,0.986957)">
            <path d="M12.05,-13.65C11.817,-13.95 11.567,-13.95 11.3,-13.65L10.65,-12.95L7.6,-16.45C7.367,-16.683 7.117,-16.683 6.85,-16.45L3.65,-12.7C3.417,-12.4 3.417,-12.117 3.65,-11.85L6.55,-8.5L0.1,-1.6L-7.7,-10.05L-1.2,-15.85C-0.933,-16.05 -0.95,-16.15 -1.25,-16.15L-6.6,-15.05C-8.267,-14.55 -9.617,-13.95 -10.65,-13.25L-11.05,-13.65L-11.7,-13.75L-11.8,-13.65L-12.85,-12.4C-13.083,-12.167 -13.1,-11.883 -12.9,-11.55L-12.6,-11.2C-13.667,-9.3 -14.683,-5.95 -15.65,-1.15L-16.8,5.45C-16.867,6.05 -16.817,6.067 -16.65,5.5L-9.65,-7.6L-2.45,1.2L-12.85,12.4C-13.083,12.7 -13.083,12.983 -12.85,13.25L-10.3,16.2C-10.1,16.467 -9.867,16.467 -9.6,16.2L0.1,4.3L9.85,16.2C10.117,16.467 10.35,16.467 10.55,16.2L13.1,13.25C13.333,12.983 13.333,12.7 13.1,12.4L2.7,1.2L8.65,-6.1L10,-4.55L10.85,-3.95L16,-1.8C16.367,-1.667 16.483,-1.783 16.35,-2.15L14.5,-8.15L13.95,-9.15L12.5,-10.8L13.15,-11.55C13.35,-11.883 13.333,-12.167 13.1,-12.4L12.05,-13.65M12.05,-15.75L13.25,-15.05L14.3,-13.8C15.033,-13 15.2,-12.05 14.8,-10.95L15.15,-10.5L16.1,-8.8L17.95,-2.8C18.183,-2.033 18.1,-1.35 17.7,-0.75L16.75,0.05L15.45,0L10.25,-2.1C9.683,-2.333 9.2,-2.7 8.8,-3.2L8.7,-3.3L5.1,1.1L14.25,11C14.717,11.467 14.95,12.067 14.95,12.8C14.95,13.567 14.733,14.167 14.3,14.6L11.75,17.55C11.35,18.05 10.833,18.3 10.2,18.3C9.567,18.3 9.033,18.033 8.6,17.5L0.1,7.15L-8.35,17.5C-8.75,18 -9.267,18.267 -9.9,18.3C-10.533,18.3 -11.067,18.05 -11.5,17.55L-14.05,14.65C-14.483,14.183 -14.7,13.567 -14.7,12.8C-14.7,12.067 -14.467,11.467 -14,11L-4.85,1.1L-9.45,-4.55L-15.15,6.45C-15.517,7.25 -16.05,7.65 -16.75,7.65L-17.55,7.65L-18.1,7C-18.433,6.533 -18.55,5.917 -18.45,5.15C-17.483,-2.117 -16.2,-7.533 -14.6,-11.1C-14.9,-12.167 -14.717,-13.067 -14.05,-13.8L-13,-15.05C-12.667,-15.417 -12.267,-15.65 -11.8,-15.75L-11.7,-15.75L-10.5,-15.55L-8.7,-16.4C-6.6,-17.267 -4.167,-17.833 -1.4,-18.1L-1.2,-18.1C-0.267,-18.1 0.333,-17.617 0.6,-16.65C0.767,-16.05 0.733,-15.517 0.5,-15.05L-0.2,-14.25L-5.15,-9.95L0.1,-4.25L4.1,-8.55L2.45,-10.5C2.017,-10.933 1.8,-11.533 1.8,-12.3C1.8,-13.033 2.017,-13.633 2.45,-14.1L5.7,-17.8L6.3,-18.25L7.25,-18.5C7.85,-18.5 8.367,-18.267 8.8,-17.8L10.75,-15.55L12.05,-15.75"/>
        </g>
        <g transform="matrix(10.8696,0,0,10.8696,2.00188,0.986957)">
            <path d="M12.05,-13.65L13.1,-12.4C13.333,-12.167 13.35,-11.883 13.15,-11.55L12.5,-10.8L13.95,-9.15L14.5,-8.15L16.35,-2.15C16.483,-1.783 16.367,-1.667 16,-1.8L10.85,-3.95L10,-4.55L8.65,-6.1L2.7,1.2L13.1,12.4C13.333,12.7 13.333,12.983 13.1,13.25L10.55,16.2C10.35,16.467 10.117,16.467 9.85,16.2L0.1,4.3L-9.6,16.2C-9.867,16.467 -10.1,16.467 -10.3,16.2L-12.85,13.25C-13.083,12.983 -13.083,12.7 -12.85,12.4L-2.45,1.2L-9.65,-7.6L-16.65,5.5C-16.817,6.067 -16.867,6.05 -16.8,5.45L-15.65,-1.15C-14.683,-5.95 -13.667,-9.3 -12.6,-11.2L-12.9,-11.55C-13.1,-11.883 -13.083,-12.167 -12.85,-12.4L-11.8,-13.65L-11.7,-13.75L-11.05,-13.65L-10.65,-13.25C-9.617,-13.95 -8.267,-14.55 -6.6,-15.05L-1.25,-16.15C-0.95,-16.15 -0.933,-16.05 -1.2,-15.85L-7.7,-10.05L0.1,-1.6L6.55,-8.5L3.65,-11.85C3.417,-12.117 3.417,-12.4 3.65,-12.7L6.85,-16.45C7.117,-16.683 7.367,-16.683 7.6,-16.45L10.65,-12.95L11.3,-13.65C11.567,-13.95 11.817,-13.95 12.05,-13.65" style="fill:rgb(188,190,192);"/>
        </g>
    </g>
</svg>
