<?xml version="1.0" encoding="UTF-8" standalone="no"?>
<!DOCTYPE svg PUBLIC "-//W3C//DTD SVG 1.1//EN" "http://www.w3.org/Graphics/SVG/1.1/DTD/svg11.dtd">
<svg width="100%" height="100%" viewBox="0 0 40 40" version="1.1" xmlns="http://www.w3.org/2000/svg" xmlns:xlink="http://www.w3.org/1999/xlink" xml:space="preserve" xmlns:serif="http://www.serif.com/" style="fill-rule:evenodd;clip-rule:evenodd;stroke-linejoin:round;stroke-miterlimit:2;">
    <g transform="matrix(1,0,0,1,20,20)">
        <path d="M0.05,15.75C0.017,15.817 0,15.883 0,15.95C0,16.05 -0.017,16.133 -0.05,16.2C-0.05,16.267 -0.067,16.333 -0.1,16.4C-0.1,16.5 -0.117,16.583 -0.15,16.65C-0.183,16.717 -0.2,16.783 -0.2,16.85C-0.233,16.95 -0.267,17.033 -0.3,17.1L-0.4,17.3C-0.433,17.333 -0.45,17.367 -0.45,17.4L-0.55,17.5C-0.583,17.533 -0.6,17.567 -0.6,17.6L-0.7,17.7C-0.733,17.733 -0.767,17.75 -0.8,17.75L-0.9,17.85C-0.933,17.85 -0.967,17.867 -1,17.9C-1.033,17.933 -1.067,17.95 -1.1,17.95L-1.2,17.95C-1.2,17.983 -1.217,18 -1.25,18L-2.5,18C-2.567,17.967 -2.617,17.95 -2.65,17.95C-2.683,17.95 -2.717,17.933 -2.75,17.9C-2.783,17.9 -2.817,17.883 -2.85,17.85C-2.883,17.85 -2.917,17.833 -2.95,17.8C-2.983,17.767 -3.017,17.75 -3.05,17.75L-3.2,17.6C-3.233,17.567 -3.25,17.533 -3.25,17.5C-3.283,17.5 -3.3,17.483 -3.3,17.45L-3.35,17.4C-3.383,17.367 -3.4,17.333 -3.4,17.3C-3.467,17.1 -3.533,16.917 -3.6,16.75C-3.633,16.55 -3.683,16.367 -3.75,16.2C-3.783,16 -3.817,15.817 -3.85,15.65C-3.917,15.45 -3.967,15.25 -4,15.05C-4.033,14.883 -4.05,14.7 -4.05,14.5C-4.083,14.333 -4.117,14.15 -4.15,13.95C-4.15,13.75 -4.167,13.55 -4.2,13.35L-4.2,12.7L-4.3,12.6L-4.45,12.6C-4.483,12.633 -4.5,12.667 -4.5,12.7C-4.533,12.7 -4.55,12.717 -4.55,12.75L-4.8,13.45L-4.85,13.5C-4.883,13.533 -4.917,13.55 -4.95,13.55C-4.95,13.583 -4.967,13.6 -5,13.6L-5.1,13.6C-5.133,13.6 -5.167,13.583 -5.2,13.55L-5.3,13.45L-5.3,13.4C-5.367,13.167 -5.433,12.95 -5.5,12.75C-5.567,12.517 -5.65,12.3 -5.75,12.1L-6.05,11.5L-6.45,11C-6.55,10.8 -6.683,10.617 -6.85,10.45L-7.3,10C-7.467,9.867 -7.65,9.733 -7.85,9.6C-8.017,9.467 -8.2,9.333 -8.4,9.2C-8.467,9.167 -8.517,9.133 -8.55,9.1C-8.617,9.067 -8.667,9.033 -8.7,9C-8.767,8.967 -8.817,8.95 -8.85,8.95C-8.917,8.917 -8.967,8.883 -9,8.85C-9.067,8.817 -9.133,8.8 -9.2,8.8C-9.233,8.767 -9.283,8.733 -9.35,8.7C-9.417,8.7 -9.483,8.683 -9.55,8.65C-9.583,8.617 -9.633,8.6 -9.7,8.6C-9.733,8.6 -9.767,8.583 -9.8,8.55L-9.85,8.5C-9.85,8.467 -9.867,8.45 -9.9,8.45L-9.9,8.3C-9.9,8.267 -9.883,8.25 -9.85,8.25L-9.75,8.05C-9.717,7.983 -9.683,7.933 -9.65,7.9L-9.55,7.7C-9.483,7.633 -9.433,7.567 -9.4,7.5C-9.367,7.433 -9.35,7.367 -9.35,7.3C-9.317,7.233 -9.283,7.183 -9.25,7.15L-9.05,6.75L-9.1,6.7C-9.1,6.667 -9.117,6.65 -9.15,6.65C-9.15,6.617 -9.167,6.583 -9.2,6.55L-9.25,6.5C-9.283,6.467 -9.3,6.433 -9.3,6.4C-9.333,6.4 -9.35,6.383 -9.35,6.35C-9.383,6.317 -9.4,6.283 -9.4,6.25L-9.45,6.2C-9.483,6.167 -9.5,6.133 -9.5,6.1C-9.5,6.067 -9.517,6.05 -9.55,6.05L-9.55,5.95L-9.6,5.9C-9.6,5.867 -9.617,5.833 -9.65,5.8L-9.65,5.75L-9.7,5.7L-9.7,5.6C-9.733,5.6 -9.75,5.583 -9.75,5.55C-9.75,5.517 -9.767,5.483 -9.8,5.45L-9.8,5.4C-9.833,5.367 -9.85,5.333 -9.85,5.3L-9.85,5.2C-9.85,5.167 -9.867,5.133 -9.9,5.1L-9.9,4.1C-9.9,4.067 -9.883,4.033 -9.85,4L-9.85,3.9C-9.85,3.867 -9.833,3.833 -9.8,3.8C-9.8,3.767 -9.783,3.733 -9.75,3.7L-9.75,3.6C-9.717,3.567 -9.7,3.533 -9.7,3.5C-9.667,3.467 -9.65,3.433 -9.65,3.4C-9.617,3.367 -9.6,3.333 -9.6,3.3C-9.567,3.267 -9.55,3.233 -9.55,3.2L-9.45,3.1C-9.417,3.067 -9.4,3.033 -9.4,3L-8.8,2.4C-8.733,2.367 -8.683,2.333 -8.65,2.3L-8.55,2.2C-8.483,2.167 -8.433,2.133 -8.4,2.1C-8.367,2.067 -8.317,2.033 -8.25,2C-8.217,1.967 -8.167,1.95 -8.1,1.95C-8.067,1.917 -8.017,1.883 -7.95,1.85C-7.917,1.817 -7.867,1.783 -7.8,1.75L-7.8,1.6C-7.967,1.6 -8.117,1.583 -8.25,1.55C-8.417,1.55 -8.583,1.533 -8.75,1.5C-8.883,1.5 -9.033,1.483 -9.2,1.45C-9.367,1.417 -9.517,1.383 -9.65,1.35C-9.817,1.317 -9.967,1.267 -10.1,1.2C-10.233,1.167 -10.383,1.133 -10.55,1.1C-10.683,1.033 -10.817,0.983 -10.95,0.95C-11.117,0.883 -11.267,0.817 -11.4,0.75L-11.8,0.55C-11.9,0.483 -12.017,0.417 -12.15,0.35C-12.283,0.283 -12.417,0.2 -12.55,0.1C-12.65,0.033 -12.767,-0.05 -12.9,-0.15C-13,-0.217 -13.117,-0.3 -13.25,-0.4C-13.35,-0.467 -13.467,-0.55 -13.6,-0.65L-13.9,-0.95C-14.033,-1.05 -14.15,-1.15 -14.25,-1.25L-14.85,-1.85C-14.917,-1.983 -15,-2.1 -15.1,-2.2C-15.2,-2.3 -15.283,-2.417 -15.35,-2.55C-15.45,-2.65 -15.55,-2.767 -15.65,-2.9C-15.717,-3.033 -15.8,-3.15 -15.9,-3.25L-16.1,-3.65C-16.2,-3.783 -16.283,-3.917 -16.35,-4.05L-16.55,-4.45C-16.617,-4.55 -16.683,-4.667 -16.75,-4.8L-16.95,-5.2C-17.017,-5.333 -17.067,-5.467 -17.1,-5.6L-17.3,-6C-17.333,-6.167 -17.383,-6.317 -17.45,-6.45L-17.55,-6.85C-17.617,-7.017 -17.667,-7.167 -17.7,-7.3L-17.8,-7.7C-17.833,-7.867 -17.867,-8.017 -17.9,-8.15L-18,-8.55C-18.033,-8.717 -18.067,-8.867 -18.1,-9C-18.1,-9.133 -18.117,-9.267 -18.15,-9.4C-18.183,-9.533 -18.2,-9.667 -18.2,-9.8C-18.2,-9.967 -18.217,-10.117 -18.25,-10.25L-18.25,-12.3C-18.217,-12.433 -18.2,-12.567 -18.2,-12.7C-18.2,-12.8 -18.183,-12.917 -18.15,-13.05C-18.117,-13.183 -18.1,-13.317 -18.1,-13.45C-18.067,-13.55 -18.033,-13.667 -18,-13.8C-17.967,-13.933 -17.933,-14.05 -17.9,-14.15C-17.867,-14.283 -17.833,-14.4 -17.8,-14.5C-17.733,-14.633 -17.683,-14.75 -17.65,-14.85C-17.617,-14.983 -17.567,-15.1 -17.5,-15.2C-17.467,-15.3 -17.417,-15.4 -17.35,-15.5C-17.317,-15.6 -17.267,-15.7 -17.2,-15.8C-17.133,-15.9 -17.083,-16 -17.05,-16.1C-16.983,-16.167 -16.917,-16.25 -16.85,-16.35C-16.783,-16.45 -16.717,-16.533 -16.65,-16.6L-16.4,-16.85C-16.333,-16.95 -16.25,-17.033 -16.15,-17.1C-16.083,-17.167 -16,-17.233 -15.9,-17.3C-15.833,-17.367 -15.75,-17.433 -15.65,-17.5C-15.55,-17.567 -15.467,-17.633 -15.4,-17.7C-15.3,-17.767 -15.2,-17.817 -15.1,-17.85C-15,-17.917 -14.9,-17.967 -14.8,-18L-14.75,-18L-14.7,-17.95L-14.7,-17.9C-14.7,-17.867 -14.717,-17.817 -14.75,-17.75C-14.75,-17.717 -14.767,-17.667 -14.8,-17.6C-14.8,-17.567 -14.817,-17.533 -14.85,-17.5C-14.85,-17.433 -14.867,-17.383 -14.9,-17.35C-14.9,-17.317 -14.917,-17.267 -14.95,-17.2L-14.95,-17.1C-14.983,-17.033 -15,-16.983 -15,-16.95C-15.033,-16.883 -15.05,-16.833 -15.05,-16.8C-15.083,-16.733 -15.1,-16.65 -15.1,-16.55L-15.2,-16.35C-15.2,-16.25 -15.217,-16.167 -15.25,-16.1C-15.283,-16 -15.3,-15.917 -15.3,-15.85C-15.333,-15.783 -15.35,-15.7 -15.35,-15.6C-15.383,-15.533 -15.4,-15.45 -15.4,-15.35C-15.433,-15.283 -15.45,-15.217 -15.45,-15.15C-15.483,-15.05 -15.5,-14.967 -15.5,-14.9C-15.5,-14.8 -15.517,-14.7 -15.55,-14.6C-15.55,-14.5 -15.567,-14.4 -15.6,-14.3C-15.6,-14.2 -15.617,-14.1 -15.65,-14L-15.65,-13.7C-15.683,-13.6 -15.7,-13.5 -15.7,-13.4L-15.7,-13.1C-15.733,-13 -15.75,-12.9 -15.75,-12.8L-15.75,-11.8C-15.717,-11.667 -15.7,-11.55 -15.7,-11.45C-15.7,-11.35 -15.683,-11.233 -15.65,-11.1L-15.65,-10.8C-15.617,-10.667 -15.6,-10.55 -15.6,-10.45L-15.5,-10.15C-15.5,-10.05 -15.483,-9.95 -15.45,-9.85C-15.417,-9.717 -15.383,-9.6 -15.35,-9.5C-15.317,-9.367 -15.283,-9.25 -15.25,-9.15C-15.217,-9.017 -15.183,-8.9 -15.15,-8.8C-15.117,-8.7 -15.083,-8.583 -15.05,-8.45C-14.983,-8.35 -14.933,-8.25 -14.9,-8.15C-14.867,-8.017 -14.817,-7.9 -14.75,-7.8C-14.683,-7.7 -14.633,-7.6 -14.6,-7.5L-14.4,-7.2C-14.333,-7.1 -14.267,-6.983 -14.2,-6.85C-14.133,-6.75 -14.05,-6.65 -13.95,-6.55L-13.75,-6.25C-13.65,-6.15 -13.567,-6.05 -13.5,-5.95L-12.9,-5.35C-12.8,-5.283 -12.7,-5.2 -12.6,-5.1C-12.5,-5.033 -12.4,-4.95 -12.3,-4.85C-12.167,-4.75 -12.05,-4.667 -11.95,-4.6C-11.817,-4.5 -11.683,-4.417 -11.55,-4.35C-11.417,-4.25 -11.283,-4.167 -11.15,-4.1C-10.983,-4 -10.833,-3.917 -10.7,-3.85C-10.567,-3.783 -10.417,-3.717 -10.25,-3.65C-10.117,-3.583 -9.967,-3.517 -9.8,-3.45L-9.3,-3.25C-9.133,-3.217 -8.967,-3.167 -8.8,-3.1C-8.6,-3.033 -8.417,-2.983 -8.25,-2.95C-8.05,-2.883 -7.85,-2.833 -7.65,-2.8C-7.45,-2.733 -7.25,-2.683 -7.05,-2.65C-6.85,-2.617 -6.633,-2.567 -6.4,-2.5L-5.8,-2.4C-5.567,-2.367 -5.333,-2.35 -5.1,-2.35L-4.4,-2.25C-4.167,-2.217 -3.933,-2.2 -3.7,-2.2L-3.4,-2.2C-3.367,-2.2 -3.333,-2.217 -3.3,-2.25L-3.2,-2.25C-3.167,-2.25 -3.133,-2.267 -3.1,-2.3L-3.05,-2.3C-3.017,-2.333 -2.983,-2.35 -2.95,-2.35C-2.917,-2.383 -2.883,-2.4 -2.85,-2.4L-2.65,-2.5C-2.583,-2.533 -2.5,-2.567 -2.4,-2.6L-2.2,-2.7C-2.133,-2.733 -2.05,-2.767 -1.95,-2.8C-1.883,-2.8 -1.817,-2.817 -1.75,-2.85C-1.683,-2.883 -1.6,-2.9 -1.5,-2.9C-1.433,-2.9 -1.367,-2.917 -1.3,-2.95L-0.6,-2.95C-0.567,-2.95 -0.533,-2.933 -0.5,-2.9L-0.4,-2.8L-0.4,-2.75L-0.1,-2.45L-0.05,-2.45L0,-2.4C0.167,-2.533 0.317,-2.683 0.45,-2.85C0.45,-2.883 0.467,-2.917 0.5,-2.95L1.3,-2.95C1.367,-2.917 1.433,-2.9 1.5,-2.9C1.6,-2.9 1.683,-2.883 1.75,-2.85C1.817,-2.817 1.883,-2.8 1.95,-2.8C2.05,-2.767 2.133,-2.733 2.2,-2.7L2.4,-2.6C2.5,-2.567 2.583,-2.533 2.65,-2.5L2.85,-2.4C2.883,-2.4 2.917,-2.383 2.95,-2.35C2.983,-2.35 3.017,-2.333 3.05,-2.3L3.1,-2.3C3.133,-2.267 3.167,-2.25 3.2,-2.25L3.3,-2.25C3.333,-2.217 3.367,-2.2 3.4,-2.2L3.7,-2.2C3.933,-2.2 4.167,-2.217 4.4,-2.25L5.1,-2.35C5.333,-2.35 5.567,-2.367 5.8,-2.4L6.4,-2.5C6.633,-2.567 6.85,-2.617 7.05,-2.65C7.25,-2.683 7.45,-2.733 7.65,-2.8C7.85,-2.833 8.05,-2.883 8.25,-2.95C8.417,-2.983 8.6,-3.033 8.8,-3.1C8.967,-3.167 9.133,-3.217 9.3,-3.25L9.8,-3.45C9.967,-3.517 10.117,-3.583 10.25,-3.65C10.417,-3.717 10.567,-3.783 10.7,-3.85C10.833,-3.917 10.983,-4 11.15,-4.1C11.283,-4.167 11.417,-4.25 11.55,-4.35C11.683,-4.417 11.817,-4.5 11.95,-4.6C12.05,-4.667 12.167,-4.75 12.3,-4.85C12.4,-4.95 12.5,-5.033 12.6,-5.1C12.7,-5.2 12.8,-5.283 12.9,-5.35L13.5,-5.95C13.567,-6.05 13.65,-6.15 13.75,-6.25L13.95,-6.55C14.05,-6.65 14.133,-6.75 14.2,-6.85C14.267,-6.983 14.333,-7.1 14.4,-7.2L14.6,-7.5C14.633,-7.6 14.683,-7.7 14.75,-7.8C14.817,-7.9 14.867,-8.017 14.9,-8.15C14.933,-8.25 14.983,-8.35 15.05,-8.45C15.083,-8.583 15.117,-8.7 15.15,-8.8C15.183,-8.9 15.217,-9.017 15.25,-9.15C15.283,-9.25 15.317,-9.367 15.35,-9.5C15.383,-9.6 15.417,-9.717 15.45,-9.85C15.483,-9.95 15.5,-10.05 15.5,-10.15C15.533,-10.25 15.567,-10.367 15.6,-10.5C15.6,-10.6 15.617,-10.7 15.65,-10.8C15.65,-10.9 15.667,-11.017 15.7,-11.15L15.7,-11.45C15.7,-11.583 15.717,-11.7 15.75,-11.8L15.75,-13.1C15.75,-13.2 15.733,-13.3 15.7,-13.4L15.7,-13.7C15.667,-13.8 15.65,-13.9 15.65,-14C15.65,-14.1 15.633,-14.2 15.6,-14.3C15.6,-14.4 15.583,-14.5 15.55,-14.6C15.55,-14.7 15.533,-14.8 15.5,-14.9C15.5,-14.967 15.483,-15.05 15.45,-15.15C15.45,-15.217 15.433,-15.283 15.4,-15.35C15.4,-15.45 15.383,-15.533 15.35,-15.6C15.35,-15.7 15.333,-15.783 15.3,-15.85C15.3,-15.917 15.283,-16 15.25,-16.1C15.217,-16.167 15.2,-16.25 15.2,-16.35L15.1,-16.55C15.1,-16.65 15.083,-16.733 15.05,-16.8C15.05,-16.833 15.033,-16.883 15,-16.95C15,-16.983 14.983,-17.033 14.95,-17.1L14.95,-17.25C14.917,-17.283 14.9,-17.333 14.9,-17.4C14.867,-17.433 14.85,-17.467 14.85,-17.5C14.817,-17.567 14.8,-17.617 14.8,-17.65C14.767,-17.683 14.75,-17.717 14.75,-17.75C14.717,-17.817 14.7,-17.867 14.7,-17.9L14.7,-18L14.75,-18C14.85,-17.967 14.95,-17.917 15.05,-17.85C15.15,-17.817 15.25,-17.767 15.35,-17.7C15.417,-17.633 15.5,-17.567 15.6,-17.5C15.7,-17.433 15.783,-17.367 15.85,-17.3C15.95,-17.233 16.033,-17.167 16.1,-17.1C16.2,-17.033 16.283,-16.95 16.35,-16.85L16.6,-16.6C16.667,-16.533 16.733,-16.45 16.8,-16.35C16.867,-16.25 16.933,-16.167 17,-16.1C17.033,-16 17.083,-15.9 17.15,-15.8C17.217,-15.7 17.267,-15.6 17.3,-15.5C17.367,-15.4 17.417,-15.3 17.45,-15.2C17.517,-15.1 17.567,-14.983 17.6,-14.85C17.633,-14.75 17.683,-14.633 17.75,-14.5C17.783,-14.4 17.817,-14.283 17.85,-14.15C17.883,-14.05 17.917,-13.933 17.95,-13.8C17.983,-13.667 18.017,-13.55 18.05,-13.45C18.05,-13.317 18.067,-13.183 18.1,-13.05C18.133,-12.917 18.15,-12.8 18.15,-12.7C18.15,-12.567 18.167,-12.433 18.2,-12.3L18.2,-10.25C18.167,-10.117 18.15,-9.967 18.15,-9.8C18.15,-9.667 18.133,-9.533 18.1,-9.4C18.1,-9.267 18.083,-9.133 18.05,-9C18.017,-8.867 18,-8.717 18,-8.55L17.9,-8.15C17.867,-8.017 17.833,-7.867 17.8,-7.7L17.7,-7.3C17.667,-7.167 17.617,-7.017 17.55,-6.85L17.45,-6.45C17.383,-6.317 17.333,-6.167 17.3,-6L17.1,-5.6C17.067,-5.467 17.017,-5.333 16.95,-5.2L16.75,-4.8C16.683,-4.667 16.617,-4.55 16.55,-4.45L16.35,-4.05C16.283,-3.917 16.2,-3.783 16.1,-3.65L15.9,-3.25C15.8,-3.15 15.717,-3.033 15.65,-2.9C15.55,-2.767 15.45,-2.65 15.35,-2.55C15.283,-2.417 15.2,-2.3 15.1,-2.2C15,-2.1 14.9,-1.983 14.8,-1.85L14.2,-1.25C14.1,-1.15 13.983,-1.05 13.85,-0.95L13.55,-0.65C13.417,-0.55 13.3,-0.467 13.2,-0.4C13.067,-0.3 12.95,-0.217 12.85,-0.15C12.717,-0.05 12.6,0.033 12.5,0.1L12.1,0.3C11.967,0.367 11.85,0.433 11.75,0.5L11.35,0.7C11.217,0.767 11.067,0.833 10.9,0.9C10.767,0.967 10.633,1.017 10.5,1.05C10.333,1.117 10.183,1.167 10.05,1.2C9.917,1.233 9.767,1.267 9.6,1.3C9.467,1.367 9.317,1.417 9.15,1.45C9.017,1.45 8.867,1.467 8.7,1.5C8.567,1.533 8.417,1.55 8.25,1.55C8.117,1.583 7.967,1.6 7.8,1.6L7.75,1.6L7.7,1.65L7.7,1.7C7.733,1.733 7.767,1.75 7.8,1.75C7.833,1.783 7.883,1.817 7.95,1.85C7.983,1.883 8.033,1.9 8.1,1.9L8.2,2C8.267,2.033 8.317,2.067 8.35,2.1L8.45,2.2C8.517,2.233 8.567,2.267 8.6,2.3C8.633,2.3 8.667,2.317 8.7,2.35L8.9,2.55C8.933,2.583 8.967,2.6 9,2.6L9.1,2.7C9.1,2.733 9.117,2.767 9.15,2.8L9.25,2.9C9.283,2.933 9.3,2.967 9.3,3C9.333,3 9.367,3.017 9.4,3.05C9.4,3.083 9.417,3.117 9.45,3.15C9.483,3.183 9.5,3.217 9.5,3.25C9.533,3.283 9.55,3.317 9.55,3.35C9.583,3.35 9.6,3.367 9.6,3.4C9.633,3.433 9.65,3.467 9.65,3.5C9.683,3.533 9.7,3.567 9.7,3.6C9.7,3.633 9.717,3.667 9.75,3.7L9.75,3.8C9.783,3.833 9.8,3.867 9.8,3.9C9.8,3.933 9.817,3.967 9.85,4L9.85,4.05C9.883,4.083 9.9,4.117 9.9,4.15L9.9,4.2C9.9,4.233 9.917,4.267 9.95,4.3L9.95,4.85C9.917,4.883 9.9,4.917 9.9,4.95L9.9,5.05L9.85,5.1L9.85,5.25C9.85,5.283 9.833,5.317 9.8,5.35L9.8,5.45C9.8,5.483 9.783,5.517 9.75,5.55L9.75,5.6C9.75,5.633 9.733,5.667 9.7,5.7L9.7,5.75C9.7,5.783 9.683,5.8 9.65,5.8L9.65,5.85C9.65,5.883 9.633,5.917 9.6,5.95L9.6,6C9.567,6 9.55,6.017 9.55,6.05L9.5,6.1L9.5,6.15L9.45,6.2C9.45,6.233 9.433,6.267 9.4,6.3L9.35,6.35L9.35,6.4C9.317,6.433 9.3,6.467 9.3,6.5C9.267,6.5 9.25,6.517 9.25,6.55L9.2,6.6C9.167,6.633 9.15,6.667 9.15,6.7L9.15,6.9L9.2,6.95C9.233,7.017 9.267,7.067 9.3,7.1C9.3,7.167 9.317,7.217 9.35,7.25L9.45,7.45C9.483,7.483 9.5,7.533 9.5,7.6C9.533,7.667 9.567,7.717 9.6,7.75L9.7,7.95C9.733,7.983 9.767,8.033 9.8,8.1C9.833,8.133 9.867,8.183 9.9,8.25L9.95,8.3L9.95,8.4C9.917,8.467 9.867,8.517 9.8,8.55C9.8,8.583 9.783,8.6 9.75,8.6C9.517,8.667 9.3,8.75 9.1,8.85L8.5,9.15C8.3,9.25 8.117,9.367 7.95,9.5L7.45,9.9C7.283,10.033 7.133,10.183 7,10.35C6.833,10.517 6.683,10.683 6.55,10.85C6.417,11.017 6.3,11.2 6.2,11.4C6.067,11.6 5.95,11.8 5.85,12C5.817,12.067 5.8,12.133 5.8,12.2C5.767,12.233 5.733,12.283 5.7,12.35C5.667,12.417 5.65,12.483 5.65,12.55C5.617,12.583 5.583,12.633 5.55,12.7C5.55,12.767 5.533,12.817 5.5,12.85C5.5,12.917 5.483,12.983 5.45,13.05C5.45,13.117 5.433,13.167 5.4,13.2C5.367,13.267 5.35,13.333 5.35,13.4L5.35,13.5C5.317,13.533 5.283,13.55 5.25,13.55L5.2,13.6L5.05,13.6C5.017,13.6 4.983,13.583 4.95,13.55L4.85,13.45L4.6,12.75C4.6,12.717 4.583,12.683 4.55,12.65L4.45,12.65C4.45,12.617 4.433,12.6 4.4,12.6L4.35,12.6C4.317,12.633 4.3,12.667 4.3,12.7L4.2,12.8L4.2,13.35C4.167,13.55 4.15,13.75 4.15,13.95C4.117,14.15 4.1,14.333 4.1,14.5C4.067,14.7 4.033,14.883 4,15.05L3.9,15.65C3.833,15.817 3.783,16 3.75,16.2C3.683,16.367 3.633,16.55 3.6,16.75C3.533,16.917 3.467,17.1 3.4,17.3C3.4,17.333 3.383,17.367 3.35,17.4C3.317,17.433 3.3,17.467 3.3,17.5L3.2,17.6C3.2,17.633 3.183,17.667 3.15,17.7C3.117,17.733 3.083,17.75 3.05,17.75L2.95,17.85C2.917,17.85 2.883,17.867 2.85,17.9C2.817,17.933 2.783,17.95 2.75,17.95L2.65,17.95C2.65,17.983 2.633,18 2.6,18L1.35,18C1.317,17.967 1.283,17.95 1.25,17.95C1.217,17.95 1.183,17.933 1.15,17.9C1.117,17.9 1.083,17.883 1.05,17.85C1.017,17.85 0.983,17.833 0.95,17.8C0.917,17.767 0.883,17.75 0.85,17.75L0.7,17.6C0.667,17.567 0.65,17.533 0.65,17.5C0.617,17.5 0.6,17.483 0.6,17.45L0.55,17.4C0.517,17.367 0.5,17.333 0.5,17.3L0.4,17.1C0.367,17.033 0.333,16.95 0.3,16.85C0.3,16.783 0.283,16.717 0.25,16.65C0.217,16.583 0.2,16.5 0.2,16.4C0.167,16.333 0.15,16.267 0.15,16.2C0.117,16.133 0.1,16.05 0.1,15.95C0.1,15.883 0.083,15.817 0.05,15.75ZM-3.8,6.8L-3.8,6.2C-3.8,6.167 -3.817,6.133 -3.85,6.1L-3.85,5.95L-3.9,5.9C-3.9,5.867 -3.917,5.833 -3.95,5.8L-3.95,5.75C-3.983,5.717 -4,5.683 -4,5.65C-4,5.617 -4.017,5.583 -4.05,5.55C-4.05,5.517 -4.067,5.5 -4.1,5.5C-4.1,5.467 -4.117,5.433 -4.15,5.4L-4.15,5.3C-4.183,5.267 -4.217,5.25 -4.25,5.25C-4.25,5.217 -4.267,5.183 -4.3,5.15C-4.3,5.117 -4.317,5.1 -4.35,5.1C-4.35,5.067 -4.367,5.033 -4.4,5C-4.4,4.967 -4.417,4.933 -4.45,4.9L-4.5,4.85C-4.533,4.817 -4.55,4.783 -4.55,4.75C-4.583,4.717 -4.6,4.683 -4.6,4.65C-4.633,4.617 -4.667,4.6 -4.7,4.6C-4.7,4.567 -4.717,4.533 -4.75,4.5C-4.783,4.467 -4.817,4.45 -4.85,4.45C-4.85,4.417 -4.867,4.383 -4.9,4.35L-5.05,4.2C-5.05,4.167 -5.067,4.15 -5.1,4.15C-5.133,4.117 -5.15,4.083 -5.15,4.05C-5.183,4.05 -5.217,4.033 -5.25,4C-5.25,3.967 -5.267,3.95 -5.3,3.95L-5.45,3.8C-5.483,3.767 -5.517,3.75 -5.55,3.75L-5.6,3.7C-5.633,3.667 -5.667,3.65 -5.7,3.65L-5.8,3.55L-5.85,3.55C-5.883,3.517 -5.917,3.5 -5.95,3.5L-6,3.45C-6.033,3.417 -6.067,3.4 -6.1,3.4C-6.133,3.4 -6.167,3.383 -6.2,3.35L-6.25,3.35C-6.283,3.317 -6.317,3.3 -6.35,3.3C-6.383,3.3 -6.417,3.283 -6.45,3.25L-6.6,3.25L-6.65,3.2L-7.2,3.2C-7.233,3.2 -7.25,3.217 -7.25,3.25L-7.35,3.25C-7.383,3.25 -7.4,3.267 -7.4,3.3C-7.433,3.3 -7.467,3.317 -7.5,3.35L-7.55,3.4C-7.583,3.433 -7.633,3.467 -7.7,3.5C-7.733,3.567 -7.767,3.617 -7.8,3.65L-7.9,3.75C-7.933,3.817 -7.967,3.867 -8,3.9C-8.033,3.967 -8.05,4.017 -8.05,4.05C-8.083,4.117 -8.1,4.167 -8.1,4.2C-8.133,4.267 -8.15,4.333 -8.15,4.4C-8.183,4.433 -8.2,4.483 -8.2,4.55L-8.2,4.85C-8.2,4.883 -8.183,4.933 -8.15,5L-8.15,5.15C-8.15,5.183 -8.133,5.217 -8.1,5.25L-8.1,5.4C-8.067,5.433 -8.05,5.467 -8.05,5.5C-8.017,5.567 -8,5.617 -8,5.65C-7.967,5.75 -7.917,5.85 -7.85,5.95C-7.817,6.05 -7.767,6.15 -7.7,6.25C-7.633,6.317 -7.583,6.4 -7.55,6.5L-7.1,6.95C-7.033,7.017 -6.95,7.083 -6.85,7.15C-6.783,7.183 -6.7,7.233 -6.6,7.3C-6.5,7.367 -6.4,7.417 -6.3,7.45C-6.267,7.45 -6.25,7.467 -6.25,7.5L-5.95,7.5C-5.95,7.533 -5.933,7.55 -5.9,7.55L-5.45,7.55C-5.417,7.55 -5.4,7.533 -5.4,7.5L-5.05,7.5C-5.017,7.5 -5,7.483 -5,7.45L-4.9,7.45L-4.5,7.35C-4.467,7.35 -4.433,7.333 -4.4,7.3L-4.35,7.3C-4.317,7.267 -4.283,7.25 -4.25,7.25L-4.15,7.15C-4.117,7.117 -4.083,7.1 -4.05,7.1C-4.05,7.067 -4.033,7.05 -4,7.05L-3.9,6.95C-3.867,6.917 -3.85,6.883 -3.85,6.85C-3.817,6.85 -3.8,6.833 -3.8,6.8ZM3.8,6.8C3.8,6.833 3.817,6.85 3.85,6.85C3.85,6.883 3.867,6.917 3.9,6.95L4,7.05C4.033,7.05 4.05,7.067 4.05,7.1C4.083,7.1 4.117,7.117 4.15,7.15L4.25,7.25C4.283,7.25 4.317,7.267 4.35,7.3L4.4,7.3C4.433,7.333 4.467,7.35 4.5,7.35L4.9,7.45L5,7.45C5,7.483 5.017,7.5 5.05,7.5L5.4,7.5C5.4,7.533 5.417,7.55 5.45,7.55L5.9,7.55C5.933,7.55 5.95,7.533 5.95,7.5L6.2,7.5C6.233,7.5 6.267,7.483 6.3,7.45L6.35,7.45C6.45,7.417 6.55,7.367 6.65,7.3C6.75,7.233 6.833,7.183 6.9,7.15C7,7.083 7.083,7.017 7.15,6.95C7.217,6.883 7.283,6.8 7.35,6.7L7.55,6.5C7.617,6.4 7.683,6.317 7.75,6.25C7.783,6.15 7.833,6.05 7.9,5.95L8,5.65C8,5.617 8.017,5.567 8.05,5.5C8.05,5.467 8.067,5.433 8.1,5.4L8.1,5.25C8.133,5.217 8.15,5.183 8.15,5.15L8.15,5C8.183,4.933 8.2,4.883 8.2,4.85L8.2,4.55C8.2,4.483 8.183,4.433 8.15,4.4C8.15,4.333 8.133,4.267 8.1,4.2C8.1,4.167 8.083,4.117 8.05,4.05C8.017,4.017 7.983,3.967 7.95,3.9C7.95,3.867 7.933,3.817 7.9,3.75C7.867,3.717 7.817,3.683 7.75,3.65C7.717,3.617 7.683,3.567 7.65,3.5C7.617,3.467 7.567,3.433 7.5,3.4C7.467,3.333 7.417,3.283 7.35,3.25L7.3,3.25C7.267,3.217 7.233,3.2 7.2,3.2L6.65,3.2L6.6,3.25L6.45,3.25C6.417,3.283 6.383,3.3 6.35,3.3C6.317,3.3 6.283,3.317 6.25,3.35L6.2,3.35C6.167,3.383 6.133,3.4 6.1,3.4C6.067,3.4 6.033,3.417 6,3.45L5.95,3.5C5.917,3.5 5.883,3.517 5.85,3.55L5.8,3.55L5.7,3.65C5.667,3.65 5.633,3.667 5.6,3.7L5.55,3.75C5.517,3.75 5.483,3.767 5.45,3.8L5.3,3.95C5.267,3.95 5.25,3.967 5.25,4C5.217,4.033 5.183,4.05 5.15,4.05C5.15,4.083 5.133,4.117 5.1,4.15C5.067,4.15 5.05,4.167 5.05,4.2L4.9,4.35C4.867,4.383 4.85,4.417 4.85,4.45C4.817,4.45 4.783,4.467 4.75,4.5C4.717,4.533 4.7,4.567 4.7,4.6C4.667,4.6 4.633,4.617 4.6,4.65C4.6,4.683 4.583,4.717 4.55,4.75C4.55,4.783 4.533,4.817 4.5,4.85L4.45,4.9C4.417,4.933 4.4,4.967 4.4,5C4.367,5.033 4.35,5.067 4.35,5.1C4.317,5.1 4.3,5.117 4.3,5.15C4.267,5.183 4.25,5.217 4.25,5.25C4.217,5.25 4.183,5.267 4.15,5.3L4.15,5.4C4.117,5.433 4.1,5.467 4.1,5.5C4.067,5.5 4.05,5.517 4.05,5.55C4.017,5.583 4,5.617 4,5.65C4,5.683 3.983,5.717 3.95,5.75L3.95,5.8C3.917,5.833 3.9,5.867 3.9,5.9L3.85,5.95L3.85,6.1C3.817,6.133 3.8,6.167 3.8,6.2L3.8,6.8ZM2.25,16.9C2.283,16.9 2.317,16.883 2.35,16.85L2.45,16.75L2.45,16.7L2.5,16.65L2.5,16.6L2.55,16.55L2.55,16.4C2.583,16.367 2.6,16.333 2.6,16.3L2.6,16.25L2.7,15.55L2.7,15.35C2.733,15.317 2.75,15.283 2.75,15.25L2.75,14.15C2.75,14.117 2.733,14.083 2.7,14.05L2.7,13.25C2.7,13.217 2.683,13.183 2.65,13.15L2.65,12.8C2.65,12.767 2.633,12.733 2.6,12.7L2.6,12.45C2.6,12.417 2.583,12.4 2.55,12.4L2.55,12.3C2.55,12.267 2.533,12.233 2.5,12.2L2.5,12.1C2.5,12.067 2.483,12.033 2.45,12L2.45,11.9C2.45,11.867 2.433,11.833 2.4,11.8L2.4,11.65L2.35,11.6L2.35,11.5C2.317,11.5 2.3,11.483 2.3,11.45C2.3,11.417 2.283,11.4 2.25,11.4L2.25,11.35L2.05,11.35L2,11.4L2,11.55C1.967,11.583 1.95,11.617 1.95,11.65L1.95,11.75C1.95,11.783 1.933,11.8 1.9,11.8L1.9,12C1.867,12.033 1.85,12.067 1.85,12.1C1.85,12.133 1.833,12.15 1.8,12.15L1.8,12.25L1.7,12.55L1.6,12.75C1.567,12.817 1.517,12.867 1.45,12.9C1.45,12.933 1.433,12.967 1.4,13L1.3,13.1L1.2,13.1L1.15,13.15L1,13.15C0.967,13.15 0.933,13.133 0.9,13.1L0.9,13.05C0.9,13.017 0.883,13 0.85,13L0.85,12.9L0.8,12.85L0.8,12.7C0.767,12.667 0.75,12.633 0.75,12.6L0.75,12.5C0.717,12.467 0.7,12.433 0.7,12.4C0.667,12 0.617,10.9 0.55,9.1L0.55,7.95C0.517,7.583 0.483,7.25 0.45,6.95L0.45,6.85C0.45,6.817 0.433,6.783 0.4,6.75L0.4,6.55C0.4,6.517 0.383,6.5 0.35,6.5L0.35,6.4L0.3,6.35L0.3,6.3C0.3,6.267 0.283,6.233 0.25,6.2C0.25,6.167 0.233,6.15 0.2,6.15C0.2,6.117 0.183,6.1 0.15,6.1C0.15,6.067 0.133,6.05 0.1,6.05L0.05,6.05C0.017,6.05 0,6.067 0,6.1L-0.05,6.1C-0.083,6.133 -0.1,6.167 -0.1,6.2C-0.133,6.2 -0.15,6.217 -0.15,6.25C-0.183,6.283 -0.2,6.317 -0.2,6.35L-0.2,6.4L-0.25,6.45L-0.25,6.55C-0.283,6.55 -0.3,6.567 -0.3,6.6L-0.3,6.8C-0.333,6.833 -0.35,6.867 -0.35,6.9L-0.35,7C-0.383,7.3 -0.417,7.633 -0.45,8C-0.45,8.1 -0.483,8.85 -0.55,10.25C-0.617,11.617 -0.65,12.333 -0.65,12.4L-0.65,12.5C-0.65,12.533 -0.667,12.567 -0.7,12.6L-0.7,12.8C-0.7,12.833 -0.717,12.85 -0.75,12.85L-0.75,12.95L-0.8,13L-0.8,13.05L-0.85,13.1C-0.883,13.1 -0.9,13.117 -0.9,13.15L-1.1,13.15L-1.15,13.1L-1.2,13.1L-1.25,13.05C-1.317,13.017 -1.367,12.967 -1.4,12.9L-1.45,12.85C-1.483,12.817 -1.5,12.783 -1.5,12.75L-1.6,12.55L-1.65,12.5C-1.65,12.467 -1.667,12.433 -1.7,12.4L-1.7,12.35C-1.733,12.317 -1.75,12.283 -1.75,12.25L-1.75,12.15C-1.783,12.15 -1.8,12.133 -1.8,12.1L-1.8,11.8C-1.833,11.8 -1.85,11.783 -1.85,11.75L-1.85,11.65C-1.85,11.617 -1.867,11.583 -1.9,11.55L-1.9,11.45L-2,11.35L-2.15,11.35L-2.2,11.4L-2.2,11.45C-2.2,11.483 -2.217,11.517 -2.25,11.55L-2.25,11.6C-2.283,11.633 -2.3,11.667 -2.3,11.7C-2.3,11.733 -2.317,11.75 -2.35,11.75L-2.35,11.85C-2.383,11.883 -2.4,11.917 -2.4,11.95L-2.4,12.05C-2.433,12.083 -2.45,12.117 -2.45,12.15L-2.45,12.25C-2.483,12.283 -2.5,12.317 -2.5,12.35L-2.5,12.45C-2.533,12.45 -2.55,12.467 -2.55,12.5L-2.55,12.75C-2.583,12.783 -2.6,12.817 -2.6,12.85L-2.6,13.15C-2.633,13.183 -2.65,13.217 -2.65,13.25L-2.65,13.5C-2.65,13.533 -2.667,13.567 -2.7,13.6L-2.7,15.6C-2.667,15.867 -2.633,16.083 -2.6,16.25C-2.533,16.45 -2.483,16.617 -2.45,16.75L-2.35,16.85C-2.317,16.883 -2.283,16.9 -2.25,16.9L-2.15,16.9C-2.117,16.9 -2.1,16.883 -2.1,16.85C-2.067,16.85 -2.033,16.833 -2,16.8L-1.95,16.75C-1.883,16.683 -1.8,16.583 -1.7,16.45L-1.45,15.95C-1.417,15.817 -1.333,15.617 -1.2,15.35C-1.1,15.083 -1.017,14.883 -0.95,14.75C-0.95,14.717 -0.933,14.683 -0.9,14.65C-0.9,14.617 -0.883,14.6 -0.85,14.6L-0.85,14.5L-0.8,14.45C-0.8,14.417 -0.783,14.383 -0.75,14.35L-0.7,14.3L-0.7,14.25L-0.65,14.2C-0.65,14.167 -0.633,14.15 -0.6,14.15C-0.6,14.117 -0.583,14.083 -0.55,14.05L-0.55,14L-0.5,13.95C-0.5,13.917 -0.483,13.9 -0.45,13.9C-0.45,13.867 -0.433,13.85 -0.4,13.85L-0.4,13.8L-0.2,13.6L-0.15,13.6C-0.15,13.567 -0.133,13.55 -0.1,13.55L-0.1,13.5L-0.05,13.5L0,13.45C0.033,13.45 0.067,13.467 0.1,13.5L0.15,13.55C0.183,13.55 0.2,13.567 0.2,13.6C0.233,13.6 0.25,13.617 0.25,13.65L0.45,13.85C0.45,13.883 0.467,13.9 0.5,13.9L0.5,13.95C0.533,13.983 0.55,14.017 0.55,14.05L0.6,14.1C0.633,14.133 0.65,14.167 0.65,14.2C0.65,14.233 0.667,14.25 0.7,14.25C0.7,14.283 0.717,14.317 0.75,14.35L0.75,14.4L0.8,14.45C0.8,14.483 0.817,14.517 0.85,14.55L0.9,14.6L0.9,14.7C0.933,14.7 0.95,14.717 0.95,14.75C1.017,14.883 1.1,15.083 1.2,15.35C1.333,15.65 1.417,15.85 1.45,15.95L1.7,16.45C1.8,16.583 1.883,16.683 1.95,16.75L2,16.8C2.033,16.833 2.067,16.85 2.1,16.85C2.1,16.883 2.117,16.9 2.15,16.9L2.25,16.9Z" style="fill:rgb(188,190,192);"/>
        <path d="M15.15,-19.7L15.5,-19.55C15.567,-19.517 15.617,-19.483 15.65,-19.45C15.717,-19.45 15.767,-19.433 15.8,-19.4C15.867,-19.367 15.917,-19.333 15.95,-19.3C16.017,-19.267 16.067,-19.233 16.1,-19.2C16.167,-19.167 16.217,-19.133 16.25,-19.1C16.317,-19.067 16.367,-19.033 16.4,-19C16.467,-18.967 16.517,-18.933 16.55,-18.9C16.617,-18.867 16.667,-18.833 16.7,-18.8C16.767,-18.767 16.817,-18.733 16.85,-18.7C16.883,-18.667 16.933,-18.633 17,-18.6C17.033,-18.567 17.083,-18.533 17.15,-18.5C17.183,-18.433 17.233,-18.383 17.3,-18.35L17.4,-18.25C17.467,-18.217 17.517,-18.167 17.55,-18.1L17.8,-17.85C17.833,-17.817 17.867,-17.767 17.9,-17.7L18.15,-17.45C18.183,-17.417 18.217,-17.367 18.25,-17.3C18.283,-17.267 18.317,-17.217 18.35,-17.15C18.383,-17.117 18.417,-17.067 18.45,-17C18.483,-16.967 18.517,-16.917 18.55,-16.85C18.583,-16.817 18.617,-16.767 18.65,-16.7C18.683,-16.633 18.717,-16.583 18.75,-16.55C18.783,-16.483 18.8,-16.417 18.8,-16.35C18.833,-16.317 18.867,-16.267 18.9,-16.2C18.933,-16.133 18.967,-16.083 19,-16.05C19.033,-15.983 19.05,-15.917 19.05,-15.85L19.15,-15.65C19.183,-15.617 19.2,-15.567 19.2,-15.5L19.3,-15.3C19.333,-15.233 19.35,-15.167 19.35,-15.1C19.383,-15.067 19.4,-15.017 19.4,-14.95L19.5,-14.75C19.5,-14.683 19.517,-14.617 19.55,-14.55C19.55,-14.483 19.567,-14.417 19.6,-14.35C19.6,-14.283 19.617,-14.217 19.65,-14.15C19.65,-14.083 19.667,-14.017 19.7,-13.95C19.733,-13.883 19.75,-13.817 19.75,-13.75C19.75,-13.683 19.767,-13.617 19.8,-13.55L19.8,-13.35C19.833,-13.283 19.85,-13.217 19.85,-13.15C19.85,-13.083 19.867,-13.017 19.9,-12.95L19.9,-12.5C19.933,-12.433 19.95,-12.35 19.95,-12.25L19.95,-11.8C19.983,-11.733 20,-11.667 20,-11.6L20,-10.25C20,-10.183 19.983,-10.1 19.95,-10L19.95,-9.75C19.95,-9.683 19.933,-9.617 19.9,-9.55L19.9,-9.3C19.867,-9.2 19.85,-9.117 19.85,-9.05C19.85,-8.95 19.833,-8.867 19.8,-8.8L19.8,-8.55C19.767,-8.45 19.75,-8.367 19.75,-8.3C19.75,-8.233 19.733,-8.167 19.7,-8.1C19.667,-8.033 19.65,-7.95 19.65,-7.85C19.617,-7.783 19.6,-7.717 19.6,-7.65C19.567,-7.583 19.55,-7.517 19.55,-7.45C19.517,-7.383 19.5,-7.317 19.5,-7.25L19.4,-7.05C19.4,-6.95 19.383,-6.867 19.35,-6.8C19.35,-6.733 19.333,-6.667 19.3,-6.6C19.267,-6.533 19.25,-6.467 19.25,-6.4C19.217,-6.3 19.183,-6.217 19.15,-6.15C19.15,-6.083 19.133,-6.017 19.1,-5.95C19.067,-5.883 19.033,-5.8 19,-5.7C19,-5.633 18.983,-5.567 18.95,-5.5L18.85,-5.3C18.85,-5.233 18.833,-5.167 18.8,-5.1L18.5,-4.5C18.467,-4.4 18.433,-4.317 18.4,-4.25C18.4,-4.183 18.383,-4.117 18.35,-4.05C18.317,-3.983 18.267,-3.917 18.2,-3.85L17.8,-3.05C17.767,-2.983 17.717,-2.917 17.65,-2.85L17.45,-2.45C17.417,-2.383 17.367,-2.317 17.3,-2.25C17.267,-2.183 17.233,-2.133 17.2,-2.1C17.167,-2.033 17.117,-1.967 17.05,-1.9L16.95,-1.7C16.917,-1.633 16.867,-1.567 16.8,-1.5C16.767,-1.433 16.717,-1.383 16.65,-1.35C16.617,-1.283 16.567,-1.217 16.5,-1.15C16.467,-1.083 16.417,-1.017 16.35,-0.95L16.2,-0.8C16.167,-0.733 16.117,-0.683 16.05,-0.65C16.017,-0.583 15.967,-0.517 15.9,-0.45L15.75,-0.3C15.717,-0.233 15.667,-0.183 15.6,-0.15L15.3,0.15C15.233,0.217 15.167,0.267 15.1,0.3C15.067,0.367 15.017,0.417 14.95,0.45C14.883,0.517 14.817,0.567 14.75,0.6C14.717,0.667 14.667,0.717 14.6,0.75C14.533,0.817 14.467,0.867 14.4,0.9C14.333,0.967 14.267,1.017 14.2,1.05L14.05,1.2C13.983,1.233 13.917,1.283 13.85,1.35L13.65,1.45C13.617,1.517 13.567,1.567 13.5,1.6L13.3,1.7C13.233,1.767 13.167,1.817 13.1,1.85L12.1,2.35C12,2.383 11.917,2.417 11.85,2.45L11.65,2.55C11.583,2.583 11.5,2.6 11.4,2.6L11.2,2.7C11.233,2.733 11.25,2.783 11.25,2.85C11.283,2.883 11.3,2.917 11.3,2.95C11.333,2.983 11.35,3.033 11.35,3.1C11.383,3.133 11.4,3.167 11.4,3.2C11.433,3.267 11.45,3.317 11.45,3.35C11.45,3.383 11.467,3.433 11.5,3.5L11.5,3.6C11.533,3.667 11.55,3.717 11.55,3.75C11.583,3.883 11.6,4.017 11.6,4.15C11.633,4.283 11.65,4.417 11.65,4.55L11.65,4.95C11.65,5.083 11.633,5.217 11.6,5.35L11.5,5.75C11.467,5.85 11.433,5.967 11.4,6.1C11.367,6.233 11.317,6.367 11.25,6.5C11.183,6.6 11.117,6.717 11.05,6.85C11.15,6.983 11.233,7.117 11.3,7.25L11.5,7.55C11.533,7.617 11.55,7.683 11.55,7.75C11.583,7.783 11.6,7.833 11.6,7.9C11.633,7.967 11.65,8.033 11.65,8.1L11.65,8.6C11.65,8.667 11.633,8.717 11.6,8.75C11.6,8.817 11.583,8.883 11.55,8.95L11.45,9.25C11.417,9.317 11.383,9.367 11.35,9.4C11.317,9.467 11.283,9.517 11.25,9.55L11.1,9.7C11.067,9.767 11.017,9.817 10.95,9.85C10.917,9.883 10.867,9.917 10.8,9.95C10.767,9.983 10.717,10.017 10.65,10.05C10.583,10.083 10.533,10.117 10.5,10.15C10.433,10.15 10.367,10.167 10.3,10.2C10.267,10.2 10.233,10.217 10.2,10.25C10.133,10.283 10.083,10.3 10.05,10.3C10.017,10.333 9.983,10.35 9.95,10.35C9.883,10.383 9.833,10.4 9.8,10.4C9.767,10.433 9.733,10.45 9.7,10.45L9.6,10.55C9.533,10.55 9.483,10.567 9.45,10.6C9.417,10.6 9.383,10.617 9.35,10.65C9.183,10.75 9.033,10.85 8.9,10.95C8.767,11.05 8.65,11.15 8.55,11.25L8.2,11.6C8.067,11.733 7.95,11.867 7.85,12C7.783,12.133 7.7,12.267 7.6,12.4C7.533,12.533 7.467,12.683 7.4,12.85C7.333,12.983 7.267,13.133 7.2,13.3C7.133,13.467 7.083,13.633 7.05,13.8L7.05,13.9C7.017,13.933 7,13.967 7,14C7,14.033 6.983,14.067 6.95,14.1L6.95,14.15C6.917,14.183 6.9,14.217 6.9,14.25C6.867,14.317 6.833,14.367 6.8,14.4C6.767,14.467 6.717,14.517 6.65,14.55C6.617,14.617 6.583,14.667 6.55,14.7L6.4,14.85C6.333,14.883 6.283,14.917 6.25,14.95L6.05,15.05C6.017,15.083 5.967,15.117 5.9,15.15C5.833,15.15 5.767,15.167 5.7,15.2C5.7,15.333 5.683,15.45 5.65,15.55C5.65,15.683 5.633,15.8 5.6,15.9C5.567,16.033 5.55,16.15 5.55,16.25L5.45,16.65L5.35,16.95C5.317,17.083 5.283,17.2 5.25,17.3C5.217,17.433 5.183,17.55 5.15,17.65C5.083,17.783 5.033,17.9 5,18C5,18.033 4.983,18.067 4.95,18.1C4.917,18.167 4.9,18.217 4.9,18.25L4.8,18.35C4.8,18.383 4.783,18.417 4.75,18.45C4.717,18.517 4.683,18.567 4.65,18.6L4.15,19.1C4.05,19.167 3.967,19.217 3.9,19.25C3.833,19.317 3.75,19.367 3.65,19.4C3.583,19.467 3.5,19.5 3.4,19.5C3.333,19.533 3.25,19.567 3.15,19.6C3.05,19.633 2.967,19.65 2.9,19.65C2.8,19.683 2.7,19.7 2.6,19.7L1.35,19.7C1.283,19.7 1.217,19.683 1.15,19.65L0.95,19.65C0.883,19.617 0.817,19.6 0.75,19.6L0.55,19.5C0.483,19.5 0.417,19.483 0.35,19.45C0.283,19.417 0.233,19.383 0.2,19.35L0,19.25L-0.2,19.35C-0.233,19.383 -0.283,19.417 -0.35,19.45C-0.417,19.483 -0.483,19.5 -0.55,19.5L-0.75,19.6C-0.817,19.6 -0.883,19.617 -0.95,19.65L-1.15,19.65C-1.217,19.683 -1.283,19.7 -1.35,19.7L-2.7,19.7C-2.733,19.667 -2.783,19.65 -2.85,19.65L-2.95,19.65C-3.017,19.65 -3.067,19.633 -3.1,19.6L-3.2,19.6C-3.267,19.567 -3.317,19.55 -3.35,19.55L-3.65,19.45C-3.717,19.383 -3.8,19.333 -3.9,19.3L-4.1,19.1C-4.2,19.067 -4.283,19.017 -4.35,18.95C-4.417,18.883 -4.467,18.817 -4.5,18.75C-4.567,18.683 -4.633,18.6 -4.7,18.5C-4.733,18.433 -4.783,18.35 -4.85,18.25C-4.883,18.183 -4.917,18.1 -4.95,18C-5.017,17.9 -5.067,17.783 -5.1,17.65C-5.133,17.55 -5.167,17.433 -5.2,17.3C-5.267,17.2 -5.317,17.083 -5.35,16.95L-5.45,16.65C-5.483,16.517 -5.5,16.383 -5.5,16.25C-5.533,16.15 -5.567,16.033 -5.6,15.9C-5.633,15.8 -5.65,15.683 -5.65,15.55C-5.683,15.45 -5.7,15.333 -5.7,15.2L-5.8,15.2C-5.833,15.167 -5.867,15.15 -5.9,15.15C-5.933,15.15 -5.95,15.133 -5.95,15.1L-6.05,15.1C-6.05,15.067 -6.067,15.05 -6.1,15.05C-6.167,15.017 -6.217,14.983 -6.25,14.95L-6.4,14.8C-6.467,14.767 -6.517,14.717 -6.55,14.65L-6.7,14.5C-6.733,14.467 -6.767,14.417 -6.8,14.35C-6.833,14.283 -6.85,14.233 -6.85,14.2L-6.95,14C-6.983,13.933 -7,13.867 -7,13.8C-7,13.767 -7.017,13.733 -7.05,13.7C-7.05,13.633 -7.067,13.583 -7.1,13.55L-7.1,13.45C-7.133,13.383 -7.15,13.333 -7.15,13.3C-7.183,13.267 -7.2,13.233 -7.2,13.2C-7.233,13.167 -7.25,13.133 -7.25,13.1C-7.283,13.033 -7.3,12.983 -7.3,12.95C-7.333,12.917 -7.35,12.883 -7.35,12.85C-7.417,12.683 -7.5,12.533 -7.6,12.4C-7.7,12.233 -7.8,12.083 -7.9,11.95C-8,11.817 -8.1,11.7 -8.2,11.6C-8.3,11.467 -8.417,11.35 -8.55,11.25C-8.683,11.117 -8.817,11 -8.95,10.9C-9.05,10.833 -9.183,10.75 -9.35,10.65C-9.483,10.55 -9.633,10.467 -9.8,10.4C-9.933,10.333 -10.083,10.267 -10.25,10.2L-10.55,10.1L-10.75,10C-10.783,9.967 -10.833,9.933 -10.9,9.9L-11.3,9.5L-11.4,9.3C-11.433,9.267 -11.467,9.217 -11.5,9.15C-11.5,9.083 -11.517,9.017 -11.55,8.95L-11.65,8.65L-11.65,8.1C-11.65,8.033 -11.633,7.967 -11.6,7.9C-11.6,7.867 -11.583,7.817 -11.55,7.75C-11.55,7.683 -11.533,7.633 -11.5,7.6C-11.467,7.533 -11.433,7.483 -11.4,7.45C-11.367,7.383 -11.333,7.333 -11.3,7.3C-11.3,7.267 -11.283,7.25 -11.25,7.25L-11.25,7.2C-11.217,7.2 -11.2,7.183 -11.2,7.15C-11.2,7.117 -11.183,7.1 -11.15,7.1L-11.15,7C-11.117,7 -11.1,6.983 -11.1,6.95L-11.05,6.9L-11.05,6.85C-11.117,6.75 -11.167,6.633 -11.2,6.5C-11.267,6.367 -11.317,6.25 -11.35,6.15C-11.417,6.017 -11.45,5.883 -11.45,5.75C-11.483,5.65 -11.517,5.533 -11.55,5.4C-11.583,5.267 -11.6,5.133 -11.6,5L-11.6,4.25C-11.6,4.117 -11.583,3.983 -11.55,3.85C-11.55,3.783 -11.533,3.733 -11.5,3.7L-11.5,3.55C-11.467,3.483 -11.45,3.433 -11.45,3.4C-11.45,3.333 -11.433,3.283 -11.4,3.25C-11.4,3.183 -11.383,3.133 -11.35,3.1C-11.35,3.033 -11.333,2.983 -11.3,2.95C-11.3,2.883 -11.283,2.833 -11.25,2.8C-11.25,2.733 -11.233,2.683 -11.2,2.65L-11.4,2.55C-11.467,2.55 -11.55,2.533 -11.65,2.5L-12.45,2.1C-12.55,2.067 -12.633,2.033 -12.7,2L-13.1,1.8C-13.167,1.767 -13.233,1.717 -13.3,1.65L-13.5,1.55C-13.567,1.517 -13.617,1.483 -13.65,1.45C-13.717,1.383 -13.783,1.333 -13.85,1.3C-13.917,1.267 -13.983,1.217 -14.05,1.15C-14.117,1.117 -14.167,1.083 -14.2,1.05C-14.267,0.983 -14.333,0.933 -14.4,0.9C-14.467,0.867 -14.533,0.817 -14.6,0.75C-14.667,0.717 -14.717,0.667 -14.75,0.6C-14.817,0.567 -14.883,0.517 -14.95,0.45C-15.017,0.417 -15.067,0.367 -15.1,0.3C-15.167,0.267 -15.233,0.217 -15.3,0.15C-15.333,0.083 -15.383,0.033 -15.45,0C-15.483,-0.067 -15.533,-0.133 -15.6,-0.2C-15.667,-0.233 -15.717,-0.283 -15.75,-0.35L-15.9,-0.5C-15.967,-0.567 -16.017,-0.633 -16.05,-0.7C-16.117,-0.733 -16.167,-0.783 -16.2,-0.85L-16.35,-1C-16.417,-1.067 -16.467,-1.133 -16.5,-1.2C-16.567,-1.267 -16.617,-1.333 -16.65,-1.4C-16.717,-1.433 -16.767,-1.483 -16.8,-1.55C-16.867,-1.617 -16.917,-1.683 -16.95,-1.75L-17.05,-1.95C-17.117,-1.983 -17.167,-2.033 -17.2,-2.1L-17.3,-2.3C-17.367,-2.367 -17.417,-2.433 -17.45,-2.5L-17.65,-2.9C-17.717,-2.967 -17.767,-3.033 -17.8,-3.1L-18.2,-3.9C-18.267,-3.933 -18.317,-3.983 -18.35,-4.05C-18.383,-4.117 -18.4,-4.2 -18.4,-4.3L-18.8,-5.1C-18.833,-5.167 -18.85,-5.25 -18.85,-5.35L-19.05,-5.75C-19.083,-5.817 -19.1,-5.883 -19.1,-5.95L-19.2,-6.15C-19.233,-6.25 -19.25,-6.333 -19.25,-6.4L-19.35,-6.6C-19.383,-6.667 -19.4,-6.733 -19.4,-6.8C-19.433,-6.9 -19.45,-6.983 -19.45,-7.05C-19.483,-7.117 -19.5,-7.183 -19.5,-7.25C-19.533,-7.35 -19.567,-7.433 -19.6,-7.5L-19.6,-7.7C-19.633,-7.767 -19.65,-7.833 -19.65,-7.9C-19.683,-8 -19.7,-8.083 -19.7,-8.15C-19.733,-8.217 -19.75,-8.283 -19.75,-8.35C-19.75,-8.45 -19.767,-8.533 -19.8,-8.6L-19.8,-8.85C-19.833,-8.917 -19.85,-9 -19.85,-9.1C-19.85,-9.167 -19.867,-9.25 -19.9,-9.35L-19.9,-9.8C-19.933,-9.9 -19.95,-9.983 -19.95,-10.05L-19.95,-10.5C-19.983,-10.6 -20,-10.683 -20,-10.75L-20,-12.1C-20,-12.167 -19.983,-12.233 -19.95,-12.3L-19.95,-12.55C-19.95,-12.617 -19.933,-12.683 -19.9,-12.75L-19.9,-13C-19.867,-13.067 -19.85,-13.133 -19.85,-13.2C-19.85,-13.267 -19.833,-13.333 -19.8,-13.4L-19.8,-13.6C-19.767,-13.667 -19.75,-13.733 -19.75,-13.8C-19.75,-13.867 -19.733,-13.933 -19.7,-14C-19.7,-14.067 -19.683,-14.133 -19.65,-14.2C-19.65,-14.267 -19.633,-14.333 -19.6,-14.4C-19.6,-14.467 -19.583,-14.533 -19.55,-14.6C-19.55,-14.667 -19.533,-14.733 -19.5,-14.8C-19.467,-14.867 -19.45,-14.917 -19.45,-14.95L-19.35,-15.15C-19.35,-15.217 -19.333,-15.283 -19.3,-15.35C-19.267,-15.417 -19.25,-15.483 -19.25,-15.55C-19.217,-15.617 -19.183,-15.667 -19.15,-15.7C-19.15,-15.767 -19.133,-15.833 -19.1,-15.9C-19.067,-15.967 -19.033,-16.017 -19,-16.05C-18.967,-16.117 -18.95,-16.183 -18.95,-16.25C-18.917,-16.283 -18.883,-16.333 -18.85,-16.4C-18.817,-16.433 -18.783,-16.483 -18.75,-16.55C-18.717,-16.617 -18.683,-16.667 -18.65,-16.7C-18.617,-16.767 -18.583,-16.817 -18.55,-16.85C-18.517,-16.917 -18.483,-16.967 -18.45,-17C-18.417,-17.067 -18.383,-17.117 -18.35,-17.15C-18.317,-17.217 -18.283,-17.267 -18.25,-17.3C-18.217,-17.367 -18.183,-17.417 -18.15,-17.45C-18.117,-17.517 -18.083,-17.567 -18.05,-17.6C-18.017,-17.667 -17.967,-17.717 -17.9,-17.75C-17.867,-17.817 -17.833,-17.867 -17.8,-17.9L-17.55,-18.15C-17.517,-18.217 -17.467,-18.267 -17.4,-18.3L-17.3,-18.4C-17.233,-18.433 -17.183,-18.483 -17.15,-18.55C-17.117,-18.583 -17.067,-18.617 -17,-18.65L-16.9,-18.75C-16.833,-18.783 -16.783,-18.817 -16.75,-18.85C-16.717,-18.883 -16.667,-18.917 -16.6,-18.95C-16.533,-18.983 -16.483,-19.017 -16.45,-19.05C-16.383,-19.083 -16.333,-19.117 -16.3,-19.15C-16.233,-19.183 -16.183,-19.217 -16.15,-19.25C-16.083,-19.25 -16.033,-19.267 -16,-19.3L-15.8,-19.4C-15.767,-19.433 -15.717,-19.45 -15.65,-19.45C-15.617,-19.483 -15.567,-19.517 -15.5,-19.55L-15.15,-19.7L-14.35,-19.7C-14.35,-19.667 -14.333,-19.65 -14.3,-19.65L-14.2,-19.65C-14.2,-19.617 -14.183,-19.6 -14.15,-19.6C-14.083,-19.567 -14.033,-19.55 -14,-19.55L-13.8,-19.45L-13.7,-19.35C-13.633,-19.317 -13.583,-19.283 -13.55,-19.25C-13.517,-19.217 -13.483,-19.167 -13.45,-19.1C-13.383,-19.067 -13.333,-19.017 -13.3,-18.95C-13.267,-18.917 -13.25,-18.867 -13.25,-18.8C-13.217,-18.767 -13.183,-18.717 -13.15,-18.65C-13.117,-18.583 -13.083,-18.533 -13.05,-18.5C-13.05,-18.433 -13.033,-18.367 -13,-18.3L-13,-18.15C-12.967,-18.117 -12.95,-18.067 -12.95,-18L-12.95,-17.85C-12.95,-17.783 -12.967,-17.717 -13,-17.65C-13,-17.617 -13.017,-17.567 -13.05,-17.5C-13.05,-17.467 -13.067,-17.417 -13.1,-17.35L-13.1,-17.25C-13.1,-17.217 -13.117,-17.2 -13.15,-17.2L-13.15,-17.05L-13.2,-17L-13.2,-16.9C-13.233,-16.9 -13.25,-16.883 -13.25,-16.85C-13.317,-16.65 -13.383,-16.4 -13.45,-16.1C-13.55,-15.733 -13.65,-15.383 -13.75,-15.05L-13.95,-13.75L-13.95,-13.4C-13.983,-13.333 -14,-13.267 -14,-13.2L-14,-11.6C-13.967,-11.533 -13.95,-11.467 -13.95,-11.4L-13.95,-11.2C-13.95,-11.167 -13.933,-11.117 -13.9,-11.05L-13.9,-10.85C-13.9,-10.783 -13.883,-10.717 -13.85,-10.65L-13.85,-10.5C-13.817,-10.433 -13.8,-10.367 -13.8,-10.3C-13.8,-10.233 -13.783,-10.167 -13.75,-10.1C-13.75,-10.033 -13.733,-9.983 -13.7,-9.95C-13.7,-9.883 -13.683,-9.817 -13.65,-9.75C-13.65,-9.683 -13.633,-9.633 -13.6,-9.6C-13.6,-9.533 -13.583,-9.467 -13.55,-9.4L-13.45,-9.2C-13.45,-9.133 -13.433,-9.083 -13.4,-9.05L-13.3,-8.85C-13.267,-8.783 -13.25,-8.717 -13.25,-8.65C-13.217,-8.617 -13.183,-8.567 -13.15,-8.5C-13.117,-8.433 -13.083,-8.383 -13.05,-8.35L-12.95,-8.15C-12.917,-8.117 -12.883,-8.067 -12.85,-8C-12.817,-7.967 -12.8,-7.933 -12.8,-7.9L-12.7,-7.8C-12.7,-7.733 -12.683,-7.683 -12.65,-7.65L-12.55,-7.55C-12.55,-7.517 -12.533,-7.483 -12.5,-7.45L-12.4,-7.35C-12.4,-7.317 -12.383,-7.283 -12.35,-7.25L-11.75,-6.65C-11.717,-6.617 -11.683,-6.6 -11.65,-6.6L-11.35,-6.3C-11.317,-6.267 -11.267,-6.25 -11.2,-6.25L-11,-6.05C-10.967,-6.017 -10.917,-6 -10.85,-6L-10.75,-5.9C-10.717,-5.867 -10.667,-5.85 -10.6,-5.85L-10.5,-5.75C-10.467,-5.717 -10.417,-5.7 -10.35,-5.7L-10.25,-5.6C-10.217,-5.567 -10.167,-5.55 -10.1,-5.55L-10,-5.45C-9.933,-5.45 -9.883,-5.433 -9.85,-5.4C-9.783,-5.367 -9.733,-5.35 -9.7,-5.35C-9.633,-5.317 -9.583,-5.283 -9.55,-5.25C-9.517,-5.25 -9.467,-5.233 -9.4,-5.2C-9.367,-5.167 -9.317,-5.15 -9.25,-5.15C-9.217,-5.117 -9.167,-5.1 -9.1,-5.1C-9.067,-5.067 -9.017,-5.033 -8.95,-5C-8.917,-5 -8.867,-4.983 -8.8,-4.95C-8.767,-4.95 -8.717,-4.933 -8.65,-4.9C-8.617,-4.9 -8.567,-4.883 -8.5,-4.85C-8.467,-4.85 -8.417,-4.833 -8.35,-4.8C-8.317,-4.767 -8.267,-4.75 -8.2,-4.75C-8.133,-4.75 -8.083,-4.733 -8.05,-4.7C-7.983,-4.7 -7.917,-4.683 -7.85,-4.65C-7.817,-4.65 -7.767,-4.633 -7.7,-4.6C-7.633,-4.6 -7.583,-4.583 -7.55,-4.55C-7.483,-4.55 -7.417,-4.533 -7.35,-4.5L-7.15,-4.5C-7.117,-4.467 -7.067,-4.45 -7,-4.45C-6.933,-4.417 -6.867,-4.4 -6.8,-4.4C-6.733,-4.4 -6.667,-4.383 -6.6,-4.35C-6.567,-4.35 -6.517,-4.333 -6.45,-4.3C-6.383,-4.3 -6.317,-4.283 -6.25,-4.25L-6.05,-4.25C-6.017,-4.217 -5.967,-4.2 -5.9,-4.2C-5.833,-4.167 -5.767,-4.15 -5.7,-4.15L-5.5,-4.15C-5.433,-4.117 -5.367,-4.1 -5.3,-4.1L-5.1,-4.1C-5.033,-4.067 -4.967,-4.05 -4.9,-4.05L-4.7,-4.05C-4.633,-4.017 -4.567,-4 -4.5,-4L-4.05,-4C-3.983,-3.967 -3.917,-3.95 -3.85,-3.95L-3.65,-3.95C-3.55,-4.017 -3.45,-4.067 -3.35,-4.1C-3.25,-4.167 -3.15,-4.217 -3.05,-4.25C-2.95,-4.317 -2.833,-4.367 -2.7,-4.4L-2.4,-4.5C-2.3,-4.533 -2.183,-4.55 -2.05,-4.55L-1.75,-4.65C-1.617,-4.65 -1.5,-4.667 -1.4,-4.7L-0.7,-4.7C-0.667,-4.667 -0.633,-4.65 -0.6,-4.65L-0.5,-4.65L-0.45,-4.6L-0.25,-4.6C-0.217,-4.567 -0.183,-4.55 -0.15,-4.55C-0.117,-4.55 -0.1,-4.533 -0.1,-4.5L0,-4.5L0.3,-4.6L0.45,-4.6C0.483,-4.633 0.517,-4.65 0.55,-4.65L1.35,-4.65C1.45,-4.65 1.567,-4.633 1.7,-4.6C1.8,-4.6 1.9,-4.583 2,-4.55C2.133,-4.517 2.25,-4.483 2.35,-4.45L2.65,-4.35C2.783,-4.317 2.9,-4.283 3,-4.25C3.1,-4.183 3.2,-4.133 3.3,-4.1L3.6,-3.9L3.8,-3.9C3.867,-3.9 3.933,-3.917 4,-3.95L4.45,-3.95C4.517,-3.95 4.583,-3.967 4.65,-4L4.85,-4C4.917,-4 4.983,-4.017 5.05,-4.05L5.25,-4.05C5.783,-4.15 6.3,-4.25 6.8,-4.35C6.867,-4.35 6.917,-4.367 6.95,-4.4C7.017,-4.4 7.083,-4.417 7.15,-4.45L7.3,-4.45C7.367,-4.483 7.433,-4.5 7.5,-4.5C7.533,-4.533 7.583,-4.55 7.65,-4.55C7.717,-4.583 7.767,-4.6 7.8,-4.6C7.867,-4.633 7.933,-4.65 8,-4.65C8.033,-4.683 8.083,-4.7 8.15,-4.7C8.217,-4.7 8.267,-4.717 8.3,-4.75C8.367,-4.783 8.417,-4.8 8.45,-4.8C8.517,-4.833 8.583,-4.85 8.65,-4.85C8.683,-4.883 8.733,-4.9 8.8,-4.9C8.833,-4.933 8.883,-4.95 8.95,-4.95C8.983,-4.983 9.033,-5.017 9.1,-5.05C9.133,-5.05 9.183,-5.067 9.25,-5.1C9.317,-5.1 9.367,-5.117 9.4,-5.15C9.433,-5.183 9.483,-5.2 9.55,-5.2C9.583,-5.233 9.633,-5.267 9.7,-5.3C9.733,-5.3 9.767,-5.317 9.8,-5.35C9.867,-5.383 9.917,-5.4 9.95,-5.4C9.983,-5.433 10.033,-5.467 10.1,-5.5C10.133,-5.5 10.167,-5.517 10.2,-5.55C10.267,-5.583 10.317,-5.617 10.35,-5.65C10.417,-5.65 10.467,-5.667 10.5,-5.7L10.6,-5.8C10.667,-5.8 10.717,-5.817 10.75,-5.85L10.85,-5.95C10.883,-5.95 10.917,-5.967 10.95,-6C11.017,-6.033 11.067,-6.067 11.1,-6.1L11.2,-6.2C11.233,-6.2 11.267,-6.217 11.3,-6.25L11.6,-6.55C11.633,-6.55 11.667,-6.567 11.7,-6.6C11.767,-6.633 11.817,-6.667 11.85,-6.7C11.883,-6.733 11.9,-6.767 11.9,-6.8L12.3,-7.2C12.333,-7.233 12.35,-7.267 12.35,-7.3L12.55,-7.5C12.583,-7.533 12.6,-7.567 12.6,-7.6C12.633,-7.633 12.667,-7.683 12.7,-7.75C12.733,-7.783 12.75,-7.817 12.75,-7.85L12.85,-7.95C12.883,-8.017 12.917,-8.067 12.95,-8.1L13.05,-8.3C13.083,-8.333 13.117,-8.383 13.15,-8.45L13.25,-8.65C13.283,-8.717 13.317,-8.767 13.35,-8.8C13.35,-8.867 13.367,-8.933 13.4,-9L13.5,-9.2C13.5,-9.267 13.517,-9.333 13.55,-9.4C13.583,-9.467 13.6,-9.517 13.6,-9.55C13.633,-9.617 13.65,-9.683 13.65,-9.75C13.683,-9.783 13.7,-9.833 13.7,-9.9C13.733,-9.967 13.75,-10.033 13.75,-10.1C13.783,-10.167 13.8,-10.217 13.8,-10.25C13.8,-10.317 13.817,-10.383 13.85,-10.45L13.85,-10.65C13.883,-10.717 13.9,-10.783 13.9,-10.85L13.9,-11.05C13.933,-11.083 13.95,-11.133 13.95,-11.2L13.95,-11.4C13.95,-11.467 13.967,-11.533 14,-11.6L14,-13.05C13.967,-13.117 13.95,-13.167 13.95,-13.2L13.95,-13.4C13.95,-13.467 13.933,-13.517 13.9,-13.55L13.9,-13.9C13.9,-13.967 13.883,-14.017 13.85,-14.05L13.85,-14.4C13.817,-14.467 13.8,-14.517 13.8,-14.55C13.8,-14.617 13.783,-14.683 13.75,-14.75L13.75,-14.9C13.717,-14.933 13.7,-14.983 13.7,-15.05C13.7,-15.083 13.683,-15.133 13.65,-15.2L13.65,-15.3C13.65,-15.333 13.633,-15.383 13.6,-15.45L13.6,-15.55C13.567,-15.617 13.55,-15.667 13.55,-15.7C13.55,-15.733 13.533,-15.783 13.5,-15.85L13.5,-15.95C13.467,-16.017 13.45,-16.067 13.45,-16.1L13.25,-16.9C13.25,-16.867 13.2,-17 13.1,-17.3L13.05,-17.35C13.05,-17.383 13.033,-17.417 13,-17.45L13,-17.6C13,-17.667 12.983,-17.733 12.95,-17.8L12.95,-18.15C12.95,-18.217 12.967,-18.267 13,-18.3C13,-18.367 13.017,-18.433 13.05,-18.5C13.05,-18.533 13.067,-18.583 13.1,-18.65C13.1,-18.683 13.117,-18.733 13.15,-18.8C13.183,-18.867 13.217,-18.917 13.25,-18.95L13.3,-19C13.333,-19.033 13.35,-19.067 13.35,-19.1C13.383,-19.1 13.4,-19.117 13.4,-19.15L13.45,-19.2C13.483,-19.233 13.533,-19.267 13.6,-19.3C13.633,-19.333 13.683,-19.367 13.75,-19.4C13.783,-19.433 13.833,-19.467 13.9,-19.5C13.933,-19.533 13.983,-19.55 14.05,-19.55C14.117,-19.583 14.167,-19.617 14.2,-19.65L14.4,-19.65C14.467,-19.683 14.517,-19.7 14.55,-19.7L15.15,-19.7ZM0.05,15.75C0.083,15.817 0.1,15.883 0.1,15.95C0.1,16.05 0.117,16.133 0.15,16.2C0.15,16.267 0.167,16.333 0.2,16.4C0.2,16.5 0.217,16.583 0.25,16.65C0.283,16.717 0.3,16.783 0.3,16.85C0.333,16.95 0.367,17.033 0.4,17.1L0.5,17.3C0.5,17.333 0.517,17.367 0.55,17.4L0.6,17.45C0.6,17.483 0.617,17.5 0.65,17.5C0.65,17.533 0.667,17.567 0.7,17.6L0.85,17.75C0.883,17.75 0.917,17.767 0.95,17.8C0.983,17.833 1.017,17.85 1.05,17.85C1.083,17.883 1.117,17.9 1.15,17.9C1.183,17.933 1.217,17.95 1.25,17.95C1.283,17.95 1.317,17.967 1.35,18L2.6,18C2.633,18 2.65,17.983 2.65,17.95L2.75,17.95C2.783,17.95 2.817,17.933 2.85,17.9C2.883,17.867 2.917,17.85 2.95,17.85L3.05,17.75C3.083,17.75 3.117,17.733 3.15,17.7C3.183,17.667 3.2,17.633 3.2,17.6L3.3,17.5C3.3,17.467 3.317,17.433 3.35,17.4C3.383,17.367 3.4,17.333 3.4,17.3C3.467,17.1 3.533,16.917 3.6,16.75C3.633,16.55 3.683,16.367 3.75,16.2C3.783,16 3.833,15.817 3.9,15.65L4,15.05C4.033,14.883 4.067,14.7 4.1,14.5C4.1,14.333 4.117,14.15 4.15,13.95C4.15,13.75 4.167,13.55 4.2,13.35L4.2,12.8L4.3,12.7C4.3,12.667 4.317,12.633 4.35,12.6L4.4,12.6C4.433,12.6 4.45,12.617 4.45,12.65L4.55,12.65C4.583,12.683 4.6,12.717 4.6,12.75L4.85,13.45L4.95,13.55C4.983,13.583 5.017,13.6 5.05,13.6L5.2,13.6L5.25,13.55C5.283,13.55 5.317,13.533 5.35,13.5L5.35,13.4C5.35,13.333 5.367,13.267 5.4,13.2C5.433,13.167 5.45,13.117 5.45,13.05C5.483,12.983 5.5,12.917 5.5,12.85C5.533,12.817 5.55,12.767 5.55,12.7C5.583,12.633 5.617,12.583 5.65,12.55C5.65,12.483 5.667,12.417 5.7,12.35C5.733,12.283 5.767,12.233 5.8,12.2C5.8,12.133 5.817,12.067 5.85,12C5.95,11.8 6.067,11.6 6.2,11.4C6.3,11.2 6.417,11.017 6.55,10.85C6.683,10.683 6.833,10.517 7,10.35C7.133,10.183 7.283,10.033 7.45,9.9L7.95,9.5C8.117,9.367 8.3,9.25 8.5,9.15L9.1,8.85C9.3,8.75 9.517,8.667 9.75,8.6C9.783,8.6 9.8,8.583 9.8,8.55C9.867,8.517 9.917,8.467 9.95,8.4L9.95,8.3L9.9,8.25C9.867,8.183 9.833,8.133 9.8,8.1C9.767,8.033 9.733,7.983 9.7,7.95L9.6,7.75C9.567,7.717 9.533,7.667 9.5,7.6C9.5,7.533 9.483,7.483 9.45,7.45L9.35,7.25C9.317,7.217 9.3,7.167 9.3,7.1C9.267,7.067 9.233,7.017 9.2,6.95L9.15,6.9L9.15,6.7C9.15,6.667 9.167,6.633 9.2,6.6L9.25,6.55C9.25,6.517 9.267,6.5 9.3,6.5C9.3,6.467 9.317,6.433 9.35,6.4L9.35,6.35L9.4,6.3C9.433,6.267 9.45,6.233 9.45,6.2L9.5,6.15L9.5,6.1L9.55,6.05C9.55,6.017 9.567,6 9.6,6L9.6,5.95C9.633,5.917 9.65,5.883 9.65,5.85L9.65,5.8C9.683,5.8 9.7,5.783 9.7,5.75L9.7,5.7C9.733,5.667 9.75,5.633 9.75,5.6L9.75,5.55C9.783,5.517 9.8,5.483 9.8,5.45L9.8,5.35C9.833,5.317 9.85,5.283 9.85,5.25L9.85,5.1L9.9,5.05L9.9,4.95C9.9,4.917 9.917,4.883 9.95,4.85L9.95,4.3C9.917,4.267 9.9,4.233 9.9,4.2L9.9,4.15C9.9,4.117 9.883,4.083 9.85,4.05L9.85,4C9.817,3.967 9.8,3.933 9.8,3.9C9.8,3.867 9.783,3.833 9.75,3.8L9.75,3.7C9.717,3.667 9.7,3.633 9.7,3.6C9.7,3.567 9.683,3.533 9.65,3.5C9.65,3.467 9.633,3.433 9.6,3.4C9.6,3.367 9.583,3.35 9.55,3.35C9.55,3.317 9.533,3.283 9.5,3.25C9.5,3.217 9.483,3.183 9.45,3.15C9.417,3.117 9.4,3.083 9.4,3.05C9.367,3.017 9.333,3 9.3,3C9.3,2.967 9.283,2.933 9.25,2.9L9.15,2.8C9.117,2.767 9.1,2.733 9.1,2.7L9,2.6C8.967,2.6 8.933,2.583 8.9,2.55L8.7,2.35C8.667,2.317 8.633,2.3 8.6,2.3C8.567,2.267 8.517,2.233 8.45,2.2L8.35,2.1C8.317,2.067 8.267,2.033 8.2,2L8.1,1.9C8.033,1.9 7.983,1.883 7.95,1.85C7.883,1.817 7.833,1.783 7.8,1.75C7.767,1.75 7.733,1.733 7.7,1.7L7.7,1.65L7.75,1.6L7.8,1.6C7.967,1.6 8.117,1.583 8.25,1.55C8.417,1.55 8.567,1.533 8.7,1.5C8.867,1.467 9.017,1.45 9.15,1.45C9.317,1.417 9.467,1.367 9.6,1.3C9.767,1.267 9.917,1.233 10.05,1.2C10.183,1.167 10.333,1.117 10.5,1.05C10.633,1.017 10.767,0.967 10.9,0.9C11.067,0.833 11.217,0.767 11.35,0.7L11.75,0.5C11.85,0.433 11.967,0.367 12.1,0.3L12.5,0.1C12.6,0.033 12.717,-0.05 12.85,-0.15C12.95,-0.217 13.067,-0.3 13.2,-0.4C13.3,-0.467 13.417,-0.55 13.55,-0.65L13.85,-0.95C13.983,-1.05 14.1,-1.15 14.2,-1.25L14.8,-1.85C14.9,-1.983 15,-2.1 15.1,-2.2C15.2,-2.3 15.283,-2.417 15.35,-2.55C15.45,-2.65 15.55,-2.767 15.65,-2.9C15.717,-3.033 15.8,-3.15 15.9,-3.25L16.1,-3.65C16.2,-3.783 16.283,-3.917 16.35,-4.05L16.55,-4.45C16.617,-4.55 16.683,-4.667 16.75,-4.8L16.95,-5.2C17.017,-5.333 17.067,-5.467 17.1,-5.6L17.3,-6C17.333,-6.167 17.383,-6.317 17.45,-6.45L17.55,-6.85C17.617,-7.017 17.667,-7.167 17.7,-7.3L17.8,-7.7C17.833,-7.867 17.867,-8.017 17.9,-8.15L18,-8.55C18,-8.717 18.017,-8.867 18.05,-9C18.083,-9.133 18.1,-9.267 18.1,-9.4C18.133,-9.533 18.15,-9.667 18.15,-9.8C18.15,-9.967 18.167,-10.117 18.2,-10.25L18.2,-12.3C18.167,-12.433 18.15,-12.567 18.15,-12.7C18.15,-12.8 18.133,-12.917 18.1,-13.05C18.067,-13.183 18.05,-13.317 18.05,-13.45C18.017,-13.55 17.983,-13.667 17.95,-13.8C17.917,-13.933 17.883,-14.05 17.85,-14.15C17.817,-14.283 17.783,-14.4 17.75,-14.5C17.683,-14.633 17.633,-14.75 17.6,-14.85C17.567,-14.983 17.517,-15.1 17.45,-15.2C17.417,-15.3 17.367,-15.4 17.3,-15.5C17.267,-15.6 17.217,-15.7 17.15,-15.8C17.083,-15.9 17.033,-16 17,-16.1C16.933,-16.167 16.867,-16.25 16.8,-16.35C16.733,-16.45 16.667,-16.533 16.6,-16.6L16.35,-16.85C16.283,-16.95 16.2,-17.033 16.1,-17.1C16.033,-17.167 15.95,-17.233 15.85,-17.3C15.783,-17.367 15.7,-17.433 15.6,-17.5C15.5,-17.567 15.417,-17.633 15.35,-17.7C15.25,-17.767 15.15,-17.817 15.05,-17.85C14.95,-17.917 14.85,-17.967 14.75,-18L14.7,-18L14.7,-17.9C14.7,-17.867 14.717,-17.817 14.75,-17.75C14.75,-17.717 14.767,-17.683 14.8,-17.65C14.8,-17.617 14.817,-17.567 14.85,-17.5C14.85,-17.467 14.867,-17.433 14.9,-17.4C14.9,-17.333 14.917,-17.283 14.95,-17.25L14.95,-17.1C14.983,-17.033 15,-16.983 15,-16.95C15.033,-16.883 15.05,-16.833 15.05,-16.8C15.083,-16.733 15.1,-16.65 15.1,-16.55L15.2,-16.35C15.2,-16.25 15.217,-16.167 15.25,-16.1C15.283,-16 15.3,-15.917 15.3,-15.85C15.333,-15.783 15.35,-15.7 15.35,-15.6C15.383,-15.533 15.4,-15.45 15.4,-15.35C15.433,-15.283 15.45,-15.217 15.45,-15.15C15.483,-15.05 15.5,-14.967 15.5,-14.9C15.533,-14.8 15.55,-14.7 15.55,-14.6C15.583,-14.5 15.6,-14.4 15.6,-14.3C15.633,-14.2 15.65,-14.1 15.65,-14C15.65,-13.9 15.667,-13.8 15.7,-13.7L15.7,-13.4C15.733,-13.3 15.75,-13.2 15.75,-13.1L15.75,-11.8C15.717,-11.7 15.7,-11.583 15.7,-11.45L15.7,-11.15C15.667,-11.017 15.65,-10.9 15.65,-10.8C15.617,-10.7 15.6,-10.6 15.6,-10.5C15.567,-10.367 15.533,-10.25 15.5,-10.15C15.5,-10.05 15.483,-9.95 15.45,-9.85C15.417,-9.717 15.383,-9.6 15.35,-9.5C15.317,-9.367 15.283,-9.25 15.25,-9.15C15.217,-9.017 15.183,-8.9 15.15,-8.8C15.117,-8.7 15.083,-8.583 15.05,-8.45C14.983,-8.35 14.933,-8.25 14.9,-8.15C14.867,-8.017 14.817,-7.9 14.75,-7.8C14.683,-7.7 14.633,-7.6 14.6,-7.5L14.4,-7.2C14.333,-7.1 14.267,-6.983 14.2,-6.85C14.133,-6.75 14.05,-6.65 13.95,-6.55L13.75,-6.25C13.65,-6.15 13.567,-6.05 13.5,-5.95L12.9,-5.35C12.8,-5.283 12.7,-5.2 12.6,-5.1C12.5,-5.033 12.4,-4.95 12.3,-4.85C12.167,-4.75 12.05,-4.667 11.95,-4.6C11.817,-4.5 11.683,-4.417 11.55,-4.35C11.417,-4.25 11.283,-4.167 11.15,-4.1C10.983,-4 10.833,-3.917 10.7,-3.85C10.567,-3.783 10.417,-3.717 10.25,-3.65C10.117,-3.583 9.967,-3.517 9.8,-3.45L9.3,-3.25C9.133,-3.217 8.967,-3.167 8.8,-3.1C8.6,-3.033 8.417,-2.983 8.25,-2.95C8.05,-2.883 7.85,-2.833 7.65,-2.8C7.45,-2.733 7.25,-2.683 7.05,-2.65C6.85,-2.617 6.633,-2.567 6.4,-2.5L5.8,-2.4C5.567,-2.367 5.333,-2.35 5.1,-2.35L4.4,-2.25C4.167,-2.217 3.933,-2.2 3.7,-2.2L3.4,-2.2C3.367,-2.2 3.333,-2.217 3.3,-2.25L3.2,-2.25C3.167,-2.25 3.133,-2.267 3.1,-2.3L3.05,-2.3C3.017,-2.333 2.983,-2.35 2.95,-2.35C2.917,-2.383 2.883,-2.4 2.85,-2.4L2.65,-2.5C2.583,-2.533 2.5,-2.567 2.4,-2.6L2.2,-2.7C2.133,-2.733 2.05,-2.767 1.95,-2.8C1.883,-2.8 1.817,-2.817 1.75,-2.85C1.683,-2.883 1.6,-2.9 1.5,-2.9C1.433,-2.9 1.367,-2.917 1.3,-2.95L0.5,-2.95C0.467,-2.917 0.45,-2.883 0.45,-2.85C0.317,-2.683 0.167,-2.533 0,-2.4L-0.05,-2.45L-0.1,-2.45L-0.4,-2.75L-0.4,-2.8L-0.5,-2.9C-0.533,-2.933 -0.567,-2.95 -0.6,-2.95L-1.3,-2.95C-1.367,-2.917 -1.433,-2.9 -1.5,-2.9C-1.6,-2.9 -1.683,-2.883 -1.75,-2.85C-1.817,-2.817 -1.883,-2.8 -1.95,-2.8C-2.05,-2.767 -2.133,-2.733 -2.2,-2.7L-2.4,-2.6C-2.5,-2.567 -2.583,-2.533 -2.65,-2.5L-2.85,-2.4C-2.883,-2.4 -2.917,-2.383 -2.95,-2.35C-2.983,-2.35 -3.017,-2.333 -3.05,-2.3L-3.1,-2.3C-3.133,-2.267 -3.167,-2.25 -3.2,-2.25L-3.3,-2.25C-3.333,-2.217 -3.367,-2.2 -3.4,-2.2L-3.7,-2.2C-3.933,-2.2 -4.167,-2.217 -4.4,-2.25L-5.1,-2.35C-5.333,-2.35 -5.567,-2.367 -5.8,-2.4L-6.4,-2.5C-6.633,-2.567 -6.85,-2.617 -7.05,-2.65C-7.25,-2.683 -7.45,-2.733 -7.65,-2.8C-7.85,-2.833 -8.05,-2.883 -8.25,-2.95C-8.417,-2.983 -8.6,-3.033 -8.8,-3.1C-8.967,-3.167 -9.133,-3.217 -9.3,-3.25L-9.8,-3.45C-9.967,-3.517 -10.117,-3.583 -10.25,-3.65C-10.417,-3.717 -10.567,-3.783 -10.7,-3.85C-10.833,-3.917 -10.983,-4 -11.15,-4.1C-11.283,-4.167 -11.417,-4.25 -11.55,-4.35C-11.683,-4.417 -11.817,-4.5 -11.95,-4.6C-12.05,-4.667 -12.167,-4.75 -12.3,-4.85C-12.4,-4.95 -12.5,-5.033 -12.6,-5.1C-12.7,-5.2 -12.8,-5.283 -12.9,-5.35L-13.5,-5.95C-13.567,-6.05 -13.65,-6.15 -13.75,-6.25L-13.95,-6.55C-14.05,-6.65 -14.133,-6.75 -14.2,-6.85C-14.267,-6.983 -14.333,-7.1 -14.4,-7.2L-14.6,-7.5C-14.633,-7.6 -14.683,-7.7 -14.75,-7.8C-14.817,-7.9 -14.867,-8.017 -14.9,-8.15C-14.933,-8.25 -14.983,-8.35 -15.05,-8.45C-15.083,-8.583 -15.117,-8.7 -15.15,-8.8C-15.183,-8.9 -15.217,-9.017 -15.25,-9.15C-15.283,-9.25 -15.317,-9.367 -15.35,-9.5C-15.383,-9.6 -15.417,-9.717 -15.45,-9.85C-15.483,-9.95 -15.5,-10.05 -15.5,-10.15L-15.6,-10.45C-15.6,-10.55 -15.617,-10.667 -15.65,-10.8L-15.65,-11.1C-15.683,-11.233 -15.7,-11.35 -15.7,-11.45C-15.7,-11.55 -15.717,-11.667 -15.75,-11.8L-15.75,-12.8C-15.75,-12.9 -15.733,-13 -15.7,-13.1L-15.7,-13.4C-15.7,-13.5 -15.683,-13.6 -15.65,-13.7L-15.65,-14C-15.617,-14.1 -15.6,-14.2 -15.6,-14.3C-15.567,-14.4 -15.55,-14.5 -15.55,-14.6C-15.517,-14.7 -15.5,-14.8 -15.5,-14.9C-15.5,-14.967 -15.483,-15.05 -15.45,-15.15C-15.45,-15.217 -15.433,-15.283 -15.4,-15.35C-15.4,-15.45 -15.383,-15.533 -15.35,-15.6C-15.35,-15.7 -15.333,-15.783 -15.3,-15.85C-15.3,-15.917 -15.283,-16 -15.25,-16.1C-15.217,-16.167 -15.2,-16.25 -15.2,-16.35L-15.1,-16.55C-15.1,-16.65 -15.083,-16.733 -15.05,-16.8C-15.05,-16.833 -15.033,-16.883 -15,-16.95C-15,-16.983 -14.983,-17.033 -14.95,-17.1L-14.95,-17.2C-14.917,-17.267 -14.9,-17.317 -14.9,-17.35C-14.867,-17.383 -14.85,-17.433 -14.85,-17.5C-14.817,-17.533 -14.8,-17.567 -14.8,-17.6C-14.767,-17.667 -14.75,-17.717 -14.75,-17.75C-14.717,-17.817 -14.7,-17.867 -14.7,-17.9L-14.7,-17.95L-14.75,-18L-14.8,-18C-14.9,-17.967 -15,-17.917 -15.1,-17.85C-15.2,-17.817 -15.3,-17.767 -15.4,-17.7C-15.467,-17.633 -15.55,-17.567 -15.65,-17.5C-15.75,-17.433 -15.833,-17.367 -15.9,-17.3C-16,-17.233 -16.083,-17.167 -16.15,-17.1C-16.25,-17.033 -16.333,-16.95 -16.4,-16.85L-16.65,-16.6C-16.717,-16.533 -16.783,-16.45 -16.85,-16.35C-16.917,-16.25 -16.983,-16.167 -17.05,-16.1C-17.083,-16 -17.133,-15.9 -17.2,-15.8C-17.267,-15.7 -17.317,-15.6 -17.35,-15.5C-17.417,-15.4 -17.467,-15.3 -17.5,-15.2C-17.567,-15.1 -17.617,-14.983 -17.65,-14.85C-17.683,-14.75 -17.733,-14.633 -17.8,-14.5C-17.833,-14.4 -17.867,-14.283 -17.9,-14.15C-17.933,-14.05 -17.967,-13.933 -18,-13.8C-18.033,-13.667 -18.067,-13.55 -18.1,-13.45C-18.1,-13.317 -18.117,-13.183 -18.15,-13.05C-18.183,-12.917 -18.2,-12.8 -18.2,-12.7C-18.2,-12.567 -18.217,-12.433 -18.25,-12.3L-18.25,-10.25C-18.217,-10.117 -18.2,-9.967 -18.2,-9.8C-18.2,-9.667 -18.183,-9.533 -18.15,-9.4C-18.117,-9.267 -18.1,-9.133 -18.1,-9C-18.067,-8.867 -18.033,-8.717 -18,-8.55L-17.9,-8.15C-17.867,-8.017 -17.833,-7.867 -17.8,-7.7L-17.7,-7.3C-17.667,-7.167 -17.617,-7.017 -17.55,-6.85L-17.45,-6.45C-17.383,-6.317 -17.333,-6.167 -17.3,-6L-17.1,-5.6C-17.067,-5.467 -17.017,-5.333 -16.95,-5.2L-16.75,-4.8C-16.683,-4.667 -16.617,-4.55 -16.55,-4.45L-16.35,-4.05C-16.283,-3.917 -16.2,-3.783 -16.1,-3.65L-15.9,-3.25C-15.8,-3.15 -15.717,-3.033 -15.65,-2.9C-15.55,-2.767 -15.45,-2.65 -15.35,-2.55C-15.283,-2.417 -15.2,-2.3 -15.1,-2.2C-15,-2.1 -14.917,-1.983 -14.85,-1.85L-14.25,-1.25C-14.15,-1.15 -14.033,-1.05 -13.9,-0.95L-13.6,-0.65C-13.467,-0.55 -13.35,-0.467 -13.25,-0.4C-13.117,-0.3 -13,-0.217 -12.9,-0.15C-12.767,-0.05 -12.65,0.033 -12.55,0.1C-12.417,0.2 -12.283,0.283 -12.15,0.35C-12.017,0.417 -11.9,0.483 -11.8,0.55L-11.4,0.75C-11.267,0.817 -11.117,0.883 -10.95,0.95C-10.817,0.983 -10.683,1.033 -10.55,1.1C-10.383,1.133 -10.233,1.167 -10.1,1.2C-9.967,1.267 -9.817,1.317 -9.65,1.35C-9.517,1.383 -9.367,1.417 -9.2,1.45C-9.033,1.483 -8.883,1.5 -8.75,1.5C-8.583,1.533 -8.417,1.55 -8.25,1.55C-8.117,1.583 -7.967,1.6 -7.8,1.6L-7.8,1.75C-7.867,1.783 -7.917,1.817 -7.95,1.85C-8.017,1.883 -8.067,1.917 -8.1,1.95C-8.167,1.95 -8.217,1.967 -8.25,2C-8.317,2.033 -8.367,2.067 -8.4,2.1C-8.433,2.133 -8.483,2.167 -8.55,2.2L-8.65,2.3C-8.683,2.333 -8.733,2.367 -8.8,2.4L-9.4,3C-9.4,3.033 -9.417,3.067 -9.45,3.1L-9.55,3.2C-9.55,3.233 -9.567,3.267 -9.6,3.3C-9.6,3.333 -9.617,3.367 -9.65,3.4C-9.65,3.433 -9.667,3.467 -9.7,3.5C-9.7,3.533 -9.717,3.567 -9.75,3.6L-9.75,3.7C-9.783,3.733 -9.8,3.767 -9.8,3.8C-9.833,3.833 -9.85,3.867 -9.85,3.9L-9.85,4C-9.883,4.033 -9.9,4.067 -9.9,4.1L-9.9,5.1C-9.867,5.133 -9.85,5.167 -9.85,5.2L-9.85,5.3C-9.85,5.333 -9.833,5.367 -9.8,5.4L-9.8,5.45C-9.767,5.483 -9.75,5.517 -9.75,5.55C-9.75,5.583 -9.733,5.6 -9.7,5.6L-9.7,5.7L-9.65,5.75L-9.65,5.8C-9.617,5.833 -9.6,5.867 -9.6,5.9L-9.55,5.95L-9.55,6.05C-9.517,6.05 -9.5,6.067 -9.5,6.1C-9.5,6.133 -9.483,6.167 -9.45,6.2L-9.4,6.25C-9.4,6.283 -9.383,6.317 -9.35,6.35C-9.35,6.383 -9.333,6.4 -9.3,6.4C-9.3,6.433 -9.283,6.467 -9.25,6.5L-9.2,6.55C-9.167,6.583 -9.15,6.617 -9.15,6.65C-9.117,6.65 -9.1,6.667 -9.1,6.7L-9.05,6.75L-9.25,7.15C-9.283,7.183 -9.317,7.233 -9.35,7.3C-9.35,7.367 -9.367,7.433 -9.4,7.5C-9.433,7.567 -9.483,7.633 -9.55,7.7L-9.65,7.9C-9.683,7.933 -9.717,7.983 -9.75,8.05L-9.85,8.25C-9.883,8.25 -9.9,8.267 -9.9,8.3L-9.9,8.45C-9.867,8.45 -9.85,8.467 -9.85,8.5L-9.8,8.55C-9.767,8.583 -9.733,8.6 -9.7,8.6C-9.633,8.6 -9.583,8.617 -9.55,8.65C-9.483,8.683 -9.417,8.7 -9.35,8.7C-9.283,8.733 -9.233,8.767 -9.2,8.8C-9.133,8.8 -9.067,8.817 -9,8.85C-8.967,8.883 -8.917,8.917 -8.85,8.95C-8.817,8.95 -8.767,8.967 -8.7,9C-8.667,9.033 -8.617,9.067 -8.55,9.1C-8.517,9.133 -8.467,9.167 -8.4,9.2C-8.2,9.333 -8.017,9.467 -7.85,9.6C-7.65,9.733 -7.467,9.867 -7.3,10L-6.85,10.45C-6.683,10.617 -6.55,10.8 -6.45,11L-6.05,11.5L-5.75,12.1C-5.65,12.3 -5.567,12.517 -5.5,12.75C-5.433,12.95 -5.367,13.167 -5.3,13.4L-5.3,13.45L-5.2,13.55C-5.167,13.583 -5.133,13.6 -5.1,13.6L-5,13.6C-4.967,13.6 -4.95,13.583 -4.95,13.55C-4.917,13.55 -4.883,13.533 -4.85,13.5L-4.8,13.45L-4.55,12.75C-4.55,12.717 -4.533,12.7 -4.5,12.7C-4.5,12.667 -4.483,12.633 -4.45,12.6L-4.3,12.6L-4.2,12.7L-4.2,13.35C-4.167,13.55 -4.15,13.75 -4.15,13.95C-4.117,14.15 -4.083,14.333 -4.05,14.5C-4.05,14.7 -4.033,14.883 -4,15.05C-3.967,15.25 -3.917,15.45 -3.85,15.65C-3.817,15.817 -3.783,16 -3.75,16.2C-3.683,16.367 -3.633,16.55 -3.6,16.75C-3.533,16.917 -3.467,17.1 -3.4,17.3C-3.4,17.333 -3.383,17.367 -3.35,17.4L-3.3,17.45C-3.3,17.483 -3.283,17.5 -3.25,17.5C-3.25,17.533 -3.233,17.567 -3.2,17.6L-3.05,17.75C-3.017,17.75 -2.983,17.767 -2.95,17.8C-2.917,17.833 -2.883,17.85 -2.85,17.85C-2.817,17.883 -2.783,17.9 -2.75,17.9C-2.717,17.933 -2.683,17.95 -2.65,17.95C-2.617,17.95 -2.567,17.967 -2.5,18L-1.25,18C-1.217,18 -1.2,17.983 -1.2,17.95L-1.1,17.95C-1.067,17.95 -1.033,17.933 -1,17.9C-0.967,17.867 -0.933,17.85 -0.9,17.85L-0.8,17.75C-0.767,17.75 -0.733,17.733 -0.7,17.7L-0.6,17.6C-0.6,17.567 -0.583,17.533 -0.55,17.5L-0.45,17.4C-0.45,17.367 -0.433,17.333 -0.4,17.3L-0.3,17.1C-0.267,17.033 -0.233,16.95 -0.2,16.85C-0.2,16.783 -0.183,16.717 -0.15,16.65C-0.117,16.583 -0.1,16.5 -0.1,16.4C-0.067,16.333 -0.05,16.267 -0.05,16.2C-0.017,16.133 0,16.05 0,15.95C0,15.883 0.017,15.817 0.05,15.75ZM3.8,6.8L3.8,6.2C3.8,6.167 3.817,6.133 3.85,6.1L3.85,5.95L3.9,5.9C3.9,5.867 3.917,5.833 3.95,5.8L3.95,5.75C3.983,5.717 4,5.683 4,5.65C4,5.617 4.017,5.583 4.05,5.55C4.05,5.517 4.067,5.5 4.1,5.5C4.1,5.467 4.117,5.433 4.15,5.4L4.15,5.3C4.183,5.267 4.217,5.25 4.25,5.25C4.25,5.217 4.267,5.183 4.3,5.15C4.3,5.117 4.317,5.1 4.35,5.1C4.35,5.067 4.367,5.033 4.4,5C4.4,4.967 4.417,4.933 4.45,4.9L4.5,4.85C4.533,4.817 4.55,4.783 4.55,4.75C4.583,4.717 4.6,4.683 4.6,4.65C4.633,4.617 4.667,4.6 4.7,4.6C4.7,4.567 4.717,4.533 4.75,4.5C4.783,4.467 4.817,4.45 4.85,4.45C4.85,4.417 4.867,4.383 4.9,4.35L5.05,4.2C5.05,4.167 5.067,4.15 5.1,4.15C5.133,4.117 5.15,4.083 5.15,4.05C5.183,4.05 5.217,4.033 5.25,4C5.25,3.967 5.267,3.95 5.3,3.95L5.45,3.8C5.483,3.767 5.517,3.75 5.55,3.75L5.6,3.7C5.633,3.667 5.667,3.65 5.7,3.65L5.8,3.55L5.85,3.55C5.883,3.517 5.917,3.5 5.95,3.5L6,3.45C6.033,3.417 6.067,3.4 6.1,3.4C6.133,3.4 6.167,3.383 6.2,3.35L6.25,3.35C6.283,3.317 6.317,3.3 6.35,3.3C6.383,3.3 6.417,3.283 6.45,3.25L6.6,3.25L6.65,3.2L7.2,3.2C7.233,3.2 7.267,3.217 7.3,3.25L7.35,3.25C7.417,3.283 7.467,3.333 7.5,3.4C7.567,3.433 7.617,3.467 7.65,3.5C7.683,3.567 7.717,3.617 7.75,3.65C7.817,3.683 7.867,3.717 7.9,3.75C7.933,3.817 7.95,3.867 7.95,3.9C7.983,3.967 8.017,4.017 8.05,4.05C8.083,4.117 8.1,4.167 8.1,4.2C8.133,4.267 8.15,4.333 8.15,4.4C8.183,4.433 8.2,4.483 8.2,4.55L8.2,4.85C8.2,4.883 8.183,4.933 8.15,5L8.15,5.15C8.15,5.183 8.133,5.217 8.1,5.25L8.1,5.4C8.067,5.433 8.05,5.467 8.05,5.5C8.017,5.567 8,5.617 8,5.65L7.9,5.95C7.833,6.05 7.783,6.15 7.75,6.25C7.683,6.317 7.617,6.4 7.55,6.5L7.35,6.7C7.283,6.8 7.217,6.883 7.15,6.95C7.083,7.017 7,7.083 6.9,7.15C6.833,7.183 6.75,7.233 6.65,7.3C6.55,7.367 6.45,7.417 6.35,7.45L6.3,7.45C6.267,7.483 6.233,7.5 6.2,7.5L5.95,7.5C5.95,7.533 5.933,7.55 5.9,7.55L5.45,7.55C5.417,7.55 5.4,7.533 5.4,7.5L5.05,7.5C5.017,7.5 5,7.483 5,7.45L4.9,7.45L4.5,7.35C4.467,7.35 4.433,7.333 4.4,7.3L4.35,7.3C4.317,7.267 4.283,7.25 4.25,7.25L4.15,7.15C4.117,7.117 4.083,7.1 4.05,7.1C4.05,7.067 4.033,7.05 4,7.05L3.9,6.95C3.867,6.917 3.85,6.883 3.85,6.85C3.817,6.85 3.8,6.833 3.8,6.8ZM-3.8,6.8C-3.8,6.833 -3.817,6.85 -3.85,6.85C-3.85,6.883 -3.867,6.917 -3.9,6.95L-4,7.05C-4.033,7.05 -4.05,7.067 -4.05,7.1C-4.083,7.1 -4.117,7.117 -4.15,7.15L-4.25,7.25C-4.283,7.25 -4.317,7.267 -4.35,7.3L-4.4,7.3C-4.433,7.333 -4.467,7.35 -4.5,7.35L-4.9,7.45L-5,7.45C-5,7.483 -5.017,7.5 -5.05,7.5L-5.4,7.5C-5.4,7.533 -5.417,7.55 -5.45,7.55L-5.9,7.55C-5.933,7.55 -5.95,7.533 -5.95,7.5L-6.25,7.5C-6.25,7.467 -6.267,7.45 -6.3,7.45C-6.4,7.417 -6.5,7.367 -6.6,7.3C-6.7,7.233 -6.783,7.183 -6.85,7.15C-6.95,7.083 -7.033,7.017 -7.1,6.95L-7.55,6.5C-7.583,6.4 -7.633,6.317 -7.7,6.25C-7.767,6.15 -7.817,6.05 -7.85,5.95C-7.917,5.85 -7.967,5.75 -8,5.65C-8,5.617 -8.017,5.567 -8.05,5.5C-8.05,5.467 -8.067,5.433 -8.1,5.4L-8.1,5.25C-8.133,5.217 -8.15,5.183 -8.15,5.15L-8.15,5C-8.183,4.933 -8.2,4.883 -8.2,4.85L-8.2,4.55C-8.2,4.483 -8.183,4.433 -8.15,4.4C-8.15,4.333 -8.133,4.267 -8.1,4.2C-8.1,4.167 -8.083,4.117 -8.05,4.05C-8.05,4.017 -8.033,3.967 -8,3.9C-7.967,3.867 -7.933,3.817 -7.9,3.75L-7.8,3.65C-7.767,3.617 -7.733,3.567 -7.7,3.5C-7.633,3.467 -7.583,3.433 -7.55,3.4L-7.5,3.35C-7.467,3.317 -7.433,3.3 -7.4,3.3C-7.4,3.267 -7.383,3.25 -7.35,3.25L-7.25,3.25C-7.25,3.217 -7.233,3.2 -7.2,3.2L-6.65,3.2L-6.6,3.25L-6.45,3.25C-6.417,3.283 -6.383,3.3 -6.35,3.3C-6.317,3.3 -6.283,3.317 -6.25,3.35L-6.2,3.35C-6.167,3.383 -6.133,3.4 -6.1,3.4C-6.067,3.4 -6.033,3.417 -6,3.45L-5.95,3.5C-5.917,3.5 -5.883,3.517 -5.85,3.55L-5.8,3.55L-5.7,3.65C-5.667,3.65 -5.633,3.667 -5.6,3.7L-5.55,3.75C-5.517,3.75 -5.483,3.767 -5.45,3.8L-5.3,3.95C-5.267,3.95 -5.25,3.967 -5.25,4C-5.217,4.033 -5.183,4.05 -5.15,4.05C-5.15,4.083 -5.133,4.117 -5.1,4.15C-5.067,4.15 -5.05,4.167 -5.05,4.2L-4.9,4.35C-4.867,4.383 -4.85,4.417 -4.85,4.45C-4.817,4.45 -4.783,4.467 -4.75,4.5C-4.717,4.533 -4.7,4.567 -4.7,4.6C-4.667,4.6 -4.633,4.617 -4.6,4.65C-4.6,4.683 -4.583,4.717 -4.55,4.75C-4.55,4.783 -4.533,4.817 -4.5,4.85L-4.45,4.9C-4.417,4.933 -4.4,4.967 -4.4,5C-4.367,5.033 -4.35,5.067 -4.35,5.1C-4.317,5.1 -4.3,5.117 -4.3,5.15C-4.267,5.183 -4.25,5.217 -4.25,5.25C-4.217,5.25 -4.183,5.267 -4.15,5.3L-4.15,5.4C-4.117,5.433 -4.1,5.467 -4.1,5.5C-4.067,5.5 -4.05,5.517 -4.05,5.55C-4.017,5.583 -4,5.617 -4,5.65C-4,5.683 -3.983,5.717 -3.95,5.75L-3.95,5.8C-3.917,5.833 -3.9,5.867 -3.9,5.9L-3.85,5.95L-3.85,6.1C-3.817,6.133 -3.8,6.167 -3.8,6.2L-3.8,6.8ZM2.25,16.9L2.15,16.9C2.117,16.9 2.1,16.883 2.1,16.85C2.067,16.85 2.033,16.833 2,16.8L1.95,16.75C1.883,16.683 1.8,16.583 1.7,16.45L1.45,15.95C1.417,15.85 1.333,15.65 1.2,15.35C1.1,15.083 1.017,14.883 0.95,14.75C0.95,14.717 0.933,14.7 0.9,14.7L0.9,14.6L0.85,14.55C0.817,14.517 0.8,14.483 0.8,14.45L0.75,14.4L0.75,14.35C0.717,14.317 0.7,14.283 0.7,14.25C0.667,14.25 0.65,14.233 0.65,14.2C0.65,14.167 0.633,14.133 0.6,14.1L0.55,14.05C0.55,14.017 0.533,13.983 0.5,13.95L0.5,13.9C0.467,13.9 0.45,13.883 0.45,13.85L0.25,13.65C0.25,13.617 0.233,13.6 0.2,13.6C0.2,13.567 0.183,13.55 0.15,13.55L0.1,13.5C0.067,13.467 0.033,13.45 0,13.45L-0.05,13.5L-0.1,13.5L-0.1,13.55C-0.133,13.55 -0.15,13.567 -0.15,13.6L-0.2,13.6L-0.4,13.8L-0.4,13.85C-0.433,13.85 -0.45,13.867 -0.45,13.9C-0.483,13.9 -0.5,13.917 -0.5,13.95L-0.55,14L-0.55,14.05C-0.583,14.083 -0.6,14.117 -0.6,14.15C-0.633,14.15 -0.65,14.167 -0.65,14.2L-0.7,14.25L-0.7,14.3L-0.75,14.35C-0.783,14.383 -0.8,14.417 -0.8,14.45L-0.85,14.5L-0.85,14.6C-0.883,14.6 -0.9,14.617 -0.9,14.65C-0.933,14.683 -0.95,14.717 -0.95,14.75C-1.017,14.883 -1.1,15.083 -1.2,15.35C-1.333,15.617 -1.417,15.817 -1.45,15.95L-1.7,16.45C-1.8,16.583 -1.883,16.683 -1.95,16.75L-2,16.8C-2.033,16.833 -2.067,16.85 -2.1,16.85C-2.1,16.883 -2.117,16.9 -2.15,16.9L-2.25,16.9C-2.283,16.9 -2.317,16.883 -2.35,16.85L-2.45,16.75C-2.483,16.617 -2.533,16.45 -2.6,16.25C-2.633,16.083 -2.667,15.867 -2.7,15.6L-2.7,13.6C-2.667,13.567 -2.65,13.533 -2.65,13.5L-2.65,13.25C-2.65,13.217 -2.633,13.183 -2.6,13.15L-2.6,12.85C-2.6,12.817 -2.583,12.783 -2.55,12.75L-2.55,12.5C-2.55,12.467 -2.533,12.45 -2.5,12.45L-2.5,12.35C-2.5,12.317 -2.483,12.283 -2.45,12.25L-2.45,12.15C-2.45,12.117 -2.433,12.083 -2.4,12.05L-2.4,11.95C-2.4,11.917 -2.383,11.883 -2.35,11.85L-2.35,11.75C-2.317,11.75 -2.3,11.733 -2.3,11.7C-2.3,11.667 -2.283,11.633 -2.25,11.6L-2.25,11.55C-2.217,11.517 -2.2,11.483 -2.2,11.45L-2.2,11.4L-2.15,11.35L-2,11.35L-1.9,11.45L-1.9,11.55C-1.867,11.583 -1.85,11.617 -1.85,11.65L-1.85,11.75C-1.85,11.783 -1.833,11.8 -1.8,11.8L-1.8,12.1C-1.8,12.133 -1.783,12.15 -1.75,12.15L-1.75,12.25C-1.75,12.283 -1.733,12.317 -1.7,12.35L-1.7,12.4C-1.667,12.433 -1.65,12.467 -1.65,12.5L-1.6,12.55L-1.5,12.75C-1.5,12.783 -1.483,12.817 -1.45,12.85L-1.4,12.9C-1.367,12.967 -1.317,13.017 -1.25,13.05L-1.2,13.1L-1.15,13.1L-1.1,13.15L-0.9,13.15C-0.9,13.117 -0.883,13.1 -0.85,13.1L-0.8,13.05L-0.8,13L-0.75,12.95L-0.75,12.85C-0.717,12.85 -0.7,12.833 -0.7,12.8L-0.7,12.6C-0.667,12.567 -0.65,12.533 -0.65,12.5L-0.65,12.4C-0.65,12.333 -0.617,11.617 -0.55,10.25C-0.483,8.85 -0.45,8.1 -0.45,8C-0.417,7.633 -0.383,7.3 -0.35,7L-0.35,6.9C-0.35,6.867 -0.333,6.833 -0.3,6.8L-0.3,6.6C-0.3,6.567 -0.283,6.55 -0.25,6.55L-0.25,6.45L-0.2,6.4L-0.2,6.35C-0.2,6.317 -0.183,6.283 -0.15,6.25C-0.15,6.217 -0.133,6.2 -0.1,6.2C-0.1,6.167 -0.083,6.133 -0.05,6.1L0,6.1C0,6.067 0.017,6.05 0.05,6.05L0.1,6.05C0.133,6.05 0.15,6.067 0.15,6.1C0.183,6.1 0.2,6.117 0.2,6.15C0.233,6.15 0.25,6.167 0.25,6.2C0.283,6.233 0.3,6.267 0.3,6.3L0.3,6.35L0.35,6.4L0.35,6.5C0.383,6.5 0.4,6.517 0.4,6.55L0.4,6.75C0.433,6.783 0.45,6.817 0.45,6.85L0.45,6.95C0.483,7.25 0.517,7.583 0.55,7.95L0.55,9.1C0.617,10.9 0.667,12 0.7,12.4C0.7,12.433 0.717,12.467 0.75,12.5L0.75,12.6C0.75,12.633 0.767,12.667 0.8,12.7L0.8,12.85L0.85,12.9L0.85,13C0.883,13 0.9,13.017 0.9,13.05L0.9,13.1C0.933,13.133 0.967,13.15 1,13.15L1.15,13.15L1.2,13.1L1.3,13.1L1.4,13C1.433,12.967 1.45,12.933 1.45,12.9C1.517,12.867 1.567,12.817 1.6,12.75L1.7,12.55L1.8,12.25L1.8,12.15C1.833,12.15 1.85,12.133 1.85,12.1C1.85,12.067 1.867,12.033 1.9,12L1.9,11.8C1.933,11.8 1.95,11.783 1.95,11.75L1.95,11.65C1.95,11.617 1.967,11.583 2,11.55L2,11.4L2.05,11.35L2.25,11.35L2.25,11.4C2.283,11.4 2.3,11.417 2.3,11.45C2.3,11.483 2.317,11.5 2.35,11.5L2.35,11.6L2.4,11.65L2.4,11.8C2.433,11.833 2.45,11.867 2.45,11.9L2.45,12C2.483,12.033 2.5,12.067 2.5,12.1L2.5,12.2C2.533,12.233 2.55,12.267 2.55,12.3L2.55,12.4C2.583,12.4 2.6,12.417 2.6,12.45L2.6,12.7C2.633,12.733 2.65,12.767 2.65,12.8L2.65,13.15C2.683,13.183 2.7,13.217 2.7,13.25L2.7,14.05C2.733,14.083 2.75,14.117 2.75,14.15L2.75,15.25C2.75,15.283 2.733,15.317 2.7,15.35L2.7,15.55L2.6,16.25L2.6,16.3C2.6,16.333 2.583,16.367 2.55,16.4L2.55,16.55L2.5,16.6L2.5,16.65L2.45,16.7L2.45,16.75L2.35,16.85C2.317,16.883 2.283,16.9 2.25,16.9Z"/>
    </g>
</svg>
