<?xml version="1.0" encoding="UTF-8" standalone="no"?>
<!DOCTYPE svg PUBLIC "-//W3C//DTD SVG 1.1//EN" "http://www.w3.org/Graphics/SVG/1.1/DTD/svg11.dtd">
<svg width="100%" height="100%" viewBox="0 0 400 400" version="1.1" xmlns="http://www.w3.org/2000/svg" xmlns:xlink="http://www.w3.org/1999/xlink" xml:space="preserve" xmlns:serif="http://www.serif.com/" style="fill-rule:evenodd;clip-rule:evenodd;stroke-linejoin:round;stroke-miterlimit:2;">
    <g transform="matrix(0.948336,0,0,0.948336,10.3328,20.6656)">
        <path d="M200,400L30.484,268.546L30.484,224.511L41.712,224.511L41.712,167.78L30.484,167.78L30.484,119.173L40.766,119.173L40.766,113.488C28.645,106.957 23.427,98.524 21.891,92.064C20.354,85.605 19.595,78.994 21.843,66.787C28.365,68.791 30.583,68.91 35.765,69.426C46.455,53.053 57.705,38.96 69.017,30.682L81.923,-21.791L98.108,-21.791L111.014,30.682C122.325,38.96 133.576,53.053 144.266,69.426C149.448,68.91 151.666,68.791 158.188,66.787C160.436,78.994 159.582,85.796 158.045,92.255C163.979,86.386 170.975,81.111 177.419,76.263L189.911,40.334L210.089,40.334L222.581,76.263C229.025,81.111 236.021,86.386 241.955,92.255C240.418,85.796 239.564,78.994 241.812,66.787C248.334,68.791 250.552,68.91 255.734,69.426C266.424,53.053 277.675,38.96 288.986,30.682L301.892,-21.791L318.077,-21.791L330.983,30.682C342.295,38.96 353.545,53.053 364.235,69.426C369.417,68.91 371.635,68.791 378.157,66.787C380.405,78.994 379.646,85.605 378.109,92.064C376.573,98.524 371.355,106.957 359.234,113.488L359.234,119.173L369.516,119.173L369.516,167.78L358.288,167.78L358.288,224.511L369.516,224.511L369.516,268.546L200,400ZM119.15,313.28L200,375.976L280.85,313.28L280.85,175.955L270.276,175.955C270.216,167.029 267.47,157.936 262.796,148.984C260.56,144.58 257.812,140.25 254.658,136.006C242.632,119.521 225.063,104.079 207.067,91.766L200,70.795L192.933,91.766C174.937,104.079 157.368,119.521 145.342,136.006C142.188,140.25 139.44,144.58 137.204,148.984C132.53,157.936 129.784,167.029 129.724,175.955L119.15,175.955L119.15,313.28ZM200,253.017C215.286,263.529 226.915,266.721 228.009,277.29L228.009,333.535L171.991,333.535L171.991,277.29C173.085,266.721 184.714,263.529 200,253.017ZM200,192.117C201.308,192.668 212.715,197.604 212.715,202.157L212.715,234.575L187.285,234.575L187.285,202.157C187.285,197.604 198.692,192.668 200,192.117ZM166.893,202.157L166.893,234.575L141.22,234.575L141.22,202.157C141.22,197.328 154.056,192.066 154.056,192.066C154.056,192.066 166.893,197.838 166.893,202.157ZM233.107,202.157C233.107,197.838 245.944,192.066 245.944,192.066C245.944,192.066 258.78,197.328 258.78,202.157L258.78,234.575L233.107,234.575L233.107,202.157ZM49.357,259.158L101.929,299.926L101.929,158.097L114.755,158.097C117.413,147.864 119.907,141.377 122.349,136.739L122.349,106.946C122.349,104.573 123.268,102.413 124.769,100.802C127.167,99.929 129.353,98.967 131.293,97.929L131.416,97.929L131.416,97.862C137.58,94.535 141.22,90.433 141.22,85.998C138.331,86.807 135.04,87.58 131.416,88.286L131.416,88.021C124.709,69.933 109.095,49.539 96.154,44.273L90.238,12.275L84.32,44.289C71.181,49.704 54.931,70.847 49.357,88.021L49.357,88.343C45.619,87.622 42.225,86.829 39.257,85.998C39.257,91.92 45.749,97.249 56.077,100.934C57.506,102.53 58.375,104.638 58.375,106.946L58.375,137.318L49.357,137.318L49.357,152.353L58.375,152.353L58.375,242.237L49.357,242.237L49.357,259.158ZM112.104,117.623L112.104,137.318L68.621,137.318L68.621,117.496C68.652,112.734 83.047,101.008 90.367,101.008C97.687,101.008 112.104,112.796 112.104,117.623ZM298.071,299.926L350.643,259.158L350.643,242.237L341.625,242.237L341.625,152.353L350.643,152.353L350.643,137.318L341.625,137.318L341.625,106.946C341.625,104.638 342.494,102.53 343.923,100.934C354.251,97.249 360.743,91.92 360.743,85.998C357.775,86.829 354.381,87.622 350.643,88.343L350.643,88.021C345.069,70.847 328.819,49.704 315.68,44.289L309.762,12.275L303.846,44.273C290.905,49.539 275.291,69.933 268.584,88.021L268.584,88.286C264.96,87.58 261.669,86.807 258.78,85.998C258.78,90.433 262.42,94.535 268.584,97.862L268.584,97.929L268.707,97.929C270.647,98.967 272.833,99.929 275.231,100.802C276.732,102.413 277.651,104.573 277.651,106.946L277.651,136.739C280.093,141.377 282.587,147.864 285.245,158.097L298.071,158.097L298.071,299.926ZM287.896,117.623C287.896,112.796 302.313,101.008 309.633,101.008C316.953,101.008 331.348,112.734 331.379,117.496L331.379,137.318L287.896,137.318L287.896,117.623Z"/>
    </g>
    <g transform="matrix(0.723831,0,0,0.723831,8.85302,-22.7944)">
        <path d="M392.565,452.993L392.565,267.174L375.762,267.174C372.279,253.767 369.012,245.268 365.811,239.192L365.811,200.158C365.811,197.049 364.607,194.219 362.641,192.108C359.499,190.965 356.635,189.704 354.094,188.344L353.932,188.344L353.932,188.257C345.857,183.898 341.088,178.523 341.088,172.713C344.872,173.773 349.185,174.785 353.932,175.71L353.932,175.364C362.719,151.665 383.176,124.946 400.131,118.047L407.882,76.123L415.636,118.068C432.85,125.162 454.14,152.863 461.443,175.364L461.443,175.785C466.34,174.841 470.787,173.802 474.676,172.713C474.676,180.472 466.17,187.454 452.639,192.282C450.767,194.373 449.628,197.134 449.628,200.158L449.628,239.95L461.443,239.95L461.443,259.649L449.628,259.649L449.628,377.411L461.443,377.411L461.443,399.58L392.565,452.993ZM158.151,470.489L158.151,290.571L172.003,290.571C172.082,278.877 175.68,266.964 181.804,255.234C184.734,249.464 188.334,243.791 192.466,238.232C208.221,216.633 231.24,196.402 254.818,180.27L264.077,152.794L273.336,180.27C296.914,196.402 319.932,216.633 335.688,238.232C339.819,243.791 343.42,249.464 346.35,255.234C352.474,266.964 356.071,278.877 356.15,290.571L370.003,290.571L370.003,470.489L264.077,552.631L158.151,470.489ZM66.71,399.58L66.71,377.411L78.525,377.411L78.525,259.649L66.71,259.649L66.71,239.95L78.525,239.95L78.525,200.158C78.525,197.134 77.386,194.373 75.514,192.282C61.983,187.454 53.477,180.472 53.477,172.713C57.366,173.802 61.813,174.841 66.71,175.785L66.71,175.364C74.013,152.863 95.303,125.162 112.517,118.068L120.271,76.123L128.022,118.047C144.977,124.946 165.434,151.665 174.221,175.364L174.221,175.71C178.968,174.785 183.281,173.773 187.065,172.713C187.065,178.523 182.296,183.898 174.221,188.257L174.221,188.344L174.059,188.344C171.518,189.704 168.654,190.965 165.512,192.108C163.546,194.219 162.342,197.049 162.342,200.158L162.342,239.192C159.142,245.268 155.874,253.767 152.391,267.174L135.588,267.174L135.588,452.993L66.71,399.58ZM379.234,214.147L379.234,239.95L436.204,239.95L436.204,213.98C436.164,207.741 417.303,192.378 407.713,192.378C398.123,192.378 379.234,207.822 379.234,214.147ZM148.919,214.147C148.919,207.822 130.03,192.378 120.44,192.378C110.85,192.378 91.989,207.741 91.949,213.98L91.949,239.95L148.919,239.95L148.919,214.147ZM264.077,311.746C262.363,312.468 247.418,318.935 247.418,324.9L247.418,367.372L280.735,367.372L280.735,324.9C280.735,318.935 265.791,312.468 264.077,311.746ZM307.452,324.9L307.452,367.372L341.088,367.372L341.088,324.9C341.088,318.573 324.27,311.68 324.27,311.68C324.27,311.68 307.452,319.241 307.452,324.9ZM220.701,324.9C220.701,319.241 203.883,311.68 203.883,311.68C203.883,311.68 187.065,318.573 187.065,324.9L187.065,367.372L220.701,367.372L220.701,324.9ZM264.077,391.534C244.049,405.307 228.814,409.49 227.38,423.336L227.38,497.026L300.773,497.026L300.773,423.336C299.339,409.49 284.104,405.307 264.077,391.534Z" style="fill:rgb(188,190,192);"/>
    </g>
</svg>
