<?xml version="1.0" encoding="UTF-8" standalone="no"?>
<!DOCTYPE svg PUBLIC "-//W3C//DTD SVG 1.1//EN" "http://www.w3.org/Graphics/SVG/1.1/DTD/svg11.dtd">
<svg width="100%" height="100%" viewBox="0 0 188 420" version="1.1" xmlns="http://www.w3.org/2000/svg" xmlns:xlink="http://www.w3.org/1999/xlink" xml:space="preserve" xmlns:serif="http://www.serif.com/" style="fill-rule:evenodd;clip-rule:evenodd;stroke-linejoin:round;stroke-miterlimit:2;">
    <g transform="matrix(1,0,0,1,-793.938,2.98094e-13)">
        <g transform="matrix(1.04883,0,0,1.04883,-227.503,-2.98094e-13)">
            <path d="M1094.92,249.088L1103.24,227.937C1112.25,238.997 1117.76,253.802 1117.76,270.06L1117.76,384.494L1008.82,384.494L1008.82,270.06C1008.82,253.826 1014.31,239.04 1023.29,227.986L1031.6,249.212C1028.14,256.78 1026.14,265.684 1026.14,275.207L1026.14,367.172L1100.44,367.172L1100.44,275.207C1100.44,265.631 1098.42,256.683 1094.92,249.088Z" style="fill:rgb(187,189,191);"/>
            <path d="M1063.07,286.427L997.137,117.929L1035.41,115.048L1063.3,172.097L1090.6,114.76L1128.87,117.929L1063.07,286.427ZM1038.97,96.608L1037.78,92.286L1063,40.424L1087.92,93.15L1085.85,97.184L1079.91,96.32L1063,130.895L1045.8,96.32L1038.97,96.608Z" style="fill:rgb(187,189,191);"/>
        </g>
        <g transform="matrix(1.04883,0,0,1.04883,-227.503,-2.98094e-13)">
            <path d="M1016.42,210.413L973.886,101.695L1021.63,99.444L1018.85,92.691L1063.15,0L1107.87,92.524L1104.37,98.944L1152.69,102.249L1110.14,210.399C1124.87,223.821 1134.17,243.458 1134.17,265.319L1134.17,400.448L992.408,400.448L992.408,265.319C992.408,243.466 1001.7,223.836 1016.42,210.413ZM1094.92,249.088L1103.24,227.937C1112.25,238.997 1117.76,253.802 1117.76,270.06L1117.76,384.494L1008.82,384.494L1008.82,270.06C1008.82,253.826 1014.31,239.04 1023.29,227.986L1031.6,249.212C1028.14,256.78 1026.14,265.684 1026.14,275.207L1026.14,367.172L1100.44,367.172L1100.44,275.207C1100.44,265.631 1098.42,256.683 1094.92,249.088ZM1063.3,172.097L1090.6,114.76L1128.87,117.929L1063.07,286.427L997.137,117.929L1035.41,115.048L1063.3,172.097ZM1063,40.424L1087.92,93.15L1085.85,97.184L1079.91,96.32L1063,130.895L1045.8,96.32L1038.97,96.608L1037.78,92.286L1063,40.424Z"/>
        </g>
    </g>
</svg>
