<?xml version="1.0" encoding="UTF-8" standalone="no"?>
<!DOCTYPE svg PUBLIC "-//W3C//DTD SVG 1.1//EN" "http://www.w3.org/Graphics/SVG/1.1/DTD/svg11.dtd">
<svg width="100%" height="100%" viewBox="0 0 222 420" version="1.1" xmlns="http://www.w3.org/2000/svg" xmlns:xlink="http://www.w3.org/1999/xlink" xml:space="preserve" xmlns:serif="http://www.serif.com/" style="fill-rule:evenodd;clip-rule:evenodd;stroke-linejoin:round;stroke-miterlimit:2;">
    <g transform="matrix(1,0,0,1,-521.724,-2.84217e-13)">
        <g transform="matrix(1,0,0,1,-142.782,0)">
            <path d="M664.506,129.487L723.548,126.62L720.109,118.022L774.883,0L830.181,117.809L825.854,125.984L885.6,130.191L774.878,420L664.506,129.487ZM693.257,150.157L740.582,146.488L775.067,219.127L808.819,146.121L856.144,150.157L774.788,364.701L693.257,150.157ZM744.984,123.009L743.517,117.506L774.7,51.471L805.517,118.607L802.949,123.743L795.611,122.642L774.7,166.666L753.422,122.642L744.984,123.009Z"/>
        </g>
        <g transform="matrix(1,0,0,1,-142.782,0)">
            <path d="M693.257,150.157L740.582,146.488L775.067,219.127L808.819,146.121L856.144,150.157L774.788,364.701L693.257,150.157ZM744.984,123.009L743.517,117.506L774.7,51.471L805.517,118.607L802.949,123.743L795.611,122.642L774.7,166.666L753.422,122.642L744.984,123.009Z" style="fill:rgb(187,189,191);"/>
        </g>
    </g>
</svg>
