<?xml version="1.0" encoding="UTF-8" standalone="no"?>
<!DOCTYPE svg PUBLIC "-//W3C//DTD SVG 1.1//EN" "http://www.w3.org/Graphics/SVG/1.1/DTD/svg11.dtd">
<svg width="100%" height="100%" viewBox="0 0 400 400" version="1.1" xmlns="http://www.w3.org/2000/svg" xmlns:xlink="http://www.w3.org/1999/xlink" xml:space="preserve" xmlns:serif="http://www.serif.com/" style="fill-rule:evenodd;clip-rule:evenodd;stroke-linejoin:round;stroke-miterlimit:2;">
    <g transform="matrix(10.1652,0,0,10.1652,203.558,213.469)">
        <path d="M0.4,-19L0.4,-14.5L6.75,-14.5L6.75,-13.4C5.917,-12.667 5.25,-11.683 4.75,-10.45C4.217,-9.183 3.95,-7.867 3.95,-6.5C3.95,-5 4.217,-3.333 4.75,-1.5C5.317,0.467 5.983,1.8 6.75,2.5L6.75,3.6L0.4,3.6L0.4,8.15L6.75,7.95C8.117,7.917 9.117,6.9 9.75,4.9C10.283,3.233 10.417,1.783 10.15,0.55C9.817,-0.917 9.733,-2.083 9.9,-2.95C10.067,-3.617 10.317,-4.133 10.65,-4.5C11.117,-5.067 11.583,-5 12.05,-4.3C12.483,-3.667 12.583,-3.15 12.35,-2.75L11.85,-2.35L11.4,-2.8C11.067,-2.933 10.9,-2.55 10.9,-1.65C10.9,-1.317 11.3,-0.25 12.1,1.55C12.9,3.35 13.3,5.567 13.3,8.2C13.3,11.233 12.217,13.45 10.05,14.85C8.417,15.85 6.317,16.35 3.75,16.35L-4.45,16.35C-7.017,16.35 -9.1,15.85 -10.7,14.85L-10.95,14.7C-12.983,13.267 -14,11.1 -14,8.2C-14,5.567 -13.6,3.35 -12.8,1.55C-12,-0.25 -11.6,-1.317 -11.6,-1.65C-11.6,-2.55 -11.75,-2.933 -12.05,-2.8L-12.55,-2.35L-13.05,-2.75C-13.283,-3.15 -13.183,-3.667 -12.75,-4.3C-12.283,-5 -11.817,-5.067 -11.35,-4.5L-10.95,-3.9L-10.6,-2.95C-10.433,-2.083 -10.517,-0.917 -10.85,0.55L-10.95,2.25C-10.917,3.083 -10.75,3.967 -10.45,4.9C-9.817,6.9 -8.817,7.917 -7.45,7.95L-1.25,8.1L-1.25,3.6L-3.9,3.6C-5.333,3.567 -6.55,2.633 -7.55,0.8C-8.617,-1.167 -9.15,-3.6 -9.15,-6.5C-9.15,-8.567 -8.617,-10.4 -7.55,-12C-6.483,-13.633 -5.267,-14.467 -3.9,-14.5L-1.25,-14.5L-1.25,-19L0.4,-19" style="fill:rgb(188,190,192);"/>
    </g>
    <g transform="matrix(10.1652,0,0,10.1652,203.558,213.469)">
        <path d="M0.4,-19L-1.25,-19L-1.25,-14.5L-3.9,-14.5C-5.267,-14.467 -6.483,-13.633 -7.55,-12C-8.617,-10.4 -9.15,-8.567 -9.15,-6.5C-9.15,-3.6 -8.617,-1.167 -7.55,0.8C-6.55,2.633 -5.333,3.567 -3.9,3.6L-1.25,3.6L-1.25,8.1L-7.45,7.95C-8.817,7.917 -9.817,6.9 -10.45,4.9C-10.75,3.967 -10.917,3.083 -10.95,2.25L-10.85,0.55C-10.517,-0.917 -10.433,-2.083 -10.6,-2.95L-10.95,-3.9L-11.35,-4.5C-11.817,-5.067 -12.283,-5 -12.75,-4.3C-13.183,-3.667 -13.283,-3.15 -13.05,-2.75L-12.55,-2.35L-12.05,-2.8C-11.75,-2.933 -11.6,-2.55 -11.6,-1.65C-11.6,-1.317 -12,-0.25 -12.8,1.55C-13.6,3.35 -14,5.567 -14,8.2C-14,11.1 -12.983,13.267 -10.95,14.7L-10.7,14.85C-9.1,15.85 -7.017,16.35 -4.45,16.35L3.75,16.35C6.317,16.35 8.417,15.85 10.05,14.85C12.217,13.45 13.3,11.233 13.3,8.2C13.3,5.567 12.9,3.35 12.1,1.55C11.3,-0.25 10.9,-1.317 10.9,-1.65C10.9,-2.55 11.067,-2.933 11.4,-2.8L11.85,-2.35L12.35,-2.75C12.583,-3.15 12.483,-3.667 12.05,-4.3C11.583,-5 11.117,-5.067 10.65,-4.5C10.317,-4.133 10.067,-3.617 9.9,-2.95C9.733,-2.083 9.817,-0.917 10.15,0.55C10.417,1.783 10.283,3.233 9.75,4.9C9.117,6.9 8.117,7.917 6.75,7.95L0.4,8.15L0.4,3.6L6.75,3.6L6.75,2.5C5.983,1.8 5.317,0.467 4.75,-1.5C4.217,-3.333 3.95,-5 3.95,-6.5C3.95,-7.867 4.217,-9.183 4.75,-10.45C5.25,-11.683 5.917,-12.667 6.75,-13.4L6.75,-14.5L0.4,-14.5L0.4,-19M8.75,-16.5L8.75,-12.5L8.1,-11.9C7.5,-11.4 7,-10.7 6.6,-9.8C6.167,-8.767 5.95,-7.667 5.95,-6.5C5.95,-5.133 6.2,-3.633 6.7,-2C7.167,-0.4 7.633,0.6 8.1,1L8.2,1.15L8.2,1C7.8,-0.8 7.717,-2.25 7.95,-3.35C8.117,-4.183 8.45,-4.917 8.95,-5.55C9.617,-6.45 10.4,-6.9 11.3,-6.9C12.267,-6.9 13.083,-6.417 13.75,-5.45C14.483,-4.317 14.667,-3.25 14.3,-2.25C14.133,-1.717 13.767,-1.233 13.2,-0.8L14.65,2.7C15.083,4.267 15.3,6.1 15.3,8.2C15.3,11.367 14.283,13.85 12.25,15.65C10.217,17.45 7.383,18.35 3.75,18.35L-4.45,18.35C-7.017,18.35 -9.183,17.9 -10.95,17L-12.95,15.65C-14.983,13.85 -16,11.367 -16,8.2C-16,6.1 -15.783,4.267 -15.35,2.7L-13.9,-0.8C-14.4,-1.2 -14.767,-1.683 -15,-2.25C-15.367,-3.25 -15.167,-4.317 -14.4,-5.45C-13.767,-6.417 -12.967,-6.9 -12,-6.9L-11.15,-6.75L-10.95,-8.75C-10.65,-10.517 -9.983,-12.1 -8.95,-13.5L-7.35,-15.2C-6.317,-16.033 -5.183,-16.467 -3.95,-16.5L-3.25,-16.5L-3.25,-21L2.4,-21L2.4,-16.5L8.75,-16.5"/>
    </g>
</svg>
